<?xml version="1.0" encoding="UTF-8" standalone="no"?>
<!-- Created with Inkscape (http://www.inkscape.org/) -->

<svg
   xmlns:dc="http://purl.org/dc/elements/1.1/"
   xmlns:cc="http://creativecommons.org/ns#"
   xmlns:rdf="http://www.w3.org/1999/02/22-rdf-syntax-ns#"
   xmlns:svg="http://www.w3.org/2000/svg"
   xmlns="http://www.w3.org/2000/svg"
   xmlns:sodipodi="http://sodipodi.sourceforge.net/DTD/sodipodi-0.dtd"
   xmlns:inkscape="http://www.inkscape.org/namespaces/inkscape"
   width="512"
   height="512"
   viewBox="0 0 512 512"
   version="1.1"
   id="svg8"
   inkscape:version="0.92.4 (5da689c313, 2019-01-14)"
   sodipodi:docname="垢.svg">
  <defs
     id="defs2" />
  <sodipodi:namedview
     id="base"
     pagecolor="#ffffff"
     bordercolor="#666666"
     borderopacity="1.0"
     inkscape:pageopacity="0.0"
     inkscape:pageshadow="2"
     inkscape:zoom="0.98994949"
     inkscape:cx="63.036974"
     inkscape:cy="184.05452"
     inkscape:document-units="px"
     inkscape:current-layer="layer1"
     showgrid="false"
     units="px"
     viewbox-height="550"
     inkscape:window-width="1920"
     inkscape:window-height="1001"
     inkscape:window-x="-9"
     inkscape:window-y="-9"
     inkscape:window-maximized="1"
     viewbox-width="550">
    <inkscape:grid
       type="xygrid"
       id="grid3732" />
  </sodipodi:namedview>
  <metadata
     id="metadata5">
    <rdf:RDF>
      <cc:Work
         rdf:about="">
        <dc:format>image/svg+xml</dc:format>
        <dc:type
           rdf:resource="http://purl.org/dc/dcmitype/StillImage" />
        <dc:title></dc:title>
      </cc:Work>
    </rdf:RDF>
  </metadata>
  <g
     inkscape:label="圖層 1"
     inkscape:groupmode="layer"
     id="layer1"
     transform="translate(0,-189.47915)">
    <path
       style="fill:#000000;stroke:none;stroke-width:1px;stroke-linecap:butt;stroke-linejoin:miter;stroke-opacity:1;fill-opacity:1"
       d="M 74.246212,412.07045 C 79.416814,411.45826 84.66022,412.90459 89.857613,412.59315 96.504968,412.19482 103.22716,411.47202 109.60155,409.54506 116.88396,407.34361 123.19677,402.64793 130.30968,399.94862 141.81321,395.5831 153.60293,391.76996 165.66502,389.34201 172.73672,387.91856 180.06582,385.89113 187.1846,387.05648 193.04197,388.01534 202.78608,388.57787 203.36717,394.48469 203.97122,400.62489 193.7396,402.29332 188.37242,405.3364 180.65904,409.70973 172.02887,412.22232 163.92481,415.82045 154.86496,419.84294 145.93528,424.15318 136.90105,428.23289 126.95734,432.7233 117.07196,437.35596 106.98426,441.51281 98.857396,444.86166 91.131927,450.84392 82.3423,450.90004 78.140722,450.92687 73.854252,449.10287 70.506726,446.56357 64.673105,442.13841 59.384533,435.85664 57.670609,428.73796 56.673969,424.59848 56.770461,419.29351 59.599,416.11106 62.963652,412.32542 69.216569,412.66595 74.246212,412.07045 Z"
       id="path4811"
       inkscape:connector-curvature="0"
       sodipodi:nodetypes="aaaaaaaaaaaaaaaa" />
    <path
       style="fill:#000000;stroke:none;stroke-width:1px;stroke-linecap:butt;stroke-linejoin:miter;stroke-opacity:1;fill-opacity:1"
       d="M 77.024132,541.87505 C 83.199986,538.53904 90.023538,536.57211 96.469568,533.79383 105.18994,530.0353 113.80882,526.0455 122.481,522.17707 130.98145,518.38525 139.52641,514.69203 147.98735,510.81285 158.39326,506.04195 168.68392,501.02346 179.04954,496.16565 185.18782,493.28897 190.75997,488.43382 197.48482,487.57935 199.77787,487.288 203.78318,486.58984 204.30335,488.84204 205.48165,493.9438 195.93672,495.14187 191.67645,498.18595 186.85082,501.634 181.82255,504.79464 177.02924,508.28747 172.56594,511.53983 168.21041,514.94001 163.89725,518.389 157.82807,523.24218 151.9858,528.37317 145.96704,533.28875 139.6133,538.47791 133.00198,543.35397 126.77414,548.69358 121.66283,553.0759 116.73927,557.67626 111.8744,562.33064 106.62719,567.3508 102.24605,573.33461 96.469568,577.73546 93.080944,580.31711 89.61595,584.17775 85.35789,584.04891 81.04039,583.91827 77.629436,579.95387 74.49875,576.97785 69.824668,572.53469 64.975823,567.50096 63.134534,561.32048 62.147937,558.00886 61.948396,553.97972 63.63961,550.96642 66.279314,546.26316 72.27879,544.43834 77.024132,541.87505 Z"
       id="path4813"
       inkscape:connector-curvature="0"
       sodipodi:nodetypes="aaaaaaaaaaaaaaaaaaa" />
    <path
       style="fill:#000000;stroke:none;stroke-width:1px;stroke-linecap:butt;stroke-linejoin:miter;stroke-opacity:1;fill-opacity:1"
       d="M 114.14724,343.88515 C 115.26001,349.26819 118.93186,353.79708 121.72338,358.53236 123.57301,361.6699 126.07244,364.40894 127.7843,367.62373 129.2391,370.35577 130.71916,373.17364 131.31983,376.21003 132.03862,379.84351 131.4657,383.62069 131.31983,387.32171 131.0671,393.73427 129.68879,400.09812 129.8046,406.51461 129.88411,410.92026 130.94024,415.2566 131.31983,419.64659 132.07526,428.3832 132.50815,437.14744 132.83506,445.91056 133.20542,455.83825 133.03263,465.78023 133.34014,475.71006 133.60097,484.13248 134.361,492.53821 134.47656,500.96387 134.50946,503.36313 134.19815,505.76656 134.35029,508.16121 134.64695,512.83038 134.72275,517.67202 136.3706,522.0508 137.02439,523.7881 137.55011,526.86299 139.40105,526.72276 142.2562,526.50646 142.3484,521.69636 142.93658,518.89408 143.76663,514.93942 142.69718,510.81149 142.81032,506.77225 142.89261,503.8344 143.16533,500.90467 143.39553,497.9747 143.73757,493.62129 144.16586,489.27502 144.57808,484.9277 145.38459,476.42216 146.45571,467.94045 147.10346,459.42135 147.76495,450.7216 147.93864,441.99092 148.49242,433.28365 149.07105,424.18575 149.57319,415.07727 150.51273,406.00953 151.30045,398.40704 152.52827,390.85661 153.54319,383.2811 154.12969,378.9034 154.62682,374.51262 155.31095,370.14912 155.7547,367.31881 157.74981,364.401 156.82618,361.68909 155.63499,358.19158 151.64715,356.35579 148.61869,354.23921 143.52992,350.68268 137.54402,348.61694 132.12337,345.59021 128.77469,343.72039 125.83255,341.02991 122.22845,339.71827 119.78359,338.8285 116.56643,336.84131 114.52604,338.45558 113.10323,339.58125 113.77997,342.10846 114.14724,343.88515 Z"
       id="path4815"
       inkscape:connector-curvature="0"
       sodipodi:nodetypes="aaaaaaaaaaaaaaaaaaaaaaaaaaaa" />
    <path
       style="fill:#000000;stroke:none;stroke-width:1px;stroke-linecap:butt;stroke-linejoin:miter;stroke-opacity:1;fill-opacity:1"
       d="M 302.96918,345.48694 C 307.51965,341.95164 312.6369,339.2132 317.5,336.12201 325.44466,331.07206 333.93608,326.82133 341.42857,321.12201 345.92198,317.704 350.22199,313.95194 353.92857,309.69344 356.96371,306.20635 360.56418,302.72353 361.78571,298.26486 362.69045,294.96249 358.78296,290.54339 361.0931,288.01605 363.86276,284.98596 369.40933,286.80235 373.40555,287.74184 377.42992,288.68795 381.3602,290.69339 384.38288,293.51368 387.02643,295.98023 391.38866,299.3703 390.08294,302.74184 388.30742,307.32652 380.12688,304.28259 375.90183,306.79668 371.88051,309.18954 369.27953,313.41176 366.07143,316.81835 363.81431,319.21511 361.71453,321.75728 359.44788,324.14503 356.60865,327.13594 354.02009,330.44228 350.71429,332.90772 345.11905,337.08061 338.5837,339.84221 332.28336,342.84644 326.14503,345.77343 319.80463,348.26698 313.45568,350.70359 310.39802,351.87706 307.43362,353.54327 304.18482,353.95748 301.04013,354.35842 295.74199,356.15699 294.70785,353.16026 293.48182,349.60747 300.00124,347.79276 302.96918,345.48694 Z"
       id="path4817"
       inkscape:connector-curvature="0"
       sodipodi:nodetypes="aaaaaaaaaaaaaaaaaa" />
    <path
       style="fill:#000000;stroke:none;stroke-width:1px;stroke-linecap:butt;stroke-linejoin:miter;stroke-opacity:1;fill-opacity:1"
       d="M 244.07811,353.22906 C 246.47729,356.52708 251.62574,356.70839 254.55844,359.54251 257.44629,362.33329 259.436,366.00023 261.12443,369.64404 263.34141,374.42851 265.17485,379.54649 265.67012,384.79633 266.20666,390.48366 264.39739,396.15156 263.90236,401.84265 263.43434,407.22312 263.1306,412.61664 262.76593,418.00509 262.41563,423.18122 262.16044,428.36402 261.75577,433.53618 261.21511,440.44659 260.54951,447.347 259.86174,454.24432 258.96702,463.21704 258.59358,472.27206 256.95755,481.13962 254.70706,493.33773 251.34969,505.33899 247.48738,517.12631 245.34571,523.66241 242.62948,530.00111 239.91123,536.31921 236.6071,543.9991 233.41022,551.76464 229.30463,559.04764 226.44409,564.12203 222.99161,568.84565 219.5819,573.56858 214.68336,580.35376 209.8085,587.2024 204.17708,593.39283 200.87106,597.02703 197.05081,600.15823 193.44421,603.49435 191.60689,605.19389 188.62906,606.1544 187.88837,608.54512 187.18441,610.81729 187.35471,614.52711 189.52987,615.48992 192.31574,616.72306 195.08055,612.88077 197.52763,611.06597 200.33979,608.98042 202.54223,606.17871 205.06097,603.74689 211.2715,597.75068 217.86411,592.13299 223.74879,585.81668 228.63824,580.5686 233.44827,575.18596 237.51212,569.27544 242.04954,562.67615 245.70794,555.49502 249.25514,548.31477 253.82287,539.06877 258.41984,529.74523 261.50324,519.90423 264.98314,508.79779 266.64089,497.183 268.44804,485.68531 270.27187,474.08145 271.26828,462.35985 272.37136,450.66545 273.09148,443.03101 273.52697,435.37237 274.13015,427.7278 274.92791,417.61727 275.49214,407.48387 276.59053,397.40156 277.27988,391.07393 279.82421,384.81535 279.18091,378.48287 278.54051,372.1789 276.11994,365.99065 272.86746,360.55267 268.53958,353.31667 261.82986,347.7797 255.82113,341.86485 252.37859,338.47609 249.64596,331.08719 244.96199,332.26839 241.65647,333.10197 241.63727,338.46236 241.42646,341.86484 241.18591,345.74722 241.78984,350.0835 244.07811,353.22906 Z"
       id="path4819"
       inkscape:connector-curvature="0"
       sodipodi:nodetypes="aaaaaaaaaaaaaaaaaaaaaaaaaaaaaaaaa" />
    <path
       style="fill:#000000;stroke:none;stroke-width:1px;stroke-linecap:butt;stroke-linejoin:miter;stroke-opacity:1;fill-opacity:1"
       d="M 301.25,405.22915 C 306.07823,404.05293 311.16235,404.39417 316.07143,403.62201 323.03679,402.52641 329.92147,400.94836 336.78571,399.33629 347.03205,396.92992 357.14859,394.00082 367.32143,391.30058 374.88525,389.29287 382.4416,387.25716 390,385.22915 397.08439,383.32832 404.61105,382.63353 411.25,379.51487 413.95561,378.24391 415.75741,375.34474 418.57143,374.33629 421.66146,373.22892 425.13504,373.22059 428.39286,373.62201 433.11939,374.2044 437.53083,376.34741 441.96429,378.08629 444.89023,379.2339 448.52784,379.5969 450.53572,382.01486 451.94682,383.71416 452.80906,386.33749 452.14286,388.44344 451.26464,391.21965 448.22754,393.04747 445.53571,394.15772 441.56423,395.79578 436.96225,394.725 432.67857,395.05058 426.18712,395.54395 419.679,395.88972 413.21429,396.65772 407.05313,397.38967 400.89645,398.25399 394.82143,399.51487 386.50939,401.24004 378.4258,403.93107 370.17857,405.94344 362.35073,407.85348 354.43855,409.40517 346.60715,411.30057 340.09638,412.87635 333.70155,414.93797 327.14285,416.30058 321.59529,417.45312 316.01683,419.24721 310.35715,418.97915 304.89161,418.72029 298.43189,418.63992 294.46429,414.872 292.88077,413.36818 291.55368,410.59012 292.5,408.622 293.85558,405.80272 298.21063,405.96958 301.25,405.22915 Z"
       id="path4821"
       inkscape:connector-curvature="0"
       sodipodi:nodetypes="aaaaaaaaaaaaaaaaaaaaaa" />
    <path
       style="fill:#000000;stroke:none;stroke-width:1px;stroke-linecap:butt;stroke-linejoin:miter;stroke-opacity:1;fill-opacity:1"
       d="M 300,477.01487 C 304.87478,478.74925 309.79257,480.52052 314.28571,483.08629 316.984,484.62712 320.43038,485.82594 321.78571,488.62201 325.81213,496.92858 320.81111,507.06995 320.89286,516.30057 320.96675,524.64399 321.671,532.97019 322.14286,541.30058 322.40932,546.00483 323.16415,550.69768 323.03571,555.40772 322.88376,560.97995 323.54632,567.02009 321.07142,572.01487 319.96873,574.2403 318.1364,577.74287 315.71429,577.19344 310.38767,575.98516 311.19025,567.16696 310,561.83629 308.28185,554.1414 308.75225,546.11662 308.03571,538.26487 307.53047,532.72852 307.03664,527.1898 306.38941,521.66825 305.7806,516.4745 305.73911,511.14529 304.28572,506.12201 303.0124,501.72111 300.80907,497.61978 298.57143,493.62201 296.43465,489.80443 293.45302,486.50889 291.25,482.72915 289.44037,479.62435 284.12872,475.84768 286.42857,473.08629 289.44253,469.46749 295.56293,475.43622 300,477.01487 Z"
       id="path4823"
       inkscape:connector-curvature="0"
       sodipodi:nodetypes="aaaaaaaaaaaaaaaa" />
    <path
       style="fill:#000000;stroke:none;stroke-width:1px;stroke-linecap:butt;stroke-linejoin:miter;stroke-opacity:1;fill-opacity:1"
       d="M 337.49475,477.77247 C 337.84096,475.31786 341.05537,474.18359 343.29175,473.11421 347.73639,470.9889 352.92071,471.02358 357.73087,469.95867 367.42168,467.81324 377.03038,465.27323 386.78572,463.44344 391.95382,462.47407 397.26553,462.29214 402.38271,461.0824 405.52892,460.33861 408.8291,459.73987 411.60714,458.08629 414.42913,456.40655 415.64099,452.3585 418.75,451.30058 421.46947,450.37521 424.6029,451.2653 427.32143,452.19344 433.10908,454.16941 438.19704,457.96636 442.92214,461.84898 444.99058,463.54862 447.95426,465.08815 448.39286,467.72915 448.89487,470.75192 445.74544,473.26308 444.64286,476.12201 443.4711,479.16034 442.69675,482.33898 441.60714,485.40772 439.77253,490.57466 437.5872,495.61168 435.71429,500.76486 433.58597,506.62079 431.44666,512.47956 429.64286,518.44344 427.60107,525.19416 426.06094,532.08654 424.27303,538.9089 422.96201,543.9115 422.11283,549.05808 420.34445,553.91787 419.30091,556.78567 419.43937,561.69512 416.42857,562.19344 413.72914,562.64022 412.16082,558.6231 410.71429,556.30058 409.12361,553.74661 407.89204,550.8037 407.6696,547.80312 407.31526,543.02327 409.72273,538.43393 410.47072,533.69969 411.21372,528.99701 411.48611,524.23036 412.14286,519.51486 412.93275,513.84346 414.0769,508.22524 414.87002,502.55429 415.48929,498.12641 415.97881,493.68089 416.45549,489.2354 416.73412,486.63686 417.70877,483.99408 417.20041,481.43056 416.8646,479.73713 416.24122,477.76909 414.77811,476.8527 411.76174,474.96347 407.65042,476.14325 404.10714,476.47915 399.30577,476.93431 394.67497,478.5081 390,479.69344 384.42833,481.10614 378.85102,482.53414 373.39286,484.33629 369.27795,485.69493 365.38328,487.67749 361.25,488.97915 359.61137,489.49519 357.95852,490.40898 356.25,490.22915 353.28484,489.91705 350.851,487.69246 348.21429,486.30058 345.55039,484.89434 342.58786,483.86058 340.35714,481.83629 339.13014,480.72283 337.26334,479.41314 337.49475,477.77247 Z"
       id="path4825"
       inkscape:connector-curvature="0"
       sodipodi:nodetypes="aaaaaaaaaaaaaaaaaaaaaaaaaaaaaaaaa" />
    <path
       style="fill:#000000;stroke:none;stroke-width:1px;stroke-linecap:butt;stroke-linejoin:miter;stroke-opacity:1;fill-opacity:1"
       d="M 343.21429,552.72915 C 350.0874,552.37152 356.91071,551.35537 363.75,550.58629 372.1507,549.64163 380.51069,548.32723 388.92858,547.55058 393.56128,547.12315 398.20927,546.86261 402.85714,546.65772 407.79426,546.44008 412.7552,545.87289 417.67857,546.30058 422.51656,546.72085 427.26362,547.93849 431.96429,549.15772 436.68363,550.3818 442.035,550.64082 445.89286,553.62201 448.1795,555.38903 450.04327,558.09589 450.53572,560.94344 451.08693,564.13074 450.73975,568.18177 448.39286,570.40772 445.32562,573.3169 440.10929,572.85565 435.89286,572.55058 430.89883,572.18925 426.5566,568.66514 421.60714,567.90772 416.01714,567.05228 410.29764,568.02854 404.64286,568.08629 398.63097,568.1477 392.61912,568.21266 386.60714,568.26486 378.63103,568.33411 370.65244,568.2419 362.67857,568.44344 355.76961,568.61807 348.87386,569.18745 341.96429,569.33629 337.14398,569.44013 332.30879,569.68509 327.5,569.33629 324.6202,569.12741 321.25577,569.79539 318.92857,568.08629 317.49089,567.03046 316.84136,565.03315 316.60714,563.26486 316.35267,561.34369 316.56861,559.13918 317.67858,557.55057 319.14612,555.45019 321.85274,554.42574 324.28571,553.62201 327.06955,552.70237 330.10769,552.87815 333.03571,552.72915 336.42419,552.55672 339.82601,552.90545 343.21429,552.72915 Z"
       id="path4827"
       inkscape:connector-curvature="0"
       sodipodi:nodetypes="aaaaaaaaaaaaaaaaaaaaaa" />
  </g>
</svg>
