<?xml version="1.0" encoding="UTF-8" standalone="no"?>
<!-- Created with Inkscape (http://www.inkscape.org/) -->

<svg
   xmlns:dc="http://purl.org/dc/elements/1.1/"
   xmlns:cc="http://creativecommons.org/ns#"
   xmlns:rdf="http://www.w3.org/1999/02/22-rdf-syntax-ns#"
   xmlns:svg="http://www.w3.org/2000/svg"
   xmlns="http://www.w3.org/2000/svg"
   xmlns:sodipodi="http://sodipodi.sourceforge.net/DTD/sodipodi-0.dtd"
   xmlns:inkscape="http://www.inkscape.org/namespaces/inkscape"
   width="512"
   height="512"
   viewBox="0 0 135.46667 135.46667"
   version="1.1"
   id="svg8"
   inkscape:version="0.92.4 (5da689c313, 2019-01-14)"
   sodipodi:docname="審.svg">
  <defs
     id="defs2" />
  <sodipodi:namedview
     id="base"
     pagecolor="#ffffff"
     bordercolor="#666666"
     borderopacity="1.0"
     inkscape:pageopacity="0.0"
     inkscape:pageshadow="2"
     inkscape:zoom="1.4"
     inkscape:cx="178.27946"
     inkscape:cy="261.0402"
     inkscape:document-units="px"
     inkscape:current-layer="layer1"
     showgrid="false"
     units="px"
     viewbox-height="512"
     inkscape:window-width="1920"
     inkscape:window-height="1001"
     inkscape:window-x="-9"
     inkscape:window-y="-9"
     inkscape:window-maximized="1">
    <inkscape:grid
       type="xygrid"
       id="grid3732" />
  </sodipodi:namedview>
  <metadata
     id="metadata5">
    <rdf:RDF>
      <cc:Work
         rdf:about="">
        <dc:format>image/svg+xml</dc:format>
        <dc:type
           rdf:resource="http://purl.org/dc/dcmitype/StillImage" />
        <dc:title></dc:title>
      </cc:Work>
    </rdf:RDF>
  </metadata>
  <g
     inkscape:label="圖層 1"
     inkscape:groupmode="layer"
     id="layer1"
     transform="translate(0,-161.53332)">
    <path
       style="fill:#000000;stroke:none;stroke-width:0.26458335px;stroke-linecap:butt;stroke-linejoin:miter;stroke-opacity:1;fill-opacity:1"
       d="M 54.699812,172.16219 C 55.8858,172.10063 57.056118,172.53642 58.182799,172.91185 59.506847,173.35304 60.779588,173.96091 61.986266,174.66211 63.23498,175.38774 64.647683,176.02545 65.508714,177.18495 66.184431,178.0949 66.514275,179.27388 66.604773,180.40366 66.687752,181.43957 66.180326,182.44266 66.082393,183.47726 65.979526,184.56398 66.409081,185.73313 66.015575,186.75131 65.572968,187.89654 64.704531,189.00234 63.594633,189.52729 62.73316,189.93475 61.611795,189.991 60.737003,189.61299 59.775679,189.19758 59.07744,188.21912 58.653503,187.26153 58.091742,185.99262 58.103931,184.50709 58.202689,183.12291 58.253299,182.41357 58.768391,181.76654 58.73248,181.05631 58.694357,180.30232 58.288224,179.60608 57.951632,178.93032 57.697267,178.41964 57.353436,177.95778 57.024782,177.49143 56.737191,177.08335 56.470242,176.65166 56.11178,176.30418 55.235094,175.45435 53.765691,175.21118 53.140087,174.16266 52.893763,173.74982 52.697271,173.13912 52.953761,172.73251 53.280428,172.21466 54.088357,172.19392 54.699812,172.16219 Z"
       id="path4676"
       inkscape:connector-curvature="0"
       sodipodi:nodetypes="aaaaaaaaaaaaaaaaaa" />
    <path
       style="fill:#000000;stroke:none;stroke-width:0.26458335px;stroke-linecap:butt;stroke-linejoin:miter;stroke-opacity:1;fill-opacity:1"
       d="M 28.531022,186.48404 C 28.756186,187.82016 29.812219,188.88308 30.268276,190.15899 30.577366,191.02373 30.914603,191.91363 30.936449,192.83169 30.966167,194.08058 30.425307,195.27762 30.201458,196.50664 29.906208,198.12768 29.66047,199.75737 29.399649,201.38431 29.171274,202.80886 29.063332,204.25658 28.731475,205.66063 28.344249,207.29894 28.02543,209.00729 27.194675,210.47148 26.945491,210.91066 26.635608,211.36539 26.192415,211.60737 25.505067,211.98266 24.642298,212.09232 23.870018,211.96242 22.771614,211.77768 22.011348,210.21466 20.913841,210.40466 20.511109,210.47438 20.204982,210.91716 20.084356,211.30768 19.881878,211.96318 20.100188,212.7179 20.379302,213.34462 20.679169,214.01794 21.520864,214.3595 21.793931,215.04412 22.063964,215.72114 21.911744,216.49768 21.935672,217.22617 21.954667,217.80448 21.874496,218.3868 21.937063,218.96203 22.000993,219.54979 22.076436,220.15447 22.317006,220.69454 22.537358,221.18922 22.760325,221.81552 23.263914,222.01467 24.099082,222.34495 25.139076,221.95737 25.906965,221.4916 26.866476,220.90961 27.415924,219.81515 28.012697,218.86476 28.574984,217.96929 28.918617,216.95386 29.380078,216.0025 30.188202,214.33645 31.175371,212.74942 31.834142,211.01887 32.525739,209.20209 32.859115,207.26843 33.389121,205.39811 33.983917,203.29916 34.587565,201.20261 35.212762,199.11252 35.711255,197.44601 36.53719,195.85199 36.749562,194.12553 36.927233,192.68117 36.898958,191.16941 36.513327,189.76619 36.229628,188.73388 35.664198,187.77864 35.023774,186.92073 34.402391,186.08832 33.611099,185.3835 32.787766,184.75014 31.928895,184.08944 31.082645,183.01128 30.001004,183.07635 29.494031,183.10685 29.045666,183.56822 28.798293,184.01179 28.394575,184.73571 28.39328,185.66668 28.531022,186.48404 Z"
       id="path4678"
       inkscape:connector-curvature="0"
       sodipodi:nodetypes="aaaaaaaaaaaaaaaaaaaaaaaaaaaaaa" />
    <path
       style="fill:#000000;stroke:none;stroke-width:0.26458335px;stroke-linecap:butt;stroke-linejoin:miter;stroke-opacity:1;fill-opacity:1"
       d="M 48.848675,185.04746 C 50.652789,184.99467 52.406931,184.43927 54.182265,184.114 56.760369,183.64164 61.905068,182.6355 61.905068,182.6355 61.905068,182.6355 68.192855,181.80008 71.343009,181.43377 74.929455,181.01673 78.541824,180.81616 82.115329,180.29984 84.999889,179.88306 87.845257,179.22925 90.714287,178.71636 92.422838,178.41093 94.118433,178.00742 95.844644,177.82678 97.709074,177.63167 99.773754,178.42893 101.46466,177.61961 102.08635,177.32205 102.27081,176.47453 102.82,176.05808 103.36513,175.64473 103.99151,175.19436 104.6755,175.18095 105.97531,175.15547 107.09435,176.14114 108.26416,176.70833 109.09799,177.11263 109.94085,177.51554 110.70314,178.04246 111.94632,178.9018 113.55689,179.60216 114.14406,180.99471 114.44927,181.71854 114.30104,182.62343 113.99422,183.34657 113.42128,184.69691 111.03051,186.5995 111.03051,186.5995 111.03051,186.5995 109.38959,188.76717 108.50684,189.79985 107.69157,190.75359 107.20121,192.47139 105.94978,192.56212 105.09048,192.62443 104.56265,191.53264 103.93871,190.93853 103.392,190.41795 102.55374,189.99307 102.43155,189.24811 102.23208,188.03204 103.52947,187.02831 103.88139,185.84731 104.15918,184.91509 104.53133,183.93717 104.393,182.97433 104.31203,182.41083 104.05436,181.82727 103.6323,181.44523 103.08568,180.95046 102.29887,180.72007 101.56391,180.6616 100.1209,180.5468 98.723194,181.22203 97.310692,181.53874 95.514172,181.94157 93.752421,182.50104 91.942711,182.83972 89.969336,183.20902 87.964135,183.38174 85.97239,183.63382 83.870981,183.89979 81.766675,184.14237 79.663232,184.39174 76.816212,184.72927 73.971263,185.08573 71.12061,185.39106 69.881959,185.52373 68.63385,185.57444 67.400952,185.75282 66.151583,185.93358 64.925477,186.25044 63.682275,186.46963 62.365124,186.70187 61.037648,186.87263 59.720241,187.10341 58.39374,187.33579 57.067848,187.57509 55.751491,187.85936 54.672626,188.09234 53.595372,188.33808 52.532959,188.63726 51.202438,189.01194 49.778693,189.21062 48.586155,189.90957 48.077379,190.20777 47.850759,190.93161 47.289778,191.11347 46.422095,191.39475 45.420732,191.11994 44.573516,190.78197 43.258631,190.25744 41.957915,189.42375 41.161248,188.25355 40.578572,187.39767 40.202566,186.27766 40.355675,185.25365 40.440371,184.68719 40.895064,184.23248 41.267207,183.7971 41.733611,183.25144 42.175828,182.34546 42.892598,182.38444 43.895946,182.43899 44.043899,184.14237 44.940026,184.59694 46.109657,185.19025 47.537727,185.08582 48.848675,185.04746 Z"
       id="path4680"
       inkscape:connector-curvature="0"
       sodipodi:nodetypes="aacaaaaaaaaaaacaaaaaaaaaaaaaaaaaaaaaaaaaaa" />
    <path
       style="fill:#000000;stroke:none;stroke-width:0.26458335px;stroke-linecap:butt;stroke-linejoin:miter;stroke-opacity:1;fill-opacity:1"
       d="M 73.138394,191.82811 C 74.057592,192.08131 74.879203,192.66322 75.59524,193.29277 76.226996,193.84821 76.731207,194.55013 77.154391,195.27714 77.719361,196.24773 78.712116,197.30839 78.430061,198.39545 78.227447,199.17634 77.215955,199.46672 76.54018,199.90736 75.513467,200.57682 74.37534,201.05793 73.280135,201.60825 71.857714,202.32299 70.436212,203.04253 68.980656,203.68711 67.132884,204.50539 65.254801,205.25714 63.358261,205.95497 62.002824,206.45371 60.624453,206.88846 59.247769,207.32514 57.946487,207.7379 56.675559,208.29867 55.326266,208.50631 54.112036,208.69317 52.828404,208.86874 51.640998,208.55356 51.040552,208.39418 50.167771,208.21542 50.034599,207.60862 49.886629,206.9344 50.747043,206.41444 51.215776,205.90772 52.044239,205.01213 53.064296,204.3107 54.050597,203.59262 55.293715,202.68756 56.59406,201.8589 57.924852,201.08853 58.936781,200.50274 59.992579,199.99539 61.043155,199.48213 62.290411,198.87278 63.541613,198.26804 64.822917,197.73399 65.614074,197.40423 66.492522,197.26882 67.232518,196.8363 68.033345,196.36822 68.797893,195.77982 69.358634,195.04091 69.725019,194.55811 69.843314,193.92925 70.114585,193.38727 70.379557,192.85787 70.455967,192.13031 70.96503,191.82811 71.587987,191.45831 72.439953,191.63572 73.138394,191.82811 Z"
       id="path4682"
       inkscape:connector-curvature="0"
       sodipodi:nodetypes="aaaaaaaaaaaaaaaaaaaaaa" />
    <path
       style="fill:#000000;stroke:none;stroke-width:0.26458335px;stroke-linecap:butt;stroke-linejoin:miter;stroke-opacity:1;fill-opacity:1"
       d="M 25.324405,230.0982 C 28.704752,229.90775 31.97996,228.81599 35.246282,227.92484 37.29309,227.36641 39.256233,226.53139 41.293899,225.94047 44.258097,225.08086 47.250621,224.30799 50.270834,223.6726 52.677816,223.16622 55.112329,222.79483 57.546877,222.44418 59.650527,222.14119 61.762933,221.89736 63.877977,221.68823 67.085003,221.37113 70.31841,221.33055 73.51637,220.93228 77.036309,220.49392 80.498005,219.6676 84.00521,219.1369 87.58617,218.59504 91.183104,218.1633 94.777533,217.71948 97.232039,217.41642 99.805045,216.0774 102.14807,216.86904 103.2666,217.24696 103.84307,218.5131 104.69941,219.32588 105.66922,220.24635 107.39258,220.75013 107.62872,222.06621 107.8153,223.10608 107.10417,224.33627 106.21131,224.90103 104.93328,225.70941 103.18321,225.11366 101.6756,224.99552 99.538203,224.82804 97.471292,224.13226 95.344495,223.86159 92.461555,223.4947 89.555689,223.29501 86.651045,223.20014 83.691642,223.10347 80.717594,223.02842 77.768603,223.29463 75.34982,223.51297 72.992868,224.19102 70.587054,224.52305 68.798699,224.76986 66.997196,224.90993 65.200894,225.09001 63.217481,225.28885 61.225737,225.40979 59.247769,225.65699 57.002198,225.93763 54.755557,226.2416 52.538692,226.69642 50.054119,227.20616 47.606035,227.88652 45.168156,228.5863 42.372304,229.38883 39.614832,230.32034 36.85268,231.23213 34.450137,232.02521 31.840824,232.38758 29.671132,233.68897 28.562667,234.35384 28.009037,235.79125 26.83631,236.33481 25.85797,236.78826 24.633489,237.09057 23.623512,236.71279 22.307786,236.22065 21.897871,234.45649 20.788691,233.59448 19.887501,232.89411 17.98055,233.10886 17.764881,231.98808 17.562167,230.93463 18.848583,229.93187 19.84375,229.53124 21.547502,228.84534 23.490679,230.20151 25.324405,230.0982 Z"
       id="path4684"
       inkscape:connector-curvature="0"
       sodipodi:nodetypes="aaaaaaaaaaaaaaaaaaaaaaaaaaaaaa" />
    <path
       style="fill:#000000;stroke:none;stroke-width:0.26458335px;stroke-linecap:butt;stroke-linejoin:miter;stroke-opacity:1;fill-opacity:1"
       d="M 40.821428,214.2232 C 40.802161,215.75268 41.261864,217.36782 42.144345,218.61718 43.034834,219.87788 44.514578,220.63189 45.876861,221.35751 46.984867,221.94769 48.230157,222.234 49.420387,222.63317 50.82777,223.10517 52.212549,223.68831 53.67262,223.95609 55.193546,224.23503 56.757258,224.1923 58.302828,224.23957 59.782543,224.28482 61.475778,225.00317 62.74405,224.23957 63.263107,223.92705 63.701362,223.22955 63.594495,222.63317 63.419402,221.65605 62.181665,221.22579 61.373886,220.6488 60.771423,220.21847 60.081953,219.92526 59.436758,219.56212 58.097022,218.80806 56.721718,218.11341 55.420761,217.29426 54.233965,216.54699 53.163159,215.62451 51.971729,214.88465 51.025675,214.29717 50.010996,213.82781 49.042412,213.27827 47.851327,212.60248 46.79664,211.63666 45.498886,211.19939 44.371511,210.81953 42.958933,210.13534 41.955359,210.77417 40.934435,211.42404 40.836672,213.01308 40.821428,214.2232 Z"
       id="path4686"
       inkscape:connector-curvature="0"
       sodipodi:nodetypes="aaaaaaaaaaaaaaaa" />
    <path
       style="fill:#000000;stroke:none;stroke-width:0.26458335px;stroke-linecap:butt;stroke-linejoin:miter;stroke-opacity:1;fill-opacity:1"
       d="M 79.233263,204.11234 C 80.06596,204.32448 80.84648,204.75054 81.548364,205.24627 82.37617,205.83094 83.141467,206.54148 83.721728,207.37238 84.117255,207.93875 84.373441,208.60067 84.572176,209.26227 84.742002,209.82764 85.126602,210.48593 84.855658,211.0104 84.412773,211.8677 83.09453,211.80673 82.25707,212.28607 81.43822,212.75476 80.659257,213.29236 79.89472,213.84523 78.886217,214.57453 77.933848,215.37862 76.965404,216.16033 75.79015,217.10897 74.48891,217.92832 73.469123,219.0424 73.017848,219.5354 72.803243,220.21893 72.335196,220.69604 71.481324,221.56644 70.560724,222.61801 69.358633,222.82216 68.582299,222.95401 67.600577,222.76085 67.090776,222.1607 66.669642,221.66493 66.607039,220.82514 66.85454,220.22357 67.328075,219.07261 68.914096,218.79868 69.783856,217.90847 70.844847,216.82254 71.691216,215.53975 72.524183,214.27045 73.189743,213.25625 73.982284,212.27015 74.319571,211.1049 74.595752,210.15076 74.475807,209.12155 74.461311,208.12834 74.449324,207.30706 73.987353,206.44184 74.272324,205.67149 74.550509,204.91949 75.225951,204.26127 75.973217,203.9706 76.986934,203.57628 78.179221,203.84382 79.233263,204.11234 Z"
       id="path4688"
       inkscape:connector-curvature="0"
       sodipodi:nodetypes="aaaaaaaaaaaaaaaaaaaa" />
    <path
       style="fill:#000000;stroke:none;stroke-width:0.26458335px;stroke-linecap:butt;stroke-linejoin:miter;stroke-opacity:1;fill-opacity:1"
       d="M 60.995908,208.36457 C 62.403406,208.32629 63.402975,209.87214 64.397696,210.86866 65.225532,211.69799 65.874309,212.6983 66.476564,213.70348 66.907395,214.42255 67.327081,215.16704 67.563245,215.97134 67.95674,217.31146 67.996176,218.73508 68.082964,220.12908 68.125044,220.80498 68.289632,221.5158 68.082964,222.1607 67.87624,222.80578 67.173739,223.19394 66.901788,223.81435 66.469015,224.80164 66.441051,225.92078 66.240331,226.9799 66.100522,227.71762 65.973415,228.45792 65.862353,229.20051 65.716725,230.17421 65.533663,231.14653 65.484378,232.12983 65.42838,233.24705 65.61382,234.36628 65.57887,235.48436 65.54626,236.52757 65.436567,237.56854 65.29539,238.60267 65.182782,239.42752 65.085874,240.26216 64.846541,241.05952 64.598039,241.88743 64.628938,243.11374 63.830732,243.44549 63.360834,243.64078 62.814725,243.19128 62.41332,242.87852 61.715048,242.33446 61.26743,241.5116 60.854168,240.72878 60.592534,240.23318 60.263171,239.70591 60.287203,239.14601 60.322864,238.3152 61.094628,237.6767 61.326637,236.87815 61.781203,235.31358 61.84212,233.65804 61.988096,232.03533 62.117331,230.59872 62.223533,229.15389 62.177084,227.71223 62.14418,226.69098 61.768859,225.68362 61.846356,224.66479 61.904449,223.90106 62.390693,223.20872 62.436944,222.44419 62.484958,221.65051 62.355512,220.83687 62.106215,220.08184 61.791346,219.1282 61.163807,218.30774 60.665181,217.436 60.323217,216.83815 59.841026,216.31021 59.602123,215.66423 59.291833,214.82523 59.19675,213.91189 59.153275,213.0184 59.099178,211.90662 58.879129,210.67667 59.389512,209.68749 59.707579,209.07104 60.302493,208.38343 60.995908,208.36457 Z"
       id="path4690"
       inkscape:connector-curvature="0"
       sodipodi:nodetypes="aaaaaaaaaaaaaaaaaaaaaaaaaaaa" />
    <path
       style="fill:#000000;fill-opacity:1;stroke:none;stroke-width:0.26458335px;stroke-linecap:butt;stroke-linejoin:miter;stroke-opacity:1"
       d="M 43.183782,218.2392 C 42.19824,218.70132 41.918868,220.0294 41.482888,221.02678 41.04359,222.03175 40.878349,223.13544 40.585195,224.19233 40.327868,225.12005 39.533048,226.06384 39.829243,226.9799 39.960155,227.38477 40.414358,227.65918 40.821428,227.7831 42.001327,228.14229 43.274315,227.4033 44.506699,227.45237 45.161233,227.47843 45.948556,227.35438 46.443826,227.7831 47.294855,228.51978 47.553246,229.87249 47.483259,230.9959 47.400023,232.33197 46.434062,233.46459 45.782366,234.63392 45.278381,235.53821 44.71333,236.41244 44.081473,237.2325 42.904016,238.76067 41.524804,240.12284 40.207218,241.53198 39.203133,242.60583 38.231348,243.71676 37.136162,244.69753 36.00737,245.7084 34.755683,246.5734 33.545388,247.48511 32.735219,248.0954 31.908175,248.68297 31.088542,249.2805 30.569257,249.65907 29.481471,249.77358 29.52939,250.41442 29.562482,250.85696 30.272056,250.96048 30.710567,251.02863 31.989792,251.22745 33.330451,250.83494 34.537574,250.36718 36.802548,249.4895 38.748633,247.91925 40.679689,246.44567 42.097941,245.36341 43.446247,244.17303 44.648439,242.8549 45.497457,241.924 46.180917,240.85413 46.916296,239.83109 47.59708,238.884 48.298461,237.94792 48.900671,236.94902 49.689909,235.6399 50.349555,234.2562 51.026786,232.88578 51.588665,231.74878 52.038383,230.55688 52.633185,229.43675 52.977732,228.7879 53.497058,228.23008 53.767116,227.54686 54.069159,226.78272 54.357842,225.95586 54.286831,225.13727 54.185479,223.96891 53.736767,222.75928 52.963915,221.87722 52.271333,221.08677 51.148839,220.81646 50.223588,220.31807 49.367853,219.85712 48.545758,219.30653 47.625001,218.99515 46.714943,218.68739 44.979168,218.56993 44.790179,218.47544 44.601192,218.38094 43.673811,218.00943 43.183782,218.2392 Z"
       id="path4692"
       inkscape:connector-curvature="0"
       sodipodi:nodetypes="aaaaaaaaaaaaaaaaaaaaaaaaaaaaca" />
    <path
       style="fill:#000000;stroke:none;stroke-width:0.26458335px;stroke-linecap:butt;stroke-linejoin:miter;stroke-opacity:1;fill-opacity:1"
       d="M 74.319571,231.27938 C 74.87425,230.89087 75.684954,231.15799 76.351193,231.27938 78.503732,231.67158 80.436703,232.84773 82.493305,233.59448 85.096342,234.53964 87.689187,235.52126 90.336313,236.3348 92.735401,237.07212 95.152377,237.77418 97.612355,238.27194 99.950363,238.74502 102.33591,238.94173 104.69941,239.26412 106.71432,239.53896 108.7329,239.78672 110.74702,240.06732 112.26031,240.27815 113.77528,240.47968 115.28274,240.72878 116.73646,240.969 118.21407,241.1225 119.62947,241.53198 120.68858,241.83838 122.58944,241.66347 122.70053,242.7604 122.77842,243.52961 121.46772,243.71719 120.7634,244.03607 120.00463,244.3796 119.15259,244.46157 118.3538,244.69754 116.15171,245.34806 113.99217,246.13823 111.78646,246.7764 110.53518,247.13844 109.27615,247.47658 108.0067,247.76859 106.42644,248.1321 104.83781,248.95761 103.23475,248.71353 100.98442,248.37089 99.252708,246.50597 97.234379,245.45349 95.45453,244.52537 93.636256,243.67265 91.848217,242.76041 89.143844,241.38066 86.432225,240.01296 83.768975,238.55542 82.38268,237.79673 80.981011,237.05814 79.658483,236.19307 78.461725,235.41026 77.403676,234.4284 76.209451,233.64173 75.478598,233.1603 74.239198,233.14183 73.941594,232.31881 73.816225,231.97211 74.017602,231.49089 74.319571,231.27938 Z"
       id="path4694"
       inkscape:connector-curvature="0"
       sodipodi:nodetypes="aaaaaaaaaaaaaaaaaaaaaa" />
    <path
       style="fill:#000000;stroke:none;stroke-width:0.26458335px;stroke-linecap:butt;stroke-linejoin:miter;stroke-opacity:1;fill-opacity:1"
       d="M 39.167783,249.8947 C 40.792091,249.76898 42.426818,250.5107 43.845238,251.31212 45.175276,252.0636 46.608276,252.99547 47.247025,254.38317 48.248298,256.55847 47.311214,259.1733 47.436012,261.56472 47.541389,263.58399 47.80864,265.59279 47.908484,267.61234 47.983156,269.12273 47.959241,270.63646 48.002977,272.14806 48.052202,273.8494 48.160462,275.54897 48.191966,277.25073 48.203626,277.88058 48.591353,278.65344 48.191966,279.14061 47.988317,279.38902 47.540216,279.46083 47.247025,279.3296 46.396475,278.94891 46.205589,277.77264 45.829615,276.92 45.158176,275.39729 44.686495,273.78056 44.359559,272.14881 44.042444,270.56609 44.095492,268.93022 43.892486,267.32886 43.585738,264.90916 43.257155,262.48762 42.758558,260.10007 42.479004,258.76141 42.281818,257.37772 41.719125,256.13131 41.266207,255.12807 40.495721,254.30103 39.876489,253.39098 39.220331,252.42667 37.592777,251.63624 37.892115,250.50892 38.013234,250.05278 38.697245,249.93112 39.167783,249.8947 Z"
       id="path4696"
       inkscape:connector-curvature="0"
       sodipodi:nodetypes="aaaaaaaaaaaaaaaaa" />
    <path
       style="fill:#000000;stroke:none;stroke-width:0.26458335px;stroke-linecap:butt;stroke-linejoin:miter;stroke-opacity:1;fill-opacity:1"
       d="M 54.055262,247.68877 C 56.78385,246.90814 59.665763,246.82783 62.474254,246.41923 64.85564,246.07277 67.231684,245.68008 69.623714,245.41697 71.289439,245.23375 72.98021,245.2803 74.635018,245.01607 75.947297,244.80653 77.264546,244.54297 78.510425,244.08062 79.425623,243.74099 80.155724,242.91812 81.116304,242.74427 82.06506,242.57256 83.090147,242.73069 83.989452,243.07836 85.344236,243.60211 86.452573,244.64416 87.530773,245.61742 88.678598,246.65353 89.923116,247.7038 90.604371,249.09193 90.814141,249.51936 90.988864,250.03362 90.871643,250.49509 90.559909,251.72232 89.174226,252.3853 88.466215,253.43506 87.869859,254.31927 87.324187,255.25061 86.929416,256.24138 86.119559,258.27391 85.773024,260.46236 85.258981,262.58904 84.578455,265.4045 83.833612,268.21278 83.388094,271.07485 83.126636,272.75449 83.208881,274.47776 82.920372,276.15297 82.705834,277.39868 82.548362,278.69639 81.984931,279.82792 81.539955,280.72156 81.096596,281.98995 80.114042,282.16653 79.21929,282.32733 78.361524,281.45831 77.775433,280.76337 76.943471,279.7769 76.798063,278.37342 76.37227,277.15523 76.025936,276.16437 75.334751,275.19312 75.436825,274.14845 75.495944,273.54341 75.910773,273.00721 76.305453,272.54482 76.852067,271.90444 77.851298,271.71407 78.309975,271.00803 79.557796,269.08727 79.438399,266.56695 79.91359,264.32629 80.397551,262.04428 80.726105,259.73166 81.183121,257.4441 81.535722,255.67917 82.021563,253.94058 82.319018,252.16553 82.534066,250.88224 83.482826,249.38945 82.786739,248.29012 82.146202,247.27852 80.569991,247.27785 79.379051,247.15422 78.21943,247.03384 77.058478,247.38883 75.904547,247.55513 73.577812,247.89045 71.257658,248.28204 68.955541,248.75784 67.744072,249.00823 66.546915,249.32394 65.347402,249.62646 63.314948,250.13906 61.314514,250.78131 59.26702,251.23008 58.007987,251.50604 56.716614,251.61847 55.458428,251.89826 54.625135,252.08357 53.839833,252.56643 52.986185,252.56643 52.132537,252.56643 51.285514,252.26349 50.513941,251.89826 49.648073,251.48839 48.073683,251.18039 48.175333,250.22782 48.401865,248.10497 52.002704,248.27599 54.055262,247.68877 Z"
       id="path4700"
       inkscape:connector-curvature="0"
       sodipodi:nodetypes="aaaaaaaaaaaaaaaaaaaaaaaaaaaaaaaaaaaa" />
    <path
       style="fill:#000000;stroke:none;stroke-width:0.26458335px;stroke-linecap:butt;stroke-linejoin:miter;stroke-opacity:1;fill-opacity:1"
       d="M 54.055264,262.18813 C 55.829583,261.03219 58.168128,261.17264 60.202462,260.58452 62.604665,259.89005 65.030195,259.24141 67.351923,258.31272 68.249041,257.95388 68.994408,257.11712 69.957801,257.04319 70.934159,256.96827 71.977398,257.32877 72.76413,257.91182 73.434146,258.40836 74.323243,259.16391 74.167296,259.98316 73.960513,261.06945 72.504454,261.60191 71.427783,261.85405 70.332921,262.11045 69.206711,261.28377 68.086914,261.38632 66.68415,261.51479 65.39925,262.23461 64.077871,262.72267 62.634601,263.25576 61.239076,263.91151 59.801558,264.45992 58.873488,264.81398 57.976168,265.3059 56.995228,265.46219 56.181114,265.5919 55.329458,265.56626 54.522983,265.39537 53.721824,265.2256 52.45739,265.25249 52.251193,264.45992 52.007722,263.52408 53.245044,262.71598 54.055264,262.18813 Z"
       id="path4702"
       inkscape:connector-curvature="0"
       sodipodi:nodetypes="aaaaaaaaaaaaaa" />
    <path
       style="fill:#000000;stroke:none;stroke-width:0.26458335px;stroke-linecap:butt;stroke-linejoin:miter;stroke-opacity:1;fill-opacity:1"
       d="M 60.670185,253.96959 C 61.011651,255.36797 61.122534,256.81418 61.27154,258.24591 61.407878,259.55593 61.483452,260.87221 61.538809,262.18813 61.59592,263.54573 61.59449,264.90523 61.605627,266.26399 61.614937,267.39985 61.459883,268.54517 61.605627,269.67168 61.774063,270.97358 61.648119,272.58463 62.607887,273.48027 62.955992,273.80511 63.577362,273.94404 64.011052,273.74754 64.411177,273.56625 64.518251,273.02037 64.679228,272.61165 65.205972,271.27425 65.386848,269.82137 65.614672,268.40215 65.863013,266.85511 65.946555,265.28588 66.082393,263.72493 66.186947,262.52346 66.28597,261.32112 66.349662,260.11679 66.423804,258.71488 66.470255,257.31111 66.483296,255.9073 66.499021,254.21452 66.971222,252.42856 66.41648,250.82918 66.020872,249.68859 65.351388,248.35365 64.211505,247.95603 63.344425,247.65358 62.381148,248.25846 61.53881,248.62421 61.12514,248.80382 60.661492,248.98971 60.402916,249.3592 59.944435,250.01434 59.822589,250.89947 59.868376,251.6978 59.914358,252.49953 60.479689,253.18947 60.670185,253.96959 Z"
       id="path4704"
       inkscape:connector-curvature="0"
       sodipodi:nodetypes="aaaaaaaaaaaaaaaaaa" />
    <path
       style="fill:#000000;fill-opacity:1;stroke:none;stroke-width:0.26458335px;stroke-linecap:butt;stroke-linejoin:miter;stroke-opacity:1"
       d="M 51.449387,274.41571 C 53.42784,274.25932 55.385333,273.87985 57.329315,273.48027 59.287082,273.07785 61.184279,272.41085 63.142428,272.01029 64.688615,271.69401 66.261392,271.52546 67.819645,271.2753 69.178995,271.05707 70.523113,270.49761 71.895506,270.60712 73.018843,270.69676 74.114611,271.13443 75.102741,271.6762 76.033014,272.18626 77.448172,272.6274 77.574983,273.68072 77.658578,274.37508 76.968573,275.12892 76.305452,275.35116 75.603456,275.58643 74.907052,274.77995 74.167295,274.7498 73.237675,274.71191 72.345673,275.13233 71.427783,275.28434 69.96413,275.52672 68.494255,275.74004 67.017836,275.8857 65.929724,275.99305 64.822849,275.90972 63.743783,276.08615 62.560093,276.27969 61.440919,276.765 60.269279,277.02159 59.099661,277.27774 57.904233,277.39935 56.727958,277.62295 55.453423,277.86523 54.181847,278.12595 52.919369,278.42476 52.06773,278.62633 51.229962,278.88315 50.380308,279.09293 49.514842,279.30662 48.594892,280.04291 47.77443,279.69429 46.937739,279.33878 46.577312,278.24111 46.371265,277.35568 46.128117,276.31082 45.797858,274.81488 46.638534,274.14845 47.114924,273.7708 47.836327,274.37105 48.442603,274.41571 49.442156,274.48935 50.450242,274.49469 51.449387,274.41571 Z"
       id="path4706"
       inkscape:connector-curvature="0"
       sodipodi:nodetypes="aaaaaaaaaaaaaaaaaaaaa" />
  </g>
</svg>
