<?xml version="1.0" encoding="UTF-8" standalone="no"?>
<!-- Created with Inkscape (http://www.inkscape.org/) -->

<svg
   xmlns:dc="http://purl.org/dc/elements/1.1/"
   xmlns:cc="http://creativecommons.org/ns#"
   xmlns:rdf="http://www.w3.org/1999/02/22-rdf-syntax-ns#"
   xmlns:svg="http://www.w3.org/2000/svg"
   xmlns="http://www.w3.org/2000/svg"
   xmlns:sodipodi="http://sodipodi.sourceforge.net/DTD/sodipodi-0.dtd"
   xmlns:inkscape="http://www.inkscape.org/namespaces/inkscape"
   width="512"
   height="512"
   viewBox="0 0 512 512"
   version="1.1"
   id="svg8"
   inkscape:version="0.92.4 (5da689c313, 2019-01-14)"
   sodipodi:docname="想.svg">
  <defs
     id="defs2" />
  <sodipodi:namedview
     id="base"
     pagecolor="#ffffff"
     bordercolor="#666666"
     borderopacity="1.0"
     inkscape:pageopacity="0.0"
     inkscape:pageshadow="2"
     inkscape:zoom="1.4"
     inkscape:cx="227.15703"
     inkscape:cy="250.91492"
     inkscape:document-units="px"
     inkscape:current-layer="layer1"
     showgrid="false"
     units="px"
     inkscape:window-width="1920"
     inkscape:window-height="1001"
     inkscape:window-x="-9"
     inkscape:window-y="-9"
     inkscape:window-maximized="1" />
  <metadata
     id="metadata5">
    <rdf:RDF>
      <cc:Work
         rdf:about="">
        <dc:format>image/svg+xml</dc:format>
        <dc:type
           rdf:resource="http://purl.org/dc/dcmitype/StillImage" />
        <dc:title></dc:title>
      </cc:Work>
    </rdf:RDF>
  </metadata>
  <g
     inkscape:label="圖層 1"
     inkscape:groupmode="layer"
     id="layer1"
     transform="translate(0,-161.53331)">
    <path
       style="fill:#000000;stroke:none;stroke-width:1px;stroke-linecap:butt;stroke-linejoin:miter;stroke-opacity:1;fill-opacity:1"
       d="M 99.285714,340.67617 C 117.02352,339.28918 133.8148,331.95467 150.71429,326.39045 167.17842,320.96958 182.6115,312.55445 199.28571,307.81902 209.07825,305.03797 219.2504,300.39574 229.28571,302.10474 236.06917,303.25996 247.04404,305.58147 247.14286,312.46188 247.22731,318.34179 237.47986,319.27841 232.14286,321.74759 221.24321,326.79036 209.25958,329.04857 197.85714,332.81902 182.34463,337.94856 166.58279,342.42597 151.42857,348.53331 143.13032,351.87761 135.23188,356.13917 127.14286,359.96188 120.11363,363.28376 113.83028,369.46664 106.07143,369.96188 99.947453,370.35278 93.650433,367.69138 88.571428,364.24759 83.184445,360.59499 79.166868,354.97292 76.071428,349.2476 73.940129,345.30555 69.056832,339.63986 72.142857,336.39045 74.17096,334.25497 77.816754,338.00626 80.714286,338.53331 86.845236,339.6485 93.073129,341.16196 99.285714,340.67617 Z"
       id="path867"
       inkscape:connector-curvature="0"
       sodipodi:nodetypes="aaaaaaaaaaaaaaa" />
    <path
       style="fill:#000000;stroke:none;stroke-width:1px;stroke-linecap:butt;stroke-linejoin:miter;stroke-opacity:1;fill-opacity:1"
       d="M 171.42857,221.39045 C 172.48767,225.99169 177.91748,228.65721 179.28571,233.17617 180.52764,237.27799 179.43849,241.75032 179.28572,246.03331 179.04747,252.71271 178.44516,259.37557 177.85714,266.03331 177.25684,272.83006 176.31458,279.5937 175.71429,286.39045 175.12627,293.04819 174.97569,299.74251 174.28572,306.39045 173.46709,314.27794 172.02232,322.08924 171.07142,329.96188 169.9805,338.99384 168.85131,348.02946 168.21428,357.10474 167.5053,367.20524 167.36876,377.33906 167.14286,387.46188 166.85865,400.19736 167.16876,412.94328 166.78571,425.67617 166.57423,432.70587 165.89292,439.71698 165.71429,446.7476 165.51775,454.4832 166.74139,462.29225 165.71429,469.96188 164.99363,475.34325 164.36373,481.10853 161.42857,485.67617 158.91532,489.58723 152.64221,490.37438 150.71428,494.60474 148.34405,499.80563 149.70041,506.19895 151.07143,511.7476 152.15697,516.14085 154.52913,520.19621 157.14286,523.89046 159.91461,527.80804 162.37699,534.81021 167.14285,534.2476 172.4958,533.61568 174.08843,525.55769 175.35714,520.31902 176.81667,514.29247 174.62724,507.93895 174.28571,501.7476 173.91146,494.9628 173.24784,488.18548 173.21429,481.39045 173.14546,467.44934 174.47015,453.53595 175,439.60474 175.54324,425.32142 175.52672,411.01277 176.42857,396.7476 177.31874,382.66719 178.67331,368.61242 180.35714,354.60474 181.72149,343.25478 183.77281,331.99752 185.35714,320.67617 186.73853,310.80501 187.87307,300.90005 189.28572,291.03331 190.61724,281.73319 191.59093,272.36001 193.57143,263.17617 194.69178,257.98095 196.41921,252.93544 197.85714,247.81902 199.6313,241.50624 204.07933,235.39049 203.21428,228.89045 202.39011,222.6976 198.17511,217.04238 193.57143,212.81902 189.37345,208.96784 183.72791,203.88562 178.21429,205.31903 174.98614,206.15827 173.71133,210.42558 172.5,213.53331 171.54004,215.99612 170.83565,218.81452 171.42857,221.39045 Z"
       id="path910"
       inkscape:connector-curvature="0"
       sodipodi:nodetypes="aaaaaaaaaaaaaaaaaaaaaaaaaaaaaaaa" />
    <path
       style="fill:#000000;stroke:none;stroke-width:1px;stroke-linecap:butt;stroke-linejoin:miter;stroke-opacity:1;fill-opacity:1"
       d="M 145.35714,399.96188 C 138.38605,408.08862 131.55242,416.37267 123.92857,423.89045 114.37544,433.31067 103.46306,441.25489 93.571431,450.31903 86.743357,456.57589 79.610935,462.58368 73.571428,469.60474 70.620316,473.03548 62.953352,477.0906 65.714286,480.67617 68.196525,483.89979 73.537394,478.27564 77.142857,476.39045 85.863437,471.83073 93.36909,465.25136 101.42857,459.60474 109.6798,453.82378 118.15596,448.33753 126.07143,442.10474 133.76155,436.0494 140.78008,429.18593 148.21429,422.81902 152.70623,418.97197 157.27273,415.21279 161.78571,411.39045 165.00775,408.66149 169.30594,406.82627 171.42857,403.17617 173.98729,398.77617 174.51488,393.2609 174.28571,388.17617 174.12963,384.71297 174.3755,380.00203 171.42857,378.17617 168.64977,376.45448 164.60101,378.30054 161.78572,379.96188 154.35552,384.34653 150.97429,393.41354 145.35714,399.96188 Z"
       id="path912"
       inkscape:connector-curvature="0"
       sodipodi:nodetypes="aaaaaaaaaaaaaaa" />
    <path
       style="fill:#000000;stroke:none;stroke-width:1px;stroke-linecap:butt;stroke-linejoin:miter;stroke-opacity:1;fill-opacity:1"
       d="M 192.85714,376.03331 C 196.90886,372.31862 204.08259,375.68904 209.28571,377.46188 214.50589,379.24053 219.63382,382.19592 223.21429,386.39045 225.91393,389.55308 227.36292,393.74896 228.21429,397.81902 229.11615,402.13047 229.31919,406.76938 228.21429,411.03331 227.29194,414.59276 226.43735,419.83799 222.85714,420.67617 218.77376,421.63215 215.39305,416.56945 212.5,413.53331 209.69694,410.59161 208.24916,406.60666 206.07143,403.17617 201.73565,396.34617 195.15404,390.57609 192.85714,382.81902 192.21494,380.6502 191.18989,377.56187 192.85714,376.03331 Z"
       id="path914"
       inkscape:connector-curvature="0"
       sodipodi:nodetypes="aaaaaaaaaa" />
    <path
       style="fill:#000000;stroke:none;stroke-width:1px;stroke-linecap:butt;stroke-linejoin:miter;stroke-opacity:1;fill-opacity:1"
       d="M 270,322.81902 C 271.45483,328.24276 276.6836,331.95755 278.92857,337.10473 280.75271,341.28704 281.95216,345.78923 282.5,350.31902 283.11479,355.40241 282.07232,360.55622 282.14286,365.67617 282.23974,372.70839 283.03566,379.71698 283.21429,386.7476 283.49852,397.93446 283.04978,409.12976 283.21429,420.31902 283.33335,428.41688 283.66753,436.51021 283.92857,444.60474 284.14743,451.3911 282.96722,458.382 284.64286,464.96188 285.75965,469.34729 286.20513,477.48761 290.71428,477.10474 294.80455,476.75744 293.70969,469.3834 294.28572,465.31902 295.60554,456.00657 293.9881,446.51007 293.92857,437.10474 293.87809,429.12871 293.86626,421.15212 293.92857,413.17617 293.98809,405.55642 294.28391,397.939 294.28571,390.31902 294.28757,382.46098 293.62651,374.59983 293.92857,366.7476 294.22728,358.98235 294.38466,351.11903 296.07143,343.53331 296.75803,340.44555 299.89217,337.70923 299.28571,334.60474 298.08965,328.4821 291.74621,324.45911 286.78571,320.67617 281.91729,316.96345 275.62001,309.33329 270.35715,312.46188 267.38777,314.22707 269.10504,319.48253 270,322.81902 Z"
       id="path916"
       inkscape:connector-curvature="0"
       sodipodi:nodetypes="aaaaaaaaaaaaaaaaaaa" />
    <path
       style="fill:#000000;stroke:none;stroke-width:1px;stroke-linecap:butt;stroke-linejoin:miter;stroke-opacity:1;fill-opacity:1"
       d="M 295.71429,292.10474 C 305.12471,292.25014 314.53809,291.66255 323.92857,291.03331 330.13368,290.61752 336.3084,289.83103 342.5,289.2476 350.23672,288.51856 358.48207,289.94786 365.71429,287.10474 370.61183,285.17942 372.96475,277.82939 378.21429,277.46189 386.13903,276.90709 392.54803,284.51494 398.92858,289.2476 404.06878,293.06025 412.28932,296.08728 412.85715,302.46189 413.30291,307.46611 405.76363,309.92783 403.92857,314.60474 400.86495,322.4128 401.76646,331.24601 401.07143,339.60474 399.93544,353.26669 399.84988,366.99806 398.92858,380.67617 398.05356,393.66708 396.91996,406.64033 395.71429,419.60474 395.0715,426.51652 394.45222,433.43352 393.57143,440.31902 392.6699,447.36665 391.37288,454.35837 390.35714,461.39045 389.60137,466.62272 389.47757,471.97132 388.21429,477.10474 386.79248,482.88237 387.01339,490.47279 382.14286,493.89045 380.29131,495.18968 377.23653,495.14906 375.35714,493.89045 371.72007,491.45473 372.42486,485.60577 370.35714,481.74759 367.44052,476.30545 356.97806,471.77482 360,466.39045 361.28316,464.10417 365.23944,466.89326 367.85715,466.7476 370.14354,466.62037 373.00849,467.28011 374.64286,465.67617 381.45981,458.98614 378.43776,446.93685 379.64286,437.46188 380.99877,426.80111 381.72588,416.05757 382.14286,405.31902 382.6094,393.30427 381.91176,381.26919 382.14286,369.2476 382.381,356.85978 383.01605,344.48239 383.57143,332.10474 383.77982,327.46046 385.32956,322.70642 384.28571,318.17617 383.40038,314.33387 382.01835,309.73364 378.57143,307.81902 372.63119,304.51947 364.97539,308.21156 358.21429,308.89045 349.35253,309.78027 340.52103,311.08215 331.78571,312.81902 326.49007,313.87197 321.45856,316.38525 316.07143,316.7476 310.69347,317.10933 304.79506,317.42372 300,314.96188 294.30077,312.03583 289.99505,306.41272 287.14286,300.67617 285.7396,297.85382 283.26736,293.75004 285.35714,291.39045 287.65154,288.79982 292.25412,292.05128 295.71429,292.10474 Z"
       id="path918"
       inkscape:connector-curvature="0"
       sodipodi:nodetypes="aaaaaaaaaaaaaaaaaaaaaaaaaaaaaaaaa" />
    <path
       style="fill:#000000;stroke:none;stroke-width:1px;stroke-linecap:butt;stroke-linejoin:miter;stroke-opacity:1;fill-opacity:1"
       d="M 323.21428,374.2476 C 327.11418,371.37108 331.59538,369.31892 336.07143,367.46188 339.41029,366.07664 342.89123,363.5032 346.42857,364.24759 349.97932,364.9948 354.59204,367.76229 354.64286,371.39045 354.6995,375.43417 349.10128,377.39495 345.71429,379.60474 342.23179,381.87683 338.21192,383.23535 334.28572,384.60474 330.33226,385.98364 326.22845,388.73505 322.14285,387.81902 319.25741,387.17208 315.48352,385.05912 315.35714,382.10474 315.19884,378.40423 320.2335,376.44619 323.21428,374.2476 Z"
       id="path920"
       inkscape:connector-curvature="0"
       sodipodi:nodetypes="aaaaaaaaa" />
    <path
       style="fill:#000000;stroke:none;stroke-width:1px;stroke-linecap:butt;stroke-linejoin:miter;stroke-opacity:1;fill-opacity:1"
       d="M 314.99999,424.24759 C 318.20468,422.5752 321.85395,421.92468 325.35714,421.03331 330.06339,419.83583 334.80875,417.71329 339.64285,418.17617 342.4597,418.44589 346.35974,418.80063 347.5,421.39045 348.47134,423.59662 346.49826,426.28782 345,428.17617 341.36752,432.75442 335.5936,435.22387 330.35714,437.81902 326.17396,439.89218 321.76821,443.09683 317.14286,442.46188 314.26354,442.06662 311.55887,439.91476 310,437.46188 308.50932,435.11629 307.56959,431.83994 308.57143,429.2476 309.55002,426.71541 312.5933,425.50355 314.99999,424.24759 Z"
       id="path922"
       inkscape:connector-curvature="0"
       sodipodi:nodetypes="aaaaaaaaaa" />
    <path
       style="fill:#000000;stroke:none;stroke-width:1px;stroke-linecap:butt;stroke-linejoin:miter;stroke-opacity:1;fill-opacity:1"
       d="M 238.21429,478.17617 C 246.09862,477.4739 253.68024,474.7946 261.42857,473.17617 271.41577,471.0901 281.38916,468.92299 291.42857,467.10474 297.36016,466.03046 303.30266,464.98315 309.28571,464.2476 316.1643,463.40196 323.09299,463.03046 330,462.46189 336.06955,461.96225 342.12656,460.86421 348.21429,461.0333 354.4582,461.20674 360.88625,461.48083 366.78572,463.53331 370.97014,464.98911 375.9104,466.53475 378.21429,470.31902 380.32276,473.7823 381.93889,479.74565 378.92857,482.46188 375.07795,485.93633 368.69944,480.73814 363.57143,479.96188 357.6287,479.06229 351.72162,477.6549 345.71429,477.46188 340.94147,477.30854 336.174,478.00019 331.42857,478.53331 321.85842,479.60845 312.334,481.10641 302.85715,482.81902 292.67857,484.65845 282.42691,486.34184 272.5,489.24759 266.02776,491.14211 260.0232,494.42737 253.57143,496.39045 248.07384,498.06321 242.43175,501.38849 236.78571,500.31903 230.81577,499.18821 226.11628,494.22394 221.78571,489.96188 218.13627,486.37016 210.46011,481.98659 212.85714,477.46188 215.19847,473.04234 222.85785,477.67331 227.85714,477.81902 231.31011,477.91966 234.77348,478.48265 238.21429,478.17617 Z"
       id="path924"
       inkscape:connector-curvature="0"
       sodipodi:nodetypes="aaaaaaaaaaaaaaaaaaaa" />
    <path
       style="fill:#000000;stroke:none;stroke-width:1px;stroke-linecap:butt;stroke-linejoin:miter;stroke-opacity:1;fill-opacity:1"
       d="M 126.07143,556.03331 C 122.91809,558.56537 120.46159,561.86807 117.85714,564.96189 115.34226,567.94933 112.89892,571.01081 110.71428,574.24759 108.08716,578.13994 105.02229,581.92423 103.57143,586.39045 102.42589,589.91677 101.48986,593.89442 102.5,597.46189 103.84276,602.20408 106.5074,608.97655 111.42856,609.2476 117.65068,609.5903 120.77262,600.82305 124.28572,595.67617 127.01798,591.67327 128.65862,587.01288 130.47186,582.51837 132.64312,577.13648 134.9396,571.72525 136.07142,566.03331 137.1417,560.65087 141.80717,552.49618 137.14286,549.60474 133.51576,547.35628 129.39894,553.36139 126.07143,556.03331 Z"
       id="path926"
       inkscape:connector-curvature="0"
       sodipodi:nodetypes="aaaaaaaaaaa" />
    <path
       style="fill:#000000;stroke:none;stroke-width:1px;stroke-linecap:butt;stroke-linejoin:miter;stroke-opacity:1;fill-opacity:1"
       d="M 205.35714,542.81902 C 209.1685,548.34033 210.57496,555.34104 214.64286,560.67616 218.67796,565.96828 223.87584,570.3718 229.28572,574.2476 235.99745,579.05609 243.46477,582.82274 251.07142,586.03331 262.10269,590.68932 273.52833,594.89107 285.35714,596.74759 299.23537,598.92578 313.46857,597.78938 327.5,597.10474 338.74025,596.55629 350.04589,595.78753 361.07143,593.53331 368.63473,591.98696 379.71008,593.6262 383.21429,586.74759 385.04285,583.15821 380.86108,579.02653 379.28572,575.31903 376.9329,569.78184 366.92598,563.60781 371.07142,559.24759 375.47731,554.61344 382.91275,564.12707 388.57143,567.10474 394.2448,570.09014 399.42795,573.93425 405,577.10474 410.73957,580.37056 417.97558,581.58027 422.5,586.39046 425.45662,589.53383 429.47749,594.17655 427.85714,598.17617 425.16768,604.81474 414.84206,604.4475 407.85714,606.03331 398.19625,608.22665 388.09334,607.43619 378.21428,608.17617 362.8541,609.3267 347.54198,611.3924 332.14286,611.7476 320.71175,612.01127 309.22504,611.90526 297.85714,610.67616 285.57698,609.34843 273.14906,607.78856 261.42857,603.89045 252.48658,600.91644 244.09585,596.33135 236.07143,591.39045 227.31285,585.99752 218.40847,580.37399 211.42857,572.81903 206.16199,567.11854 201.92769,560.33422 198.92857,553.17617 197.08725,548.78144 195.99083,544.00444 195.71428,539.24759 195.58915,537.09518 194.3747,533.47489 196.42857,532.81902 200.68544,531.45966 202.81853,539.14148 205.35714,542.81902 Z"
       id="path928"
       inkscape:connector-curvature="0"
       sodipodi:nodetypes="aaaaaaaaaaaaaaaaaaaaaaaaa" />
    <path
       style="fill:#000000;stroke:none;stroke-width:1px;stroke-linecap:butt;stroke-linejoin:miter;stroke-opacity:1;fill-opacity:1"
       d="M 287.5,516.39045 C 291.37537,513.92386 295.4605,520.98963 299.28572,523.53331 301.98237,525.32651 304.68082,527.1438 307.14285,529.24759 310.98269,532.52872 316.74401,535.0353 317.85713,539.96188 318.72014,543.78152 315.97869,547.69693 313.92857,551.03331 312.12112,553.97475 310.23744,558.60032 306.78571,558.53331 300.12349,558.40397 296.89377,549.30946 293.57143,543.53331 291.13133,539.291 289.97135,534.38636 288.92857,529.60474 287.98456,525.27605 283.76241,518.76934 287.5,516.39045 Z"
       id="path930"
       inkscape:connector-curvature="0"
       sodipodi:nodetypes="aaaaaaaaa" />
    <path
       style="fill:#000000;stroke:none;stroke-width:1px;stroke-linecap:butt;stroke-linejoin:miter;stroke-opacity:1;fill-opacity:1"
       d="M 415.35714,517.46188 C 417.07273,513.72689 423.41101,514.90237 427.5,515.31903 435.52737,516.137 443.30322,519.7464 450,524.2476 453.42407,526.54907 457.03158,529.34866 458.57143,533.17617 459.94885,536.59996 461.22273,541.68045 458.57143,544.2476 455.91876,546.81608 451.0687,544.83818 447.5,543.89045 443.07357,542.71495 439.24448,539.88338 435.35715,537.46188 430.3648,534.35203 425.03402,531.45129 421.07143,527.10474 418.55425,524.34366 413.79761,520.85712 415.35714,517.46188 Z"
       id="path932"
       inkscape:connector-curvature="0"
       sodipodi:nodetypes="aaaaaaaaa" />
  </g>
</svg>
