<?xml version="1.0" encoding="UTF-8" standalone="no"?>
<!-- Created with Inkscape (http://www.inkscape.org/) -->

<svg
   xmlns:dc="http://purl.org/dc/elements/1.1/"
   xmlns:cc="http://creativecommons.org/ns#"
   xmlns:rdf="http://www.w3.org/1999/02/22-rdf-syntax-ns#"
   xmlns:svg="http://www.w3.org/2000/svg"
   xmlns="http://www.w3.org/2000/svg"
   xmlns:sodipodi="http://sodipodi.sourceforge.net/DTD/sodipodi-0.dtd"
   xmlns:inkscape="http://www.inkscape.org/namespaces/inkscape"
   width="512"
   height="512"
   viewBox="0 0 512 512"
   version="1.1"
   id="svg8"
   inkscape:version="0.92.4 (5da689c313, 2019-01-14)"
   sodipodi:docname="涼.svg">
  <defs
     id="defs2" />
  <sodipodi:namedview
     id="base"
     pagecolor="#ffffff"
     bordercolor="#666666"
     borderopacity="1.0"
     inkscape:pageopacity="0.0"
     inkscape:pageshadow="2"
     inkscape:zoom="1.4"
     inkscape:cx="270.01834"
     inkscape:cy="282.59122"
     inkscape:document-units="px"
     inkscape:current-layer="layer1"
     showgrid="false"
     units="px"
     inkscape:window-width="1920"
     inkscape:window-height="1017"
     inkscape:window-x="-8"
     inkscape:window-y="-8"
     inkscape:window-maximized="1">
    <inkscape:grid
       type="xygrid"
       id="grid3724" />
  </sodipodi:namedview>
  <metadata
     id="metadata5">
    <rdf:RDF>
      <cc:Work
         rdf:about="">
        <dc:format>image/svg+xml</dc:format>
        <dc:type
           rdf:resource="http://purl.org/dc/dcmitype/StillImage" />
        <dc:title></dc:title>
      </cc:Work>
    </rdf:RDF>
  </metadata>
  <g
     inkscape:label="圖層 1"
     inkscape:groupmode="layer"
     id="layer1"
     transform="translate(0,-161.53127)">
    <path
       style="fill:#000000;stroke:none;stroke-width:1px;stroke-linecap:butt;stroke-linejoin:miter;stroke-opacity:1;fill-opacity:1"
       d="M 96.428572,222.81698 C 99.995698,220.94442 104.36607,224.30304 108.21428,225.49556 111.76177,226.59488 115.36345,227.73129 118.57142,229.6027 121.64278,231.39442 124.32709,233.81887 126.875,236.29912 129.14419,238.50807 131.59894,240.70914 133.03571,243.53127 134.53568,246.47754 135.32512,249.86816 135.35714,253.17412 135.39198,256.7701 134.47834,260.41575 133.03571,263.70985 132.07521,265.90305 130.48787,267.78575 128.92857,269.60269 127.80438,270.91263 126.53032,272.10057 125.17858,273.17413 123.22644,274.72453 121.09557,276.04892 118.92858,277.28127 116.79959,278.492 114.65463,279.75084 112.32143,280.49556 110.5968,281.04603 108.28758,282.62382 106.96428,281.38842 105.60918,280.12332 106.98002,277.63214 107.5,275.8527 108.38107,272.83754 111.2694,270.55838 111.78571,267.45984 112.13161,265.38398 111.59417,263.19403 110.89286,261.20984 109.69201,257.81229 107.2348,254.99981 105.35715,251.92412 103.89415,249.52767 102.2246,247.25307 100.89286,244.78127 99.402128,242.01435 97.933776,239.19952 96.964286,236.20984 95.93443,233.034 94.694756,229.71307 95,226.38841 95.117227,225.1116 95.293306,223.41294 96.428572,222.81698 Z"
       id="path4599"
       inkscape:connector-curvature="0"
       sodipodi:nodetypes="aaaaaaaaaaaaaaaaaaaa" />
    <path
       style="fill:#000000;stroke:none;stroke-width:1px;stroke-linecap:butt;stroke-linejoin:miter;stroke-opacity:1;fill-opacity:1"
       d="M 42.229515,329.20594 C 44.27582,328.09279 46.912126,329.22716 49.204314,329.64231 52.428564,330.22627 55.687172,331.02198 58.607323,332.50843 61.546121,334.00436 64.040514,336.27467 66.507794,338.46256 69.480681,341.09881 72.375302,343.8843 74.769126,347.05565 77.413911,350.55948 79.825412,354.33699 81.397933,358.43563 82.505386,361.32211 83.067417,364.43213 83.288252,367.51587 83.484944,370.26248 83.541079,373.11609 82.774202,375.76079 81.920862,378.70368 81.142542,382.55806 78.349529,383.81817 75.886423,384.92943 72.793816,383.36873 70.440084,382.04142 66.926063,380.05982 64.234215,376.70753 62.059917,373.30937 60.381595,370.68635 59.708263,367.54058 58.650652,364.61168 57.625348,361.77225 57.114285,358.73409 55.8062,356.01333 54.363078,353.0117 52.319548,350.32939 50.357143,347.63841 48.468536,345.04863 46.137965,342.79765 44.285714,340.18174 42.70344,337.94713 40.050648,335.91175 40,333.17413 39.971935,331.65718 40.89674,329.93094 42.229515,329.20594 Z"
       id="path4601"
       inkscape:connector-curvature="0"
       sodipodi:nodetypes="aaaaaaaaaaaaaaaaa" />
    <path
       style="fill:#000000;stroke:none;stroke-width:1px;stroke-linecap:butt;stroke-linejoin:miter;stroke-opacity:1;fill-opacity:1"
       d="M 61.882357,508.26673 C 64.840824,506.89956 67.678306,505.25278 70.37674,503.42518 73.020972,501.63428 75.518524,499.61602 77.871032,497.45617 80.338474,495.19079 82.733213,492.81042 84.778847,490.15795 86.950356,487.34227 88.661754,484.19428 90.408653,481.09721 92.868559,476.73605 95.004547,472.19942 97.227183,467.71269 99.466716,463.19185 101.47779,458.5581 103.79317,454.07563 105.47047,450.82846 107.20334,447.60543 109.09648,444.47918 110.74604,441.75517 112.58059,439.14725 114.3651,436.50968 116.07922,433.97615 117.28576,430.97813 119.58842,428.96449 120.81788,427.88935 122.5211,425.9518 123.9529,426.7376 125.8676,427.78842 124.7871,431.08647 124.57526,433.26027 124.40958,434.96044 123.66284,436.55458 123.11273,438.17179 122.27286,440.64086 121.21694,443.03136 120.31013,445.47664 119.40695,447.91209 118.58455,450.37697 117.68277,452.81294 116.61898,455.68653 115.51085,458.5436 114.39978,461.39924 112.82405,465.44914 111.30929,469.52504 109.60155,473.52107 107.83967,477.64379 105.59842,481.55942 103.98443,485.74225 101.99499,490.89812 100.62068,496.27095 98.99495,501.5528 98.042777,504.64632 97.140203,507.75489 96.204339,510.85339 94.95344,514.99491 93.721098,519.14224 92.428958,523.27108 91.228126,527.10816 89.958662,530.92343 88.7328,534.75259 87.533788,538.49788 86.89783,542.46954 85.153938,545.99426 83.546485,549.24321 82.026667,553.03871 78.918168,554.90333 76.464559,556.37512 73.249361,556.15792 70.396864,555.93516 66.552355,555.63492 62.718274,554.49911 59.267239,552.77843 56.545262,551.42126 54.151903,549.41135 51.995935,547.26591 49.051862,544.33623 46.505359,540.96541 44.419792,537.37361 42.630408,534.2919 41.412219,530.89672 40.270859,527.52091 39.071441,523.97338 38.14593,520.32574 37.453247,516.64555 37.096976,514.7527 36.941872,512.82624 36.76968,510.90787 36.608655,509.11389 34.980146,506.56481 36.443174,505.51419 38.100981,504.32369 40.268106,506.95178 42.116309,507.81766 44.01628,508.7078 45.63385,510.27058 47.668431,510.78313 49.999468,511.37037 52.511752,511.21709 54.879999,510.8048 57.325925,510.37899 59.628654,509.30822 61.882357,508.26673 Z"
       id="path4603"
       inkscape:connector-curvature="0"
       sodipodi:nodetypes="aaaaaaaaaaaaaaaaaaaaaaaaaaaaaaaaaaaa" />
    <path
       style="fill:#000000;stroke:none;stroke-width:1px;stroke-linecap:butt;stroke-linejoin:miter;stroke-opacity:1;fill-opacity:1"
       d="M 255.56859,232.09461 C 260.46553,231.53663 265.38464,233.13963 270.21581,234.11491 273.88864,234.85636 277.51367,235.85429 281.07494,237.0191 284.938,238.28261 288.7351,239.76534 292.43917,241.43852 296.11051,243.09692 299.87434,244.68041 303.17203,246.99436 306.26848,249.16709 308.93942,251.91784 311.50579,254.69677 314.23074,257.64742 317.1363,260.58623 318.95567,264.16695 320.08443,266.38847 321.15201,268.87867 320.97597,271.36428 320.78425,274.07123 319.39427,276.69994 317.69298,278.81416 315.63463,281.3721 312.93956,283.8945 309.73803,284.62254 305.689,285.5433 301.45259,283.59053 297.48992,282.3497 294.36183,281.37019 291.38053,279.91824 288.52482,278.30909 285.09712,276.37762 281.76544,274.20494 278.8021,271.61682 275.97447,269.14723 273.47845,266.28651 271.22595,263.28307 269.24233,260.63814 267.96731,257.51566 266.04893,254.82304 264.43537,252.55826 262.43249,250.59404 260.74562,248.38332 258.62046,245.59819 256.77084,242.6115 254.68471,239.79702 253.25589,237.86933 249.6186,236.4256 250.26529,234.11491 250.77513,232.29321 253.68906,232.30877 255.56859,232.09461 Z"
       id="path4605"
       inkscape:connector-curvature="0"
       sodipodi:nodetypes="aaaaaaaaaaaaaaaaaaa" />
    <path
       style="fill:#000000;stroke:none;stroke-width:1px;stroke-linecap:butt;stroke-linejoin:miter;stroke-opacity:1;fill-opacity:1"
       d="M 188.83928,304.24555 C 194.4047,303.2947 199.87329,301.83919 205.35714,300.49555 211.03644,299.10403 216.6512,297.45931 222.32143,296.03127 230.21745,294.04266 238.13519,292.13849 246.07143,290.31698 253.13812,288.69505 260.2728,287.37282 267.32143,285.67413 272.7674,284.36168 278.12622,282.70401 283.57143,281.38841 291.39097,279.49916 299.24936,277.76133 307.14286,276.20984 315.67917,274.532 324.26581,273.11409 332.85714,271.74555 340.63825,270.50608 348.45253,269.48465 356.25,268.3527 363.21442,267.34168 370.1516,266.12167 377.14286,265.31698 382.72149,264.67488 388.3292,264.31329 393.92857,263.88841 399.28221,263.48217 404.6418,263.15795 410,262.81698 413.92783,262.56703 417.89336,262.68576 421.78571,262.1027 425.29806,261.57657 428.98084,261.2198 432.14286,259.6027 434.09724,258.6032 435.0255,255.89609 437.14286,255.31698 442.09855,253.96157 447.40908,256.49064 452.32143,257.99556 455.81173,259.06482 459.08161,260.77786 462.32143,262.45984 465.82768,264.28015 469.10424,266.51234 472.50001,268.53127 475.71154,270.44066 479.33971,271.77531 482.14286,274.24556 484.17957,276.04039 486.05775,278.18573 487.14286,280.67413 488.17942,283.05117 489.05612,285.84574 488.39285,288.3527 487.78655,290.64436 486.10069,292.93909 483.92857,293.88841 481.52314,294.93969 478.65966,293.79125 476.07143,293.35269 472.29851,292.71341 468.69117,291.32637 465.00001,290.31698 461.07216,289.24287 457.06054,288.43985 453.21428,287.1027 449.48614,285.8066 446.03574,283.79507 442.32143,282.45984 439.75147,281.53599 437.16949,280.51265 434.46428,280.13841 429.68798,279.47765 424.8217,280.28722 420,280.31698 415.0001,280.34784 409.99841,280.19105 405,280.31698 397.90992,280.49561 390.83116,280.99058 383.75,281.38841 377.02152,281.76643 370.29998,282.26181 363.57143,282.63842 357.62092,282.97147 351.65347,283.03584 345.71428,283.53127 340.10036,283.99957 334.49578,284.63442 328.92857,285.49555 323.95627,286.26467 319.04427,287.38313 314.10714,288.3527 310.23542,289.11304 306.34955,289.8085 302.5,290.67413 298.6689,291.53562 294.8609,292.50198 291.07143,293.53127 285.56383,295.02724 280.06168,296.56161 274.64286,298.3527 270.06537,299.86571 265.56192,301.59823 261.07143,303.35269 256.57205,305.11063 252.18334,307.14433 247.67857,308.88841 242.77963,310.7851 237.79135,312.44259 232.85714,314.24556 226.24151,316.66293 219.57203,318.94271 213.03571,321.56698 207.07359,323.96073 201.40194,327.069 195.35715,329.24556 190.51839,330.98786 185.67695,333.40172 180.53571,333.53127 176.37888,333.63602 172.15488,332.44541 168.39286,330.67412 164.47229,328.82819 161.18987,325.78845 158.03571,322.81698 154.84017,319.80653 151.9351,316.44596 149.46429,312.81698 147.53115,309.97772 145.58642,307.01259 144.64286,303.70984 143.93805,301.2428 142.51788,298.04555 144.10714,296.03127 145.2285,294.61003 147.65667,295.03911 149.46429,295.13841 151.87265,295.27072 154.20683,296.16375 156.42857,297.1027 158.83603,298.12014 160.90632,299.80475 163.21429,301.03127 165.2595,302.11816 167.25765,303.36342 169.46428,304.06699 172.22396,304.94688 175.14006,305.42321 178.03571,305.49555 181.6598,305.5861 185.26585,304.85608 188.83928,304.24555 Z"
       id="path4607"
       inkscape:connector-curvature="0"
       sodipodi:nodetypes="aaaaaaaaaaaaaaaaaaaaaaaaaaaaaaaaaaaaaaaaaaaaaaaaaaaaaa" />
    <path
       style="fill:#000000;stroke:none;stroke-width:1px;stroke-linecap:butt;stroke-linejoin:miter;stroke-opacity:1;fill-opacity:1"
       d="M 205.17857,352.63842 C 209.20344,353.36462 212.96276,355.24653 216.60714,357.10269 220.63857,359.15599 224.75939,361.30418 228.03572,364.42412 231.15754,367.39694 233.68735,371.06535 235.53571,374.95984 237.17648,378.41693 237.60807,382.32783 238.57143,386.03127 239.57453,389.88748 240.5783,393.74565 241.42857,397.63842 242.57948,402.90758 243.6271,408.20325 244.46429,413.53127 245.29287,418.8045 245.6475,424.14366 246.42858,429.42413 247.19752,434.62254 248.41582,439.75054 249.10714,444.95984 249.71694,449.55486 250.23952,454.17297 250.40047,458.80548 250.50894,461.92735 250.79756,465.11231 250.17857,468.17413 249.76022,470.24347 249.88161,473.46806 247.85714,474.06698 245.89311,474.64802 244.15566,472.07949 242.85714,470.49555 241.20185,468.47642 240.55014,465.80091 239.64286,463.3527 238.32734,459.80288 237.4755,456.09793 236.42857,452.45984 235.02666,447.58822 233.57943,442.72773 232.32143,437.81698 231.47223,434.50205 230.88876,431.12152 230,427.81698 228.99751,424.08956 227.8349,420.40497 226.60714,416.74556 225.33733,412.9608 223.99325,409.19786 222.5,405.49556 221.01474,401.81307 219.23139,398.25722 217.67857,394.6027 216.32126,391.4083 215.38441,388.02174 213.75,384.95984 212.39728,382.42568 210.48668,380.23031 208.92857,377.81699 207.14553,375.05526 205.57193,372.16037 203.75,369.42413 201.59857,366.19302 198.93586,363.30374 196.96429,359.95985 195.62552,357.68923 192.18026,355.05587 193.57143,352.81698 195.61367,349.53029 201.37055,351.95134 205.17857,352.63842 Z"
       id="path4609"
       inkscape:connector-curvature="0"
       sodipodi:nodetypes="aaaaaaaaaaaaaaaaaaaaaaaaaa" />
    <path
       style="fill:#000000;stroke:none;stroke-width:1px;stroke-linecap:butt;stroke-linejoin:miter;stroke-opacity:1;fill-opacity:1"
       d="M 277.53941,343.71646 C 281.59054,342.91763 285.36648,341.07842 289.31941,339.88507 294.36867,338.36075 299.43121,336.86159 304.56099,335.63524 309.15314,334.53742 313.86938,333.99993 318.45059,332.85732 322.71427,331.7939 326.95547,330.59198 331.0775,329.06925 333.38943,328.21519 335.78736,327.44372 337.84001,326.0795 339.59728,324.91159 340.99762,323.27134 342.44171,321.73296 344.31119,319.74141 346.02058,317.60103 347.68111,315.43219 348.40418,314.48777 348.89048,313.35197 349.73455,312.51394 350.57146,311.68301 351.53402,310.90114 352.64259,310.49872 355.21958,309.56325 358.09303,309.82942 360.83359,309.75598 363.9059,309.67364 367.017,309.58433 370.04759,310.09563 373.11166,310.61257 376.0302,311.79332 378.96039,312.82759 382.4001,314.04169 385.88379,315.21184 389.11794,316.89883 391.96946,318.38623 394.84034,319.98962 397.18647,322.18944 399.44169,324.30404 401.84802,326.64846 402.76026,329.60234 403.76694,332.86201 403.27066,336.55785 402.29325,339.82641 401.65449,341.9625 400.29932,343.85912 398.88027,345.57877 397.53344,347.2109 395.88426,348.60504 394.13474,349.7954 392.70615,350.7674 390.79326,350.9793 389.50944,352.13579 387.2378,354.18212 385.9893,357.153 384.53898,359.84455 382.70897,363.24075 381.19971,366.8127 379.8644,370.43211 378.8046,373.30474 378.09396,376.29443 377.22807,379.23134 376.55608,381.51059 375.95025,383.80959 375.24212,386.07788 374.2595,389.22542 373.1186,392.3216 372.10335,395.45877 371.06345,398.67211 370.05825,401.89678 369.07924,405.12919 368.25901,407.83732 367.36947,410.52814 366.69172,413.2754 365.91047,416.44217 365.4756,419.68572 364.76071,422.86813 364.13838,425.63846 363.5205,428.41453 362.70867,431.13536 361.16888,436.29596 359.11699,441.2899 357.3721,446.38481 356.29766,449.52211 355.36447,452.70865 354.21166,455.81801 352.85136,459.48701 352.19388,463.6075 349.78326,466.68985 347.71303,469.33698 344.99483,472.47017 341.63814,472.63084 338.84883,472.76435 336.25972,470.47193 334.4292,468.36307 332.5421,466.18902 331.86712,463.16616 331.1182,460.38645 330.29536,457.3324 330.36139,454.10435 329.86076,450.98126 329.37127,447.92769 328.74311,444.89787 328.15427,441.86189 327.86233,440.35667 326.1783,438.44987 327.24872,437.3521 328.04899,436.53138 329.49052,437.91015 330.63633,437.94382 331.69625,437.97497 332.95948,438.2321 333.79677,437.58143 335.53312,436.23207 335.50577,433.5204 336.14358,431.4159 337.01967,428.52519 337.62163,425.55381 338.16389,422.58233 338.83466,418.90667 339.18611,415.17984 339.68546,411.47699 340.17139,407.87362 340.51906,404.24973 341.12037,400.66381 341.7312,397.02108 342.45954,393.3953 343.3256,389.80468 344.09425,386.61793 345.22887,383.52607 345.97725,380.3345 346.74991,377.03938 347.12582,373.66062 347.87128,370.35924 348.45592,367.7701 349.23298,365.22814 349.89159,362.65683 350.5375,360.13513 351.30764,357.63953 351.78562,355.08068 352.22178,352.7457 352.41215,350.371 352.66951,348.00961 352.86644,346.20264 353.15078,344.39755 353.17458,342.58004 353.19115,341.31465 353.88809,339.60943 352.92205,338.79197 351.63043,337.69902 349.54237,339.03197 347.87128,339.29704 344.94394,339.76139 342.07529,340.54105 339.1841,341.19371 334.54921,342.24 329.90253,343.24269 325.30194,344.43075 321.52727,345.40552 317.8168,346.61632 314.05021,347.62183 310.18835,348.65278 306.24679,349.38684 302.41813,350.53499 299.12288,351.52318 295.78201,352.46514 292.67901,353.9506 290.09169,355.18919 287.70526,356.82681 285.3681,358.48995 283.73458,359.65237 282.38976,361.20504 280.69615,362.27802 278.64473,363.57769 276.43056,364.65655 274.13015,365.43474 271.65632,366.27161 269.1725,367.06964 266.45837,367.02394 264.61211,366.99285 262.4088,366.77424 261.21058,365.24984 260.50627,364.27176 259.76954,363.45431 258.99341,362.60523 257.96264,361.47756 256.91586,360.35573 255.75908,359.35773 253.83826,357.70057 251.63111,356.40462 249.63766,354.83558 247.44453,353.10938 244.91111,351.67831 243.21961,349.45831 241.70502,347.47049 240.5934,345.09017 240.10249,342.63978 239.7268,340.76451 238.83971,338.14776 240.29375,336.90537 241.67607,335.72425 243.92618,337.20916 245.70692,337.57633 248.10174,338.07012 250.39291,338.97669 252.74997,339.62727 255.28532,340.32707 257.84984,340.91822 260.38476,341.61956 262.33748,342.15982 264.25224,342.83748 266.21853,343.32606 267.67924,343.68901 269.13958,344.13828 270.64166,344.23423 272.94269,344.38122 275.27725,344.16253 277.53941,343.71646 Z"
       id="path4611"
       inkscape:connector-curvature="0"
       sodipodi:nodetypes="aaaaaaaaaaaaaaaaaaaaaaaaaaaaaaaaaaaaaaaaaaaaaaaaaaaaaaaaaaaaaccaaaaaaaaaaaa" />
    <path
       style="fill:#000000;stroke:none;stroke-width:1px;stroke-linecap:butt;stroke-linejoin:miter;stroke-opacity:1;fill-opacity:1"
       d="M 274.44582,407.10354 C 276.24031,406.14975 277.8604,404.89544 279.62285,403.88367 281.4598,402.82914 283.36718,401.90232 285.24183,400.91635 287.00804,399.98741 288.62216,398.67194 290.54513,398.13843 291.92647,397.75518 293.40624,397.82049 294.83827,397.88589 296.66678,397.96939 298.52292,398.15378 300.26785,398.70665 301.83794,399.20412 303.47254,399.80409 304.68727,400.91635 305.63495,401.7841 306.58384,402.92038 306.70757,404.19935 306.84608,405.63112 306.01937,407.06303 305.19234,408.23996 304.23954,409.59587 302.77779,410.53258 301.40427,411.45982 300.20278,412.27094 298.83188,412.79741 297.55306,413.48012 295.84176,414.39372 294.155,415.35301 292.43916,416.25804 290.68261,417.18455 288.95126,418.16771 287.13586,418.97283 285.61376,419.64786 283.98919,420.07278 282.46391,420.74059 281.08448,421.34455 279.92722,422.68481 278.4233,422.7609 276.46761,422.85985 274.63956,421.63347 272.93059,420.67747 271.09744,419.65199 269.58724,418.1333 267.94296,416.82625 266.77226,415.89565 265.39308,415.16228 264.47056,413.9852 263.86667,413.21467 262.79027,412.21899 263.20788,411.33355 263.80009,410.07788 265.93634,410.77698 267.24848,410.3234 269.7325,409.46472 272.12502,408.33706 274.44582,407.10354 Z"
       id="path4613"
       inkscape:connector-curvature="0"
       sodipodi:nodetypes="aaaaaaaaaaaaaaaaaaaaa" />
    <path
       style="fill:#000000;stroke:none;stroke-width:1px;stroke-linecap:butt;stroke-linejoin:miter;stroke-opacity:1;fill-opacity:1"
       d="M 205.89286,481.38841 C 210.37336,480.60988 214.75598,479.31779 219.10715,477.99556 224.42083,476.38084 229.55113,474.211 234.82143,472.45984 238.60902,471.20135 242.42953,470.04329 246.25,468.88841 251.53295,467.29143 256.82941,465.73792 262.14286,464.24555 267.42531,462.76189 272.70952,461.27787 278.03571,459.95984 284.07734,458.46476 290.13343,457.00338 296.25,455.8527 303.29041,454.52822 310.37694,453.40233 317.5,452.63841 324.02346,451.93881 330.60542,451.94227 337.14286,451.38841 342.2125,450.9589 347.29843,450.59072 352.32143,449.78127 356.47097,449.11258 360.44018,447.16022 364.64285,447.1027 370.09422,447.02809 375.71835,447.95585 380.71428,450.13842 384.1071,451.62063 388.81818,453.13611 389.64286,456.74556 390.2122,459.23741 388.20548,462.1244 386.07143,463.53127 381.68433,466.42344 375.55411,465.55763 370.35714,464.78127 367.95208,464.42198 365.94166,462.64621 363.57143,462.1027 361.24419,461.56904 358.81607,461.59291 356.42857,461.56698 350.82575,461.50613 345.23666,462.13627 339.64286,462.45984 332.97433,462.84558 326.30728,463.25861 319.64286,463.70984 313.92649,464.09687 308.18896,464.27982 302.5,464.95984 297.82637,465.51849 293.16024,466.23356 288.57143,467.28127 284.21914,468.27498 280.02345,469.86467 275.71428,471.03127 272.63464,471.865 269.45365,472.33871 266.42857,473.3527 263.97564,474.17491 261.64413,475.32505 259.28571,476.38841 256.64014,477.58125 254.08434,478.96846 251.42857,480.13841 248.96043,481.22571 246.43192,482.17052 243.92857,483.17412 239.88631,484.79469 235.73704,486.1644 231.78571,487.99556 229.03139,489.27198 226.42793,490.8515 223.75,492.28127 220.2968,494.12496 217.13068,496.65402 213.39286,497.81698 209.84662,498.92034 205.91909,499.98899 202.32143,499.06699 199.9607,498.46198 198.27614,496.34217 196.34653,494.85364 194.34145,493.3069 192.4816,491.58042 190.53571,489.95985 188.52111,488.28206 184.1486,487.56251 184.46429,484.95984 184.66304,483.3212 187.33432,483.24475 188.92857,482.81698 191.9269,482.01247 195.12105,482.36552 198.21428,482.1027 200.77563,481.88507 203.36023,481.82848 205.89286,481.38841 Z"
       id="path4615"
       inkscape:connector-curvature="0"
       sodipodi:nodetypes="aaaaaaaaaaaaaaaaaaaaaaaaaaaaaaaaaaaa" />
    <path
       style="fill:#000000;stroke:none;stroke-width:1px;stroke-linecap:butt;stroke-linejoin:miter;stroke-opacity:1;fill-opacity:1"
       d="M 299.03317,503.02991 C 298.99668,506.76844 298.946,510.50689 298.92857,514.24556 298.9097,518.29313 298.92857,522.34079 298.92857,526.38841 298.92857,530.43603 298.99383,534.48418 298.92857,538.53127 298.86904,542.22319 298.64398,545.91102 298.57143,549.6027 298.49438,553.52339 298.77474,557.45577 298.48849,561.36675 298.1896,565.4502 297.45687,569.49228 296.78571,573.53127 296.31357,576.37254 295.97788,579.25686 295.15165,582.01604 294.21899,585.13065 294.09877,589.17636 291.42857,591.03127 289.46006,592.39874 286.63757,591.37389 284.24239,591.28381 281.3057,591.17336 278.4025,590.61911 275.47969,590.31327 272.85752,590.03888 270.23589,589.75456 267.60833,589.53771 265.42596,589.3576 262.51371,587.4695 261.05348,589.10134 259.64901,590.67086 261.39358,593.36218 262.16824,595.3207 263.36849,598.35524 265.4682,600.97768 267.5,603.53127 269.50731,606.05408 271.9042,608.24436 274.22072,610.48658 276.16234,612.36593 278.69544,613.70309 280.23087,615.92667 281.15776,617.26896 281.551,618.91951 282.01659,620.48287 282.38016,621.70366 282.14957,623.12626 282.79586,624.22389 283.81762,625.95921 285.49732,627.42991 287.37002,628.17041 289.24135,628.91036 291.54612,629.19754 293.40183,628.41923 295.27977,627.63159 296.35424,625.57194 297.5,623.88841 298.92842,621.78955 299.81919,619.36959 300.88017,617.06309 302.72783,613.0464 304.41481,608.95662 306.07514,604.85895 307.43633,601.49957 308.85197,598.15502 309.98206,594.71102 311.42352,590.31806 312.93604,585.90091 313.63642,581.33086 314.31619,576.89528 313.87242,572.35754 314.1415,567.87826 314.40146,563.55074 314.83712,559.23551 315.21293,554.91652 315.52684,551.30883 315.86194,547.703 316.20141,544.09762 316.53313,540.57457 316.8096,537.04534 317.22579,533.53127 317.74391,529.1566 318.50861,524.81403 319.05855,520.44325 319.39812,517.7445 319.64733,515.03509 319.9641,512.33357 320.42577,508.39641 321.29528,504.49226 321.41434,500.52991 321.46261,498.92338 321.56594,497.26008 321.11475,495.71745 320.40623,493.29494 319.07984,491.01526 317.43872,489.09762 315.5791,486.92466 313.0546,485.40399 310.67096,483.82342 308.02434,482.06847 305.17024,480.64423 302.35206,479.18056 299.6477,477.776 296.74681,476.7505 294.11612,475.21238 291.6542,473.77293 289.52121,471.82313 287.09953,470.31698 285.04294,469.0379 283.08146,467.41399 280.73595,466.81055 278.7352,466.29582 276.54405,466.31588 274.53825,466.81055 273.04671,467.17839 270.52692,467.41872 270.45803,468.9534 270.34698,471.42718 274.67295,471.55922 276.69906,472.98287 279.00583,474.60371 281.23708,476.33299 283.42349,478.11285 285.17205,479.53628 286.89956,480.99108 288.53182,482.5465 290.29152,484.22336 292.02844,485.93879 293.57143,487.81698 294.87002,489.39768 296.06744,491.07237 297.09953,492.83865 297.8786,494.17193 298.76123,495.51192 299.09445,497.01976 299.52677,498.97604 299.05273,501.02652 299.03317,503.02991 Z"
       id="path4617"
       inkscape:connector-curvature="0"
       sodipodi:nodetypes="aaaaaaaaaaaaaaaaaaaaaaaaaaaaaaaaaaaaaaaaaaaaaaaaa" />
    <path
       style="fill:#000000;stroke:none;stroke-width:1px;stroke-linecap:butt;stroke-linejoin:miter;stroke-opacity:1;fill-opacity:1"
       d="M 183.09015,524.47063 C 182.3329,526.37554 181.68157,528.32251 181.06985,530.27901 180.20286,533.05189 179.55926,535.89036 178.73387,538.6759 178.17604,540.55849 177.33263,542.3659 176.9661,544.29488 176.46593,546.92718 176.05204,549.65598 176.39789,552.31296 176.61608,553.98923 177.36827,555.55971 178.03939,557.11119 178.68224,558.59733 179.4958,560.00601 180.31223,561.40434 181.29534,563.08815 182.3737,564.71572 183.46896,566.32883 184.50238,567.85086 185.34755,569.5522 186.68882,570.81138 188.04683,572.08628 189.63372,573.26413 191.42391,573.77871 192.55656,574.10428 193.93688,574.36459 194.95944,573.77871 196.80091,572.72365 197.26895,570.20313 198.1793,568.286 199.08476,566.37917 199.98024,564.42229 200.38901,562.35136 200.87832,559.8724 200.78903,557.29769 200.64155,554.77521 200.49372,552.24671 200.03781,549.73838 199.50513,547.2622 198.98107,544.82609 198.18388,542.45663 197.48483,540.06486 196.85543,537.91143 196.25701,535.7468 195.52765,533.62514 194.9559,531.96195 194.35202,530.30595 193.63362,528.70064 192.91852,527.10271 192.30258,525.41577 191.23451,524.02869 190.02534,522.45838 188.78538,520.26542 186.81509,520.05122 185.925,519.95445 185.08169,520.71483 184.47911,521.37704 183.71835,522.21309 183.50771,523.42022 183.09015,524.47063 Z"
       id="path4619"
       inkscape:connector-curvature="0"
       sodipodi:nodetypes="aaaaaaaaaaaaaaaaaaaaaa" />
    <path
       style="fill:#000000;stroke:none;stroke-width:1px;stroke-linecap:butt;stroke-linejoin:miter;stroke-opacity:1;fill-opacity:1"
       d="M 357.97281,504.33072 C 360.1385,504.50666 362.06298,505.81476 364.03372,506.72983 365.73732,507.52086 367.32873,508.53484 368.99892,509.39417 371.05144,510.45022 373.18345,511.35092 375.21039,512.45526 377.12716,513.49958 379.00769,514.61585 380.82751,515.8212 382.02871,516.61681 383.18367,517.48208 384.31972,518.36825 385.61049,519.3751 386.87038,520.42309 388.09247,521.51229 389.50137,522.76798 390.84117,524.09941 392.19173,525.41765 393.42702,526.62338 394.65214,527.83994 395.85353,529.07946 397.17984,530.44787 398.52981,531.79759 399.76787,533.24634 400.57593,534.19191 401.42892,535.11971 402.05604,536.19385 402.78326,537.43947 403.35018,538.79284 403.72817,540.18479 404.10387,541.56829 404.37705,543.01572 404.30087,544.4473 404.22556,545.86251 403.68853,547.21696 403.29071,548.57719 402.87353,550.00362 402.33782,551.39272 401.84945,552.79637 401.26251,554.48331 400.62026,556.15115 400.06002,557.84714 399.4979,559.54883 399.15996,561.32763 398.48351,562.98719 397.94192,564.3159 397.35583,565.65382 396.50916,566.81224 395.62468,568.0224 394.71309,569.4173 393.32815,569.99063 391.69481,570.66679 389.76311,570.31229 388.02485,569.99063 386.43371,569.69619 384.90749,569.03732 383.49185,568.2535 382.30463,567.59616 381.13374,566.82546 380.23949,565.80472 379.03432,564.42907 378.25337,562.71146 377.54451,561.02553 376.34304,558.16798 376.00498,555.01013 374.95151,552.09478 374.19265,549.99471 373.1845,547.99316 372.27557,545.95356 370.98334,543.05387 369.69507,540.15157 368.32687,537.28695 367.55619,535.67336 366.75955,534.07168 365.92776,532.48872 364.86383,530.46398 363.64185,528.52347 362.61413,526.48011 361.65181,524.56681 360.82755,522.5871 359.94716,520.63475 358.82956,518.15636 357.54183,515.74512 356.62717,513.18488 355.96477,511.33073 355.23614,509.44923 355.06862,507.48745 354.99517,506.62732 354.74522,505.55515 355.31853,504.90976 355.91995,504.23274 357.07022,504.25739 357.97281,504.33072 Z"
       id="path4621"
       inkscape:connector-curvature="0"
       sodipodi:nodetypes="aaaaaaaaaaaaaaaaaaaaaaaaaaaaaaaaa" />
  </g>
</svg>
