<?xml version="1.0" encoding="UTF-8" standalone="no"?>
<!-- Created with Inkscape (http://www.inkscape.org/) -->

<svg
   xmlns:dc="http://purl.org/dc/elements/1.1/"
   xmlns:cc="http://creativecommons.org/ns#"
   xmlns:rdf="http://www.w3.org/1999/02/22-rdf-syntax-ns#"
   xmlns:svg="http://www.w3.org/2000/svg"
   xmlns="http://www.w3.org/2000/svg"
   xmlns:sodipodi="http://sodipodi.sourceforge.net/DTD/sodipodi-0.dtd"
   xmlns:inkscape="http://www.inkscape.org/namespaces/inkscape"
   width="512"
   height="512"
   viewBox="0 0 135.46667 135.46667"
   version="1.1"
   id="svg8"
   inkscape:version="0.92.4 (5da689c313, 2019-01-14)"
   sodipodi:docname="答.svg">
  <defs
     id="defs2" />
  <sodipodi:namedview
     id="base"
     pagecolor="#ffffff"
     bordercolor="#666666"
     borderopacity="1.0"
     inkscape:pageopacity="0.0"
     inkscape:pageshadow="2"
     inkscape:zoom="0.98994949"
     inkscape:cx="391.10328"
     inkscape:cy="280.23818"
     inkscape:document-units="px"
     inkscape:current-layer="layer1"
     showgrid="false"
     units="px"
     viewbox-height="512"
     inkscape:window-width="1920"
     inkscape:window-height="1001"
     inkscape:window-x="-9"
     inkscape:window-y="-9"
     inkscape:window-maximized="1">
    <inkscape:grid
       type="xygrid"
       id="grid3732" />
  </sodipodi:namedview>
  <metadata
     id="metadata5">
    <rdf:RDF>
      <cc:Work
         rdf:about="">
        <dc:format>image/svg+xml</dc:format>
        <dc:type
           rdf:resource="http://purl.org/dc/dcmitype/StillImage" />
        <dc:title></dc:title>
      </cc:Work>
    </rdf:RDF>
  </metadata>
  <g
     inkscape:label="圖層 1"
     inkscape:groupmode="layer"
     id="layer1"
     transform="translate(0,-161.53332)">
    <path
       style="fill:#000000;stroke:none;stroke-width:0.26458335px;stroke-linecap:butt;stroke-linejoin:miter;stroke-opacity:1;fill-opacity:1"
       d="M 23.674315,199.25762 C 24.575353,198.81804 25.50804,198.44531 26.408383,198.0043 27.463619,197.48743 28.517563,196.96376 29.533285,196.37301 30.563989,195.77354 31.57036,195.12913 32.540065,194.43531 33.648989,193.64188 34.766892,192.8439 35.747299,191.89625 36.440368,191.22634 37.134067,190.52479 37.618187,189.69127 37.880049,189.24042 38.171465,188.74234 38.152727,188.22129 38.119406,187.2947 37.425055,186.51471 37.016831,185.68223 36.538635,184.70705 35.756128,183.85951 35.480031,182.80908 35.380152,182.42909 35.476512,182.02288 35.45305,181.63068 35.420049,181.07904 34.938353,180.40424 35.293128,179.98052 35.547844,179.6763 36.089968,179.81055 36.479628,179.88533 37.651889,180.1103 38.624387,180.93395 39.689525,181.47273 40.338421,181.80096 41.024767,182.06775 41.62723,182.47499 42.333742,182.95256 43.259911,183.34907 43.564935,184.14543 43.920457,185.07363 43.367303,186.12591 43.184991,187.103 43.059891,187.77347 42.841616,188.42353 42.696308,189.08992 42.493431,190.02032 42.358579,190.96455 42.161768,191.89625 42.006346,192.63202 41.872318,193.37494 41.651549,194.09381 41.517634,194.52986 41.458477,195.02623 41.159508,195.37075 40.560527,196.06099 39.561356,196.25777 38.765546,196.7071 37.813076,197.24488 36.850211,197.76539 35.916021,198.33433 34.634581,199.11476 33.430227,200.01856 32.139161,200.78296 31.007278,201.45311 29.812012,202.01054 28.664657,202.65384 28.124874,202.95649 27.673833,203.50299 27.061042,203.58929 26.136239,203.71953 25.251209,203.12731 24.345152,202.90085 23.469376,202.68196 22.182896,203.02532 21.71565,202.25294 21.312362,201.58628 21.791819,200.59528 22.273813,199.98311 22.599051,199.57003 23.201796,199.48815 23.674315,199.25762 Z"
       id="path4631"
       inkscape:connector-curvature="0"
       sodipodi:nodetypes="aaaaaaaaaaaaaaaaaaaaaaaaaaaaa" />
    <path
       style="fill:#000000;stroke:none;stroke-width:0.26458335px;stroke-linecap:butt;stroke-linejoin:miter;stroke-opacity:1;fill-opacity:1"
       d="M 74.437689,172.83481 C 75.380776,172.86256 76.267862,173.29491 77.178016,173.54351 78.276743,173.84362 79.379146,174.13436 80.461683,174.48845 81.243068,174.74403 82.013112,175.03445 82.776787,175.3389 83.867876,175.77387 85.004452,176.13096 86.01321,176.73269 87.125365,177.3961 88.118955,178.25334 89.060641,179.14229 89.750159,179.79319 90.413904,180.48664 90.950523,181.2684 91.416914,181.94785 91.960942,182.65058 92.084453,183.46539 92.158765,183.95563 92.160764,184.56556 91.824594,184.93004 91.256123,185.54639 90.229169,185.53409 89.391372,185.56788 88.536314,185.60237 87.673373,185.39592 86.863655,185.11903 86.013796,184.82841 85.249522,184.32632 84.477682,183.86699 83.687547,183.39677 82.9347,182.86547 82.1862,182.33146 81.486182,181.83204 80.803465,181.30819 80.130954,180.77231 79.295923,180.10692 78.44626,179.45449 77.674109,178.71706 76.638288,177.72782 75.853392,176.48659 74.768418,175.55152 74.257206,175.11094 73.429086,175.00174 73.091148,174.41758 72.873704,174.0417 72.733174,173.46346 72.996654,173.11829 73.293694,172.72915 73.94835,172.82041 74.437689,172.83481 Z"
       id="path4633"
       inkscape:connector-curvature="0"
       sodipodi:nodetypes="aaaaaaaaaaaaaaaaaaa" />
    <path
       style="fill:#000000;stroke:none;stroke-width:0.26458335px;stroke-linecap:butt;stroke-linejoin:miter;stroke-opacity:1;fill-opacity:1"
       d="M 50.601564,203.68712 C 52.610514,203.35476 54.566406,202.75635 56.554689,202.31695 58.409567,201.90703 60.275347,201.54744 62.129838,201.13578 63.897602,200.74337 65.65349,200.29863 67.421505,199.90735 68.615769,199.64305 69.896256,199.65202 71.012278,199.1514 71.762389,198.81492 72.405447,198.25803 72.996654,197.68675 73.762529,196.94669 74.215403,195.92297 74.981029,195.18265 75.304841,194.86954 75.620656,194.43451 76.067711,194.37945 77.133022,194.24823 78.109583,195.08018 79.044273,195.60787 79.828752,196.05076 80.509078,196.65794 81.217637,197.21427 81.894862,197.746 82.992109,198.03287 83.202012,198.86792 83.437999,199.80673 82.917733,201.01951 82.115329,201.561 81.397328,202.04553 80.380351,201.49411 79.516742,201.561 78.293095,201.65578 77.084168,201.89733 75.878721,202.12796 74.482785,202.39503 73.124335,202.84802 71.720984,203.0729 70.565101,203.25813 69.384411,203.2441 68.224703,203.40363 66.385444,203.65664 64.551617,203.97205 62.744049,204.39582 61.419253,204.70642 60.130595,205.15483 58.822547,205.52975 57.437559,205.92671 56.057574,206.34217 54.664807,206.71092 53.771222,206.94751 52.843573,207.06521 51.971727,207.37238 51.47997,207.54563 51.07523,208.01164 50.554318,208.03384 49.548771,208.07669 48.631404,207.4203 47.719494,206.99441 46.632761,206.48687 45.509573,205.98223 44.601192,205.19902 43.794599,204.50357 43.084242,203.65188 42.616817,202.69493 42.353611,202.15607 41.783397,201.38613 42.191594,200.94679 42.648035,200.45552 43.570312,200.98966 44.17597,201.27752 44.972146,201.65592 45.413869,202.55677 46.160345,203.02566 46.811777,203.43485 47.525687,203.80921 48.286459,203.92335 49.053582,204.03843 49.836258,203.81373 50.601564,203.68712 Z"
       id="path4635"
       inkscape:connector-curvature="0"
       sodipodi:nodetypes="aaaaaaaaaaaaaaaaaaaaaaaaaaaaa" />
    <path
       style="fill:#000000;stroke:none;stroke-width:0.26458335px;stroke-linecap:butt;stroke-linejoin:miter;stroke-opacity:1;fill-opacity:1"
       d="M 49.803113,213.93972 C 49.849716,214.91366 51.005356,215.6635 50.93704,216.63616 50.84056,218.00982 49.62466,219.06625 48.819031,220.18304 47.53119,221.96829 45.918113,223.49526 44.506699,225.18451 42.869715,227.14373 41.350603,229.20054 39.687501,231.13764 38.204238,232.86527 36.642865,234.52462 35.089719,236.18971 32.933751,238.50107 30.813327,240.85076 28.537202,243.04389 26.384192,245.1184 24.089539,247.04124 21.828126,248.99701 19.647076,250.88328 17.515807,252.83591 15.213542,254.57216 13.455862,255.89771 11.61549,257.11623 9.7328871,258.25743 8.3950789,259.06839 6.95631,259.70297 5.6095511,260.49897 4.74954,261.00728 2.9259105,261.12936 3.0858785,262.11547 3.2792811,263.30768 5.3934466,263.08833 6.5983707,263.00506 9.6230107,262.79604 12.388152,261.07752 15.024554,259.58035 18.251075,257.74806 21.031022,255.21573 23.906995,252.87127 26.052086,251.12261 28.114049,249.27213 30.143602,247.39061 33.05113,244.69515 36.012733,242.03727 38.648067,239.07514 40.737732,236.72634 42.49992,234.10545 44.412203,231.61011 46.121249,229.37997 47.665005,227.01581 49.514883,224.90103 50.963066,223.24547 52.690911,221.85371 54.18898,220.24315 54.973646,219.39956 56.148831,218.73827 56.445372,217.62499 56.775064,216.38725 56.289833,214.99766 55.717097,213.85194 55.221477,212.86049 54.471541,211.89102 53.483633,211.38838 52.649708,210.96408 51.47499,210.57539 50.692699,211.08869 49.86035,211.63484 49.755532,212.94533 49.803113,213.93972 Z"
       id="path4637"
       inkscape:connector-curvature="0"
       sodipodi:nodetypes="aaaaaaaaaaaaaaaaaaaaaaaaa" />
    <path
       style="fill:#000000;fill-opacity:1;stroke:none;stroke-width:0.26458335px;stroke-linecap:butt;stroke-linejoin:miter;stroke-opacity:1"
       d="M 64.545593,207.26424 C 66.502333,207.64455 68.532492,207.86841 70.358706,208.66741 72.639408,209.66526 74.560739,211.34406 76.57272,212.81009 78.251041,214.033 79.834233,215.38154 81.450391,216.68549 83.310309,218.18612 85.199837,219.65297 86.996233,221.22908 88.879467,222.88138 90.614008,224.69699 92.475259,226.37402 93.765678,227.53672 95.080651,228.67268 96.417484,229.7817 97.491001,230.67227 98.494853,231.67098 99.691536,232.38758 102.25078,233.9201 105.09503,234.94204 107.91007,235.9289 110.85219,236.96031 113.93894,237.52315 116.93042,238.40115 119.14745,239.05185 121.28637,239.98702 123.54534,240.47248 125.36576,240.86369 127.22968,241.18278 129.09119,241.14066 130.03929,241.11921 130.9984,240.37135 131.89751,240.67294 132.45018,240.85832 133.18145,241.36523 133.10023,241.94247 132.95972,242.94106 131.38951,243.01492 130.49435,243.47927 129.14936,244.17695 127.8225,244.98624 126.35167,245.35015 124.5755,245.78961 122.69936,245.57918 120.87265,245.68424 119.2248,245.77901 117.5657,245.74458 115.92816,245.95151 114.68877,246.10812 113.47666,246.43401 112.2532,246.6865 111.20505,246.90281 110.17184,247.20031 109.11279,247.35467 108.00729,247.51581 106.8805,247.76029 105.77192,247.62195 104.67463,247.48502 103.59984,247.08683 102.6315,246.55287 100.80084,245.54342 99.26576,244.05438 97.753831,242.61064 96.030872,240.96539 94.578123,239.05852 93.009799,237.26525 90.629026,234.54301 88.387891,231.69689 85.927154,229.04671 83.998259,226.96931 81.79491,225.15373 79.91359,223.03315 78.071405,220.95669 76.669342,218.50809 74.768651,216.48504 73.256469,214.87551 71.694008,213.25025 69.824165,212.0751 68.251738,211.08687 66.305244,210.83427 64.679228,209.93694 63.867682,209.48908 62.730126,209.20226 62.407436,208.33332 62.247588,207.90288 62.359828,207.25219 62.741523,206.99697 63.246882,206.65907 63.94884,207.14826 64.545593,207.26424 Z"
       id="path4639"
       inkscape:connector-curvature="0"
       sodipodi:nodetypes="aaaaaaaaaaaaaaaaaaaaaaaaaaaaaaaa" />
    <path
       style="fill:#000000;stroke:none;stroke-width:0.26458335px;stroke-linecap:butt;stroke-linejoin:miter;stroke-opacity:1;fill-opacity:1"
       d="M 58.302828,228.16108 C 59.897002,227.91119 61.344153,227.07856 62.88579,226.60192 64.314987,226.16004 65.808727,225.9238 67.208894,225.39712 68.247299,225.00652 69.101594,224.0219 70.20908,223.95608 71.571308,223.87512 73.322742,224.146 74.083335,225.27901 74.527398,225.94051 74.356285,226.98468 73.941595,227.66498 73.531793,228.33726 72.635033,228.56289 71.909971,228.86978 70.196544,229.595 68.274365,229.70409 66.523813,230.33443 65.124584,230.83828 63.811217,231.55462 62.460567,232.17707 61.465569,232.63562 60.545969,233.30157 59.484004,233.57086 58.574117,233.80159 57.598433,233.89226 56.672808,233.73623 55.496116,233.53787 54.333768,233.06351 53.365515,232.36605 52.400792,231.67115 51.094661,230.85999 51.026786,229.67298 50.978281,228.82472 51.684174,227.8988 52.467821,227.57048 53.419501,227.17176 54.488244,228.0142 55.515255,228.11382 56.440238,228.20354 57.384715,228.305 58.302828,228.16108 Z"
       id="path4641"
       inkscape:connector-curvature="0"
       sodipodi:nodetypes="aaaaaaaaaaaaaaaa" />
    <path
       style="fill:#000000;fill-opacity:1;stroke:none;stroke-width:0.26458335px;stroke-linecap:butt;stroke-linejoin:miter;stroke-opacity:1"
       d="M 46.963543,245.21725 C 48.12199,246.38983 49.496695,247.36395 50.507069,248.66628 51.263825,249.64172 51.934604,250.71639 52.349703,251.87908 52.750642,253.00211 52.790452,254.22446 52.937629,255.40779 53.090822,256.6395 53.111433,257.88466 53.24404,259.11876 53.437141,260.91583 53.697117,262.70528 53.956102,264.49404 54.116008,265.59848 54.493429,266.68551 54.475819,267.80133 54.461148,268.73094 54.163035,269.63526 53.956102,270.54166 53.698467,271.67015 53.409709,272.79327 53.05841,273.8962 52.742335,274.88854 52.526805,275.9443 51.971726,276.82551 51.609619,277.40037 51.210576,278.11436 50.554316,278.29017 49.779071,278.49785 48.752387,278.24579 48.239213,277.62871 47.81436,277.11783 47.962832,276.30301 48.050225,275.64434 48.227208,274.31043 49.179366,273.17893 49.467636,271.86457 49.745038,270.59976 49.884619,269.27829 49.751118,267.99032 49.580496,266.34422 48.785395,264.82311 48.380954,263.21837 48.016948,261.77407 47.752774,260.30641 47.431265,258.85206 47.122613,257.45587 46.884615,256.04134 46.491074,254.66666 46.123689,253.38335 45.69361,252.11399 45.168157,250.88689 44.541557,249.42359 43.734405,248.04422 42.994794,246.63466 42.562628,245.81103 42.044152,245.03019 41.671875,244.17781 41.418715,243.59817 40.695464,242.90096 41.057665,242.38242 41.472613,241.78837 42.536424,242.12877 43.231028,242.33518 44.328099,242.6612 45.194374,243.53043 46.065849,244.27231 46.396667,244.55393 46.658204,244.90819 46.963543,245.21725 Z"
       id="path4643"
       inkscape:connector-curvature="0"
       sodipodi:nodetypes="aaaaaaaaaaaaaaaaaaaaaaaaa" />
    <path
       style="fill:#000000;fill-opacity:1;stroke:none;stroke-width:0.26458335px;stroke-linecap:butt;stroke-linejoin:miter;stroke-opacity:1"
       d="M 55.656995,245.59523 C 57.903415,245.09641 60.13942,244.5308 62.413321,244.17782 64.415583,243.867 66.456458,243.85978 68.460938,243.56361 69.894006,243.35187 71.304813,243.01003 72.726819,242.73359 73.572689,242.56915 74.512809,242.66198 75.264509,242.24069 76.139685,241.7502 76.326682,240.2783 77.296134,240.02008 78.44641,239.71371 79.63881,240.56335 80.697919,241.10676 81.919801,241.73368 83.162224,242.47944 84.00521,243.5636 84.768184,244.54486 85.503769,245.77231 85.422621,247.01264 85.333732,248.37127 83.89502,249.29135 83.390999,250.55616 82.797106,252.0465 82.650943,253.67841 82.257071,255.23362 81.833163,256.90743 81.338583,258.56319 80.934155,260.24181 80.639672,261.46409 80.443147,262.70919 80.130954,263.92707 79.951531,264.62701 80.003739,265.47214 79.516742,266.00594 79.061706,266.50471 78.310094,266.74965 77.634968,266.75518 76.97519,266.76058 76.230021,266.53961 75.784228,266.05319 75.275581,265.49819 75.148491,264.63235 75.170016,263.87983 75.196219,262.96378 75.86884,262.17583 76.067711,261.28124 76.328889,260.10638 76.350694,258.89025 76.445686,257.69046 76.562695,256.21259 76.563539,254.72701 76.681922,253.24924 76.752751,252.36508 76.909736,251.48865 76.965403,250.60341 77.017798,249.77021 77.132529,248.92551 77.012652,248.09932 76.915384,247.42895 76.957017,246.5454 76.39844,246.16219 75.760903,245.72481 74.845241,246.17258 74.083334,246.30393 73.017411,246.4877 72.003416,246.89877 70.965033,247.20163 70.078314,247.46025 69.197172,247.73814 68.3076,247.98677 67.511459,248.20928 66.703441,248.38846 65.909599,248.61904 64.560768,249.01082 63.262044,249.57815 61.893602,249.8947 60.637186,250.18534 59.324133,250.17593 58.066595,250.46167 57.182502,250.66256 56.336315,251.00407 55.468008,251.26487 54.713841,251.49139 53.948541,251.6814 53.20015,251.92633 52.32418,252.213 51.523101,252.8879 50.601564,252.87127 49.259416,252.84705 47.775675,252.3493 46.86905,251.35936 46.323974,250.7642 45.940901,249.8209 46.160345,249.04426 46.354517,248.35706 47.167042,248.01455 47.766741,247.62685 48.37642,247.2327 49.054543,246.93374 49.751116,246.72916 50.682854,246.45552 51.679271,246.48576 52.633187,246.30394 53.650127,246.1101 54.646361,245.81964 55.656995,245.59523 Z"
       id="path4645"
       inkscape:connector-curvature="0"
       sodipodi:nodetypes="aaaaaaaaaaaaaaaaaaaaaaaaaaaaaaaaaaaaaa" />
    <path
       style="fill:#000000;fill-opacity:1;stroke:none;stroke-width:0.26458335px;stroke-linecap:butt;stroke-linejoin:miter;stroke-opacity:1"
       d="M 59.011534,265.53347 C 60.203381,265.32819 61.413773,265.23742 62.602309,265.01375 64.175374,264.71773 65.719917,264.28629 67.279765,263.92707 68.728033,263.59355 70.173756,263.24838 71.626491,262.93489 72.553371,262.73487 73.475088,262.49997 74.414064,262.36792 75.603013,262.20071 76.814522,261.92726 78.004839,262.08444 79.264122,262.25072 80.448597,262.8144 81.595613,263.36011 82.361464,263.72447 83.392788,263.92291 83.768975,264.68302 84.035896,265.22235 84.024415,266.07269 83.579988,266.47841 82.742464,267.243 81.298501,266.34967 80.178201,266.52566 79.364488,266.65349 78.618454,267.06539 77.81585,267.25058 76.291316,267.60234 74.723502,267.72942 73.178925,267.97886 71.944224,268.17826 70.717229,268.4282 69.477445,268.59307 68.603732,268.70926 67.722365,268.7589 66.846435,268.85698 65.997537,268.95203 65.149066,269.05244 64.3032,269.17149 63.403254,269.29815 62.504588,269.43587 61.61012,269.59672 59.965545,269.89246 58.325483,270.21705 56.696429,270.5889 55.888331,270.77336 55.115699,271.20804 54.286831,271.20311 53.129327,271.19623 51.567355,271.27318 50.932293,270.30542 50.52171,269.67974 50.905912,268.74248 51.263022,268.08481 51.694279,267.29059 52.45295,266.61854 53.294644,266.28942 53.969511,266.02553 54.747726,266.32141 55.468006,266.24218 56.665351,266.11046 57.824446,265.73794 59.011534,265.53347 Z"
       id="path4647"
       inkscape:connector-curvature="0"
       sodipodi:nodetypes="aaaaaaaaaaaaaaaaaaaaaaa" />
  </g>
</svg>
