<?xml version="1.0" encoding="UTF-8" standalone="no"?>
<!-- Created with Inkscape (http://www.inkscape.org/) -->

<svg
   xmlns:dc="http://purl.org/dc/elements/1.1/"
   xmlns:cc="http://creativecommons.org/ns#"
   xmlns:rdf="http://www.w3.org/1999/02/22-rdf-syntax-ns#"
   xmlns:svg="http://www.w3.org/2000/svg"
   xmlns="http://www.w3.org/2000/svg"
   xmlns:sodipodi="http://sodipodi.sourceforge.net/DTD/sodipodi-0.dtd"
   xmlns:inkscape="http://www.inkscape.org/namespaces/inkscape"
   width="512"
   height="512"
   viewBox="0 0 512 512"
   version="1.1"
   id="svg8"
   inkscape:version="0.92.4 (5da689c313, 2019-01-14)"
   sodipodi:docname="願.svg">
  <defs
     id="defs2" />
  <sodipodi:namedview
     id="base"
     pagecolor="#ffffff"
     bordercolor="#666666"
     borderopacity="1.0"
     inkscape:pageopacity="0.0"
     inkscape:pageshadow="2"
     inkscape:zoom="0.7"
     inkscape:cx="228.8345"
     inkscape:cy="280.96701"
     inkscape:document-units="px"
     inkscape:current-layer="layer1"
     showgrid="false"
     units="px"
     inkscape:window-width="1208"
     inkscape:window-height="879"
     inkscape:window-x="405"
     inkscape:window-y="43"
     inkscape:window-maximized="0" />
  <metadata
     id="metadata5">
    <rdf:RDF>
      <cc:Work
         rdf:about="">
        <dc:format>image/svg+xml</dc:format>
        <dc:type
           rdf:resource="http://purl.org/dc/dcmitype/StillImage" />
        <dc:title></dc:title>
      </cc:Work>
    </rdf:RDF>
  </metadata>
  <g
     inkscape:label="圖層 1"
     inkscape:groupmode="layer"
     id="layer1"
     transform="translate(0,-161.53331)">
    <path
       style="fill:#000000;stroke:none;stroke-width:1px;stroke-linecap:butt;stroke-linejoin:miter;stroke-opacity:1;fill-opacity:1"
       d="M 142.5,245.31902 C 146.73124,243.56639 150.7041,241.22738 154.64286,238.89045 161.88389,234.59423 168.12388,228.60546 175.71429,224.96188 178.87076,223.4467 183.38979,219.12923 185.71428,221.74759 187.80087,224.09797 183.45462,227.65578 181.78571,230.31902 178.50769,235.55008 174.04433,239.94075 170,244.60474 165.25208,250.08013 160.95407,256.07213 155.35714,260.67616 151.80946,263.59448 147.84832,266.14247 143.57143,267.81902 139.15882,269.54878 134.32899,271.38566 129.64286,270.67617 124.26947,269.86263 118.9579,266.88961 115.35714,262.81902 113.23334,260.4181 112.13021,257.07734 111.78572,253.89045 111.3966,250.29073 110.56644,245.19594 113.57142,243.17616 116.71144,241.06563 120.97984,244.72937 124.64285,245.67616 127.52435,246.42095 130.23817,248.19805 133.21428,248.17617 136.45264,248.15236 139.50807,246.55832 142.5,245.31902 Z"
       id="path4578"
       inkscape:connector-curvature="0"
       sodipodi:nodetypes="aaaaaaaaaaaaaaa" />
    <path
       style="fill:#000000;stroke:none;stroke-width:1px;stroke-linecap:butt;stroke-linejoin:miter;stroke-opacity:1;fill-opacity:1"
       d="M 217.4279,206.84283 C 220.93825,207.83092 224.38335,209.28833 227.40688,211.32724 230.94401,213.71251 234.01877,216.82285 236.64618,220.18403 239.29585,223.57367 242.07824,227.19449 243.06424,231.38236 243.89187,234.89758 243.91237,238.90213 242.43661,242.19817 240.71824,246.03608 236.09317,247.79826 233.52907,251.13109 228.28683,257.94498 224.97261,266.04644 220.54501,273.41573 214.50819,283.46344 208.08944,293.27801 202.03051,303.3124 197.48143,310.84628 193.17916,318.52723 188.63855,326.06622 181.60378,337.74639 174.69912,349.51652 167.18025,360.8911 160.93255,370.34265 154.24942,379.50221 147.54355,388.6344 138.64183,400.75694 129.34905,412.58749 120.20815,424.53071 115.17339,431.10898 110.00269,437.58404 105.05586,444.22868 99.144735,452.16857 93.710025,460.45954 87.699443,468.32441 82.933926,474.56011 78.064371,480.72808 72.878917,486.61919 66.371738,494.01189 59.949019,501.57645 52.466656,507.98033 46.963467,512.6903 40.958167,516.86971 34.626185,520.38751 29.280232,523.35752 23.821789,526.72887 17.77484,527.64241 15.026754,528.05758 10.24625,529.42762 9.4844104,526.75481 8.2043187,522.26377 16.965759,521.15476 20.534813,518.14314 27.448437,512.30931 34.016339,506.07392 40.579416,499.84835 47.03824,493.72167 53.365359,487.4549 59.599,481.09925 66.038452,474.53376 72.503545,467.98048 78.582689,461.08003 85.823812,452.86061 92.583704,444.22693 99.387987,435.64239 106.90113,426.16352 114.34119,416.62102 121.48879,406.86355 127.04978,399.27203 132.262,391.43109 137.65123,383.7167 142.2532,377.12924 147.10624,370.71049 151.4616,363.95745 158.47782,353.07872 164.93401,341.84278 171.28213,330.56114 175.29984,323.42101 179.27553,316.24625 182.83761,308.86824 186.50922,301.26334 189.64419,293.41024 192.93914,285.63473 195.69349,279.13494 198.35571,272.59638 201.02036,266.05931 203.9141,258.96021 207.29103,252.03169 209.60665,244.72355 211.38289,239.11771 214.20129,233.40532 213.64726,227.55096 213.20582,222.88626 209.50383,219.12391 207.91811,214.71484 206.81616,211.65087 203.17559,207.7646 205.30607,205.30222 207.97112,202.222 213.50715,205.73922 217.4279,206.84283 Z"
       id="path4580"
       inkscape:connector-curvature="0"
       sodipodi:nodetypes="aaaaaaaaaaaaaaaaaaaaaaaaaaaaaaaaaaaa" />
    <path
       style="fill:#000000;stroke:none;stroke-width:1px;stroke-linecap:butt;stroke-linejoin:miter;stroke-opacity:1;fill-opacity:1"
       d="M 113.92858,330.67616 C 116.17735,334.68717 117.61979,339.12511 118.92857,343.53331 120.41711,348.54698 121.02965,353.78033 122.14286,358.89045 123.51985,365.21143 125.30168,371.4487 126.42857,377.81902 127.24394,382.42832 127.86301,387.07994 128.21429,391.7476 128.60748,396.97227 128.42462,402.22449 128.57142,407.46188 128.77167,414.6059 129.02384,421.74843 129.28571,428.89046 129.50399,434.8436 129.83131,440.79285 130,446.7476 130.2023,453.88858 129.65632,461.06677 130.35714,468.17616 130.87943,473.47446 130.94721,479.07329 133.21429,483.89045 134.47349,486.56604 135.97539,490.82797 138.92857,490.67617 142.52293,490.49141 143.81327,485.14541 145,481.74759 146.57456,477.23937 145.89273,472.23381 146.07143,467.46188 146.33427,460.44299 146.01656,453.41405 146.07143,446.39045 146.13096,438.77071 146.49599,431.15299 146.42857,423.53331 146.36533,416.38677 145.19628,409.23277 145.71429,402.10474 146.24913,394.74512 147.6618,387.42715 149.64285,380.31902 150.80625,376.14471 154.44043,372.5068 154.28571,368.17617 154.14499,364.23751 151.11859,360.95093 149.28572,357.46188 146.33268,351.8405 143.55815,346.03239 139.64285,341.03331 135.54204,335.79736 131.19684,330.28747 125.35714,327.10474 120.2096,324.29925 111.39015,318.24852 108.21429,323.17617 106.51165,325.81797 112.39156,327.93469 113.92858,330.67616 Z"
       id="path4582"
       inkscape:connector-curvature="0"
       sodipodi:nodetypes="aaaaaaaaaaaaaaaaaaaaaaa" />
    <path
       style="fill:#000000;stroke:none;stroke-width:1px;stroke-linecap:butt;stroke-linejoin:miter;stroke-opacity:1;fill-opacity:1"
       d="M 206.07112,312.90885 C 210.83478,311.37123 215.60926,309.82276 220.21326,307.85809 223.32954,306.52828 226.312,304.90103 229.30463,303.3124 232.03449,301.86326 234.35063,299.34947 237.38585,298.76672 240.76084,298.11873 244.37415,298.96177 247.60467,300.13401 250.53315,301.19665 252.99892,303.27604 255.50732,305.12349 258.66293,307.44762 261.85805,309.81672 264.45075,312.75566 266.30049,314.85242 268.28088,317.07948 269.05772,319.76545 270.08697,323.32412 269.47633,327.2253 268.85377,330.87713 268.21295,334.63614 266.62533,338.17716 265.26222,341.73845 264.09499,344.78796 262.3044,347.59535 261.34177,350.71548 260.30065,354.09001 259.92759,357.63777 259.37461,361.12569 258.64276,365.74194 257.88713,370.36885 257.5889,375.03323 257.24514,380.40973 257.77607,385.81144 257.5889,391.19567 257.43066,395.74785 256.96076,400.28385 256.64002,404.82748 256.27769,409.9603 255.86189,415.08948 255.53796,420.22487 255.16088,426.20286 254.72175,432.18012 254.55844,438.16777 254.42991,442.88006 254.6536,447.59682 254.55844,452.3099 254.46403,456.98595 254.15019,461.65515 253.99209,466.32948 253.80853,471.75673 253.13434,477.19993 253.54829,482.61448 253.83527,486.36814 255.13807,489.98624 255.56859,493.72616 255.89182,496.53406 256.09605,499.37082 255.98701,502.19516 255.84145,505.96551 255.54928,509.78339 254.55844,513.42413 253.54833,517.13568 253.57389,522.57669 250.01276,524.03073 247.14719,525.20077 243.54494,522.75187 241.42646,520.4952 238.14065,516.99506 238.34941,511.40001 236.79411,506.85814 235.17149,502.11966 234.14218,497.12905 231.89129,492.65473 230.20436,489.30145 227.01156,486.81027 225.5345,483.3594 224.52433,480.99931 224.83284,478.23103 223.93627,475.82549 222.79631,472.76689 220.33359,470.31509 219.2031,467.25298 218.33481,464.9011 215.72528,461.44603 217.68787,459.88605 220.30713,457.80411 223.92258,462.38388 226.80988,464.07459 229.56849,465.68993 231.97783,467.83882 234.5646,469.71709 236.28604,470.96704 237.71174,474.1264 239.73266,473.46183 243.54403,472.20848 242.70628,465.94726 243.38549,461.99301 244.38843,456.15407 243.85744,450.15238 243.95184,444.22868 244.06183,437.32685 243.80378,430.42167 243.95184,423.52055 244.13468,414.99811 245.05298,406.49528 245.04865,397.97088 245.04442,389.64353 244.29612,381.33315 243.95184,373.01293 243.68714,366.61595 243.20003,360.22248 243.20692,353.82003 243.21345,347.75403 243.32467,341.67077 243.95184,335.63728 244.35993,331.71136 246.13804,327.89978 245.91087,323.95925 245.74063,321.00616 245.55999,317.50401 243.44676,315.43423 241.57955,313.60541 238.48171,313.29875 235.87062,313.41393 231.93327,313.58762 228.45938,316.0982 224.75894,317.45454 219.98088,319.20586 215.21295,320.9847 210.43824,322.74515 204.84288,324.80817 199.3782,327.27086 193.64816,328.92336 191.12759,329.65028 188.56593,330.36667 185.94946,330.55589 183.18918,330.75551 180.33841,330.73297 177.66429,330.02017 174.81957,329.2619 172.02729,327.97644 169.73626,326.12749 167.06536,323.97196 161.74127,321.08398 163.34885,318.05153 165.05642,314.83046 170.61103,318.88595 174.25657,318.85247 177.9349,318.81868 181.60811,318.3893 185.2457,317.84232 187.72693,317.46922 190.15821,316.81753 192.61263,316.29645 194.87041,315.81712 197.14423,315.40568 199.38257,314.8425 201.63324,314.27622 203.86251,313.62175 206.07112,312.90885 Z"
       id="path4584"
       inkscape:connector-curvature="0"
       sodipodi:nodetypes="aaaaaaaaaaaaaaaaaaaaaaaaaaaaaaaaaaaaaaaaaaaaaaaaaaaaaaaa" />
    <path
       style="fill:#000000;stroke:none;stroke-width:1px;stroke-linecap:butt;stroke-linejoin:miter;stroke-opacity:1;fill-opacity:1"
       d="M 180,376.21188 C 183.88101,374.18296 187.60831,371.85862 191.25,369.42616 194.75455,367.08531 198.42353,364.88103 201.42857,361.92617 203.4574,359.93123 204.26558,356.75694 206.60714,355.14046 209.0094,353.48207 212.08915,352.42124 215,352.64046 217.23038,352.80843 219.83688,353.63246 221.07143,355.4976 222.7811,358.08056 222.46212,361.8633 221.42857,364.78331 220.58405,367.16924 218.27631,368.76793 216.42857,370.4976 213.63863,373.10927 210.48277,375.31468 207.32142,377.46188 203.3018,380.19203 199.20157,382.8582 194.82143,384.96188 189.72832,387.40798 184.56549,390.46969 178.92857,390.85474 174.54851,391.15393 169.59666,390.61429 166.07143,387.99759 164.3166,386.69503 162.03306,384.3074 162.85715,382.28331 164.21375,378.95126 169.83836,380.49097 173.21429,379.24759 175.53953,378.39119 177.80404,377.35989 180,376.21188 Z"
       id="path4586"
       inkscape:connector-curvature="0"
       sodipodi:nodetypes="aaaaaaaaaaaaaaa" />
    <path
       style="fill:#000000;stroke:none;stroke-width:1px;stroke-linecap:butt;stroke-linejoin:miter;stroke-opacity:1;fill-opacity:1"
       d="M 174.82143,424.96188 C 176.90346,424.07593 178.86905,422.93808 180.89286,421.92617 183.86905,420.43807 186.87653,419.01099 189.82143,417.46188 192.10861,416.25875 194.37308,415.01099 196.60714,413.71188 198.77809,412.44947 200.94711,411.17773 203.03571,409.78331 204.38238,408.88422 205.35793,407.1299 206.96429,406.92617 209.69471,406.57988 212.76146,407.95304 214.64286,409.96188 215.83956,411.23964 216.39287,413.21707 216.25,414.96188 216.04795,417.42941 214.48797,419.70625 212.85714,421.56902 211.13864,423.53193 208.69749,424.74558 206.42857,426.03331 202.7912,428.09771 198.77586,429.41325 195,431.21188 191.39512,432.92906 187.97971,435.05304 184.28571,436.56902 181.62136,437.66244 178.95085,439.19031 176.07143,439.2476 173.22665,439.3042 170.0173,438.77809 167.85714,436.92616 166.11806,435.43523 164.51891,432.91578 165,430.67617 165.39866,428.82026 167.6478,427.88564 169.28571,426.92617 170.97515,425.93652 173.01979,425.72852 174.82143,424.96188 Z"
       id="path4588"
       inkscape:connector-curvature="0"
       sodipodi:nodetypes="aaaaaaaaaaaaaaaaa" />
    <path
       style="fill:#000000;stroke:none;stroke-width:1px;stroke-linecap:butt;stroke-linejoin:miter;stroke-opacity:1;fill-opacity:1"
       d="M 108.21429,496.03331 C 111.52341,494.56272 114.73258,492.87447 118.03571,491.39045 121.63605,489.7729 125.37392,488.46323 128.92857,486.7476 133.3181,484.62902 137.46253,482.0342 141.78571,479.78331 146.50796,477.32465 151.4044,475.2024 156.07143,472.64045 160.33097,470.30219 164.26774,467.39641 168.57143,465.14045 171.63871,463.53261 174.84332,462.19712 178.03571,460.85474 181.21487,459.51792 184.3237,457.90409 187.67857,457.10474 191.86724,456.10672 196.27301,455.24623 200.53572,455.85474 203.39167,456.26243 206.91314,456.70835 208.57143,459.06902 209.56426,460.48237 209.55861,462.72134 208.75,464.24759 206.97178,467.60399 202.4941,468.59973 199.10714,470.31902 195.79546,472.0001 192.14025,472.90978 188.75,474.42617 184.74052,476.21953 180.84294,478.25792 176.96429,480.31903 173.64572,482.08251 170.46893,484.10546 167.14286,485.85474 164.38622,487.30454 161.58564,488.67343 158.75,489.96188 154.69392,491.80486 150.52782,493.3956 146.42857,495.14045 142.96946,496.61283 139.49753,498.05711 136.07143,499.60474 132.77132,501.09546 129.46818,502.5874 126.25,504.2476 122.24743,506.31245 118.75013,509.47066 114.46429,510.85474 112.46887,511.49915 110.3082,511.68084 108.21429,511.56902 104.68128,511.38035 101.21749,510.35476 97.857143,509.2476 95.199432,508.37193 92.486913,507.43644 90.178572,505.85474 88.373093,504.61761 84.863851,503.29487 85.535714,501.21188 86.331764,498.74387 90.651399,500.35734 93.214286,499.96188 96.067879,499.52157 99.002801,499.48148 101.78571,498.71188 104.02316,498.09313 106.09291,496.97606 108.21429,496.03331 Z"
       id="path4590"
       inkscape:connector-curvature="0"
       sodipodi:nodetypes="aaaaaaaaaaaaaaaaaaaaaaaaaaa" />
    <path
       style="fill:#000000;stroke:none;stroke-width:1px;stroke-linecap:butt;stroke-linejoin:miter;stroke-opacity:1;fill-opacity:1"
       d="M 166.17009,498.01931 C 164.08851,500.93358 162.55207,504.20319 160.86679,507.36322 158.56381,511.6815 156.6429,516.19802 154.3008,520.4952 152.00701,524.70375 149.49152,528.78894 146.9772,532.86957 144.93155,536.18955 143.03091,539.61962 140.66374,542.71856 138.52915,545.513 135.87055,547.86832 133.59267,550.54724 131.14854,553.42167 129.05664,556.59148 126.52161,559.38607 123.5219,562.69291 120.29439,565.80054 116.92516,568.72998 113.71037,571.52513 105.84847,572.41177 106.82363,576.55867 107.41316,579.06568 111.82649,578.17804 114.39978,578.07389 119.29845,577.87562 124.00918,575.90159 128.54191,574.03328 132.89608,572.23858 136.85552,569.6001 140.91628,567.21476 145.70952,564.39915 150.73323,561.86813 155.05841,558.37592 158.2543,555.79552 160.92233,552.61293 163.64471,549.53709 166.22383,546.62311 168.77545,543.66044 170.96832,540.44571 172.88054,537.64242 174.75391,534.75558 176.01908,531.60687 177.57193,527.74221 178.40918,523.60049 179.04954,519.48505 179.65908,515.5677 179.89618,511.57924 179.80715,507.61575 179.70256,502.95959 181.17292,497.38547 178.29192,493.72615 176.90832,491.96875 174.14537,490.89887 171.97847,491.45331 169.14754,492.17766 167.86852,495.64146 166.17009,498.01931 Z"
       id="path4592"
       inkscape:connector-curvature="0"
       sodipodi:nodetypes="aaaaaaaaaaaaaaaaaaaaa" />
    <path
       style="fill:#000000;stroke:none;stroke-width:1px;stroke-linecap:butt;stroke-linejoin:miter;stroke-opacity:1;fill-opacity:1"
       d="M 205.81858,507.36322 C 207.7907,505.16785 211.78779,506.16958 214.65742,506.85814 218.06895,507.67674 220.81715,510.23422 223.74879,512.16144 227.06902,514.34412 230.28264,516.70101 233.34524,519.23251 236.88063,522.15481 240.26155,525.27592 243.44676,528.57642 246.22391,531.45408 248.95152,534.41312 251.27544,537.66779 254.27893,541.8742 257.81981,546.04578 259.10413,551.05231 259.87835,554.07036 259.58181,557.36722 258.85159,560.39622 258.34861,562.48261 258.04167,565.34844 256.07367,566.2046 251.94774,567.99955 247.13611,564.33349 243.19423,562.16399 239.42659,560.09039 236.43979,556.81665 233.34524,553.83023 230.64381,551.22319 228.07114,548.46211 225.76909,545.49647 223.2351,542.23203 221.21774,538.59749 218.95056,535.14241 216.08129,530.76978 212.87105,526.60049 210.36427,522.01043 208.68461,518.93487 206.88814,515.82174 206.07112,512.41398 205.67811,510.77474 204.69209,508.61724 205.81858,507.36322 Z"
       id="path4594"
       inkscape:connector-curvature="0"
       sodipodi:nodetypes="aaaaaaaaaaaaaaaa" />
    <path
       style="fill:#000000;stroke:none;stroke-width:1px;stroke-linecap:butt;stroke-linejoin:miter;stroke-opacity:1;fill-opacity:1"
       d="M 319.71328,225.27812 C 326.09544,223.61806 332.51395,222.10076 338.90618,220.47989 347.75259,218.23672 356.53954,215.75433 365.42268,213.66136 373.63468,211.72652 381.91916,210.1133 390.17142,208.35806 397.74513,206.74715 405.28231,204.94878 412.89985,203.55984 419.43534,202.3682 425.97078,200.99291 432.59783,200.52938 439.06439,200.07707 445.56489,201.00925 452.04326,200.78191 457.10841,200.60417 462.1589,198.95394 467.19555,199.51923 472.46045,200.11014 478.20466,201.01557 482.34784,204.31745 484.94462,206.38694 487.39254,209.5832 487.3986,212.90375 487.40287,215.24266 485.8402,217.71507 483.86307,218.96466 479.64967,221.62762 473.94117,220.48253 468.96332,220.22735 462.63186,219.90278 456.60775,217.00068 450.2755,216.69182 443.69095,216.37065 437.13789,217.81066 430.57753,218.45959 424.34239,219.07636 418.08868,219.56882 411.8897,220.47989 403.24854,221.74989 394.66451,223.4184 386.13081,225.27812 379.34839,226.75619 372.64582,228.58145 365.92776,230.32888 359.68278,231.95326 353.48727,233.76434 347.23994,235.37964 340.44024,237.13776 333.80077,240.11963 326.78434,240.43041 319.63611,240.74703 312.18591,239.87549 305.57115,237.14741 302.39572,235.83779 296.58224,234.45833 297.23739,231.08649 298.09798,226.65728 306.00262,228.93933 310.36937,227.80349 313.49185,226.9913 316.59079,226.09031 319.71328,225.27812 Z"
       id="path4596"
       inkscape:connector-curvature="0"
       sodipodi:nodetypes="aaaaaaaaaaaaaaaaaaaaaaa" />
    <path
       style="fill:#000000;stroke:none;stroke-width:1px;stroke-linecap:butt;stroke-linejoin:miter;stroke-opacity:1;fill-opacity:1"
       d="M 365.54895,247.24894 C 363.51622,252.0517 361.04224,256.6559 358.85669,261.39107 356.53562,266.41986 354.25116,271.46609 352.03816,276.54336 349.70182,281.90361 347.36734,287.26723 345.21963,292.7058 343.34143,297.46188 341.69184,302.30511 339.91633,307.10047 338.57531,310.72235 336.00076,314.09946 335.87572,317.95961 335.81881,319.71641 335.74173,322.4024 337.39095,323.01038 340.30479,324.08455 342.96042,320.0904 345.21963,317.95961 350.30282,313.16535 353.59271,306.76785 357.594,301.03956 360.37489,297.05842 362.99144,292.96496 365.67522,288.91772 368.29452,284.96774 370.62797,280.81569 373.5039,277.04844 375.74793,274.10894 378.54534,271.62466 380.82751,268.71468 383.5512,265.24173 387.32161,262.13445 388.40365,257.85554 389.13066,254.98058 388.00292,251.91886 387.3935,249.0167 386.63292,245.39467 385.27675,241.92257 384.11051,238.4101 383.23797,235.78219 382.5069,233.08905 381.33258,230.58142 380.21213,228.18883 379.46877,225.26003 377.29197,223.76289 375.84955,222.77083 373.76575,222.29624 372.11495,222.879 370.31531,223.5143 369.02079,225.39429 368.32687,227.17215 367.60743,229.01539 368.22165,231.12824 368.2006,233.10679 368.17553,235.46369 368.62115,237.85867 368.2006,240.17787 367.75145,242.65478 366.53012,244.93072 365.54895,247.24894 Z"
       id="path4598"
       inkscape:connector-curvature="0"
       sodipodi:nodetypes="aaaaaaaaaaaaaaaaaaaaaa" />
    <path
       style="fill:#000000;stroke:none;stroke-width:1px;stroke-linecap:butt;stroke-linejoin:miter;stroke-opacity:1;fill-opacity:1"
       d="M 308.92857,317.10474 C 310.32744,319.79828 313.5094,321.09038 315.71429,323.17617 317.67116,325.02735 319.85351,326.70518 321.42857,328.89045 323.45201,331.69782 325.30816,334.80081 326.07143,338.17617 326.76738,341.25379 325.97699,344.48626 325.89286,347.64046 325.75469,352.82026 325.36106,357.99452 325.35714,363.17617 325.35304,368.59578 325.88095,374.00657 325.89285,379.42616 325.91574,389.84706 325.22658,400.25771 325,410.67617 324.82657,418.65136 324.70239,426.62788 324.64286,434.60474 324.60066,440.25934 324.47916,445.91663 324.64285,451.56902 324.76195,455.68134 324.43386,459.88135 325.35714,463.89045 326.05178,466.90674 326.91446,470.11158 328.92857,472.46188 330.5627,474.36879 332.92486,477.01553 335.35714,476.39045 338.1459,475.67376 338.81909,471.64948 339.64286,468.89045 341.31486,463.29047 340.30268,457.22019 340.71429,451.39045 341.13486,445.43388 341.85402,439.49771 342.14285,433.53331 342.48264,426.51671 342.26791,419.48286 342.5,412.46188 342.74021,405.19517 343.33513,397.94301 343.57143,390.67617 343.81522,383.17918 343.35802,375.65538 343.92857,368.17616 344.39471,362.06557 346.6966,356.08437 346.42857,349.96188 346.1589,343.80197 344.87772,337.53711 342.32143,331.92617 340.73205,328.43753 338.33677,325.25786 335.53571,322.64045 332.60367,319.90066 328.99815,317.899 325.35714,316.21188 321.3943,314.37563 317.0501,313.50607 312.85715,312.28331 311.31851,311.83461 309.42717,309.98562 308.21429,311.03331 306.67219,312.36538 307.98937,315.29631 308.92857,317.10474 Z"
       id="path4600"
       inkscape:connector-curvature="0"
       sodipodi:nodetypes="aaaaaaaaaaaaaaaaaaaaaaaaaa" />
    <path
       style="fill:#000000;stroke:none;stroke-width:1px;stroke-linecap:butt;stroke-linejoin:miter;stroke-opacity:1;fill-opacity:1"
       d="M 392.44426,288.16011 C 397.57985,287.75695 402.52767,286.02582 407.50989,284.71649 414.39462,282.90719 421.10344,280.47186 427.97817,278.62494 433.95733,277.01861 439.85369,274.57202 446.03836,274.28846 450.09811,274.10233 454.27941,274.66447 458.10418,276.03828 463.2944,277.90255 468.569,280.51469 472.24632,284.62458 475.71191,288.49784 479.17488,293.58203 478.81231,298.76672 478.57449,302.16742 475.04177,304.44887 473.25647,307.35301 472.03158,309.34554 470.64318,311.26452 469.72093,313.41393 467.57801,318.40823 466.04788,323.70718 465.17525,329.07129 463.82251,337.38665 464.43687,345.90482 464.16509,354.32511 463.83879,364.43463 463.46021,374.54562 463.42017,384.66032 463.3801,394.78184 463.88893,404.89939 463.92525,415.02092 463.97043,427.60921 464.10776,440.20754 463.56811,452.78434 463.23338,460.58524 462.47196,468.36283 461.78239,476.1404 461.4248,480.17368 460.7576,484.18192 460.56303,488.22633 460.32122,493.25266 461.80255,498.42909 460.62956,503.32261 459.21477,509.22486 455.44834,514.32468 452.30324,519.51568 449.98007,523.35007 448.60862,528.60344 444.54852,530.50481 442.99426,531.23268 440.86498,531.012 439.41636,530.09165 437.12499,528.63588 435.90103,525.68398 435.37575,523.02058 434.62015,519.18933 437.32938,515.28419 436.89098,511.40383 436.34678,506.58703 433.51378,502.31615 431.84021,497.76677 429.59051,491.65127 427.81515,485.34336 425.13155,479.40545 423.15301,475.02762 420.95603,470.70998 418.23905,466.7479 416.16808,463.72789 409.69179,461.73756 411.13209,458.37082 412.25976,455.73486 416.92127,457.23637 419.71838,457.86574 422.37283,458.46301 424.42963,460.59843 426.87611,461.78906 430.11299,463.36435 433.20871,465.86431 436.80432,466.03887 439.12822,466.1517 441.95343,465.70222 443.45697,463.92666 446.53424,460.29263 445.11022,454.53226 445.47727,449.78452 446.02615,442.68478 445.66358,435.54387 445.7425,428.42338 445.83338,420.22323 445.90971,412.02292 445.98235,403.82258 446.06929,394.00853 446.13066,384.19427 446.21694,374.38022 446.29938,365.00137 446.58836,355.62256 446.48743,346.24389 446.41864,339.85199 445.98493,333.46794 445.89044,327.07637 445.79428,320.57236 446.03072,314.06602 445.92107,307.56223 445.87799,305.00673 446.08474,302.41813 445.65059,299.89942 445.294,297.83071 445.43647,295.14835 443.75283,293.89452 442.26055,292.7832 439.99812,293.45316 438.17161,293.80786 434.84688,294.45352 431.91365,296.40135 428.80976,297.75656 423.56153,300.04803 418.324,302.36812 413.15239,304.82763 409.41269,306.60616 406.02597,309.2582 402.04071,310.38347 398.3001,311.43966 394.23195,312.17267 390.42396,311.39362 383.41524,309.95975 377.78343,304.69034 371.49104,301.28684 368.68359,299.76831 365.70114,298.52621 363.09383,296.68513 360.579,294.90936 357.66218,293.24747 356.20133,290.53756 355.10017,288.4949 354.16781,285.73562 355.18591,283.65032 356.3139,281.33994 359.34134,280.14626 361.89459,279.8443 366.68757,279.27747 371.26034,282.23614 375.80738,283.85427 378.82942,284.9297 381.53984,286.88092 384.65891,287.62966 387.18819,288.23682 389.85111,288.36368 392.44426,288.16011 Z"
       id="path4602"
       inkscape:connector-curvature="0"
       sodipodi:nodetypes="aaaaaaaaaaaaaaaaaaaaaaaaaaaaaaaaaaaaaaaaaaaaaaaaaaaa" />
    <path
       style="fill:#000000;stroke:none;stroke-width:1px;stroke-linecap:butt;stroke-linejoin:miter;stroke-opacity:1;fill-opacity:1"
       d="M 363.03572,361.21188 C 366.29403,359.38345 369.9836,358.45479 373.39286,356.92617 377.13383,355.24882 380.85764,353.51851 384.46429,351.56902 387.82293,349.75359 390.9812,347.58834 394.28572,345.67617 397.35322,343.90115 400.25922,341.75833 403.57143,340.49759 406.13586,339.52149 408.86889,338.53586 411.60715,338.71189 414.57602,338.90274 417.89175,339.64857 420,341.7476 421.34784,343.08954 422.27751,345.22874 421.96429,347.10474 421.56012,349.52546 419.32679,351.40418 417.32143,352.81903 414.84476,354.5664 411.47896,354.53565 408.75,355.85474 405.01778,357.65876 401.85776,360.48475 398.21429,362.46188 394.23508,364.6212 390.1928,366.7594 385.89286,368.17617 381.39138,369.65934 376.70352,370.98007 371.96429,371.03331 369.30247,371.06322 366.64418,370.41072 364.10715,369.60474 361.41681,368.75005 356.70343,368.84273 356.42857,366.03331 356.1631,363.31984 360.65807,362.54612 363.03572,361.21188 Z"
       id="path4604"
       inkscape:connector-curvature="0"
       sodipodi:nodetypes="aaaaaaaaaaaaaaaa" />
    <path
       style="fill:#000000;stroke:none;stroke-width:1px;stroke-linecap:butt;stroke-linejoin:miter;stroke-opacity:1;fill-opacity:1"
       d="M 362.14286,418.17616 C 364.16692,416.09563 367.26682,415.44721 369.82143,414.06902 373.8769,411.88113 378.14338,410.0376 381.96429,407.46188 384.29622,405.8899 386.26053,403.82912 388.48214,402.10474 390.55122,400.49875 392.4597,398.59437 394.82143,397.46188 397.09981,396.36935 399.61679,395.43749 402.14286,395.4976 405.26683,395.57194 408.62218,396.41415 411.07143,398.35474 413.24776,400.07909 416.08575,402.81826 415.35714,405.4976 414.5743,408.37638 410.09148,408.30532 407.5,409.78331 404.67127,411.39661 401.93671,413.17146 399.10715,414.78331 395.10321,417.06413 391.09839,419.35503 386.96429,421.39045 383.40192,423.14438 379.87089,425.05827 376.07143,426.21189 372.4289,427.31786 368.5625,428.88015 364.82143,428.17617 362.56417,427.7514 359.56585,426.81143 358.92858,424.60473 358.26386,422.30301 360.47225,419.89339 362.14286,418.17616 Z"
       id="path4606"
       inkscape:connector-curvature="0"
       sodipodi:nodetypes="aaaaaaaaaaaaaaa" />
    <path
       style="fill:#000000;stroke:none;stroke-width:1px;stroke-linecap:butt;stroke-linejoin:miter;stroke-opacity:1;fill-opacity:1"
       d="M 298.92857,483.17617 C 302.85522,482.68442 306.55836,481.07078 310.35714,479.96188 314.89422,478.63746 319.43702,477.32617 323.92857,475.85474 328.00759,474.51846 331.99164,472.90295 336.07143,471.56903 340.38499,470.15867 344.76108,468.94725 349.10715,467.64045 355.65353,465.67206 362.15851,463.55921 368.75,461.7476 374.66619,460.12159 380.66516,458.81242 386.60714,457.28331 390.66205,456.23982 394.81053,455.48739 398.75001,454.06903 401.95746,452.91422 404.66206,450.27294 408.03572,449.78331 411.72621,449.2477 415.80357,449.66042 419.10715,451.39045 422.27845,453.05122 426.5892,455.67135 426.42857,459.2476 426.32454,461.56364 423.35669,462.92261 421.25,463.89045 417.92233,465.41923 413.97595,464.75796 410.35714,465.31902 406.35342,465.93975 402.33802,466.5395 398.39285,467.46188 394.22895,468.4354 390.19759,469.9105 386.07143,471.03331 382.81176,471.92034 379.49146,472.58188 376.25,473.53331 372.999,474.48755 369.83265,475.71041 366.60715,476.74759 362.39512,478.10199 358.1463,479.33963 353.92857,480.67617 349.69371,482.01814 345.50345,483.50146 341.25,484.78331 336.16141,486.31684 330.94999,487.43475 325.89286,489.06902 322.45226,490.18089 319.18795,491.81521 315.71428,492.81903 312.96648,493.61309 310.18033,494.6924 307.32143,494.60474 302.87553,494.46841 298.69361,492.41077 294.46429,491.03331 292.04644,490.24583 289.35643,489.8795 287.32143,488.35473 285.89236,487.28398 283.42109,485.71769 284.10714,484.06902 285.1,481.68304 289.20556,483.14436 291.78571,482.9976 294.16356,482.86234 296.56533,483.47213 298.92857,483.17617 Z"
       id="path4608"
       inkscape:connector-curvature="0"
       sodipodi:nodetypes="aaaaaaaaaaaaaaaaaaaaaaaaaaa" />
    <path
       style="fill:#000000;stroke:none;stroke-width:1px;stroke-linecap:butt;stroke-linejoin:miter;stroke-opacity:1;fill-opacity:1"
       d="M 356.07143,494.06903 C 354.40971,497.6998 352.69327,501.31524 350.71429,504.78331 349.0286,507.7374 347.0681,510.52669 345.17857,513.35474 342.96794,516.66339 340.91712,520.10011 338.39286,523.17617 334.97481,527.34138 330.92296,530.94367 327.14285,534.78331 324.72152,537.24277 322.20316,539.6069 319.82143,542.10474 317.37885,544.66641 315.05952,547.34284 312.67857,549.96188 310.29762,552.58093 307.46287,554.85012 305.53572,557.81903 304.08455,560.05465 300.48923,563.20476 302.32143,565.14046 305.46788,568.46463 311.12875,562.45191 315.17858,560.31902 318.39294,558.62614 321.24335,556.30435 324.10714,554.06902 327.40006,551.49873 330.3726,548.54122 333.57143,545.85473 336.39048,543.4872 339.3956,541.34093 342.14286,538.89045 345.00135,536.34075 347.71919,533.63198 350.35715,530.85474 352.21592,528.89782 353.9838,526.85454 355.71429,524.78331 357.80638,522.27929 359.9786,519.82159 361.78572,517.10474 363.21698,514.95295 364.40505,512.64288 365.53572,510.31902 367.20445,506.88927 368.88846,503.43192 370,499.78331 371.00701,496.47784 371.50109,493.02901 371.96429,489.60474 372.37248,486.58719 372.96687,483.52896 372.67857,480.4976 372.38052,477.36372 373.02177,472.74184 370.17857,471.39045 368.18074,470.44087 365.69968,472.53382 364.10714,474.06902 362.43968,475.67644 361.88876,478.15195 361.07143,480.31903 360.43952,481.99449 360.22647,483.8047 359.64286,485.49759 358.63408,488.42383 357.35955,491.25455 356.07143,494.06903 Z"
       id="path4610"
       inkscape:connector-curvature="0"
       sodipodi:nodetypes="aaaaaaaaaaaaaaaaaaaaaaaaa" />
    <path
       style="fill:#000000;stroke:none;stroke-width:1px;stroke-linecap:butt;stroke-linejoin:miter;stroke-opacity:1;fill-opacity:1"
       d="M 404.28572,497.9976 C 408.89151,499.03329 413.17713,501.27261 417.32143,503.53331 422.0608,506.11861 426.48598,509.28385 430.71429,512.64045 434.77238,515.86192 438.73451,519.27372 442.14286,523.17616 445.6297,527.16848 448.44637,531.7134 451.25,536.21188 453.98382,540.59834 456.51051,545.12503 458.75,549.78331 460.50775,553.43953 462.60399,557.05395 463.39286,561.03331 464.44616,566.34658 467.54077,573.79976 463.39286,577.28331 460.75504,579.49865 456.50997,576.49972 453.21429,575.4976 449.4153,574.34244 445.75512,572.67028 442.32143,570.67617 438.41964,568.41021 434.38057,566.05283 431.42857,562.64045 429.52951,560.44522 428.67199,557.53121 427.32143,554.96188 424.48484,549.56552 422.05461,543.94589 418.92857,538.71188 416.11793,534.00596 412.62773,529.73782 409.64285,525.14045 406.67421,520.56808 403.84698,515.90397 401.07143,511.21188 399.53778,508.61924 397.64294,506.18334 396.60715,503.35474 395.94077,501.53496 394.26791,499.10617 395.53572,497.64045 397.44538,495.43267 401.43774,497.35718 404.28572,497.9976 Z"
       id="path4612"
       inkscape:connector-curvature="0"
       sodipodi:nodetypes="aaaaaaaaaaaaaaaaaa" />
  </g>
</svg>
