<?xml version="1.0" encoding="UTF-8" standalone="no"?>
<!-- Created with Inkscape (http://www.inkscape.org/) -->

<svg
   xmlns:dc="http://purl.org/dc/elements/1.1/"
   xmlns:cc="http://creativecommons.org/ns#"
   xmlns:rdf="http://www.w3.org/1999/02/22-rdf-syntax-ns#"
   xmlns:svg="http://www.w3.org/2000/svg"
   xmlns="http://www.w3.org/2000/svg"
   xmlns:sodipodi="http://sodipodi.sourceforge.net/DTD/sodipodi-0.dtd"
   xmlns:inkscape="http://www.inkscape.org/namespaces/inkscape"
   width="512"
   height="512"
   viewBox="0 0 135.46667 135.46667"
   version="1.1"
   id="svg8"
   inkscape:version="0.92.4 (5da689c313, 2019-01-14)"
   sodipodi:docname="顧.svg">
  <defs
     id="defs2" />
  <sodipodi:namedview
     id="base"
     pagecolor="#ffffff"
     bordercolor="#666666"
     borderopacity="1.0"
     inkscape:pageopacity="0.0"
     inkscape:pageshadow="2"
     inkscape:zoom="1.4"
     inkscape:cx="172.78474"
     inkscape:cy="233.26687"
     inkscape:document-units="px"
     inkscape:current-layer="svg8"
     showgrid="false"
     units="px"
     viewbox-height="512"
     inkscape:window-width="1920"
     inkscape:window-height="1001"
     inkscape:window-x="-9"
     inkscape:window-y="-9"
     inkscape:window-maximized="1">
    <inkscape:grid
       type="xygrid"
       id="grid3732" />
  </sodipodi:namedview>
  <metadata
     id="metadata5">
    <rdf:RDF>
      <cc:Work
         rdf:about="">
        <dc:format>image/svg+xml</dc:format>
        <dc:type
           rdf:resource="http://purl.org/dc/dcmitype/StillImage" />
        <dc:title></dc:title>
      </cc:Work>
    </rdf:RDF>
  </metadata>
  <g
     inkscape:label="圖層 1"
     inkscape:groupmode="layer"
     id="layer1"
     transform="translate(0,-161.53332)">
    <path
       style="fill:#000000;stroke:none;stroke-width:0.26458335px;stroke-linecap:butt;stroke-linejoin:miter;stroke-opacity:1;fill-opacity:1"
       d="M 39.498513,191.82811 C 39.680797,190.84018 42.356957,191.19028 42.356957,191.19028 L 44.742932,190.83592 49.2314,189.32402 52.349703,188.28458 C 52.349703,188.28458 54.559808,187.70481 55.656995,187.38689 56.709639,187.08188 58.798923,186.41833 58.798923,186.41833 L 62.507814,185.30803 66.618304,184.17409 68.886162,183.60713 C 68.886162,183.60713 69.642115,183.53626 70.799666,183.86699 70.799666,183.86699 71.912414,184.03072 74.012465,186.06397 76.340797,188.31825 75.547992,189.84374 75.547992,189.84374 75.547992,189.84374 75.453499,190.64694 73.894346,191.40289 72.335196,192.15884 67.610492,191.73362 67.610492,191.73362 L 62.082592,192.91479 56.979911,193.71799 52.06622,194.66293 47.152532,195.27714 C 47.152532,195.27714 47.010791,195.41889 44.79018,194.80468 42.569569,194.19047 41.695498,193.62351 41.695498,193.62351 41.695498,193.62351 39.332058,192.73026 39.498513,191.82811 Z"
       id="path3734"
       inkscape:connector-curvature="0"
       sodipodi:nodetypes="sccccacccccscscccccscs" />
    <path
       style="fill:#000000;stroke:none;stroke-width:0.26458335px;stroke-linecap:butt;stroke-linejoin:miter;stroke-opacity:1;fill-opacity:1"
       d="M 34.584823,201.46651 C 34.54454,200.81841 34.527791,199.9525 35.057293,199.57662 35.621485,199.17612 36.503429,199.46037 37.124351,199.76561 38.937005,200.6567 40.301713,200.61606 41.246654,204.20683 42.191594,207.79761 42.286088,206.80542 41.955359,208.22283 41.624629,209.64024 41.34967,211.34624 41.010418,212.90029 40.672299,214.44915 40.341395,216.00116 39.923737,217.53049 38.754481,221.81193 37.239237,225.99158 35.954986,230.23994 34.274219,235.80001 32.832551,241.43233 31.064918,246.96539 30.136559,249.87135 28.064733,255.6116 28.064733,255.6116 L 25.466146,261.61197 C 25.466146,261.61197 24.171465,263.86588 23.340031,265.13187 22.248001,266.67459 21.307482,267.70836 20.127233,268.84077 18.558317,270.34608 16.854921,271.73045 15.024554,272.90401 12.878187,274.28017 9.8510049,275.90419 8.1973589,276.35304 6.7327011,276.66015 5.622396,277.62871 2.7875744,275.92782 -0.04724703,274.22692 6.0948661,273.28198 6.7563245,273.32923 7.8666295,272.83314 6.7563245,273.32923 11.008557,270.63615 15.273508,267.93502 14.564873,268.07014 16.158483,266.57291 17.190793,265.60303 18.126773,264.52782 18.993304,263.40735 19.750866,262.42779 20.150857,261.91908 21.04855,260.31268 21.946244,258.70628 23.892382,254.98081 25.08817,252.20981 26.670491,248.5431 29.222286,240.96502 29.222286,240.96502 L 31.844494,230.71242 33.639883,223.10564 35.813244,215.59337 C 35.813244,215.59337 36.933247,212.23398 37.183409,210.49069 37.380322,209.11847 37.986608,207.70311 37.277903,206.33295 36.569198,204.96279 35.789705,204.23015 35.210847,203.08472 34.949984,202.56853 34.620702,202.04376 34.584823,201.46651 Z"
       id="path3736"
       inkscape:connector-curvature="0"
       sodipodi:nodetypes="saassaaaacccaacccsaasaccccasas" />
    <path
       style="fill:#000000;stroke:none;stroke-width:0.26458335px;stroke-linecap:butt;stroke-linejoin:miter;stroke-opacity:1;fill-opacity:1"
       d="M 47.77443,209.70308 C 48.931213,208.86243 50.747802,208.50037 50.747802,208.50037 L 54.690027,207.0972 58.146642,205.85367 C 58.146642,205.85367 58.966342,205.59381 59.467471,204.59155 L 60.569958,202.38658 C 60.569958,202.38658 60.593236,201.34853 61.261409,201.31512 61.882336,201.29353 61.304949,201.21727 62.574481,201.3175 64.058097,201.56044 64.235,201.50342 65.013315,201.78522 65.575735,201.98885 66.070739,202.34588 66.583522,202.65384 67.949894,203.47443 70.058028,203.99019 70.592565,205.25972 71.127106,206.52925 71.22733,207.43129 71.060288,207.73197 70.893243,208.03264 70.250583,208.87094 69.890983,209.46922 69.5984,209.956 69.325497,210.45616 69.089174,210.97261 68.806056,211.59132 68.567413,212.23078 68.354182,212.87691 68.144205,213.51318 67.995057,214.16795 67.819645,214.81461 67.638605,215.48201 67.476336,216.15457 67.285104,216.81913 67.10782,217.43521 66.887849,218.03867 66.717158,218.65661 66.592028,219.10961 66.490633,219.56887 66.383071,220.02636 66.178763,220.89535 66.096173,221.49462 65.791847,222.63833 65.54271,223.30997 65.579236,223.31964 64.879679,223.66791 64.144688,223.76814 63.30353,223.92869 62.574481,223.60109 62.574481,223.60109 62.373681,223.37297 62.088867,222.79153 61.721372,222.05654 61.451622,220.65911 61.338358,219.55864 61.239139,218.59463 61.362151,217.62024 61.405176,216.65209 61.450265,215.63749 61.46785,214.61811 61.605627,213.6119 61.671997,213.12719 61.936447,212.66363 61.906305,212.17532 61.878749,211.72891 62.006532,211.03943 61.471994,210.90579 60.937454,210.77216 59.950583,211.03773 59.200202,211.17306 58.692507,211.26462 58.206342,211.45984 57.696811,211.54056 56.957825,211.65763 56.206583,211.6992 55.458428,211.7076 54.387968,211.71962 53.310964,211.69193 52.251193,211.54056 51.243084,211.39656 50.199436,211.27215 49.277822,210.83897 48.709394,210.57179 47.320194,210.35703 47.77443,209.70308 Z"
       id="path3742"
       inkscape:connector-curvature="0"
       sodipodi:nodetypes="ccccccccaaccaaaaaaaccccaaaacaaaaac" />
    <path
       style="fill:#000000;stroke:none;stroke-width:0.26458335px;stroke-linecap:butt;stroke-linejoin:miter;stroke-opacity:1;fill-opacity:1"
       d="M 50.908668,222.23157 C 51.610748,222.18263 53.014028,222.07263 53.014028,222.07263 54.000481,221.99816 54.918736,221.80517 55.86101,221.61568 56.809168,221.425 57.741098,221.16101 58.680804,220.93228 59.38968,220.75974 60.095003,220.57208 60.806922,220.41256 61.614652,220.23157 62.418731,220.01878 63.240144,219.91647 64.077168,219.81222 64.927746,219.72294 65.767859,219.79835 66.352539,219.85083 66.932985,219.99082 67.484269,220.19254 68.377263,220.5193 69.582864,220.65482 70.020092,221.49924 70.255865,221.95459 70.123963,222.6201 69.806293,223.02261 69.345382,223.60662 68.454681,223.7901 67.711906,223.98831 66.934325,224.19581 66.110165,224.14997 65.3072,224.20414 64.438153,224.26277 63.567391,224.29476 62.696801,224.32226 61.819091,224.34998 60.935987,224.27646 60.062782,224.3695 59.556024,224.4235 59.062656,224.56604 58.562689,224.66479 57.688506,224.83746 56.824186,225.07018 55.940477,225.18451 55.30671,225.2665 54.665906,225.31478 54.026973,225.30263 53.314861,225.28909 52.606177,225.18906 51.900856,225.09002 51.223259,224.99487 50.554835,224.84301 49.881046,224.72385 48.854195,224.54226 47.796074,224.49499 46.798179,224.19233 46.35288,224.05727 45.758744,224.14508 45.522508,223.62536 45.286272,223.10564 46.108314,222.9352 46.502883,222.73948 47.055613,222.46531 47.709714,222.47385 48.321895,222.39694 49.179173,222.28923 50.046742,222.29165 50.908668,222.23157 Z"
       id="path3744"
       inkscape:connector-curvature="0"
       sodipodi:nodetypes="asaaaaaaasaaaaaaaaaasaaa" />
    <path
       style="fill:#000000;stroke:none;stroke-width:0.26458335px;stroke-linecap:butt;stroke-linejoin:miter;stroke-opacity:1;fill-opacity:1"
       d="M 43.130622,216.7189 C 43.039501,217.83152 43.841003,218.83558 44.1997,219.89273 44.498432,220.77316 44.840558,221.63973 45.101733,222.53202 45.259551,223.0712 45.446649,223.61004 45.502638,224.16904 45.584834,224.98969 45.428594,225.81694 45.402411,226.64128 45.371646,227.6099 45.295478,228.57956 45.335594,229.54784 45.414171,231.44442 45.781751,233.31876 45.93695,235.21062 45.999881,235.97773 46.043288,236.74661 46.070587,237.51581 46.116013,238.79578 46.052231,240.07887 46.1207,241.35781 46.161959,242.12851 46.304448,243.49597 46.337857,243.66301 46.371263,243.83006 47.340116,245.68424 47.340116,245.68424 47.340116,245.68424 47.607385,246.35241 47.941472,246.08514 48.275559,245.81787 48.409194,245.61742 48.576239,244.94925 48.743281,244.28107 48.943735,242.94473 48.943735,242.94473 L 49.043959,240.57271 48.876917,236.26299 48.977141,232.35417 49.344637,228.87967 50.046219,225.97311 C 50.046219,225.97311 50.561949,224.15348 50.614169,223.21689 50.643497,222.69088 50.59127,222.15556 50.469247,221.64305 50.323983,221.03293 50.083082,220.44123 49.778951,219.89273 49.288602,219.00839 48.620378,218.23226 47.974881,217.4539 47.305854,216.64717 46.710488,215.72744 45.836725,215.14869 45.372697,214.84133 44.785901,214.38067 44.266518,214.58075 43.513416,214.87086 43.196497,215.91454 43.130622,216.7189 Z"
       id="path3746"
       inkscape:connector-curvature="0"
       sodipodi:nodetypes="saaaaaaaaccscccccccaaaaaas" />
    <path
       style="fill:#000000;stroke:none;stroke-width:0.26458335px;stroke-linecap:butt;stroke-linejoin:miter;stroke-opacity:1;fill-opacity:1"
       d="M 32.991083,247.53842 C 33.82905,247.57435 34.527283,248.24338 35.346396,248.42375 35.788068,248.52101 36.252806,248.595 36.699448,248.52398 37.394874,248.4134 38.024831,248.03867 38.653857,247.72217 39.635698,247.22815 40.530685,246.57758 41.47689,246.01833 42.567913,245.37348 43.659692,244.72933 44.767647,244.11403 45.616942,243.64238 47.340116,242.74427 47.340116,242.74427 47.340116,242.74427 50.251018,241.39495 51.683247,240.67294 52.742005,240.1392 53.759627,239.52563 54.823663,239.0025 55.86579,238.49014 56.921356,238.00238 57.997488,237.56593 58.8201,237.2323 59.657567,236.93408 60.50314,236.66389 61.329327,236.39989 62.166006,236.16723 63.008792,235.96231 63.809927,235.76752 64.524493,235.57739 65.430922,235.46118 65.741995,235.4804 66.202962,235.47151 66.316253,235.76186 66.468419,236.15183 66.023186,236.58117 65.714898,236.86435 65.266891,237.27587 64.606483,237.36654 64.044461,237.59934 63.15029,237.96972 62.191443,238.19458 61.338357,238.65171 60.792342,238.94429 60.314063,239.34942 59.818262,239.72079 59.45356,239.99397 59.10318,240.28579 58.749186,240.57271 58.334346,240.90894 57.942975,241.27494 57.513063,241.59167 57.014477,241.959 56.476824,242.27012 55.959559,242.61064 55.335241,243.02164 54.725306,243.45511 54.088672,243.84676 53.4769,244.22311 52.819731,244.52397 52.217784,244.91584 51.777262,245.20263 51.366664,245.5331 50.948255,245.85128 50.215888,246.40821 49.485703,246.96876 48.77669,247.55513 48.201898,248.0305 47.672001,248.55915 47.089551,249.0251 46.442532,249.54271 45.77031,250.02932 45.085029,250.49509 44.513903,250.88328 43.916641,251.23154 43.331074,251.59758 42.508275,252.1119 41.639155,252.55764 40.858831,253.13438 40.443067,253.44167 40.090736,253.82729 39.689524,254.15334 39.310129,254.46167 39.00391,254.96758 38.520221,255.03867 38.014719,255.11296 37.525647,254.76044 37.083648,254.50414 36.406466,254.11147 35.85468,253.5318 35.27958,253.00074 34.495634,252.27683 33.747255,251.51231 33.041197,250.71224 32.650502,250.26953 32.216292,249.84693 31.93871,249.32579 31.71353,248.90303 31.27688,248.37754 31.504396,247.95603 31.748894,247.50306 32.476814,247.51637 32.991083,247.53842 Z"
       id="path3748"
       inkscape:connector-curvature="0"
       sodipodi:nodetypes="aaaaaacaaaaacaaaaaaaaaaaaaaaaaaaaaaaa" />
    <path
       style="fill:#000000;stroke:none;stroke-width:0.26458335px;stroke-linecap:butt;stroke-linejoin:miter;stroke-opacity:1;fill-opacity:1"
       d="M 64.3032,229.05877 C 65.42765,229.366 66.437843,230.01609 67.421505,230.64154 68.306789,231.20443 69.163608,231.83342 69.901974,232.57867 70.767717,233.45248 71.478125,234.47517 72.146207,235.50799 72.565514,236.15622 72.94807,236.83411 73.245541,237.54653 73.447658,238.03058 73.667621,238.52832 73.705359,239.05151 73.756168,239.75593 73.667672,240.49912 73.383474,241.14566 73.180986,241.60631 72.915509,242.16111 72.439229,242.32347 71.569488,242.61996 70.589727,242.06906 69.760231,241.67372 68.995008,241.30901 68.331616,240.73681 67.73815,240.13152 67.084774,239.46513 66.557135,238.67699 66.084504,237.87226 65.76956,237.33602 65.522772,236.75963 65.306361,236.17661 64.999032,235.34865 64.877336,234.45968 64.5726,233.63076 64.30027,232.88999 63.989609,232.15822 63.598549,231.47267 63.293289,230.93754 62.541206,230.57681 62.53549,229.96076 62.531858,229.56939 62.841571,229.16039 63.192897,228.9879 63.525793,228.82446 63.945459,228.96103 64.3032,229.05877 Z"
       id="path3752"
       inkscape:connector-curvature="0"
       sodipodi:nodetypes="aaaaaaaaaaaaaaaaa" />
    <path
       style="fill:#000000;stroke:none;stroke-width:0.26458335px;stroke-linecap:butt;stroke-linejoin:miter;stroke-opacity:1;fill-opacity:1"
       d="M 80.314496,184.71337 C 82.44712,183.64764 85.086007,184.68393 87.463955,184.51292 89.968749,184.33279 92.45957,183.98582 94.947502,183.6443 97.483241,183.29622 100.00195,182.83356 102.53128,182.44159 104.59037,182.1225 106.67586,181.94917 108.71188,181.50614 110.05861,181.2131 111.37968,180.80511 112.68751,180.37025 113.62647,180.05804 114.51641,179.60629 115.46183,179.31422 116.39146,179.02703 117.32797,178.67176 118.30018,178.633 119.08865,178.60157 119.88164,178.77821 120.63878,179.00049 121.7248,179.31931 122.76136,179.81171 123.74579,180.37025 124.76704,180.94968 125.80078,181.56598 126.61894,182.40817 126.9267,182.72497 127.35682,183.069 127.35393,183.51066 127.35084,183.98326 126.93056,184.39689 126.55213,184.67997 125.74561,185.28327 124.67801,185.48742 123.67898,185.61541 122.01911,185.82805 120.32454,185.54966 118.66768,185.31473 117.51479,185.15126 116.42373,184.58596 115.25999,184.54634 113.6607,184.49188 112.10518,185.09416 110.51595,185.28132 108.59635,185.50739 106.65563,185.52108 104.73625,185.74904 102.24002,186.04552 99.779727,186.60058 97.286111,186.91835 94.91072,187.22105 92.458981,187.03608 90.13665,187.61993 88.732631,187.97292 87.57364,189.22069 86.127608,189.29037 84.614672,189.36327 83.151845,188.60563 81.784478,187.95402 80.828113,187.49827 79.307651,187.23024 79.14519,186.18336 79.049176,185.56465 79.754425,184.99326 80.314496,184.71337 Z"
       id="path3754"
       inkscape:connector-curvature="0"
       sodipodi:nodetypes="aaaaaaaaaaaaaaaaaaaaaaaa" />
    <path
       style="fill:#000000;stroke:none;stroke-width:0.26458335px;stroke-linecap:butt;stroke-linejoin:miter;stroke-opacity:1;fill-opacity:1"
       d="M 93.927087,196.36382 C 93.045777,198.10626 92.119061,199.82926 91.092265,201.49013 90.529466,202.40047 89.893946,203.26406 89.273253,204.13596 88.734357,204.89296 88.045438,205.55429 87.619607,206.3802 87.376542,206.85163 86.809221,207.46484 87.123513,207.8921 87.440838,208.32348 88.209224,207.99366 88.729912,207.86848 89.787957,207.61411 90.732589,206.99797 91.659228,206.42744 92.961432,205.62567 94.200083,204.70387 95.320874,203.66349 96.588591,202.48673 97.624868,201.08254 98.746283,199.76561 99.275756,199.14383 99.838304,198.54561 100.30544,197.87573 100.80603,197.15786 101.57371,196.48133 101.62835,195.60787 101.70104,194.44589 100.83795,193.40472 100.25819,192.39508 99.686469,191.39944 98.933477,190.51684 98.202943,189.63112 97.578742,188.87433 96.928704,188.13457 96.218568,187.45776 95.700374,186.96389 95.204141,186.40983 94.564922,186.0876 94.007249,185.80648 93.349518,185.47847 92.745912,185.63875 92.304488,185.75596 91.884039,186.14595 91.753724,186.58369 91.596769,187.11091 91.904282,187.68921 92.1317,188.19009 92.484029,188.96608 93.163904,189.54904 93.619981,190.26896 94.044434,190.93896 94.43807,191.631 94.777532,192.34782 94.933369,192.67689 95.175908,192.99955 95.179134,193.36364 95.183902,193.90185 94.819328,194.37877 94.612167,194.87554 94.401969,195.3796 94.173579,195.87648 93.927087,196.36382 Z"
       id="path3756"
       inkscape:connector-curvature="0"
       sodipodi:nodetypes="aaaaaaaaaaaaaaaaaaaaaaa" />
    <path
       style="fill:#000000;stroke:none;stroke-width:0.26458335px;stroke-linecap:butt;stroke-linejoin:miter;stroke-opacity:1;fill-opacity:1"
       d="M 83.020599,204.82541 C 84.142615,205.33008 85.249525,205.88016 86.294652,206.52925 86.775263,206.82774 87.403662,207.02942 87.664409,207.53151 87.936478,208.0554 87.748708,208.71404 87.697815,209.30217 87.601977,210.40971 87.215229,211.47502 87.063052,212.57623 86.769345,214.7016 86.651916,216.84868 86.528513,218.9907 86.388171,221.42674 86.22564,223.8681 86.294651,226.3072 86.348089,228.19587 86.577951,230.07644 86.795781,231.95326 87.066864,234.28891 87.740647,236.58506 87.798044,238.93568 87.829989,240.24398 87.71339,241.56675 87.430547,242.8445 87.279817,243.52543 87.308229,244.42723 86.728964,244.81561 85.951115,245.33714 84.741786,245.13588 83.922634,244.68198 83.187674,244.27473 82.879468,243.3531 82.486059,242.61064 82.094868,241.87236 81.657848,241.10428 81.584024,240.27203 81.490816,239.22127 82.071688,238.21377 82.185381,237.16503 82.330654,235.82498 82.298741,234.4704 82.285609,233.12257 82.268449,231.3614 82.133981,229.60333 82.051747,227.844 81.956479,225.80583 81.770757,223.77051 81.751069,221.73021 81.72946,219.49093 82.108841,217.24891 81.951521,215.01506 81.854672,213.63987 81.526146,212.28985 81.249937,210.9392 80.979345,209.61602 80.584636,208.32024 80.314495,206.99697 80.156298,206.22205 79.810032,205.44247 79.91359,204.65837 79.955345,204.34222 80.019116,203.90993 80.314495,203.78974 81.209112,203.42573 82.139761,204.42922 83.020599,204.82541 Z"
       id="path3758"
       inkscape:connector-curvature="0"
       sodipodi:nodetypes="aaaaaaaaaaaaaaaaaaaaaaaa" />
    <path
       style="fill:#000000;stroke:none;stroke-width:0.26458335px;stroke-linecap:butt;stroke-linejoin:miter;stroke-opacity:1;fill-opacity:1"
       d="M 103.6836,206.33295 C 104.84371,205.96047 105.9223,205.36935 107.05602,204.92295 108.03441,204.53772 109.03777,204.21777 110.0147,203.82886 110.7227,203.54701 111.40219,203.19476 112.11719,202.93116 112.6126,202.74852 113.11019,202.55626 113.6291,202.45869 114.04056,202.38132 114.46727,202.31598 114.88213,202.37231 115.32025,202.43179 115.77267,202.55709 116.13319,202.81305 116.62655,203.16332 117.06184,203.66129 117.26712,204.23046 117.41942,204.65275 117.36731,205.13466 117.29074,205.577 117.08504,206.7653 116.41086,207.82339 116.01507,208.96257 115.68099,209.92414 115.32557,210.88247 115.08802,211.87231 114.88145,212.73306 114.72876,213.61048 114.65805,214.49285 114.55452,215.78474 114.66055,217.08493 114.66853,218.38094 114.67357,219.19991 114.6787,220.01891 114.69216,220.83778 114.70886,221.85373 114.75121,222.8692 114.76302,223.88522 114.77995,225.3419 114.80872,226.7995 114.76302,228.25557 114.71507,229.78324 114.54014,231.30476 114.47549,232.83182 114.43242,233.8492 114.50944,234.87267 114.40867,235.88596 114.32873,236.68985 114.15566,237.48265 113.98345,238.27194 113.83607,238.94744 113.74605,239.64882 113.46373,240.27994 113.1623,240.95378 112.94639,241.92436 112.23531,242.12257 111.6822,242.27674 111.15884,241.70122 110.67615,241.39024 110.20658,241.08771 109.82583,240.66565 109.40049,240.30356 108.87304,239.85454 108.31252,239.44177 107.81771,238.95702 107.41925,238.56666 107.16755,238.02029 106.70741,237.70497 106.40939,237.50074 106.04531,237.40058 105.6916,237.327 105.40593,237.26757 105.0919,237.18047 104.81753,237.27975 104.67606,237.33094 104.54693,237.44896 104.4868,237.58686 104.3609,237.87558 104.41569,238.22495 104.4868,238.5318 104.5838,238.95035 104.81524,239.33199 105.05376,239.68935 105.34492,240.12557 105.7509,240.47315 106.09319,240.87052 106.43603,241.26852 106.74985,241.69199 107.10901,242.07532 107.4936,242.48579 107.94968,242.82628 108.32562,243.24468 108.53196,243.47432 108.74868,243.70389 108.89258,243.97702 109.05451,244.28436 109.09082,244.64344 109.21149,244.9692 109.40886,245.502 109.69967,245.99906 109.87296,246.54017 110.06989,247.15512 110.14477,247.80283 110.29818,248.43005 110.46654,249.11838 110.62678,249.81 110.84152,250.4853 111.03256,251.08606 111.3415,251.64769 111.50298,252.25706 111.72979,253.11301 111.7737,254.00736 111.9282,254.87927 112.07371,255.70043 112.20141,256.52631 112.40068,257.33611 112.51336,257.79404 112.56094,258.2895 112.8087,258.69076 113.12588,259.20447 113.52161,259.92085 114.12519,259.9347 114.69997,259.94789 115.09826,259.27711 115.43189,258.80889 115.98438,258.03353 116.24738,257.07622 116.48754,256.15494 116.83616,254.81755 116.86573,253.41663 117.03089,252.04445 117.19653,250.66824 117.51675,249.29597 117.47973,247.91033 117.4541,246.95086 117.07808,246.02623 117.01652,245.0684 116.94644,243.97786 117.03211,242.88064 117.12537,241.79184 117.23799,240.477 117.49732,239.17882 117.66872,237.87034 117.79251,236.92527 117.87514,235.97467 118.01902,235.03245 118.18726,233.9307 118.43984,232.84317 118.61841,231.74305 118.76543,230.83729 118.88733,229.92754 119.00687,229.01774 119.18458,227.66513 119.3145,226.30649 119.49557,224.95433 119.67127,223.64224 119.88543,222.33559 120.07545,221.0255 120.2408,219.88555 120.36796,218.73969 120.56295,217.60443 120.81607,216.13069 121.12869,214.66748 121.44819,213.20669 121.77658,211.70524 122.06986,210.19246 122.50839,208.71941 122.8825,207.46271 123.75071,206.32764 123.84493,205.01982 123.87781,204.5634 123.73763,204.10031 123.56837,203.67516 123.34261,203.1081 122.99974,202.58324 122.60365,202.11888 122.13806,201.57302 121.57757,201.10152 120.97601,200.71055 120.24647,200.2364 119.44771,199.84805 118.61366,199.60025 117.73723,199.33986 116.8112,199.23162 115.89695,199.22227 114.7837,199.21089 113.67729,199.42567 112.58016,199.61479 111.16681,199.85841 109.78233,200.24711 108.38468,200.56881 106.99792,200.888 105.59428,201.14322 104.22694,201.53738 103.25951,201.81626 102.3614,202.33742 101.37185,202.52314 100.85315,202.62049 100.31642,202.61833 99.78977,202.58422 99.304955,202.55282 98.835338,202.28421 98.352788,202.34057 98.112057,202.36869 97.773365,202.39908 97.683225,202.62406 97.565168,202.91872 97.893019,203.22891 98.0612,203.49813 98.330452,203.92914 98.706557,204.28424 99.053388,204.65568 99.513216,205.14814 99.944464,205.68385 100.49442,206.07309 100.91234,206.36888 101.36573,206.68911 101.87437,206.7477 102.48903,206.81849 103.0945,206.52209 103.6836,206.33295 Z"
       id="path3760"
       inkscape:connector-curvature="0"
       sodipodi:nodetypes="aaaaaaaaaaaaaaaaaaaaaaaaaaaaaaaaaaaaaaaaaaaaaaaaaaaaaaaaaaaaaaaaaaaaaaaaaaaa" />
    <path
       style="fill:#000000;stroke:none;stroke-width:0.26458335px;stroke-linecap:butt;stroke-linejoin:miter;stroke-opacity:1;fill-opacity:1"
       d="M 90.704598,217.50401 C 91.356304,217.20163 92.061596,217.03152 92.742528,216.80242 93.536916,216.53515 94.350279,216.32158 95.131249,216.01732 95.860346,215.73327 96.595317,215.4458 97.269406,215.04847 97.526519,214.89692 97.725177,214.65591 97.987694,214.51393 98.399855,214.29101 98.847094,214.11752 99.307336,214.02951 99.936489,213.9092 100.59177,213.90806 101.22834,213.97939 102.01346,214.06736 102.78309,214.29305 103.52518,214.56405 104.17315,214.80067 105.0624,214.85778 105.38771,215.46607 105.56003,215.78827 105.37741,216.21437 105.23738,216.55186 105.08203,216.92628 104.79498,217.24016 104.50239,217.52071 104.15008,217.85852 103.74474,218.15555 103.29968,218.35593 102.24927,218.82887 101.07266,218.95338 99.942102,219.17444 99.196326,219.32027 98.428187,219.34085 97.687017,219.50852 97.039374,219.65504 96.423136,219.91775 95.78272,220.09318 94.981665,220.31261 94.190772,220.70305 93.36059,220.67784 92.923986,220.66458 92.527466,220.41467 92.107764,220.29363 91.697652,220.17536 91.278146,220.08967 90.871641,219.95955 90.475649,219.83279 89.983817,219.83125 89.702338,219.52523 89.534057,219.34228 89.478119,219.05439 89.501884,218.80695 89.531642,218.49711 89.707646,218.19978 89.919495,217.97173 90.12682,217.74855 90.428271,217.63222 90.704598,217.50401 Z"
       id="path3762"
       inkscape:connector-curvature="0"
       sodipodi:nodetypes="aaaaaaaaaaaaaaaaaaaaaa" />
    <path
       style="fill:#000000;stroke:none;stroke-width:0.26458335px;stroke-linecap:butt;stroke-linejoin:miter;stroke-opacity:1;fill-opacity:1"
       d="M 88.843978,229.09683 C 89.391001,228.80845 89.92418,228.49006 90.491645,228.24434 91.149741,227.95939 91.827496,227.71345 92.520053,227.52729 93.290369,227.32023 94.082589,227.20043 94.872026,227.0862 95.369489,227.01422 95.873658,226.99736 96.372118,226.93265 96.8741,226.86748 97.36999,226.75969 97.872214,226.69642 98.244981,226.64946 98.620529,226.55225 98.99433,226.59011 99.530873,226.64446 100.04169,226.86046 100.54167,227.06258 100.95296,227.22885 101.3547,227.42652 101.72704,227.6677 102.00483,227.84764 102.28469,228.03934 102.50064,228.29017 102.6994,228.52103 103.02963,228.78253 102.9614,229.07943 102.83726,229.61961 102.0788,229.76314 101.58027,230.00538 100.69184,230.43709 99.676272,230.5471 98.761902,230.92073 98.244745,231.13205 97.757388,231.41026 97.261461,231.66749 96.839731,231.88623 96.43708,232.14206 96.007389,232.34471 95.613794,232.53034 95.231484,232.79771 94.798045,232.8365 94.201663,232.88987 93.614086,232.6374 93.040364,232.46604 92.450632,232.2899 91.907657,231.97891 91.32074,231.79361 90.693398,231.59554 90.035374,231.50862 89.403185,231.32662 88.936562,231.19228 88.435237,231.11967 88.021209,230.86597 87.710227,230.67541 87.217164,230.4621 87.241631,230.0982 87.260119,229.82321 87.670783,229.75041 87.903089,229.60211 88.203153,229.41056 88.529064,229.26284 88.843978,229.09683 Z"
       id="path3764"
       inkscape:connector-curvature="0"
       sodipodi:nodetypes="aaaaaaaaaaaaaaaaaaaaaaa" />
    <path
       style="fill:#000000;stroke:none;stroke-width:0.26458335px;stroke-linecap:butt;stroke-linejoin:miter;stroke-opacity:1;fill-opacity:1"
       d="M 74.106958,246.49292 C 75.380169,245.17936 77.486677,245.09137 79.186013,244.41405 81.006286,243.68853 82.79576,242.87058 84.666669,242.28794 87.263456,241.47925 89.937174,240.93137 92.604169,240.39805 94.434701,240.032 96.282,239.7495 98.132072,239.50036 99.450657,239.32279 100.77632,239.20126 102.10082,239.07514 103.42234,238.9493 104.7851,238.40916 106.06957,238.74441 106.80498,238.93635 107.50197,239.41314 107.95945,240.02008 108.38813,240.58881 108.9203,241.40549 108.62091,242.0517 108.30618,242.73103 107.26001,242.68985 106.54204,242.90215 105.15877,243.31118 103.71268,243.46832 102.28981,243.70535 100.87716,243.94068 99.450904,244.0883 98.037578,244.31956 96.74196,244.53156 95.451993,244.77747 94.163322,245.02826 92.174452,245.41532 90.194973,245.84917 88.210196,246.25669 86.745833,246.55736 85.245955,246.71777 83.816221,247.15438 82.512741,247.55243 81.311204,248.23131 80.03646,248.71353 79.132736,249.05539 78.2596,249.58552 77.296133,249.65847 76.641582,249.70802 75.978011,249.52257 75.359005,249.30411 74.674516,249.06255 73.699802,248.94454 73.445501,248.26468 73.224645,247.67423 73.668202,246.94558 74.106958,246.49292 Z"
       id="path3766"
       inkscape:connector-curvature="0"
       sodipodi:nodetypes="aaaaaaaaaaaaaaaaaaaa" />
    <path
       style="fill:#000000;stroke:none;stroke-width:0.26458335px;stroke-linecap:butt;stroke-linejoin:miter;stroke-opacity:1;fill-opacity:1"
       d="M 77.210728,262.55691 C 78.428703,262.04371 79.663559,261.54342 80.792412,260.85602 82.43213,259.85753 84.012418,258.71988 85.375374,257.36785 86.240208,256.50994 87.027747,255.54662 87.612036,254.47772 88.086882,253.60904 88.250193,252.60279 88.607743,251.67962 88.973594,250.73501 89.000085,249.51977 89.783187,248.87722 90.239246,248.50301 90.955155,248.34621 91.517488,248.52454 92.239638,248.75355 92.82499,249.46361 93.076641,250.17819 93.475462,251.31066 93.114816,252.6122 92.793158,253.76896 92.557297,254.61717 92.020851,255.35162 91.611981,256.13131 91.019494,257.26115 90.515413,258.45097 89.769349,259.48585 89.091555,260.42603 88.22635,261.21744 87.406995,262.03719 86.784612,262.65988 86.171803,263.30118 85.469867,263.83258 84.675222,264.43416 83.818431,264.96331 82.91853,265.39173 81.938084,265.85849 80.927254,266.36347 79.847471,266.47841 79.207893,266.54649 78.54226,266.44025 77.933681,266.2321 77.233856,265.99274 76.596729,265.5719 76.020464,265.10825 75.592634,264.76403 74.894974,264.44847 74.901357,263.8994 74.905469,263.54572 75.343761,263.33079 75.640113,263.13771 76.107798,262.83301 76.696337,262.77365 77.210728,262.55691 Z"
       id="path3768"
       inkscape:connector-curvature="0"
       sodipodi:nodetypes="aaaaaaaaaaaaaaaaaaaa" />
    <path
       style="fill:#000000;stroke:none;stroke-width:0.26458335px;stroke-linecap:butt;stroke-linejoin:miter;stroke-opacity:1;fill-opacity:1"
       d="M 100.30543,251.73734 C 101.39107,251.70543 102.41017,252.29201 103.42374,252.68228 104.57756,253.12655 105.70116,253.65801 106.77828,254.26506 107.56026,254.70577 108.26979,255.26432 109.02251,255.75334 109.71128,256.20082 110.44426,256.58347 111.10138,257.07625 111.98975,257.74245 112.86048,258.44983 113.60547,259.27324 114.24173,259.97648 114.76821,260.77694 115.25912,261.58834 115.68386,262.29039 116.04423,263.03198 116.36942,263.78533 116.68138,264.50801 117.00041,265.23787 117.17262,266.00594 117.35604,266.82403 117.46359,267.67342 117.40886,268.51004 117.37195,269.07426 117.49688,269.84344 117.03088,270.16368 116.38843,270.60518 115.44336,270.11278 114.71578,269.83295 113.7944,269.47859 113.0233,268.80401 112.25893,268.17931 111.10344,267.23496 110.02085,266.18733 109.06976,265.03738 107.90472,263.62873 107.01026,262.01608 106.02232,260.47804 105.25226,259.2792 104.6498,257.9671 103.77809,256.84001 103.14434,256.02059 102.33846,255.35001 101.62836,254.59578 101.13561,254.07242 100.63264,253.55781 100.1637,253.01301 99.900554,252.70729 99.299555,252.45666 99.407742,252.06807 99.493271,251.76086 99.986676,251.74671 100.30543,251.73734 Z"
       id="path3772"
       inkscape:connector-curvature="0"
       sodipodi:nodetypes="aaaaaaaaaaaaaaaaaaaa" />
  </g>
</svg>
