<?xml version="1.0" encoding="UTF-8" standalone="no"?>
<!-- Created with Inkscape (http://www.inkscape.org/) -->

<svg
   xmlns:dc="http://purl.org/dc/elements/1.1/"
   xmlns:cc="http://creativecommons.org/ns#"
   xmlns:rdf="http://www.w3.org/1999/02/22-rdf-syntax-ns#"
   xmlns:svg="http://www.w3.org/2000/svg"
   xmlns="http://www.w3.org/2000/svg"
   xmlns:sodipodi="http://sodipodi.sourceforge.net/DTD/sodipodi-0.dtd"
   xmlns:inkscape="http://www.inkscape.org/namespaces/inkscape"
   width="512"
   height="512"
   viewBox="0 0 512 512"
   version="1.1"
   id="svg8"
   inkscape:version="0.92.4 (5da689c313, 2019-01-14)"
   sodipodi:docname="驢.svg">
  <defs
     id="defs2" />
  <sodipodi:namedview
     id="base"
     pagecolor="#ffffff"
     bordercolor="#666666"
     borderopacity="1.0"
     inkscape:pageopacity="0.0"
     inkscape:pageshadow="2"
     inkscape:zoom="0.7"
     inkscape:cx="146.32872"
     inkscape:cy="122.59243"
     inkscape:document-units="px"
     inkscape:current-layer="layer1"
     showgrid="false"
     units="px"
     inkscape:window-width="1308"
     inkscape:window-height="941"
     inkscape:window-x="341"
     inkscape:window-y="44"
     inkscape:window-maximized="0" />
  <metadata
     id="metadata5">
    <rdf:RDF>
      <cc:Work
         rdf:about="">
        <dc:format>image/svg+xml</dc:format>
        <dc:type
           rdf:resource="http://purl.org/dc/dcmitype/StillImage" />
        <dc:title></dc:title>
      </cc:Work>
    </rdf:RDF>
  </metadata>
  <g
     inkscape:label="圖層 1"
     inkscape:groupmode="layer"
     id="layer1"
     transform="translate(0,-161.53331)">
    <path
       style="fill:#000000;stroke:none;stroke-width:1px;stroke-linecap:butt;stroke-linejoin:miter;stroke-opacity:1;fill-opacity:1"
       d="M 152.9079,253.95917 C 157.71621,253.93842 162.47735,252.96763 167.22952,252.23472 172.31363,251.45062 177.3504,250.38305 182.3954,249.37758 188.27624,248.20553 194.09431,246.71584 200,245.67617 207.14858,244.41769 214.3785,241.54551 221.55855,242.60982 226.18734,243.29595 230.88238,245.3218 234.28571,248.53331 237.31675,251.39351 241.47816,255.57386 240.20921,259.54346 239.45794,261.89364 235.80261,261.76566 233.57143,262.81902 230.86353,264.09745 228.28519,265.77708 225.38252,266.513 222.0189,267.3658 218.44052,267.72226 215,267.27062 211.39833,266.79782 208.32769,263.95497 204.70414,263.69919 200.47531,263.40068 196.30602,265.00055 192.22208,266.13791 188.96121,267.04605 185.85499,268.43873 182.68383,269.62268 178.4856,271.19009 174.29558,272.78015 170.12255,274.41348 166.20338,275.94745 162.50947,278.18443 158.40555,279.11761 153.38085,280.26016 147.99562,281.30823 142.97969,280.12776 136.94013,278.70638 131.7754,274.59013 126.89775,270.75539 124.56312,268.91994 122.292,266.85489 120.72172,264.33425 118.76951,261.20053 116.01293,257.49676 116.94108,253.92327 117.70441,250.98439 120.87432,248.67703 123.82397,247.95644 126.73318,247.24573 129.67007,249.26783 132.56128,250.04854 135.46857,250.83358 138.26164,252.04947 141.21193,252.65314 145.05519,253.43953 148.98505,253.97609 152.9079,253.95917 Z"
       id="path4672"
       inkscape:connector-curvature="0"
       sodipodi:nodetypes="aaaaaaaaaaaaaaaaaaaaaaa" />
    <path
       style="fill:#000000;stroke:none;stroke-width:1px;stroke-linecap:butt;stroke-linejoin:miter;stroke-opacity:1;fill-opacity:1"
       d="M 80.243993,274.71246 C 82.219589,274.32821 83.853812,272.62078 85.862967,272.50275 87.513983,272.40576 89.170412,273.04932 90.661191,273.76544 92.857906,274.82068 95.096902,276.15257 96.532703,278.12172 97.881499,279.97155 98.312266,282.37601 98.742411,284.62458 99.526323,288.72246 99.380536,292.95303 99.373757,297.12522 99.367388,301.04521 98.962731,304.95444 98.742411,308.86824 98.500701,313.16201 98.269088,317.45653 97.984797,321.74769 97.719757,325.74828 97.248327,329.7366 97.100913,333.74325 96.938423,338.15968 97.073293,342.58217 97.100913,347.0015 97.121958,350.36887 97.371849,353.7387 97.227183,357.10303 97.080008,360.52572 96.458307,363.91347 96.21703,367.33082 95.938132,371.281 95.985742,375.24957 95.711954,379.20011 95.407918,383.5871 94.621078,387.93793 94.449263,392.33209 94.263407,397.08534 95.271991,401.87792 94.701802,406.6005 94.326117,409.7121 91.702316,412.61571 92.302688,415.69187 92.746127,417.96394 94.624728,419.84932 96.469568,421.24771 98.232388,422.58392 100.49776,424.12819 102.65676,423.64682 105.15561,423.08968 106.88771,420.4158 107.96005,418.09098 109.34234,415.0942 108.85367,411.54016 108.9702,408.242 109.11147,404.24398 108.56763,400.24688 108.5914,396.24644 108.61443,392.3706 108.84539,388.49745 109.09648,384.62968 109.31817,381.2149 109.61337,377.80412 109.98036,374.40188 110.36724,370.81523 110.9141,367.24764 111.36932,363.66902 111.7547,360.63939 112.13108,357.60862 112.50574,354.57765 112.97391,350.79021 113.44389,347.00297 113.8947,343.21343 114.50032,338.1225 115.11824,333.03273 115.66247,327.93487 116.07548,324.06612 116.37082,320.18523 116.79888,316.31812 117.21416,312.56655 117.53111,308.79708 118.18785,305.08016 118.8718,301.2093 120.19578,297.46744 120.8395,293.58968 121.37995,290.33402 122.13691,287.02839 121.84965,283.7407 121.56783,280.51536 120.68315,277.27368 119.198,274.39678 117.56371,271.231 115.02456,268.58268 112.50574,266.06303 110.36799,263.92458 107.86128,262.18494 105.43467,260.38092 102.6895,258.34007 99.957451,256.24702 96.974645,254.57254 94.641833,253.26295 92.283318,251.76718 89.651039,251.28954 86.995407,250.80767 83.935546,250.49542 81.569818,251.79462 78.559065,253.44805 77.103392,257.086 75.508903,260.12838 73.852875,263.28818 71.955773,266.66249 71.973369,270.22991 71.981314,271.84088 72.291993,273.85618 73.614866,274.77559 75.429459,276.03674 78.074833,275.13436 80.243993,274.71246 Z"
       id="path4674"
       inkscape:connector-curvature="0"
       sodipodi:nodetypes="aaaaaaaaaaaaaaaaaaaaaaaaaaaaaaaaaaaaaaaaa" />
    <path
       style="fill:#000000;stroke:none;stroke-width:1px;stroke-linecap:butt;stroke-linejoin:miter;stroke-opacity:1;fill-opacity:1"
       d="M 143.21428,335.67616 C 146.23643,335.56974 149.19724,334.75312 152.14286,334.06903 155.94182,333.18675 159.65844,331.97926 163.39286,330.85473 166.97997,329.77456 170.5342,328.58805 174.10714,327.46188 177.14158,326.50544 180.44447,326.17022 183.21428,324.60474 185.6371,323.23538 186.86206,320.05574 189.46429,319.06902 192.08016,318.07713 195.25555,318.04023 197.85714,319.06902 200.28511,320.02916 203.01215,321.87585 203.57143,324.42617 204.01183,326.43439 202.55454,328.5514 201.25,330.14045 199.53203,332.23311 197.03408,333.75219 194.46429,334.60474 191.57801,335.56228 188.34452,334.57208 185.35714,335.14045 181.23352,335.925 177.37739,337.7487 173.39286,339.06903 170.94467,339.88027 168.47339,340.62668 166.05493,341.52265 163.64963,342.41374 161.28965,343.42379 158.92857,344.42617 156.35282,345.51968 153.90546,346.93658 151.25,347.81903 147.71474,348.99384 144.05613,350.76138 140.35714,350.31902 136.65673,349.87649 132.52398,348.35113 130.35714,345.31902 128.54126,342.77802 127.22316,338.52424 129.10714,336.03331 130.63053,334.01915 134.08213,335.00508 136.60714,334.96189 138.82203,334.924 141.00044,335.75413 143.21428,335.67616 Z"
       id="path4676"
       inkscape:connector-curvature="0"
       sodipodi:nodetypes="aaaaaaaaaaaaaaaaaaaa" />
    <path
       style="fill:#000000;stroke:none;stroke-width:1px;stroke-linecap:butt;stroke-linejoin:miter;stroke-opacity:1;fill-opacity:1"
       d="M 140,383.71188 C 143.39997,382.78522 146.80042,381.85803 150.17857,380.85474 154.18501,379.66485 158.153,378.34913 162.14285,377.10474 165.59372,376.02846 169.04993,374.96931 172.5,373.89045 176.84817,372.53075 181.28723,371.42822 185.53571,369.78331 188.83882,368.50442 191.65449,365.67524 195.17857,365.31902 198.52553,364.98071 202.38605,365.52293 205,367.64045 206.84138,369.13213 208.27503,371.71137 208.03571,374.06902 207.79526,376.4378 205.7945,378.56308 203.75,379.78331 200.64895,381.63415 196.54093,380.52125 193.03571,381.39046 188.32155,382.55945 183.91442,384.74052 179.28572,386.21188 175.9819,387.26209 172.57479,387.97352 169.28572,389.06902 165.96096,390.17641 162.7722,391.66229 159.46428,392.81902 156.8699,393.72624 154.14408,394.26177 151.60714,395.31902 148.87926,396.45586 146.55208,398.48698 143.75,399.42617 141.00361,400.34668 138.01618,401.4361 135.17857,400.85474 133.44776,400.50013 132.03601,399.16998 130.71429,397.9976 128.75294,396.25786 126.29962,394.48174 125.71429,391.92617 125.20825,389.71678 125.51056,386.68219 127.32143,385.31902 128.84131,384.1749 131.13242,385.76252 133.02363,385.55664 135.41488,385.29633 137.67927,384.34439 140,383.71188 Z"
       id="path4678"
       inkscape:connector-curvature="0"
       sodipodi:nodetypes="aaaaaaaaaaaaaaaaaaaaa" />
    <path
       style="fill:#000000;stroke:none;stroke-width:1px;stroke-linecap:butt;stroke-linejoin:miter;stroke-opacity:1;fill-opacity:1"
       d="M 151.77542,300.53448 C 152.6581,302.74897 155.67735,303.40417 157.07872,305.33271 158.65135,307.49693 159.7173,310.05982 160.36172,312.65631 161.29645,316.42253 160.993,320.39464 161.11933,324.27307 161.18785,326.37643 161.23571,328.48525 161.11933,330.58652 160.95071,333.63096 160.37902,336.64075 160.10918,339.6779 159.7732,343.45948 159.64592,347.25706 159.35156,351.04211 159.0567,354.83367 158.75165,358.62551 158.34141,362.40633 157.98436,365.69688 157.54643,368.97866 157.07872,372.25531 156.30953,377.64411 155.60568,383.04891 154.54065,388.38712 153.50738,393.56612 152.24742,398.70321 150.80859,403.78451 149.9305,406.88557 149.05257,410.00189 147.82147,412.98048 146.4009,416.41749 143.57552,419.29793 142.77071,422.92882 142.15008,425.7288 141.02102,429.51009 143.05914,431.52781 144.06188,432.52052 145.96215,432.10161 147.29101,431.62716 149.25074,430.92747 150.77988,429.22621 152.02796,427.56116 154.7071,423.98695 155.85065,419.48236 157.55316,415.35268 158.75758,412.43117 159.91345,409.48333 160.86679,406.47052 162.0051,402.87315 162.6168,399.12426 163.73137,395.51946 164.66486,392.5003 166.00881,389.61761 166.92771,386.59397 168.02033,382.99866 168.71221,379.29309 169.67499,375.66086 170.52474,372.45503 171.5261,369.29012 172.3483,366.07711 173.26756,362.48479 174.08064,358.86562 174.87368,355.24335 175.50166,352.37501 176.07198,349.49425 176.64145,346.61372 177.32857,343.13812 178.10834,339.67709 178.63112,336.17299 179.14033,332.75978 179.40284,329.31411 179.74588,325.88021 180.13547,321.98043 180.91173,318.0896 180.81731,314.17154 180.70058,309.32769 180.80259,304.18755 178.797,299.77687 177.41372,296.73477 175.1723,293.7871 172.23101,292.20072 168.86745,290.38659 164.66256,290.24195 160.86679,290.68549 157.82332,291.04113 154.11332,291.5129 152.2805,293.96849 150.96749,295.72764 150.96264,298.49536 151.77542,300.53448 Z"
       id="path4680"
       inkscape:connector-curvature="0"
       sodipodi:nodetypes="aaaaaaaaaaaaaaaaaaaaaaaaaaaaaaaa" />
    <path
       style="fill:#000000;stroke:none;stroke-width:1px;stroke-linecap:butt;stroke-linejoin:miter;stroke-opacity:1;fill-opacity:1"
       d="M 180.57751,429.73101 C 185.50736,430.12576 190.41342,430.89589 195.35714,431.03331 199.48826,431.14815 203.82204,431.92115 207.74882,430.63284 210.77044,429.64149 212.86318,426.829 215.6134,425.23237 218.11527,423.77992 220.53993,421.63606 223.42721,421.45544 227.49798,421.20079 231.51394,423.28475 235.02167,425.36607 237.60356,426.89804 239.57339,429.29735 241.63778,431.47711 243.59343,433.54204 246.19196,435.34738 247.07787,438.0499 248.39972,442.08227 248.18942,446.9389 246.34191,450.7591 244.49156,454.58519 239.15063,455.68511 236.82161,459.24016 234.28821,463.10717 233.82388,467.9892 232.5,472.41856 231.39274,476.12314 230.58645,479.91345 229.47326,483.61625 228.21784,487.79212 226.64091,491.86607 225.35714,496.03331 223.874,500.84772 222.99628,505.85535 221.21564,510.56784 219.70972,514.5533 217.65194,518.31038 215.71429,522.10474 213.46543,526.50851 211.25772,530.95096 208.61104,535.12776 205.64168,539.81379 202.52852,544.46302 198.8023,548.57292 194.71088,553.08563 189.51655,556.4742 185.16217,560.73372 182.21172,563.61989 179.75659,566.99611 176.72072,569.79229 172.22978,573.92865 167.24204,577.4969 162.34091,581.13791 158.42425,584.04757 155.20699,589.89712 150.34227,589.5218 147.59144,589.30956 146.46568,585.58494 144.36494,583.79636 141.19843,581.1004 137.52343,579.03355 134.40826,576.27841 130.6607,572.96396 127.56624,568.97159 123.96818,565.49541 121.85275,563.45165 117.39121,562.52064 117.42078,559.57936 117.4549,556.1852 121.86373,553.89056 125.11204,552.90568 128.52107,551.87206 132.15907,554.0235 135.71429,554.2476 140.70439,554.56214 145.75383,554.87517 150.71429,554.2476 154.98249,553.70761 159.26882,552.74864 163.21429,551.03331 167.87829,549.00559 172.01126,545.88162 176.07143,542.81902 179.69916,540.08262 183.38817,537.29105 186.28436,533.78956 189.17059,530.30012 191.02439,526.06844 193.21429,522.10474 195.26214,518.39814 197.22672,514.6409 199.01523,510.80244 200.67071,507.24949 202.0227,503.56265 203.57143,499.96188 204.85616,496.9749 206.49283,494.12494 207.5,491.03331 208.70791,487.3255 209.24735,483.43102 210,479.60474 210.90287,475.0148 211.79663,470.41734 212.41706,465.78077 213.04769,461.06799 214.22026,456.30857 213.74102,451.578 213.35735,447.79068 213.40074,443.02121 210.42213,440.65079 207.23059,438.11092 202.29253,439.88321 198.21429,439.81394 193.33114,439.73101 188.44813,440.05477 183.57143,440.31902 178.26166,440.60674 172.89886,440.57122 167.66217,441.49506 161.77991,442.53279 156.1708,444.76009 150.41842,446.36879 144.98127,447.88934 139.5243,449.33897 134.09445,450.88537 130.06698,452.03239 125.96057,452.95038 122.03825,454.41719 116.6326,456.43873 111.539,459.21287 106.30602,461.64671 103.10055,463.13757 100.24454,466.08469 96.710208,466.16329 94.08272,466.22172 91.594234,464.62328 89.434286,463.12604 87.642575,461.88405 86.475407,459.92293 84.95723,458.35836 83.01311,456.35482 81.284895,454.08622 79.027221,452.44407 76.287206,450.45108 73.149106,449.01072 69.981695,447.80773 67.239829,446.76636 64.306536,446.3235 61.461387,445.61118 56.896141,444.46822 52.006788,444.26795 47.742025,442.27806 42.559887,439.86014 36.776762,437.06344 33.928571,432.10474 32.25884,429.19774 31.604016,425.21413 32.857143,422.10474 33.911286,419.48909 36.703996,417.67171 39.339556,416.66837 42.486554,415.47033 46.075534,416.17203 49.437101,416.36892 51.658413,416.49902 53.841193,417.0084 56.0408,417.34438 58.078839,417.65568 60.11954,417.95235 62.15025,418.30834 65.073097,418.82072 67.949665,419.60452 70.891318,419.99471 74.789047,420.51171 78.747847,420.42002 82.655367,420.85691 89.105231,421.57804 95.447675,423.13972 101.90827,423.75739 109.3051,424.46458 116.77615,424.05721 124.18111,424.67345 129.60402,425.12474 134.96762,426.13295 140.37881,426.70798 146.22775,427.32952 152.09195,427.80665 157.95803,428.23745 161.68848,428.51141 165.42706,428.66218 169.15944,428.9084 172.96705,429.15959 176.77379,429.42643 180.57751,429.73101 Z"
       id="path4682"
       inkscape:connector-curvature="0"
       sodipodi:nodetypes="aaaaaaaaaaaaaaaaaaaaaaaaaaaaaaaaaaaaaaaaaaaaaaaaaaaaaaaaaaaaaaaaaaa" />
    <path
       style="fill:#000000;stroke:none;stroke-width:1px;stroke-linecap:butt;stroke-linejoin:miter;stroke-opacity:1;fill-opacity:1"
       d="M 51.39305,513.20223 C 56.216651,512.53943 60.747679,510.48748 65.364049,508.93972 71.073034,507.02563 76.732776,504.95709 82.327433,502.73087 88.203173,500.3928 93.921487,497.67602 99.752564,495.22869 105.14416,492.96581 110.56163,490.76452 115.98897,488.58874 121.25313,486.47838 126.787,484.97189 131.82491,482.36719 136.32087,480.0427 140.38333,476.95423 144.52578,474.04613 147.86096,471.70476 150.70864,468.6286 154.3008,466.70458 156.97632,465.27153 160.33251,462.03519 162.8871,463.67412 164.45226,464.67827 163.88354,467.43647 163.39217,469.22996 162.40441,472.83527 159.23035,475.45883 156.82618,478.32133 154.03132,481.649 150.81586,484.60065 147.73481,487.66524 145.47383,489.91413 143.34945,492.32921 140.84231,494.29994 136.31592,497.85791 131.26583,500.71162 126.26382,503.56245 121.86812,506.06772 117.30544,508.27452 112.73136,510.437 107.13778,513.08147 101.34732,515.29246 95.732076,517.8906 90.632767,520.25001 85.569593,522.69252 80.579791,525.27548 76.182798,527.55157 72.052909,530.34519 67.557669,532.42051 64.163369,533.98756 60.729733,535.62424 57.073619,536.4051 52.785718,537.32089 48.299581,537.64552 43.941636,537.16272 40.286984,536.75784 36.464536,536.06271 33.335034,534.13226 30.820794,532.58134 28.467562,530.33814 27.335395,527.60959 26.144519,524.73956 25.892189,521.22343 26.934923,518.29632 27.631368,516.34129 29.215311,514.56753 31.074881,513.64604 33.807426,512.29194 37.148342,513.02637 40.196892,512.94444 43.928587,512.84415 47.694759,513.71041 51.39305,513.20223 Z"
       id="path4684"
       inkscape:connector-curvature="0"
       sodipodi:nodetypes="aaaaaaaaaaaaaaaaaaaaaaaaaa" />
    <path
       style="fill:#000000;stroke:none;stroke-width:1px;stroke-linecap:butt;stroke-linejoin:miter;stroke-opacity:1;fill-opacity:1"
       d="M 297.995,245.98625 C 304.54892,245.13044 311.12755,244.47587 317.69298,243.7134 324.17535,242.96058 330.74135,242.73107 337.13841,241.44056 343.66717,240.12348 350.1184,238.28456 356.33131,235.88472 360.61578,234.22977 364.31456,231.1705 368.70568,229.8238 373.90705,228.22861 379.45809,226.97606 384.86812,227.55096 390.21758,228.11942 395.60123,230.03911 400.02041,233.10681 403.20812,235.31964 408.00938,238.08718 407.59655,241.94564 407.27057,244.99242 403.25804,246.80981 400.27295,247.50147 396.01096,248.489 391.75973,245.25138 387.3935,244.9761 382.42538,244.66287 377.45032,245.52504 372.49375,245.98625 366.07912,246.58313 359.64455,247.13606 353.30085,248.25909 346.8269,249.40517 340.50935,251.30551 334.10796,252.80477 326.11556,254.67666 318.15901,256.7157 310.11683,258.36061 302.57797,259.90258 294.98239,263.64349 287.3884,262.40122 284.46493,261.92298 282.12428,259.67319 279.59036,258.13871 276.46281,256.24475 270.64551,255.69918 270.46834,252.04716 270.35239,249.65714 273.7605,248.27696 276.02418,247.50148 279.13101,246.43715 282.59493,247.94959 285.87317,247.75401 289.94928,247.51083 293.94603,246.51496 297.995,245.98625 Z"
       id="path4686"
       inkscape:connector-curvature="0"
       sodipodi:nodetypes="aaaaaaaaaaaaaaaaaaaa" />
    <path
       style="fill:#000000;stroke:none;stroke-width:1px;stroke-linecap:butt;stroke-linejoin:miter;stroke-opacity:1;fill-opacity:1"
       d="M 297.67857,288.35474 C 302.93752,287.15799 308.2724,286.32353 313.57143,285.31902 319.58175,284.17968 325.56414,282.87702 331.60714,281.92617 339.54955,280.67645 347.54854,279.81161 355.53572,278.89045 366.41501,277.63574 377.3245,276.65773 388.21428,275.4976 395.29967,274.74277 402.35793,273.69774 409.46429,273.17616 415.76136,272.71398 422.72102,275.23624 428.39285,272.46188 431.8844,270.75401 433.00239,266.13195 435.89285,263.53331 438.66746,261.03885 441.50969,257.96161 445.17857,257.28331 448.30223,256.70581 451.54004,258.1854 454.46429,259.42616 458.18796,261.00612 461.65474,263.30694 464.64286,266.03331 468.33751,269.40432 472.29062,273.09342 473.92857,277.81902 474.74731,280.18115 474.57927,282.90519 473.92857,285.31902 472.38735,291.03628 467.95702,295.54602 465,300.67617 461.64487,306.49699 458.5066,312.44532 455,318.17617 452.10475,322.90789 449.70538,328.0753 445.89286,332.10474 443.20089,334.94988 440.31613,338.59104 436.42857,339.06902 432.85198,339.50877 428.50683,337.90573 426.42857,334.96188 424.29768,331.94347 424.28612,327.2176 425.89285,323.89045 427.13559,321.31705 430.67885,320.74027 432.85714,318.89045 436.45036,315.83906 440.20648,312.78868 442.85714,308.89045 445.04576,305.67173 446.46952,301.92961 447.5,298.17616 448.24667,295.45648 449.04396,292.56377 448.57143,289.78331 448.14773,287.29017 447.10975,284.63032 445.17857,282.9976 443.46749,281.55096 440.9904,281.06725 438.75,281.03331 433.32121,280.95107 428.3123,284.03994 423.03571,285.31902 418.3045,286.4659 413.55516,287.5736 408.75,288.35474 403.01448,289.28712 397.22416,289.89862 391.42857,290.31903 385.84516,290.72404 380.23381,290.57209 374.64286,290.85474 366.89614,291.24638 359.15388,291.76559 351.42857,292.46188 343.91288,293.13929 336.40812,293.9615 328.92857,294.96188 322.06114,295.88039 315.17536,296.76094 308.39286,298.17617 303.33319,299.23191 298.40165,300.82924 293.39286,302.10474 287.6289,303.57254 281.98881,306.99239 276.07143,306.39045 270.29712,305.80307 265.09661,302.24084 260.35714,298.89045 256.50778,296.1693 249.30046,293.48454 250.35714,288.89045 251.09135,285.69837 256.37038,285.53704 259.64286,285.67617 263.74284,285.85048 267.03938,289.26513 270.89285,290.67617 273.68758,291.69952 276.48832,293.13893 279.46428,293.17617 285.74433,293.25475 291.5546,289.74834 297.67857,288.35474 Z"
       id="path4688"
       inkscape:connector-curvature="0"
       sodipodi:nodetypes="aaaaaaaaaaaaaaaaaaaaaaaaaaaaaaaaaaaaaaaa" />
    <path
       style="fill:#000000;stroke:none;stroke-width:1px;stroke-linecap:butt;stroke-linejoin:miter;stroke-opacity:1;fill-opacity:1"
       d="M 291.60714,325.85474 C 294.92172,325.2619 298.27889,324.93665 301.60714,324.42616 305.24403,323.86834 308.87198,323.2533 312.5,322.64045 316.61056,321.9461 320.70859,321.17834 324.82143,320.4976 328.98261,319.80885 333.22333,319.53102 337.32143,318.53331 341.89365,317.42018 346.21587,315.4505 350.71429,314.06902 354.49724,312.90727 358.28304,311.72781 362.14286,310.85474 365.55985,310.08183 368.99739,308.99833 372.5,309.06902 375.90831,309.1378 379.54002,309.52077 382.50001,311.21188 384.25572,312.21496 386.58985,313.65418 386.60715,315.67616 386.62555,317.82637 384.18666,319.42771 382.32143,320.49759 378.63555,322.61178 374.02888,322.40352 369.82143,322.9976 365.5631,323.59885 361.2502,323.71431 356.96429,324.06902 352.61925,324.42863 348.26234,324.66384 343.92857,325.14045 338.7323,325.71192 333.56712,326.53842 328.39286,327.2833 323.62681,327.96943 318.84642,328.57459 314.10714,329.42616 310.39585,330.09302 306.69889,330.85342 303.03571,331.74759 300.45418,332.37774 297.92407,333.20327 295.35714,333.89046 293.04213,334.5102 290.78571,335.80878 288.39285,335.67617 286.04169,335.54587 283.77713,334.43282 281.78571,333.17617 280.11236,332.12022 276.98667,330.97994 277.5,329.06902 278.04987,327.02202 281.61173,328.03635 283.67756,327.56208 286.31277,326.95708 288.94561,326.33077 291.60714,325.85474 Z"
       id="path4690"
       inkscape:connector-curvature="0"
       sodipodi:nodetypes="aaaaaaaaaaaaaaaaaaaaaaa" />
    <path
       style="fill:#000000;stroke:none;stroke-width:1px;stroke-linecap:butt;stroke-linejoin:miter;stroke-opacity:1;fill-opacity:1"
       d="M 286.00583,359.03745 C 288.09127,358.65039 290.10949,357.95881 292.17908,357.49438 294.80147,356.9059 297.43235,356.34151 300.08666,355.91973 302.8865,355.47482 305.72879,355.33768 308.53182,354.91329 311.8442,354.41179 315.11422,353.65997 318.41638,353.09508 321.88206,352.50223 325.36136,351.99196 328.8348,351.44647 332.42961,350.88192 336.02923,350.34779 339.62119,349.76537 343.11921,349.19819 346.61873,348.63704 350.1046,347.99946 354.42835,347.20862 358.77369,346.49778 363.04129,345.44529 366.81438,344.51475 370.44496,343.05988 374.21732,342.12641 377.87361,341.22165 381.53773,339.73215 385.29959,339.92041 388.49558,340.08036 391.81061,340.96156 394.48069,342.72525 396.06188,343.76968 398.31331,345.18685 398.14218,347.0741 397.91813,349.54493 394.63761,350.73577 392.40251,351.81259 389.34898,353.28371 385.75401,353.14133 382.45295,353.91026 378.39961,354.85442 374.45153,356.26222 370.35528,356.99827 367.05609,357.5911 363.697,357.79614 360.35528,358.05887 356.48287,358.36332 352.58175,358.261 348.71751,358.65586 344.3798,359.09911 340.08584,359.90501 335.78825,360.64181 331.14829,361.43731 326.54165,362.41663 321.91198,363.26994 317.93043,364.00379 313.92789,364.62497 309.95668,365.4128 306.09685,366.17853 302.26512,367.07967 298.42164,367.92363 294.62802,368.75664 290.92005,370.71228 287.04537,370.44343 282.82292,370.15046 278.47608,368.62429 275.14608,366.01164 273.49045,364.71267 270.72663,362.70517 271.59817,360.78975 272.60091,358.586 276.40598,360.21273 278.80942,359.92041 281.20853,359.62862 283.62962,359.47847 286.00583,359.03745 Z"
       id="path4692"
       inkscape:connector-curvature="0"
       sodipodi:nodetypes="aaaaaaaaaaaaaaaaaaaaaaaaaaa" />
    <path
       style="fill:#000000;stroke:none;stroke-width:1px;stroke-linecap:butt;stroke-linejoin:miter;stroke-opacity:1;fill-opacity:1"
       d="M 234.10285,303.05986 C 236.70813,303.23134 239.12771,304.59978 241.42646,305.83778 245.54048,308.05342 250.11781,310.21251 252.79067,314.04527 255.11559,317.3791 255.57683,321.75434 256.07367,325.7883 256.63469,330.34339 256.13997,334.98375 255.69487,339.55162 255.27679,343.84216 254.25336,348.05199 253.54829,352.3048 252.86472,356.42792 252.23282,360.55963 251.52798,364.67917 250.84294,368.68303 249.89905,372.64581 249.38141,376.67474 248.90257,380.40165 248.64496,384.15802 248.49753,387.91268 248.39184,390.60435 248.98005,393.34373 248.49753,395.9939 247.8772,399.40103 246.76828,402.84284 244.83572,405.71662 243.97146,407.0018 242.9307,408.50466 241.42646,408.87334 239.56206,409.33029 237.39613,408.52329 235.87062,407.35812 233.69643,405.69749 232.82436,402.78284 231.70374,400.28704 230.63512,397.90706 229.86257,395.38569 229.30463,392.83717 228.80644,390.56154 228.38103,388.2262 228.47144,385.89843 228.54315,384.05216 228.1705,381.68388 229.55717,380.4628 230.38527,379.73359 231.75728,380.28731 232.85921,380.23022 234.32484,380.15428 235.98923,380.81889 237.25958,380.084 239.05965,379.04267 239.76793,376.70993 240.54756,374.78204 241.66181,372.0267 241.76127,368.96249 242.43661,366.06813 243.14641,363.02611 244.06015,360.03225 244.70945,356.97675 245.87309,351.50094 248.14353,346.00846 247.61365,340.43551 247.31102,337.25271 245.64713,334.32352 244.20438,331.4704 242.80297,328.69906 241.10437,326.05809 239.15361,323.64172 237.39627,321.46493 235.09376,319.78357 233.21897,317.70707 230.67277,314.88693 226.05032,312.66764 226.02163,308.86824 226.00624,306.83053 228.09059,305.16417 229.8097,304.07002 231.04994,303.28066 232.63589,302.9633 234.10285,303.05986 Z"
       id="path4694"
       inkscape:connector-curvature="0"
       sodipodi:nodetypes="aaaaaaaaaaaaaaaaaaaaaaaaaaaaa" />
    <path
       style="fill:#000000;stroke:none;stroke-width:1px;stroke-linecap:butt;stroke-linejoin:miter;stroke-opacity:1;fill-opacity:1"
       d="M 323.23876,267.17144 C 326.38664,267.96544 329.30381,269.56977 332.08765,271.24006 334.35425,272.60001 336.80978,273.92767 338.4011,276.03828 340.5126,278.83883 341.86554,282.35427 342.21719,285.84395 342.62115,289.85279 340.68776,293.76097 340.16887,297.75656 339.79884,300.60585 339.66022,303.48045 339.41126,306.34286 339.15504,309.28882 338.92477,312.23707 338.65364,315.18169 338.40774,317.85238 338.14748,320.52184 337.86539,323.18895 337.55982,326.078 337.32951,328.97812 336.88587,331.84921 336.45341,334.64791 335.67668,337.3863 335.24809,340.1856 334.86668,342.67672 334.77355,345.20536 334.41914,347.70047 334.0084,350.59212 333.3212,353.4402 332.9166,356.33272 332.41721,359.90289 332.71781,363.60739 331.77647,367.08726 331.04802,369.78012 330.94982,373.72639 328.3429,374.71942 326.82341,375.29823 325.16027,373.74371 323.88914,372.72976 322.52898,371.64479 321.42289,370.16272 320.75407,368.55653 319.44965,365.42389 319.42558,361.87346 319.2848,358.48301 319.17863,355.92606 319.53761,353.36976 319.75924,350.82021 319.99399,348.1198 320.33611,345.42959 320.66479,342.73898 321.06811,339.43736 321.57103,336.1484 321.97343,332.84667 322.30859,330.0967 322.67034,327.34813 322.8943,324.58688 323.21623,320.61791 323.15299,316.62304 323.50135,312.65631 323.79822,309.27594 324.56517,305.94233 324.76404,302.55479 325.0033,298.47937 325.43914,294.31852 324.67738,290.30778 323.9507,286.48172 322.40416,282.78866 320.4709,279.40794 319.56146,277.81759 318.09483,276.61063 317.05529,275.1021 316.24209,273.92201 315.13877,272.81152 314.85904,271.40594 314.54866,269.84636 314.30577,267.68688 315.54006,266.68431 317.53595,265.0631 320.74548,266.54256 323.23876,267.17144 Z"
       id="path4696"
       inkscape:connector-curvature="0"
       sodipodi:nodetypes="aaaaaaaaaaaaaaaaaaaaaaaaaaaaa" />
    <path
       style="fill:#000000;stroke:none;stroke-width:1px;stroke-linecap:butt;stroke-linejoin:miter;stroke-opacity:1;fill-opacity:1"
       d="M 277.57531,393.95565 C 280.06679,393.91931 282.48217,395.04234 284.73303,396.11119 286.70742,397.04876 288.62339,398.23387 290.16632,399.78197 292.11129,401.73346 293.61656,404.1446 294.77065,406.64646 296.04539,409.40988 296.56537,412.46856 297.23739,415.4367 298.13401,419.39683 298.76053,423.41684 299.31897,427.43861 299.84844,431.25184 300.22146,435.08719 300.52038,438.92538 300.77563,442.20277 300.85922,445.49127 301.02546,448.77437 301.18993,452.02239 301.5294,455.26661 301.51259,458.51875 301.49486,461.9474 301.57039,465.42507 300.89284,468.78616 300.45549,470.9557 300.02378,473.28191 298.69397,475.05103 297.57597,476.53836 295.98082,478.61298 294.14828,478.2907 291.84463,477.88556 291.1153,474.65079 290.16632,472.51295 288.23612,468.16467 287.5781,463.32979 286.88332,458.62336 286.31527,454.77536 286.40765,450.85851 286.17166,446.97597 285.95197,443.36143 285.8975,439.7332 285.51603,436.13214 285.1789,432.94973 284.73781,429.77107 284.07477,426.6403 283.50259,423.9386 282.9161,421.21276 281.89121,418.64836 280.93369,416.25253 279.71111,413.9402 278.22306,411.83246 276.8742,409.92187 275.20259,408.24941 273.51412,406.63113 272.30095,405.46841 270.43865,404.88613 269.63676,403.40942 268.58753,401.47722 267.68506,398.71477 268.86383,396.85875 270.50481,394.27498 274.51481,394.00028 277.57531,393.95565 Z"
       id="path4698"
       inkscape:connector-curvature="0"
       sodipodi:nodetypes="aaaaaaaaaaaaaaaaaaaaaaa" />
    <path
       style="fill:#000000;stroke:none;stroke-width:1px;stroke-linecap:butt;stroke-linejoin:miter;stroke-opacity:1;fill-opacity:1"
       d="M 317.69298,390.31179 C 321.24496,389.68299 324.7594,388.8574 328.29958,388.16522 332.75543,387.294 337.22495,386.49403 341.6841,385.63983 347.74827,384.47818 353.8449,383.46804 359.86684,382.1043 364.61609,381.02877 369.60058,380.51086 374.00899,378.4425 376.35664,377.34101 377.77389,374.37609 380.32243,373.89681 384.46592,373.11758 388.60805,375.61327 392.57053,377.05354 395.41923,378.08897 398.22835,379.32886 400.77803,380.96788 403.91954,382.98734 407.58402,384.88225 409.36432,388.16522 410.69824,390.62506 411.24477,393.8395 410.37447,396.49897 409.22607,400.00824 405.66652,402.25484 402.79833,404.58019 400.27512,406.62585 396.18066,406.87299 394.46457,409.63095 392.67887,412.50079 393.91763,416.36928 393.58069,419.73248 393.31889,422.34554 392.98912,424.95134 392.6968,427.56116 392.35741,430.59132 392.22599,433.65151 391.68665,436.65254 391.16482,439.5562 390.39632,442.41564 389.54007,445.23884 388.67068,448.10537 387.6102,450.91291 386.50962,453.69887 385.38061,456.55678 385.37893,460.41654 382.84782,462.15889 381.25151,463.25774 378.93046,462.83532 377.03943,462.41143 375.27579,462.01609 373.76604,460.85641 372.24121,459.88605 370.94865,459.0635 369.72281,458.1279 368.57941,457.10813 367.57965,456.21647 366.55016,455.31483 365.80149,454.20394 365.2856,453.43845 364.66721,452.60165 364.66507,451.67856 364.66315,450.84949 364.9433,449.79513 365.67523,449.40571 366.95811,448.72317 368.54028,449.89455 369.96837,450.16333 371.23385,450.40151 372.61681,451.52043 373.75645,450.92094 376.30965,449.57788 376.3342,445.72848 377.1657,442.966 378.25076,439.36114 378.6667,435.58294 379.18601,431.85431 379.60602,428.83867 380.0194,425.80727 380.0699,422.76294 380.13566,418.799 379.68459,414.84061 379.31228,410.89365 378.9936,407.51527 378.42889,404.16423 378.04959,400.79212 377.86046,399.11074 378.18341,397.30808 377.54452,395.74136 376.62863,393.49538 375.11117,391.25144 372.99883,390.05926 370.48457,388.64024 367.29952,388.90341 364.41253,388.92283 360.62688,388.9483 356.8932,389.85467 353.17458,390.56433 348.50148,391.45615 343.91711,392.76258 339.28499,393.84733 334.02632,395.07881 328.73512,396.17575 323.50135,397.50912 320.45351,398.2856 317.47649,399.33539 314.40998,400.03451 309.99076,401.04203 305.48148,401.60389 301.02546,402.43362 297.31683,403.12419 293.63909,405.17425 289.91378,404.58019 287.34618,404.17075 283.26472,403.38663 283.09525,400.79212 282.91089,397.96966 287.36374,396.96512 289.91378,395.74136 292.89589,394.31025 296.27689,393.91354 299.51023,393.21598 302.22256,392.63082 304.97808,392.26688 307.71772,391.82702 311.03842,391.29387 314.38125,390.89807 317.69298,390.31179 Z"
       id="path4700"
       inkscape:connector-curvature="0"
       sodipodi:nodetypes="aaaaaaaaaaaaaaaaaaaaaaaaaaaaaaaaaaaaaaaaaaaaa" />
    <path
       style="fill:#000000;stroke:none;stroke-width:1px;stroke-linecap:butt;stroke-linejoin:miter;stroke-opacity:1;fill-opacity:1"
       d="M 315.54641,425.91967 C 318.12791,424.94595 320.66915,423.8678 323.24881,422.88921 327.6062,421.23624 331.91262,419.41555 336.3808,418.09098 340.52155,416.86348 344.72814,415.76807 349.0077,415.1868 352.80668,414.67081 356.72038,414.02855 360.49819,414.68172 363.13988,415.13846 367.12543,415.16063 367.94807,417.71218 368.60383,419.74614 366.15287,421.74109 364.5388,423.14174 361.65,425.64858 357.69108,426.61638 354.05847,427.8137 350.53778,428.97414 346.82838,429.45663 343.19933,430.21282 339.12652,431.06148 335.03306,431.80783 330.95123,432.61193 326.48877,433.491 322.06626,434.60002 317.5667,435.26358 314.13607,435.7695 310.67628,436.10517 307.21264,436.27373 303.93353,436.43331 300.40766,437.50343 297.36366,436.27373 295.79049,435.63821 293.37016,434.40215 293.70185,432.7382 294.19692,430.25467 298.35542,430.71438 300.77292,429.96028 304.11586,428.91751 307.64361,428.55738 311.00071,427.56117 312.54514,427.10286 314.03907,426.48822 315.54641,425.91967 Z"
       id="path4702"
       inkscape:connector-curvature="0"
       sodipodi:nodetypes="aaaaaaaaaaaaaaaaa" />
    <path
       style="fill:#000000;stroke:none;stroke-width:1px;stroke-linecap:butt;stroke-linejoin:miter;stroke-opacity:1;fill-opacity:1"
       d="M 325.39539,402.55989 C 326.21084,404.40304 327.39791,406.06065 328.29957,407.86319 328.98213,409.22771 329.96201,410.52204 330.19361,412.03007 330.50903,414.08379 329.64859,416.15036 329.436,418.21725 329.22858,420.23392 328.90777,422.25099 328.93092,424.27816 328.95364,426.26742 329.2998,428.24083 329.56227,430.21282 329.84346,432.32544 330.26979,434.41662 330.57242,436.52627 330.95198,439.17213 331.28865,441.82449 331.58258,444.48122 331.82896,446.70829 331.7137,448.98937 332.21392,451.17348 332.64502,453.05583 332.94402,455.16623 334.23422,456.60305 334.92591,457.37335 335.98191,458.09403 337.01215,457.99201 337.96727,457.89744 338.78039,457.04069 339.28498,456.22425 340.30046,454.58117 340.23108,452.46428 340.42141,450.54213 340.62463,448.48977 340.24724,446.40997 340.42141,444.35495 340.56925,442.61055 341.04934,440.90976 341.30529,439.17792 341.55335,437.49946 341.56131,435.78181 341.93663,434.12716 342.4666,431.79072 343.63582,429.63472 344.20948,427.30863 344.70985,425.27971 345.07002,423.20578 345.21964,421.12144 345.3824,418.85404 345.18319,416.57437 345.09336,414.30291 344.98339,411.52207 345.23718,408.67546 344.58828,405.96916 344.09603,403.91614 343.45973,401.74384 342.0629,400.16078 340.31492,398.17976 337.53091,397.44367 335.24438,396.12017 333.31957,395.00604 331.57202,393.4565 329.436,392.83717 328.62649,392.60246 327.71404,392.45616 326.91062,392.7109 325.73883,393.08244 324.52697,393.87012 324.00643,394.98375 323.45363,396.16639 323.89622,397.61423 324.1327,398.89809 324.36658,400.16786 324.873,401.37916 325.39539,402.55989 Z"
       id="path4704"
       inkscape:connector-curvature="0"
       sodipodi:nodetypes="aaaaaaaaaaaaaaaaaaaaaaaaaaa" />
    <path
       style="fill:#000000;stroke:none;stroke-width:1px;stroke-linecap:butt;stroke-linejoin:miter;stroke-opacity:1;fill-opacity:1"
       d="M 312.01087,458.24455 C 314.37177,457.84599 316.73969,457.47843 319.08194,456.98186 321.66841,456.43351 324.21098,455.6947 326.78435,455.08782 329.38818,454.47375 331.97825,453.78371 334.61303,453.32005 337.24552,452.85679 339.91445,452.63146 342.56798,452.30991 345.84876,451.91234 349.12358,451.44765 352.41697,451.17348 355.69295,450.90075 358.97914,450.72522 362.26596,450.6684 364.79131,450.62474 367.32451,450.59209 369.8421,450.79467 372.76717,451.03005 375.88274,450.84398 378.55467,452.05736 379.96796,452.69916 381.95494,453.54153 382.0902,455.08782 382.2231,456.60715 380.57235,457.98766 379.18601,458.62336 377.54042,459.37794 375.56517,458.57346 373.75644,458.49709 371.69202,458.40992 369.63528,458.14967 367.56926,458.11828 364.83245,458.07669 362.09134,458.1676 359.36177,458.37082 356.14949,458.60998 352.96078,459.10109 349.76532,459.50724 346.35222,459.94105 342.91938,460.26333 339.53752,460.89619 336.51712,461.46142 333.57461,462.38764 330.57242,463.04277 327.59654,463.69216 324.60535,464.27264 321.60732,464.81054 318.75358,465.32256 315.86098,465.61589 313.02102,466.1995 309.96124,466.82828 307.02997,468.09067 303.92965,468.47234 300.67125,468.87347 296.34997,470.84475 294.08066,468.47234 292.77015,467.10229 293.4017,464.44152 294.3332,462.79023 295.45162,460.80758 297.83027,459.64042 300.01531,459.00216 302.07617,458.40017 304.31316,459.27663 306.45502,459.12844 308.32579,458.999 310.16179,458.5567 312.01087,458.24455 Z"
       id="path4706"
       inkscape:connector-curvature="0"
       sodipodi:nodetypes="aaaaaaaaaaaaaaaaaaaaaaaaa" />
    <path
       style="fill:#000000;stroke:none;stroke-width:1px;stroke-linecap:butt;stroke-linejoin:miter;stroke-opacity:1;fill-opacity:1"
       d="M 262.63967,498.77692 C 265.02027,498.21078 267.59453,498.66808 269.96327,499.282 272.84312,500.02839 275.99239,500.91612 278.04449,503.07007 280.33587,505.47517 281.15161,509.03637 281.83256,512.28771 282.58338,515.8727 282.06917,519.61038 282.0851,523.27312 282.09792,526.21967 281.92018,529.16563 281.95883,532.11196 281.99971,535.22888 282.23603,538.34032 282.33764,541.45586 282.44881,544.86435 283.88724,548.52964 282.59018,551.68366 282.01277,553.08772 280.82156,554.9473 279.30718,554.84039 276.85473,554.66726 275.84827,551.23732 274.7615,549.032 273.41676,546.30323 273.2726,543.13255 272.48865,540.19317 271.63343,536.98657 270.5693,533.83361 269.83699,530.59673 269.09185,527.30307 269.18875,523.80739 268.06923,520.62147 267.05137,517.72486 265.98074,514.53853 263.64981,512.54025 262.05272,511.17109 259.26561,511.81545 257.71517,510.39367 255.86922,508.7009 253.8166,505.96736 254.55844,503.57514 255.48634,500.58293 259.59188,499.50173 262.63967,498.77692 Z"
       id="path4708"
       inkscape:connector-curvature="0"
       sodipodi:nodetypes="aaaaaaaaaaaaaaaaa" />
    <path
       style="fill:#000000;stroke:none;stroke-width:1px;stroke-linecap:butt;stroke-linejoin:miter;stroke-opacity:1;fill-opacity:1"
       d="M 303.57143,488.17617 C 306.85692,487.86474 310.12452,487.38374 313.39286,486.92616 317.68643,486.32505 321.97062,485.65683 326.25,484.96188 331.7944,484.06149 337.31396,483.01265 342.85714,482.10474 348.20742,481.22843 353.58317,480.51031 358.92858,479.60474 362.50852,478.99825 366.07161,478.29621 369.64286,477.64046 374.82169,476.68952 380.16756,476.40022 385.17857,474.78331 387.56048,474.01473 389.46987,471.77411 391.96429,471.56902 395.41935,471.28494 398.83061,472.94353 401.96429,474.42617 405.36724,476.03621 408.46701,478.31953 411.25,480.85474 414.12336,483.47228 417.11479,486.25715 418.75,489.78331 419.63925,491.70088 420.44582,494.01391 419.82143,496.03331 419.03803,498.56695 416.01063,499.73322 414.28571,501.74759 411.90855,504.52366 409.73513,507.47634 407.67857,510.49759 406.26545,512.57359 404.94516,514.71748 403.75,516.92617 402.49554,519.24443 401.58956,521.73897 400.35714,524.06902 399.03498,526.56874 397.47896,528.93778 396.07143,531.39045 394.98366,533.28593 394.03241,535.26223 392.85714,537.10474 391.59567,539.08239 389.86624,540.75592 388.75,542.81903 387.4139,545.28848 386.84935,548.1081 385.71429,550.67617 384.53054,553.35441 384.38295,557.18104 381.78572,558.53331 380.34466,559.2836 378.243,558.82126 376.96429,557.81902 375.85071,556.94621 375.73263,555.25458 375.35714,553.89045 374.7182,551.56919 374.76325,549.10735 374.28572,546.74759 373.76171,544.15814 372.20104,541.70822 372.32143,539.06902 372.45098,536.22913 373.76017,533.49703 375.17856,531.03331 376.00652,529.59517 377.49523,528.62837 378.39758,527.2357 379.0699,526.19806 379.42437,524.98469 380,523.89045 381.27868,521.45977 382.83126,519.17975 384.10714,516.7476 385.39347,514.29554 386.51619,511.76078 387.67857,509.24759 389.0207,506.34579 390.32262,503.42536 391.60714,500.4976 392.51779,498.42198 393.92668,496.48558 394.28572,494.2476 394.5034,492.89073 394.62525,491.32498 393.92857,490.14045 392.58106,487.84935 389.86296,486.45431 387.32143,485.67617 385.7847,485.20567 384.10084,485.53394 382.5,485.67617 378.46434,486.03472 374.51254,487.04447 370.53571,487.81903 365.99801,488.70283 361.45514,489.57887 356.96428,490.67616 353.30268,491.57084 349.75401,492.90792 346.07143,493.71188 342.00813,494.59895 337.87452,495.14164 333.75,495.67617 329.00404,496.29124 324.20748,496.46861 319.46429,497.10474 314.13963,497.81885 308.94072,499.60256 303.57143,499.78331 298.78848,499.94433 293.51989,500.58504 289.28571,498.35474 287.0807,497.19329 284.44189,495.13254 284.46429,492.64045 284.48135,490.74229 286.46566,489.09341 288.21428,488.35474 290.30079,487.47333 292.73499,488.72302 295,488.71188 297.86268,488.69781 300.72148,488.44631 303.57143,488.17617 Z"
       id="path4710"
       inkscape:connector-curvature="0"
       sodipodi:nodetypes="aaaaaaaaaaaaaaaaaaaaaaaaaaaaaaaaaaaaaaaaaaaaaa" />
    <path
       style="fill:#000000;stroke:none;stroke-width:1px;stroke-linecap:butt;stroke-linejoin:miter;stroke-opacity:1;fill-opacity:1"
       d="M 304.82143,502.9976 C 304.48541,505.1273 304.3728,507.28655 304.10714,509.42617 303.72959,512.46699 303.24246,515.49345 302.85714,518.53331 302.53312,521.08962 301.81817,523.63926 301.96429,526.21188 302.06827,528.04261 302.22787,530.02326 303.21428,531.56903 304.14947,533.03452 305.58629,534.67592 307.32143,534.78331 309.39994,534.91195 311.40306,533.21517 312.67857,531.56903 314.73192,528.91904 315.35202,525.27355 315.53571,521.92617 315.73788,518.2422 314.49667,514.60493 313.57143,511.03331 312.87752,508.35467 312.10256,505.66478 310.89285,503.17617 309.65137,500.6222 309.04021,495.5053 306.25,496.03331 303.92156,496.47394 305.19076,500.65679 304.82143,502.9976 Z"
       id="path4712"
       inkscape:connector-curvature="0"
       sodipodi:nodetypes="aaaaaaaaaaaa" />
    <path
       style="fill:#000000;stroke:none;stroke-width:1px;stroke-linecap:butt;stroke-linejoin:miter;stroke-opacity:1;fill-opacity:1"
       d="M 344.85206,502.6875 C 346.04561,504.30338 347.28267,505.88672 348.48477,507.49624 350.1856,509.77351 352.22345,511.84201 353.54976,514.35592 354.76775,516.66449 356.0601,519.14191 356.12373,521.75131 356.17664,523.92103 354.95881,525.93424 354.28572,527.9976 353.35919,530.83787 352.48081,533.70748 351.25898,536.43378 350.40525,538.33874 349.52741,540.2714 348.26659,541.93514 346.46534,544.31202 344.76025,548.85379 341.85596,548.17617 339.58119,547.64542 340.09179,543.83451 339.51659,541.57057 338.78853,538.70496 338.46321,535.74759 338.12763,532.81005 337.78934,529.84876 337.65782,526.86682 337.5,523.89045 337.23508,518.89428 337.34618,513.87904 336.96429,508.89045 336.73098,505.84272 336.21516,502.82292 335.89286,499.78331 335.66635,497.64714 334.21226,495.22745 335.2869,493.36743 335.74625,492.57236 336.9123,491.95933 337.79215,492.22203 339.81383,492.82565 339.98329,495.83017 341.16334,497.57917 342.33804,499.32026 343.6042,500.99808 344.85206,502.6875 Z"
       id="path4714"
       inkscape:connector-curvature="0"
       sodipodi:nodetypes="aaaaaaaaaaaaaaaaa" />
    <path
       style="fill:#000000;stroke:none;stroke-width:1px;stroke-linecap:butt;stroke-linejoin:miter;stroke-opacity:1;fill-opacity:1"
       d="M 225.01794,572.86235 C 233.28736,572.31926 241.15162,569.04773 249.13778,566.83425 257.10305,564.62656 264.83852,561.60998 272.85714,559.60474 281.13095,557.53569 289.51832,555.86825 297.96175,554.66602 307.51128,553.30629 317.16169,552.75328 326.78571,552.10474 337.13033,551.40764 347.49423,551.00367 357.85714,550.67617 364.75948,550.45804 371.66593,550.25528 378.57143,550.31902 385.24206,550.38059 391.90158,550.91424 398.57143,551.03331 404.60455,551.14101 410.64339,550.81941 416.67368,551.03331 423.79758,551.28601 430.97963,551.34152 438.00508,552.54854 443.18854,553.43909 448.36411,554.71362 453.21429,556.7476 458.03483,558.76915 463.10866,560.88944 466.78572,564.60474 468.99818,566.8402 472.32893,569.80545 471.42857,572.81902 470.16351,577.0533 463.94412,577.87622 459.64286,578.89045 453.58321,580.3193 447.1578,579.3138 440.96683,578.65586 433.01428,577.81072 425.27539,575.5542 417.44924,573.9084 410.13629,572.37053 402.87717,570.57823 395.5484,569.11761 389.19761,567.8519 382.83157,566.64371 376.42857,565.67617 369.81626,564.677 363.18229,563.75824 356.51523,563.23745 349.12012,562.65978 341.69216,562.37889 334.27521,562.47983 326.06773,562.59153 317.85121,563.05004 309.6967,563.98762 302.85347,564.77444 296.04161,565.9231 289.32161,567.4365 282.16334,569.0486 275.08307,571.05322 268.13815,573.42127 261.46487,575.6967 255.03752,578.63852 248.51015,581.30379 243.27157,583.44282 238.27431,586.26342 232.83176,587.81159 229.41523,588.78344 225.65451,590.72311 222.31309,589.51808 217.4178,587.75267 211.84939,582.95795 212.04569,577.75775 212.1481,575.04471 215.28293,572.92819 217.84971,572.04346 220.12339,571.25976 222.61816,573.01995 225.01794,572.86235 Z"
       id="path4716"
       inkscape:connector-curvature="0"
       sodipodi:nodetypes="aaaaaaaaaaaaaaaaaaaaaaaaaaaaa" />
  </g>
</svg>
