<?xml version="1.0" encoding="UTF-8" standalone="no"?>
<!-- Created with Inkscape (http://www.inkscape.org/) -->

<svg
   xmlns:dc="http://purl.org/dc/elements/1.1/"
   xmlns:cc="http://creativecommons.org/ns#"
   xmlns:rdf="http://www.w3.org/1999/02/22-rdf-syntax-ns#"
   xmlns:svg="http://www.w3.org/2000/svg"
   xmlns="http://www.w3.org/2000/svg"
   xmlns:sodipodi="http://sodipodi.sourceforge.net/DTD/sodipodi-0.dtd"
   xmlns:inkscape="http://www.inkscape.org/namespaces/inkscape"
   width="512"
   height="512"
   viewBox="0 0 512 512"
   version="1.1"
   id="svg8"
   inkscape:version="0.92.4 (5da689c313, 2019-01-14)"
   sodipodi:docname="犢.svg">
  <defs
     id="defs2" />
  <sodipodi:namedview
     id="base"
     pagecolor="#ffffff"
     bordercolor="#666666"
     borderopacity="1.0"
     inkscape:pageopacity="0.0"
     inkscape:pageshadow="2"
     inkscape:zoom="0.7"
     inkscape:cx="161.66359"
     inkscape:cy="201.10872"
     inkscape:document-units="px"
     inkscape:current-layer="layer1"
     showgrid="false"
     units="px"
     inkscape:window-width="1089"
     inkscape:window-height="818"
     inkscape:window-x="524"
     inkscape:window-y="104"
     inkscape:window-maximized="0" />
  <metadata
     id="metadata5">
    <rdf:RDF>
      <cc:Work
         rdf:about="">
        <dc:format>image/svg+xml</dc:format>
        <dc:type
           rdf:resource="http://purl.org/dc/dcmitype/StillImage" />
        <dc:title></dc:title>
      </cc:Work>
    </rdf:RDF>
  </metadata>
  <g
     inkscape:label="圖層 1"
     inkscape:groupmode="layer"
     id="layer1"
     transform="translate(0,-161.53331)">
    <path
       style="fill:#000000;stroke:#000000;stroke-width:1px;stroke-linecap:butt;stroke-linejoin:miter;stroke-opacity:1;fill-opacity:1"
       d="M 95.714286,361.7476 C 97.688931,365.44972 101.23696,368.09528 103.57143,371.58171 105.3482,374.23524 106.99455,377.01055 108.21429,379.96188 110.6521,385.86048 113.4179,391.99254 113.46683,398.37486 113.49624,402.21114 111.95847,405.94969 110.47969,409.48962 109.02909,412.9621 106.47217,415.87401 104.78336,419.23709 103.38727,422.01724 101.95312,424.82559 101.13271,427.82646 100.3464,430.70256 97.678096,434.77066 99.956676,436.69375 102.1725,438.56388 105.79432,435.63509 108.26505,434.11761 111.30483,432.25063 113.53731,429.25984 115.71429,426.43378 118.94881,422.23488 121.6431,417.60123 123.92857,412.81902 125.73109,409.04736 127.4866,405.14973 128.21429,401.03331 129.10584,395.98998 129.27775,390.68241 128.23223,385.66873 127.19827,380.7105 124.88652,376.005 122.14286,371.7476 120.45884,369.13447 118.09823,367.0177 115.90555,364.81394 113.26849,362.16356 110.69511,359.37474 107.6046,357.27062 104.82982,355.38146 101.92708,352.90794 98.571429,352.81902 96.758786,352.77099 94.327353,353.31368 93.571429,354.96188 92.58258,357.11794 94.597967,359.65469 95.714286,361.7476 Z"
       id="path3724"
       inkscape:connector-curvature="0"
       sodipodi:nodetypes="aaaaaaaaaaaaaaaaaaa" />
    <path
       style="fill:#000000;stroke:#000000;stroke-width:1px;stroke-linecap:butt;stroke-linejoin:miter;stroke-opacity:1;fill-opacity:1"
       d="M 146.47212,374.78069 C 150.15806,373.72687 153.78869,372.45785 157.33126,370.99262 161.99337,369.06434 166.37576,366.51516 170.96832,364.42663 175.63696,362.30351 180.32649,360.21439 185.11045,358.36572 189.67951,356.60008 194.17905,354.43449 199.00005,353.56749 202.56358,352.92663 206.33663,352.4777 209.85919,353.31495 212.64372,353.97679 215.79253,355.01189 217.43534,357.35556 218.80198,359.30524 219.01391,362.11452 218.44549,364.42663 217.8264,366.94486 215.78953,368.96421 213.8998,370.74008 209.98536,374.41867 205.0256,376.84243 200.26274,379.32638 196.61689,381.22778 192.72202,382.61181 188.89853,384.1246 185.05985,385.6434 181.13072,386.92516 177.28177,388.41776 174.57093,389.46901 171.70874,390.23011 169.20055,391.70075 166.87567,393.06392 165.13313,395.262 162.8871,396.75152 160.97226,398.02139 159.08191,399.59761 156.82618,400.03451 153.91483,400.59839 150.85744,399.77035 147.98735,399.02436 144.80993,398.19849 142.0085,396.28044 138.89598,395.23628 136.34087,394.37912 133.64897,393.98945 131.0673,393.21598 127.82869,392.2457 123.74925,392.43075 121.47084,389.93298 119.54452,387.8212 118.12327,384.13076 119.45054,381.59922 121.08385,378.48397 125.88037,378.63685 129.29953,377.81115 131.6038,377.25469 134.0319,377.44061 136.37059,377.05353 139.77562,376.48996 143.15373,375.72944 146.47212,374.78069 Z"
       id="path3726"
       inkscape:connector-curvature="0"
       sodipodi:nodetypes="aaaaaaaaaaaaaaaaaaaaaaa" />
    <path
       style="fill:#000000;stroke:#000000;stroke-width:1px;stroke-linecap:butt;stroke-linejoin:miter;stroke-opacity:1;fill-opacity:1"
       d="M 67.427682,483.87716 C 71.019534,482.594 74.494021,481.00333 78.034284,479.58402 83.750908,477.2922 89.491273,475.05986 95.206877,472.7655 101.02408,470.43035 106.87209,468.16751 112.632,465.69443 119.00161,462.95957 125.18381,459.7984 131.57237,457.10812 137.9835,454.40834 144.59673,452.20803 151.01781,449.53198 156.3747,447.29944 161.70964,445.00106 166.92771,442.46092 171.12617,440.41712 175.15112,438.03354 179.30208,435.89492 183.31796,433.8259 187.17824,431.37752 191.42391,429.83401 194.83956,428.59224 198.40861,427.60932 202.03051,427.30862 205.73027,427.00146 209.45669,427.61937 213.14219,428.06624 216.53568,428.4777 220.08829,428.51932 223.24371,429.834 225.52908,430.78619 227.67643,432.26209 229.30463,434.12716 230.7408,435.77227 231.99177,437.77889 232.33509,439.93553 232.65709,441.95823 232.36142,444.22989 231.32493,445.99645 230.23386,447.85604 228.27857,449.24278 226.27417,450.03706 222.34872,451.59259 217.86965,451.06179 213.64726,451.04721 209.76042,451.03378 205.90947,450.28474 202.0305,450.03706 197.91067,449.774 193.73447,448.89212 189.65614,449.53198 185.31495,450.21309 181.36286,452.4484 177.28177,454.07767 173.53486,455.57353 169.84475,457.21041 166.17009,458.87589 162.77481,460.41475 159.48944,462.19304 156.06856,463.67412 151.8367,465.50632 147.50761,467.1074 143.18912,468.72488 139.67339,470.04169 136.08307,471.15629 132.58252,472.51295 128.92363,473.93097 125.32277,475.49574 121.72338,477.05864 118.33649,478.52927 114.9696,480.04664 111.62186,481.60433 107.21827,483.65329 102.78335,485.64712 98.489873,487.91778 95.222447,489.6458 92.005826,491.47986 88.893424,493.47362 85.943465,495.36332 83.255353,497.64212 80.307127,499.53453 76.783524,501.79626 73.2403,504.07329 69.447988,505.84799 65.878349,507.51849 62.231652,509.28927 58.33631,509.8886 56.420893,510.1833 54.395709,510.15286 52.527932,509.63606 50.313485,509.02334 48.189113,507.87411 46.467017,506.35306 44.838785,504.91492 43.784447,502.91985 42.678945,501.04976 41.49103,499.04025 40.569879,496.88114 39.648487,494.73631 38.90182,492.99821 37.476238,491.31859 37.628182,489.43301 37.776626,487.59086 38.704241,485.35534 40.406102,484.63478 42.323781,483.82284 44.43134,485.71097 46.467017,486.15001 48.307019,486.54684 50.154341,486.93271 52.022856,487.16017 53.362465,487.32324 54.723609,487.57372 56.063466,487.4127 60.002288,486.93935 63.691756,485.21179 67.427682,483.87716 Z"
       id="path3728"
       inkscape:connector-curvature="0"
       sodipodi:nodetypes="aaaaaaaaaaaaaaaaaaaaaaaaaaaaaaaaaaaaaaaaa" />
    <path
       style="fill:#000000;stroke:#000000;stroke-width:1px;stroke-linecap:butt;stroke-linejoin:miter;stroke-opacity:1;fill-opacity:1"
       d="M 158.92857,281.39046 C 158.75414,287.70206 158.38426,294.0073 158.21429,300.31902 158.01557,307.69826 157.91667,315.08021 157.85715,322.46188 157.80051,329.48546 157.97614,336.51051 157.85714,343.53331 157.73808,350.56015 157.44824,357.58353 157.14286,364.60474 156.85018,371.33404 156.43056,378.05723 156.07142,384.78331 155.59786,393.6525 155.35431,402.53717 154.64286,411.39045 154.10579,418.07373 153.10671,424.71313 152.5,431.39045 152.13812,435.37323 151.97156,439.37219 151.60714,443.35474 151.15431,448.3035 150.40093,453.22293 150,458.17617 149.46137,464.83063 149.476,471.52243 148.92857,478.17617 148.22142,486.7713 146.91182,495.30732 146.07143,503.89045 145.38454,510.90589 144.79985,517.93167 144.28571,524.96188 143.72024,532.69397 143.3185,540.43718 142.85714,548.17617 142.48814,554.36595 142.11353,560.5555 141.78571,566.7476 141.52422,571.68689 141.36362,576.63146 141.07143,581.56903 140.87051,584.96429 141.33956,588.49136 140.35714,591.74759 139.8646,593.38012 138.40309,594.59008 137.83317,596.19723 137.00453,598.53393 136.66844,601.05479 136.60715,603.53331 136.51825,607.12786 136.38641,610.96649 137.85714,614.2476 139.02985,616.86384 141.13257,619.16887 143.57143,620.67617 146.29815,622.36138 149.73561,623.90485 152.85714,623.17617 154.78749,622.72556 156.25979,620.92158 157.32143,619.24759 158.81466,616.89307 159.64958,613.99998 159.64286,611.21188 159.63524,608.0476 157.97784,605.10232 156.96429,602.10474 155.73916,598.48142 153.37114,595.1806 152.85714,591.39045 152.35888,587.71636 153.52218,584.0044 153.92857,580.31902 154.61885,574.05924 155.64936,567.83803 156.25,561.56902 156.83609,555.45194 157.25923,549.31654 157.5,543.17617 157.72157,537.52544 157.4859,531.86367 157.67857,526.21188 157.88984,520.01471 158.38937,513.83072 158.75,507.64045 159.10372,501.56882 159.29648,495.48539 159.82143,489.42617 160.31788,483.69596 161.2144,478.00654 161.78572,472.28331 162.62239,463.90177 163.23996,455.49974 163.92857,447.10474 164.67053,438.05935 165.23917,428.99941 166.07143,419.96188 166.59284,414.29983 167.36714,408.66245 167.85714,402.9976 168.76717,392.47698 169.10553,381.9124 170,371.39045 170.89201,360.89746 172.18403,350.4422 173.21429,339.96188 173.83431,333.65475 173.95508,327.28412 175,321.03331 175.91881,315.53687 177.66123,310.21 178.92858,304.78331 179.9138,300.56465 180.80124,296.32357 181.78571,292.10474 182.59278,288.64612 183.86611,285.27425 184.28572,281.74759 184.86239,276.90083 185.69313,271.77837 184.28572,267.10474 182.70053,261.84074 178.32284,257.86429 175.17857,253.35474 173.27879,250.63003 171.16052,248.06096 169.28571,245.31902 167.53351,242.75641 166.00959,240.04363 164.28572,237.46188 162.67183,235.04484 161.02772,232.64542 159.28571,230.31902 157.68657,228.18342 156.20149,225.92587 154.28572,224.06903 152.36233,222.2048 150.39313,218.38532 147.85714,219.2476 144.28847,220.461 144.99694,226.37522 144.82143,230.14045 144.61864,234.49074 145.62677,238.91499 147.14285,242.9976 148.48975,246.62463 151.23863,249.57122 153.03571,252.99759 154.68091,256.13437 156.42128,259.26667 157.5,262.64045 158.3853,265.40929 158.86353,268.31517 159.10714,271.21188 159.39152,274.59332 159.02232,277.99837 158.92857,281.39046 Z"
       id="path3730"
       inkscape:connector-curvature="0"
       sodipodi:nodetypes="aaaaaaaaaaaaaaaaaaaaaaaaaaaaaaaaaaaaaaaaaaaaaaaaaaaaaaa" />
    <path
       style="fill:#000000;stroke:#000000;stroke-width:1px;stroke-linecap:butt;stroke-linejoin:miter;stroke-opacity:1;fill-opacity:1"
       d="M 302.75515,300.91963 C 305.62597,300.34994 308.52776,299.93025 311.37952,299.27179 317.32876,297.89815 323.13132,295.94476 329.05719,294.47357 335.0033,292.99735 341.04049,291.90597 346.9874,290.43296 350.11915,289.65725 353.1379,288.36767 356.33131,287.90758 360.08159,287.36725 363.91828,287.35671 367.69552,287.65504 370.51022,287.87735 373.42876,288.07063 376.02929,289.17027 378.03017,290.01635 380.22503,291.08947 381.33259,292.95834 382.41322,294.78177 383.02778,297.37085 382.0902,299.27179 380.92156,301.64121 377.76706,302.44471 375.27167,303.3124 372.30306,304.34463 369.06735,304.72036 365.92776,304.57509 363.68398,304.47127 361.60617,303.14938 359.36177,303.05987 357.06594,302.96831 354.80174,303.64767 352.54324,304.07002 348.04675,304.91088 343.60868,306.0406 339.15872,307.10047 334.09418,308.30672 329.10942,309.85698 324.00643,310.88855 319.16356,311.86754 314.21798,312.26459 309.35922,313.16139 305.80348,313.81768 302.28394,314.6572 298.75262,315.43423 296.13986,316.00914 293.596,317.07133 290.92393,317.202 288.89033,317.30145 286.80318,317.06177 284.86302,316.44438 282.31498,315.63356 279.93893,314.25018 277.79195,312.65631 275.11552,310.66939 272.09502,308.62216 270.72088,305.58524 269.64288,303.20279 268.88934,300.01014 270.21581,297.75656 271.11354,296.23138 273.24436,295.4649 275.01403,295.48372 277.08445,295.50574 278.6894,297.39506 280.56987,298.26164 283.22515,299.48528 285.79561,301.03769 288.64846,301.67725 291.47765,302.31151 294.44945,302.26889 297.33937,302.03439 299.17644,301.88533 300.94729,301.27838 302.75515,300.91963 Z"
       id="path3732"
       inkscape:connector-curvature="0"
       sodipodi:nodetypes="aaaaaaaaaaaaaaaaaaaaaaaaaaa" />
    <path
       style="fill:#000000;stroke:#000000;stroke-width:1px;stroke-linecap:butt;stroke-linejoin:miter;stroke-opacity:1;fill-opacity:1"
       d="M 313.39983,226.28827 C 316.26391,227.33763 318.90147,228.95356 321.48105,230.58142 323.87306,232.09091 326.22448,233.71013 328.29958,235.63218 330.75129,237.90306 333.17799,240.3239 334.86557,243.20832 336.62703,246.219 337.94632,249.59897 338.4011,253.05731 339.0619,258.08232 337.45666,263.15133 337.13841,268.2096 336.88975,272.1618 336.87758,276.12642 336.63334,280.07889 336.44061,283.1978 336.14033,286.30917 335.87572,289.4228 335.55369,293.21215 335.07061,296.98954 334.86557,300.78702 334.62952,305.15879 334.38957,309.54657 334.61303,313.919 334.79049,317.3914 335.5567,320.81081 335.87572,324.27307 336.12337,326.96068 336.89888,329.70548 336.3808,332.35429 335.89658,334.82995 334.83582,337.34452 333.09781,339.17282 332.37109,339.93729 331.36463,340.54302 330.31988,340.68804 328.43875,340.94917 326.27492,340.57606 324.76404,339.42535 321.64804,337.05215 320.01649,332.90381 319.2082,329.07129 318.75521,326.92341 319.69167,324.70032 319.71328,322.5053 319.74234,319.55436 319.31973,316.61544 319.20821,313.66647 319.0364,309.12325 318.96482,304.57587 318.95567,300.02941 318.94398,294.22043 319.22306,288.41324 319.20821,282.60427 319.19723,278.31032 319.04546,274.01787 318.95567,269.72483 318.87644,265.93665 318.83754,262.14724 318.70313,258.36061 318.58056,254.90733 319.18692,251.31749 318.19805,248.00655 317.24779,244.82487 315.09088,242.11256 313.14729,239.42025 311.05221,236.5181 306.93275,234.81439 306.07622,231.33903 305.55832,229.23767 305.75847,226.17629 307.59145,225.02558 309.26953,223.97212 311.53942,225.60664 313.39983,226.28827 Z"
       id="path3734"
       inkscape:connector-curvature="0"
       sodipodi:nodetypes="aaaaaaaaaaaaaaaaaaaaaaaaaaa" />
    <path
       style="fill:#000000;stroke:#000000;stroke-width:1px;stroke-linecap:butt;stroke-linejoin:miter;stroke-opacity:1;fill-opacity:1"
       d="M 271.22596,345.99135 C 277.36582,344.6208 283.54546,343.425 289.66124,341.95074 296.09247,340.40044 302.40346,338.36725 308.85414,336.89997 315.37391,335.41697 321.97545,334.31773 328.55212,333.1119 335.78035,331.78662 343.06779,330.78193 350.2704,329.32383 356.87498,327.9868 363.24164,325.17726 369.96837,324.77814 373.85659,324.54744 377.95015,324.64138 381.58513,326.04083 384.39791,327.12375 388.14219,328.42919 388.90873,331.34413 389.47393,333.49346 387.82327,335.96469 386.13081,337.40505 384.20228,339.04632 381.29774,338.96685 378.8072,339.42535 373.56795,340.38989 368.15989,340.11273 362.89731,340.94059 357.10671,341.85151 351.47978,343.6151 345.72471,344.72866 342.20568,345.40956 338.62731,345.76655 335.1181,346.49642 330.70059,347.4152 326.32894,348.5553 321.98612,349.77942 319.01359,350.6173 316.103,351.66193 313.14729,352.55734 309.1191,353.77764 304.86436,354.3671 301.02546,356.09287 297.85145,357.51974 295.49261,360.56212 292.18662,361.64871 287.85638,363.07195 283.1033,362.85913 278.54957,362.65887 274.3742,362.47524 270.18602,361.8136 266.1752,360.63856 262.91869,359.68451 259.46531,358.73733 256.83128,356.59795 255.4716,355.4936 253.43935,354.01875 253.80083,352.3048 254.30729,349.9034 257.8369,349.43149 260.11428,348.51673 263.63892,347.10097 267.51885,346.81886 271.22596,345.99135 Z"
       id="path3736"
       inkscape:connector-curvature="0"
       sodipodi:nodetypes="aaaaaaaaaaaaaaaaaaaaaaa" />
    <path
       style="fill:#000000;stroke:#000000;stroke-width:1px;stroke-linecap:butt;stroke-linejoin:miter;stroke-opacity:1;fill-opacity:1"
       d="M 227.14286,399.3522 C 228.15546,403.13408 230.85156,406.25429 232.91842,409.57936 235.03874,412.99044 237.38603,416.25614 239.70414,419.53602 241.70881,422.37243 243.62335,425.28613 245.86222,427.94157 247.60155,430.00454 249.43949,432.00629 251.48985,433.76047 253.90449,435.82631 256.22292,438.40053 259.28571,439.2476 261.8366,439.9531 265.15552,440.33898 267.20414,438.66329 269.53573,436.75614 269.90499,432.96269 269.64286,429.96188 269.35558,426.67311 267.0554,423.86429 265.35714,421.03331 263.37284,417.72549 260.86044,414.76291 258.51015,411.70427 255.6361,407.964 253.14212,403.83923 249.64286,400.67617 247.53622,398.77193 244.93878,397.4881 242.5,396.03331 239.9379,394.50495 237.57245,392.31125 234.64286,391.7476 232.15014,391.268 228.75773,390.74679 227.08158,392.65314 225.60704,394.3302 226.56529,397.19507 227.14286,399.3522 Z"
       id="path3738"
       inkscape:connector-curvature="0"
       sodipodi:nodetypes="aaaaaaaaaaaaaaa" />
    <path
       style="fill:#000000;stroke:#000000;stroke-width:1px;stroke-linecap:butt;stroke-linejoin:miter;stroke-opacity:1;fill-opacity:1"
       d="M 277.79195,375.53831 C 284.89147,374.07034 291.9187,372.26988 299.00515,370.74008 307.9937,368.79966 317.0666,367.25191 326.02673,365.18425 336.27215,362.81999 346.35647,359.7967 356.58385,357.35556 366.81483,354.91356 377.04172,352.40171 387.3935,350.53703 394.58728,349.2412 401.90286,348.71535 409.11178,347.50658 413.42645,346.78311 417.64679,345.49656 421.99122,344.98119 425.92366,344.5147 429.93114,343.98451 433.86052,344.47612 437.34876,344.91254 441.00361,345.60764 443.96204,347.50658 447.07423,349.50421 449.47845,352.61382 451.28565,355.84033 453.09425,359.06935 455.71023,362.92637 454.56865,366.44694 453.91952,368.44881 450.95799,368.70042 449.51788,370.23501 447.52075,372.36316 446.4009,375.17303 444.71966,377.55861 442.46957,380.75136 440.06424,383.83314 437.64859,386.90253 435.42882,389.72304 433.06093,392.42454 430.83006,395.23628 428.25566,398.48098 426.14497,402.11923 423.25392,405.08527 420.45509,407.95669 417.75602,411.52709 413.91001,412.66141 410.90519,413.54764 407.17196,413.39016 404.56609,411.65126 402.09048,409.99928 400.78079,406.75512 400.27295,403.82258 399.90928,401.72259 399.6839,398.91796 401.2831,397.50913 403.24222,395.78323 406.88467,398.61926 409.11178,397.25659 412.22931,395.34911 412.72745,390.90194 414.41509,387.66014 416.44904,383.7531 418.33761,379.77149 420.22346,375.79084 421.17495,373.78243 422.16598,371.78933 423.00138,369.72993 424.04225,367.16403 426.29288,364.62218 425.7793,361.90125 425.46938,360.25933 423.95596,358.92641 422.4963,358.11318 420.18721,356.82669 417.3109,356.85789 414.66762,356.85049 410.83401,356.83977 407.07286,357.91973 403.3034,358.61825 397.79996,359.63809 392.39028,361.12542 386.88843,362.15379 381.61014,363.14037 376.26394,363.73154 370.97852,364.67917 365.06358,365.73966 359.12858,366.74885 353.30085,368.2147 347.41283,369.69571 341.71466,371.85397 335.87572,373.518 329.25809,375.40394 322.51746,376.84848 315.92521,378.82131 311.07977,380.27138 306.36238,382.12473 301.53054,383.61953 298.01778,384.70625 294.44075,385.57648 290.92393,386.64998 287.53764,387.68364 284.15148,388.72769 280.82241,389.93298 278.26495,390.85891 275.95197,392.68572 273.24626,392.96344 269.4189,393.35629 265.43846,392.41111 261.88205,390.94314 258.47164,389.53543 253.43149,388.26312 252.79067,384.62968 252.48643,382.90464 254.37896,381.33074 255.82113,380.33653 258.61151,378.41288 262.36126,378.54474 265.67012,377.81115 269.68369,376.92133 273.76609,376.37074 277.79195,375.53831 Z"
       id="path3740"
       inkscape:connector-curvature="0"
       sodipodi:nodetypes="aaaaaaaaaaaaaaaaaaaaaaaaaaaaaaaaaaaaaaaaaa" />
    <path
       style="fill:#000000;stroke:#000000;stroke-width:1px;stroke-linecap:butt;stroke-linejoin:miter;stroke-opacity:1;fill-opacity:1"
       d="M 283.60033,384.62968 C 283.4084,387.45289 286.76777,389.35711 287.89348,391.95329 288.83651,394.12815 289.27951,396.48774 289.91378,398.77182 290.54202,401.0342 291.10218,403.31497 291.68155,405.59035 292.10976,407.27209 292.06643,409.14409 292.94424,410.64111 293.93827,412.33636 295.28971,414.94343 297.23739,414.68172 298.99733,414.44523 299.37583,411.79266 300.0153,410.13603 301.31137,406.7784 301.1758,403.02432 302.03561,399.52943 302.72904,396.71082 303.25841,393.78966 304.56099,391.19568 305.64141,389.04412 307.90195,387.59859 308.85414,385.3873 309.80108,383.18821 311.60234,380.19399 310.11683,378.31623 308.23374,375.9359 304.0552,377.6304 301.02546,377.81115 298.1243,377.98423 295.26946,378.66597 292.43917,379.32638 290.38973,379.80458 288.12189,379.91577 286.37825,381.09415 285.13646,381.93337 283.70198,383.13436 283.60033,384.62968 Z"
       id="path3742"
       inkscape:connector-curvature="0"
       sodipodi:nodetypes="aaaaaaaaaaaaaaa" />
    <path
       style="fill:#000000;stroke:#000000;stroke-width:1px;stroke-linecap:butt;stroke-linejoin:miter;stroke-opacity:1;fill-opacity:1"
       d="M 342.69425,379.32638 C 342.86214,381.84758 343.0069,384.37645 342.94679,386.90252 342.87246,390.0265 343.06083,393.24561 342.18917,396.24644 341.68501,397.98211 340.19736,399.31781 339.66379,401.04466 339.01338,403.14965 337.33785,406.06327 338.90618,407.61065 340.77918,409.45863 344.32156,407.64891 346.73486,406.6005 349.64122,405.33789 351.80192,402.76424 354.05847,400.53958 356.18465,398.44345 357.96598,396.02347 359.86684,393.72106 361.58267,391.64277 363.61205,389.76532 364.91761,387.4076 365.78169,385.84714 366.96869,384.11792 366.68537,382.35684 366.24678,379.63061 363.58191,377.74859 361.63461,375.79085 360.28089,374.42987 358.7129,373.27879 357.08892,372.25531 355.33723,371.15136 353.48429,370.17015 351.53309,369.47739 349.33899,368.6984 346.89385,367.14265 344.71456,367.96217 343.24894,368.51331 342.34907,370.2397 341.93663,371.75023 341.26814,374.19859 342.52561,376.79401 342.69425,379.32638 Z"
       id="path3744"
       inkscape:connector-curvature="0"
       sodipodi:nodetypes="aaaaaaaaaaaaaaaa" />
    <path
       style="fill:#000000;stroke:#000000;stroke-width:1px;stroke-linecap:butt;stroke-linejoin:miter;stroke-opacity:1;fill-opacity:1"
       d="M 369.71583,395.74136 C 372.99964,395.78345 376.28423,395.84255 379.56482,395.9939 384.62142,396.22718 389.76019,395.9781 394.71711,397.00405 398.65406,397.81889 403.08778,398.36096 406.08132,401.04466 408.23989,402.9798 410.84907,406.14489 409.8694,408.87334 408.71108,412.09936 403.94057,412.87317 400.52548,413.16649 396.27365,413.53169 392.30109,410.87804 388.15111,409.8835 384.63488,409.04084 381.15216,407.85331 377.54452,407.61065 373.16415,407.31602 368.76779,408.06755 364.41254,408.62081 360.59574,409.10566 356.83783,409.97584 353.04831,410.64111 346.73723,411.74905 340.39985,412.71192 334.10796,413.9241 328.53106,414.99854 322.96146,416.12752 317.44044,417.45964 313.37104,418.44151 309.3228,419.52177 305.3186,420.74264 300.81165,422.1168 296.37914,423.72551 291.93408,425.28832 287.28649,426.92234 282.63105,428.54086 278.04449,430.33909 274.81316,431.60598 271.85017,433.69266 268.44804,434.37969 265.89011,434.89624 262.72957,435.91488 260.61936,434.37969 258.18682,432.61001 257.09567,428.70765 257.84144,425.7934 258.35814,423.77428 260.6573,422.6628 262.38712,421.50025 264.91973,419.79817 267.91146,418.90313 270.72088,417.71218 273.46979,416.54688 276.24102,415.42813 279.05464,414.42918 282.46666,413.21777 285.9527,412.22576 289.4087,411.14619 291.59447,410.46341 293.77934,409.77718 295.9747,409.12588 299.49985,408.08007 303.02671,407.03632 306.58129,406.09542 310.01555,405.18637 313.48644,404.42175 316.93536,403.57004 319.96798,402.82114 322.98061,401.98916 326.02673,401.2972 329.71339,400.45974 333.42372,399.72713 337.13841,399.02436 341.00028,398.29375 344.86215,397.54469 348.75517,397.00405 352.77903,396.44524 356.82,395.95209 360.877,395.74136 363.81931,395.58853 366.7698,395.70359 369.71583,395.74136 Z"
       id="path3746"
       inkscape:connector-curvature="0"
       sodipodi:nodetypes="aaaaaaaaaaaaaaaaaaaaaaaaaaaaaa" />
    <path
       style="fill:#000000;stroke:#000000;stroke-width:1px;stroke-linecap:butt;stroke-linejoin:miter;stroke-opacity:1;fill-opacity:1"
       d="M 259.35666,460.13859 C 261.40347,462.35106 263.08144,464.89457 264.65997,467.46219 266.29654,470.12421 267.97448,472.82828 268.95311,475.79594 270.10164,479.27882 270.46114,482.99694 270.72089,486.65509 271.02501,490.93828 270.51043,495.24077 270.46834,499.53454 270.42213,504.24836 270.57075,508.96374 270.46834,513.67667 270.34204,519.48916 269.83703,525.28931 269.71073,531.1018 269.61747,535.39394 269.32023,539.7059 269.71073,543.98125 270.00658,547.2204 269.82851,550.77463 271.4785,553.5777 272.41891,555.17532 273.93094,557.33366 275.77165,557.11323 277.8612,556.863 278.7831,554.01841 279.55972,552.06247 281.49796,547.18091 280.93538,541.64273 281.32748,536.4051 281.66707,531.86899 281.74837,527.31607 281.83256,522.76805 281.92293,517.88648 281.83256,513.00324 281.83256,508.12083 281.83256,503.49096 281.57174,498.85374 281.83256,494.23123 282.0855,489.74836 282.65435,485.28284 283.34779,480.84671 283.87812,477.45405 285.22459,474.17605 285.36809,470.74519 285.49202,467.78232 285.79245,464.50175 284.35794,461.90635 282.53275,458.60411 278.74967,456.78454 275.51911,454.83528 272.45273,452.98508 269.03278,451.77441 265.67012,450.54214 263.19454,449.63494 260.72881,448.36522 258.09398,448.26929 256.54281,448.21281 254.44843,448.01491 253.54829,449.27945 252.27063,451.07433 253.26788,453.90211 254.3059,455.84544 255.34695,457.79444 257.85614,458.51661 259.35666,460.13859 Z"
       id="path3748"
       inkscape:connector-curvature="0"
       sodipodi:nodetypes="aaaaaaaaaaaaaaaaaaaaaaaa" />
    <path
       style="fill:#000000;stroke:#000000;stroke-width:1px;stroke-linecap:butt;stroke-linejoin:miter;stroke-opacity:1;fill-opacity:1"
       d="M 304.30845,436.65254 C 309.73369,435.46688 315.13907,434.16456 320.4709,432.61193 326.09372,430.97456 331.5415,428.77993 337.13841,427.05609 341.56973,425.69125 345.95956,424.08964 350.52293,423.26802 355.67614,422.3402 360.97621,421.42754 366.1803,422.00533 370.12323,422.4431 374.16442,423.46399 377.54451,425.54086 380.94281,427.62892 383.53825,430.89718 385.87827,434.12716 388.10944,437.20689 390.54073,440.48006 391.18157,444.22868 391.86965,448.25364 389.80377,452.28582 389.41381,456.35051 389.06776,459.95758 388.99293,463.58701 388.90873,467.20966 388.79332,472.1749 388.80743,477.14386 388.90873,482.10941 388.99292,486.23677 389.35607,490.35596 389.41381,494.48378 389.50566,501.04966 389.37597,507.61873 389.16127,514.18175 389.00417,518.98404 388.74749,523.78387 388.40365,528.57642 388.1375,532.28605 387.26873,535.97102 387.3935,539.6881 387.51932,543.43646 388.43177,547.12093 389.16127,550.79977 389.86818,554.36473 391.11322,557.81754 391.68665,561.40638 392.32638,565.41021 393.49281,569.5525 392.6968,573.52821 392.19417,576.0386 390.24815,578.02868 389.16127,580.34674 388.42455,581.918 387.95584,583.61278 387.14096,585.14496 385.91305,587.45372 385.32489,590.87295 382.84782,591.71095 381.41029,592.19727 379.62975,591.2668 378.55467,590.19572 376.7816,588.42926 376.84596,585.4905 376.02928,583.12466 375.07381,580.35675 374.38728,577.48978 373.25136,574.7909 371.96614,571.73727 370.1889,568.91458 368.70568,565.95206 367.0708,562.68659 365.70996,559.2791 363.90745,556.10308 362.61674,553.82883 360.64486,551.94044 359.61431,549.53708 358.45557,546.83478 357.82065,543.8823 357.594,540.95079 357.42479,538.76219 356.21602,535.51294 358.09908,534.3848 360.0714,533.20318 362.28835,536.28286 364.41253,537.16272 365.91455,537.78488 367.49219,539.63326 368.95822,538.93048 373.49559,536.75537 372.69593,529.5023 373.5039,524.53581 374.31503,519.54989 373.71435,514.43481 373.75644,509.38352 373.79923,504.24876 373.70976,499.11343 373.75644,493.9787 373.79853,489.34826 373.82818,484.7162 374.00898,480.0891 374.17361,475.87578 374.59896,471.6754 374.7666,467.46219 374.93731,463.17161 375.23854,458.87111 375.01913,454.58275 374.8068,450.43258 375.81278,445.66353 373.5039,442.20838 372.26823,440.35925 369.77478,439.7146 367.69553,438.92538 365.44188,438.06996 363.03033,437.55993 360.62446,437.41015 358.68478,437.28939 356.72393,437.54506 354.81608,437.91523 351.70532,438.51879 348.79563,439.91178 345.72471,440.69315 342.06087,441.62538 338.2745,442.02447 334.61303,442.96599 330.77086,443.95398 327.09313,445.52193 323.24881,446.50153 319.0894,447.56142 314.84639,448.2668 310.62191,449.02691 306.42677,449.78174 302.23772,451.45746 297.995,451.04721 295.3177,450.78833 292.93512,449.21978 290.41886,448.2693 287.37708,447.12031 282.66359,447.69811 281.32748,444.73376 280.62707,443.17981 281.82132,441.06798 283.09525,439.93553 284.71278,438.49763 287.25945,438.6746 289.4087,438.4203 291.33141,438.1928 293.29037,438.61108 295.21708,438.4203 296.92565,438.25112 298.58225,437.73672 300.26784,437.41015 301.61316,437.1495 302.96971,436.94512 304.30845,436.65254 Z"
       id="path3750"
       inkscape:connector-curvature="0"
       sodipodi:nodetypes="aaaaaaaaaaaaaaaaaaaaaaaaaaaaaaaaaaaaaaaaaaaaaaaaaaaaa" />
    <path
       style="fill:#000000;stroke:#000000;stroke-width:1px;stroke-linecap:butt;stroke-linejoin:miter;stroke-opacity:1;fill-opacity:1"
       d="M 305.57115,467.71473 C 307.87313,466.48275 310.44232,465.83261 312.89475,464.93681 315.99566,463.80415 319.02761,462.42042 322.23866,461.65381 325.37686,460.9046 328.61268,460.23136 331.83511,460.39112 335.89347,460.59233 340.03761,461.4182 343.7044,463.16904 346.30277,464.40972 349.68853,465.71651 350.52293,468.47234 351.06291,470.25577 350.0096,472.39774 348.75517,473.77564 346.64923,476.08887 343.16134,476.65207 340.16887,477.56372 336.48841,478.68497 332.62145,479.09916 328.80465,479.58402 324.44939,480.13728 320.05969,480.42569 315.67267,480.59417 312.30798,480.72339 308.87952,481.22072 305.57115,480.59417 303.08299,480.12295 299.62825,480.08346 298.50008,477.81625 297.52649,475.85968 299.0127,473.29185 300.26784,471.50281 301.51551,469.7244 303.65578,468.7398 305.57115,467.71473 Z"
       id="path3752"
       inkscape:connector-curvature="0"
       sodipodi:nodetypes="aaaaaaaaaaaaaa" />
    <path
       style="fill:#000000;stroke:#000000;stroke-width:1px;stroke-linecap:butt;stroke-linejoin:miter;stroke-opacity:1;fill-opacity:1"
       d="M 299.76277,502.31246 C 303.07595,501.08419 306.68947,500.89928 310.11683,500.03961 314.01984,499.06063 317.79195,497.56615 321.73359,496.75661 325.5588,495.97099 329.45992,494.90367 333.35034,495.24139 336.16197,495.48546 339.49457,495.71423 341.43157,497.76677 343.33729,499.78617 344.40738,503.24093 343.45186,505.84799 342.31027,508.96272 338.38812,510.27806 335.37065,511.65636 332.06482,513.16637 328.33449,513.50315 324.76404,514.18175 320.67065,514.95974 316.55171,515.7531 312.38967,515.94952 308.85407,516.11637 305.23943,516.2073 301.78307,515.44444 299.38652,514.91549 296.5806,514.51357 294.96454,512.66652 293.41844,510.89943 292.25743,507.99988 293.19678,505.84799 294.19126,503.5698 297.43199,503.17652 299.76277,502.31246 Z"
       id="path3754"
       inkscape:connector-curvature="0"
       sodipodi:nodetypes="aaaaaaaaaaaaa" />
    <path
       style="fill:#000000;stroke:#000000;stroke-width:1px;stroke-linecap:butt;stroke-linejoin:miter;stroke-opacity:1;fill-opacity:1"
       d="M 297.86873,546.00155 C 302.32661,545.38548 306.81095,544.95365 311.25325,544.23378 315.65339,543.52075 320.02642,542.64134 324.38524,541.7084 328.14885,540.90286 331.86259,539.87623 335.62319,539.05676 339.18801,538.27995 342.7488,537.45706 346.35606,536.91018 349.57759,536.42178 352.8207,535.85738 356.07877,535.90003 358.03113,535.92559 360.05504,535.98255 361.88715,536.65764 363.7713,537.3519 365.90763,538.21711 366.93791,539.94064 367.9781,541.68075 368.35122,544.18907 367.44299,546.00155 366.37565,548.13153 363.62277,548.98011 361.38207,549.78962 359.02515,550.64112 356.41428,550.45421 353.9322,550.79977 350.39489,551.29225 346.84485,551.70674 343.3256,552.315 340.61701,552.78315 337.93633,553.40062 335.24438,553.9565 331.83281,554.66098 328.4328,555.4215 325.01658,556.10308 321.90796,556.72329 318.7888,557.28954 315.67267,557.87084 312.0126,558.55362 308.34875,559.216 304.68727,559.89114 299.67816,560.81478 294.69726,561.90569 289.66124,562.66907 285.46468,563.3052 281.25017,563.86762 277.01639,564.16897 273.73651,564.40243 270.43152,564.6793 267.15471,564.4062 264.23019,564.16245 261.25859,563.76811 258.50976,562.7404 256.2637,561.90066 254.11485,560.68396 252.2856,559.13354 250.99728,558.0416 248.72908,556.88137 249.06125,555.22554 249.50608,553.00815 252.90064,552.72325 255.06352,552.06247 258.4241,551.03577 262.06216,551.40091 265.54385,550.92604 268.88274,550.47065 272.19022,549.80808 275.51911,549.28455 278.88261,548.75557 282.25207,548.26505 285.62063,547.76932 289.70168,547.16874 293.78256,546.56625 297.86873,546.00155 Z"
       id="path3756"
       inkscape:connector-curvature="0"
       sodipodi:nodetypes="aaaaaaaaaaaaaaaaaaaaaaaaaaa" />
    <path
       style="fill:#000000;stroke:#000000;stroke-width:1px;stroke-linecap:butt;stroke-linejoin:miter;stroke-opacity:1;fill-opacity:1"
       d="M 298.39286,578.17617 C 299.5909,579.67601 300.3334,581.48956 301.25,583.17617 302.24154,585.00067 303.59422,586.69971 304.10714,588.71188 304.75425,591.25043 305.00971,594.05133 304.28572,596.56902 303.41884,599.5836 301.39209,602.27718 299.10714,604.42617 296.75689,606.63658 293.46999,607.56961 290.71428,609.2476 287.99255,610.9049 285.42776,612.81483 282.67857,614.42617 279.82998,616.09578 276.93401,617.70176 273.92857,619.06903 270.44707,620.65287 266.91748,622.2192 263.21429,623.17616 259.48963,624.13867 255.39654,626.11048 251.78571,624.78331 249.76744,624.0415 247.84153,622.08487 247.5,619.96188 247.0469,617.14529 248.91904,614.16447 250.89286,612.10474 253.63738,609.24075 258.22989,609.0068 261.60714,606.92617 265.43864,604.56569 269.00375,601.75249 272.32143,598.71188 275.83118,595.49524 279.26667,592.09892 281.96428,588.17617 283.84974,585.43442 284.21298,581.7302 286.42857,579.2476 288.46228,576.96879 291.06317,573.99627 294.10715,574.2476 296.03853,574.40706 297.18335,576.66198 298.39286,578.17617 Z"
       id="path3758"
       inkscape:connector-curvature="0"
       sodipodi:nodetypes="aaaaaaaaaaaaaaaaaa" />
    <path
       style="fill:#000000;stroke:#000000;stroke-width:1px;stroke-linecap:butt;stroke-linejoin:miter;stroke-opacity:1;fill-opacity:1"
       d="M 338.57143,575.31903 C 343.38746,575.59625 347.92412,577.72041 352.50001,579.24759 356.25379,580.5004 359.92152,582.00406 363.57143,583.53331 367.30623,585.09813 370.98598,586.79417 374.64286,588.53331 378.84981,590.53405 383.04675,592.56446 387.14286,594.78331 390.35643,596.5241 394.11721,597.64365 396.60715,600.31903 399.54517,603.47587 401.24549,607.75004 402.32143,611.92617 403.27293,615.61927 404.47285,619.9002 402.85714,623.35474 401.9392,625.31738 399.79814,626.83386 397.67857,627.28331 393.61086,628.14586 389.31543,626.15937 385.53572,624.42617 382.592,623.07632 380.23491,620.70001 377.67857,618.71188 373.70801,615.62388 369.94828,612.27389 366.07143,609.06903 362.38835,606.02434 358.63169,603.06768 355,599.96188 351.73162,597.16678 348.52275,594.30144 345.35715,591.39045 342.87783,589.11055 340.14994,587.04819 338.03571,584.42617 336.02366,581.93085 331.69349,579.12279 333.03571,576.21188 333.81835,574.51454 336.70543,575.21162 338.57143,575.31903 Z"
       id="path3760"
       inkscape:connector-curvature="0"
       sodipodi:nodetypes="aaaaaaaaaaaaaaaaa" />
  </g>
</svg>
