<?xml version="1.0" encoding="UTF-8" standalone="no"?>
<!-- Created with Inkscape (http://www.inkscape.org/) -->

<svg
   xmlns:dc="http://purl.org/dc/elements/1.1/"
   xmlns:cc="http://creativecommons.org/ns#"
   xmlns:rdf="http://www.w3.org/1999/02/22-rdf-syntax-ns#"
   xmlns:svg="http://www.w3.org/2000/svg"
   xmlns="http://www.w3.org/2000/svg"
   xmlns:sodipodi="http://sodipodi.sourceforge.net/DTD/sodipodi-0.dtd"
   xmlns:inkscape="http://www.inkscape.org/namespaces/inkscape"
   width="550"
   height="550"
   viewBox="0 0 550 550"
   version="1.1"
   id="svg8"
   inkscape:version="0.92.4 (5da689c313, 2019-01-14)"
   sodipodi:docname="駭.svg">
  <defs
     id="defs2" />
  <sodipodi:namedview
     id="base"
     pagecolor="#ffffff"
     bordercolor="#666666"
     borderopacity="1.0"
     inkscape:pageopacity="0.0"
     inkscape:pageshadow="2"
     inkscape:zoom="0.98994949"
     inkscape:cx="290.71823"
     inkscape:cy="186.77431"
     inkscape:document-units="px"
     inkscape:current-layer="layer1"
     showgrid="false"
     units="px"
     inkscape:window-width="1308"
     inkscape:window-height="941"
     inkscape:window-x="341"
     inkscape:window-y="44"
     inkscape:window-maximized="0" />
  <metadata
     id="metadata5">
    <rdf:RDF>
      <cc:Work
         rdf:about="">
        <dc:format>image/svg+xml</dc:format>
        <dc:type
           rdf:resource="http://purl.org/dc/dcmitype/StillImage" />
        <dc:title></dc:title>
      </cc:Work>
    </rdf:RDF>
  </metadata>
  <g
     inkscape:label="圖層 1"
     inkscape:groupmode="layer"
     id="layer1"
     transform="translate(0,-123.53331)">
    <path
       style="fill:#000000;stroke:none;stroke-width:1px;stroke-linecap:butt;stroke-linejoin:miter;stroke-opacity:1;fill-opacity:1"
       d="M 135,280.4976 C 141.31695,279.95679 147.35662,277.64444 153.57143,276.39045 161.04475,274.88252 168.57038,273.64659 176.07143,272.28331 182.32056,271.14756 188.58606,270.09945 194.82143,268.89046 200.01299,267.88385 205.14069,266.54459 210.35714,265.67617 215.0327,264.89779 219.89887,262.61624 224.46429,263.89046 230.46343,265.56483 239.88556,269.31801 239.10714,275.49759 238.57765,279.70103 231.58602,279.55648 227.5,280.67617 222.00986,282.18063 216.21635,282.27251 210.53571,282.64045 206.31794,282.91364 202.07169,282.49991 197.85714,282.81903 190.9069,283.34529 184.06184,284.8333 177.14286,285.67616 170.96353,286.42892 164.73703,286.7825 158.57143,287.64045 153.7252,288.31481 148.88649,289.09237 144.10714,290.14045 140.4967,290.93219 137.04438,292.4244 133.39286,292.9976 129.91896,293.54291 126.27393,294.36452 122.85714,293.53331 119.64315,292.75144 115.39495,291.6495 114.28571,288.53331 113.60351,286.61682 115.00583,284.27303 116.42857,282.81902 118.22204,280.98614 121.04267,280.38772 123.57143,279.96188 127.33219,279.32858 131.20019,280.82291 135,280.4976 Z"
       id="path4729"
       inkscape:connector-curvature="0"
       sodipodi:nodetypes="aaaaaaaaaaaaaaaaaaa" />
    <path
       style="fill:#000000;stroke:none;stroke-width:1px;stroke-linecap:butt;stroke-linejoin:miter;stroke-opacity:1;fill-opacity:1"
       d="M 105.95259,259.26926 C 108.29016,259.4988 110.71783,259.7065 112.85714,260.67617 115.47002,261.8605 117.89496,263.66204 119.70785,265.88537 122.26517,269.02167 124.17319,272.86109 124.96039,276.83053 125.7436,280.77988 124.58438,284.87529 124.28571,288.89045 123.95389,293.35137 123.50414,297.80309 123.04469,302.25268 122.61273,306.43597 121.97744,310.59826 121.61983,314.78856 121.13774,320.4375 121.0802,326.11619 120.64929,331.76926 120.26221,336.84726 119.77287,341.91817 119.19906,346.97847 118.76368,350.81804 118.20464,354.64261 117.68755,358.47203 117.21741,361.95371 116.77954,365.44036 116.24102,368.91212 115.70746,372.35193 114.99904,375.76325 114.47326,379.20427 113.51833,385.45389 112.64549,391.71848 111.95531,398.00285 111.42723,402.81134 111.13524,407.64283 110.71429,412.46188 110.22611,418.05064 109.80541,423.64605 109.22444,429.22593 108.82638,433.04913 108.1918,436.8469 107.85714,440.67617 107.48344,444.95219 107.62935,449.26865 107.14286,453.53331 106.44555,459.64604 109.3479,468.69539 103.98985,471.71913 102.06566,472.80502 99.379046,470.87198 97.813815,469.31259 96.203241,467.70803 95.713549,465.20499 95.313815,462.96696 94.237364,456.94014 95.549814,450.72472 95.714286,444.60474 95.854918,439.37185 95.954493,434.13667 96.215645,428.9084 96.489833,423.41917 96.81181,417.92937 97.33412,412.45817 97.873898,406.80401 98.748216,401.18669 99.415701,395.54618 100.16949,389.17636 100.82276,382.79485 101.58766,376.42635 102.06593,372.44429 102.52886,368.45955 103.09917,364.48962 103.6324,360.77774 104.29785,357.08605 104.88488,353.3823 105.74949,347.92719 106.65299,342.47777 107.44244,337.01128 108.45276,330.01538 109.39954,323.0094 110.23087,315.98999 110.66727,312.30525 111.07934,308.61641 111.38525,304.91856 111.70627,301.03804 111.97107,297.15075 112.09953,293.2591 112.19863,290.25687 112.82598,287.17276 112.14286,284.2476 111.41642,281.13691 109.91431,278.11997 107.85714,275.67617 106.04776,273.52672 103.606,271.88858 101.07143,270.67617 98.961485,269.66688 96.216821,270.21005 94.285714,268.89045 92.548091,267.70306 90.546823,265.89029 90.57007,263.78585 90.586788,262.27244 92.027685,260.95829 93.322608,260.17481 94.79312,259.28508 96.693323,259.4582 98.405548,259.30887 100.91175,259.09029 103.44892,259.0234 105.95259,259.26926 Z"
       id="path4731"
       inkscape:connector-curvature="0"
       sodipodi:nodetypes="aaaaaaaaaaaaaaaaaaaaaaaaaaaaaaaaaaaaaaa" />
    <path
       style="fill:#000000;stroke:none;stroke-width:1px;stroke-linecap:butt;stroke-linejoin:miter;stroke-opacity:1;fill-opacity:1"
       d="M 133.97148,337.02624 C 136.50706,336.72316 139.03173,336.32724 141.54762,335.88982 145.60573,335.18427 149.61295,334.20545 153.66945,333.49071 157.73801,332.77383 161.82285,332.14481 165.91756,331.59667 170.36786,331.00092 174.83239,330.50814 179.30208,330.08145 183.08439,329.72038 186.9367,329.92314 190.66629,329.19756 193.26652,328.69169 195.59966,326.97963 198.24244,326.79845 201.22469,326.594 204.38406,327.025 207.08127,328.31368 209.61071,329.5222 212.99136,331.09538 213.39473,333.86952 213.75937,336.37728 211.39074,338.80126 209.35411,340.30924 206.37546,342.51472 202.30798,342.83327 198.62125,343.21343 195.76932,343.5075 192.89982,342.59673 190.03495,342.70836 186.63867,342.84069 183.30372,343.65758 179.93343,344.09731 176.52715,344.54173 173.11011,344.902 169.70563,345.36 165.36377,345.9441 161.05299,346.76041 156.69992,347.25403 153.09136,347.66324 149.45613,347.79397 145.84077,348.13792 141.5838,348.54291 137.34619,349.1393 133.08759,349.52688 129.64126,349.84054 126.16491,349.83585 122.73354,350.28449 119.5904,350.69545 116.2901,353.33109 113.38962,352.05226 110.31151,350.69512 107.85836,346.82225 108.08632,343.46597 108.21194,341.61637 110.06233,340.17515 111.62186,339.17282 113.82053,337.7597 116.5968,337.40709 119.198,337.15251 121.75875,336.90188 124.32761,337.68791 126.90041,337.65759 129.26665,337.62971 131.62181,337.30711 133.97148,337.02624 Z"
       id="path4733"
       inkscape:connector-curvature="0"
       sodipodi:nodetypes="aaaaaaaaaaaaaaaaaaaaaaaa" />
    <path
       style="fill:#000000;stroke:none;stroke-width:1px;stroke-linecap:butt;stroke-linejoin:miter;stroke-opacity:1;fill-opacity:1"
       d="M 176.27162,378.06369 C 178.98299,377.1766 181.48877,375.7088 184.22657,374.90697 187.18933,374.03925 190.24373,372.8562 193.31795,373.13919 196.51678,373.43366 199.80307,374.63294 202.28304,376.67473 204.63565,378.61166 208.08897,381.46004 207.20754,384.37715 206.42261,386.97487 202.33576,386.81295 199.75767,387.66014 196.27498,388.80459 192.65927,389.58014 189.0248,390.05925 186.35332,390.41142 183.62208,390.06677 180.94823,390.40048 178.64254,390.68824 176.40833,391.39622 174.12504,391.82701 170.14051,392.57878 166.11832,393.11872 162.12948,393.84732 159.34427,394.35607 156.58571,395.00696 153.79572,395.48882 150.6928,396.02473 147.58103,396.52661 144.45181,396.87778 140.59259,397.31087 136.69838,397.36685 132.83506,397.76167 128.23356,398.23191 123.69229,399.74253 119.07173,399.52943 115.40971,399.36055 111.05208,399.59556 108.33886,397.13032 106.73313,395.67135 105.96887,393.08433 106.31856,390.94314 106.64826,388.92431 108.23894,387.09189 109.98035,386.01864 112.89041,384.22513 116.66495,384.34911 120.08188,384.25087 123.72448,384.14615 127.29987,385.36697 130.94103,385.51356 134.51798,385.65758 138.1105,385.47769 141.67389,385.13476 144.89744,384.82454 148.08166,384.1851 151.27034,383.61953 154.05812,383.12507 156.82788,382.53377 159.6041,381.97803 162.08894,381.48062 164.58522,381.0347 167.05398,380.4628 170.14699,379.74629 173.2541,379.05093 176.27162,378.06369 Z"
       id="path4735"
       inkscape:connector-curvature="0"
       sodipodi:nodetypes="aaaaaaaaaaaaaaaaaaaaaaaa" />
    <path
       style="fill:#000000;stroke:none;stroke-width:1px;stroke-linecap:butt;stroke-linejoin:miter;stroke-opacity:1;fill-opacity:1"
       d="M 157.45753,295.23118 C 160.6514,296.92256 164.00416,298.30486 167.18025,300.02941 170.36472,301.75851 174.45346,302.61154 176.52416,305.58524 178.38286,308.25449 178.05194,311.93792 178.29193,315.18169 178.56227,318.83569 178.03939,322.5053 177.91312,326.1671 177.78685,329.82891 177.93158,333.51013 177.53431,337.15251 176.98203,342.21603 175.6852,347.17038 174.75639,352.17853 174.08501,355.79863 173.32621,359.40345 172.73609,363.03767 172.2457,366.05766 171.79807,369.08677 171.4734,372.12904 170.99416,376.61971 170.95122,381.15011 170.46324,385.63983 169.94871,390.37386 169.23589,395.08655 168.44294,399.78197 167.85738,403.24932 167.19206,406.7048 166.42263,410.13603 165.78603,412.9749 165.66442,416.03933 164.27605,418.59607 163.18163,420.61149 161.89593,423.7319 159.6041,423.64682 156.97002,423.54904 155.94028,419.77453 154.67961,417.45964 152.78898,413.988 151.19692,410.16295 150.89154,406.22169 150.48902,401.0268 152.52904,395.92768 153.54319,390.81687 154.21495,387.43152 155.12045,384.09587 155.81603,380.71534 156.46322,377.56998 157.2061,374.43412 157.5838,371.24516 157.97044,367.98067 157.91597,364.67893 158.08887,361.39617 158.25292,358.28131 158.52582,355.1707 158.59395,352.05227 158.68314,347.97032 158.52517,343.88667 158.46768,339.80416 158.40129,335.08983 158.4156,330.37256 158.21514,325.66203 158.0286,321.27876 158.64021,316.71746 157.33126,312.53004 156.05848,308.4583 153.01872,305.16693 150.76526,301.54463 148.96452,298.65005 146.21676,296.21512 145.20942,292.95834 144.72422,291.38963 143.66587,288.86305 145.08316,288.03384 147.17159,286.81196 149.22598,290.53532 151.31773,291.75152 153.3514,292.93394 155.37862,294.13026 157.45753,295.23118 Z"
       id="path4737"
       inkscape:connector-curvature="0"
       sodipodi:nodetypes="aaaaaaaaaaaaaaaaaaaaaaaaaaaaa" />
    <path
       style="fill:#000000;stroke:none;stroke-width:1px;stroke-linecap:butt;stroke-linejoin:miter;stroke-opacity:1;fill-opacity:1"
       d="M 123.23861,442.20838 C 128.15755,440.98714 133.19271,440.28601 138.13836,439.17792 142.2823,438.24946 146.40893,437.23977 150.51273,436.14746 156.6919,434.50274 162.77282,432.50372 168.94801,430.84416 173.64063,429.58303 178.37135,428.46796 183.09015,427.30862 187.96772,426.11028 192.84672,424.91694 197.73736,423.77309 202.19159,422.73132 206.62539,421.58351 211.12188,420.74264 215.63888,419.89794 220.16632,418.87922 224.75894,418.72233 227.96584,418.61278 231.22383,418.78029 234.35539,419.47994 239.00925,420.51971 243.86905,421.74576 247.73992,424.5307 251.09096,426.94166 253.56619,430.51708 255.56859,434.12715 257.46671,437.5492 259.17612,441.32979 259.35667,445.23884 259.57238,449.90941 257.58088,454.44993 256.07367,458.87589 254.67675,462.97796 252.49338,466.76906 250.77037,470.74518 248.95522,474.93394 247.36036,479.21807 245.46707,483.37209 242.85967,489.09294 239.98282,494.68796 237.13331,500.29215 234.50517,505.46097 231.87177,510.6301 229.05209,515.69697 226.39139,520.47816 223.63567,525.21005 220.71833,529.83911 217.74322,534.55985 214.81762,539.3377 211.37442,543.72871 207.51342,548.65251 203.19969,553.22181 198.74752,557.61831 195.22579,561.09599 191.85765,564.88405 187.63584,567.46729 184.08897,569.63755 180.16268,572.36068 176.01909,572.01298 171.12781,571.60255 167.22725,567.50035 163.39217,564.43683 159.2055,561.09245 155.63779,556.99641 152.2805,552.82008 147.45326,546.8152 141.81556,540.94367 139.40105,533.62718 138.26546,530.18609 135.60255,524.27935 138.89597,522.76804 140.79023,521.89879 141.74951,525.84445 143.44166,527.06119 146.92727,529.56751 150.79351,531.59502 154.80588,533.12211 159.82439,535.03212 165.10084,537.18992 170.46324,536.91018 174.47817,536.70073 178.27836,534.75834 181.82746,532.86957 186.07817,530.60741 189.84214,527.47874 193.44421,524.28327 196.4734,521.59601 199.14786,518.52338 201.77797,515.44444 204.81824,511.88534 207.59269,508.10487 210.36427,504.33276 213.58602,499.94798 216.87824,495.59555 219.70818,490.94824 221.58825,487.86081 223.18667,484.60677 224.75895,481.35179 226.11959,478.53494 227.23961,475.60745 228.54701,472.76549 230.41956,468.69503 232.58172,464.75817 234.35539,460.64367 236.21197,456.33686 238.47574,452.1084 239.40615,447.51168 239.92412,444.95266 240.73191,442.06315 239.65869,439.683 238.35617,436.79431 235.35364,434.58617 232.33509,433.62208 229.03856,432.5692 225.42625,434.05407 221.98102,434.37969 216.15968,434.92988 210.3346,435.50708 204.55589,436.39999 199.30226,437.21178 194.07126,438.20468 188.89853,439.43045 183.45283,440.72091 178.10392,442.39271 172.73609,443.97615 166.98993,445.67118 161.2455,447.38043 155.56349,449.27944 149.19941,451.40641 142.83076,453.55025 136.62313,456.09797 130.87403,458.45751 125.29533,461.21625 119.70308,463.92666 113.67289,466.84931 108.42014,473.86583 101.77287,473.01803 97.986584,472.53512 94.879606,468.86282 93.186573,465.44189 91.614369,462.2651 90.787362,457.97677 92.428958,454.83528 94.10718,451.6237 98.51128,450.85827 101.77287,449.27945 104.53091,447.94438 107.45601,446.97669 110.35917,445.99645 114.599,444.56489 118.89548,443.28666 123.23861,442.20838 Z"
       id="path4739"
       inkscape:connector-curvature="0"
       sodipodi:nodetypes="aaaaaaaaaaaaaaaaaaaaaaaaaaaaaaaaaaaaaaaaaaaaaaaaaaaaa" />
    <path
       style="fill:#000000;stroke:none;stroke-width:1px;stroke-linecap:butt;stroke-linejoin:miter;stroke-opacity:1;fill-opacity:1"
       d="M 32.142857,509.2476 C 40.812517,508.41003 48.287272,502.7005 56.428571,499.60474 65.5456,496.13794 74.660798,492.64567 83.928572,489.60474 92.769586,486.70384 101.74012,484.20589 110.71428,481.7476 123.27358,478.30723 135.95004,475.30982 148.57143,472.10474 157.97445,469.71693 167.39467,467.39635 176.78572,464.96189 180.30867,464.04863 183.81916,463.08789 187.3388,462.16196 190.60502,461.3027 194.64262,457.33419 197.14285,459.60474 199.24102,461.51016 196.58031,465.27642 195.79714,468.00032 194.85056,471.29254 193.93441,474.79395 191.78572,477.46188 189.36168,480.4717 185.9553,482.84304 182.32143,484.15831 175.92095,486.47495 168.62375,484.35674 161.96429,485.76546 153.53804,487.54792 145.64377,491.28662 137.58928,494.33688 131.82122,496.52125 126.21017,499.10539 120.44643,501.30117 114.39427,503.60683 108.16208,505.42867 102.14286,507.81902 94.922112,510.68652 87.696071,513.60861 80.803571,517.19403 76.398886,519.48531 72.294431,522.31298 68.069495,524.92088 63.094205,527.99195 58.967201,533.20407 53.214286,534.24759 47.95358,535.20183 42.494496,532.94134 37.5,531.03331 32.86512,529.26265 28.268674,526.92017 24.642857,523.53331 21.699053,520.78352 18.215138,517.54569 17.857142,513.53331 17.648746,511.19762 18.638237,508.1951 20.714286,507.10474 24.145711,505.30252 28.284909,509.62031 32.142857,509.2476 Z"
       id="path4741"
       inkscape:connector-curvature="0"
       sodipodi:nodetypes="aaaaaaaaaaaaaaaaaaaaaaa" />
    <path
       style="fill:#000000;stroke:none;stroke-width:1px;stroke-linecap:butt;stroke-linejoin:miter;stroke-opacity:1;fill-opacity:1"
       d="M 317.94551,259.49703 C 319.51877,256.88879 323.60407,256.89626 326.64343,256.69546 329.97783,256.47516 333.30262,257.53911 336.50707,258.48688 341.01201,259.81931 345.65035,261.24222 349.51278,263.91645 353.55207,266.71313 358.03062,269.9986 359.6143,274.64932 360.99132,278.69314 359.73557,283.36105 358.35161,287.4025 356.66048,292.34093 352.79286,296.2395 350.01785,300.66075 348.64371,302.85009 347.34018,305.08518 345.89975,307.23149 344.71733,308.99337 343.97746,311.26169 342.18917,312.40378 340.67254,313.37238 338.30658,314.51846 336.88587,313.41393 334.15604,311.29163 336.4601,306.51151 336.25453,303.05987 336.03897,299.44045 336.17561,295.78422 335.62319,292.20072 335.03013,288.3536 334.47018,284.37591 332.75861,280.87983 331.36547,278.03418 329.09126,275.68519 326.91062,273.38663 324.56973,270.91916 320.88212,269.65514 319.2082,266.69437 318.00943,264.57403 316.68744,261.58274 317.94551,259.49703 Z"
       id="path4743"
       inkscape:connector-curvature="0"
       sodipodi:nodetypes="aaaaaaaaaaaaaaaa" />
    <path
       style="fill:#000000;stroke:none;stroke-width:1px;stroke-linecap:butt;stroke-linejoin:miter;stroke-opacity:1;fill-opacity:1"
       d="M 256.42857,319.60474 C 262.60973,318.59366 268.79175,317.57623 275,316.7476 281.29401,315.90752 287.59608,315.07357 293.92857,314.60474 300.69993,314.10342 307.49756,314.04415 314.28571,313.89045 320.11785,313.7584 325.9544,313.87656 331.78571,313.71188 338.2186,313.53021 344.64844,313.21948 351.07142,312.81902 357.1497,312.44006 363.22524,311.99018 369.28571,311.39045 374.7741,310.84734 380.27539,310.34038 385.71428,309.42617 391.24085,308.49723 396.66055,307.01672 402.14286,305.85474 407.61309,304.69532 413.0383,303.26947 418.57142,302.46188 423.36009,301.76295 428.20105,300.99789 433.03571,301.21188 438.16839,301.43906 443.84151,301.19327 448.21428,303.89045 451.18307,305.72163 454.39837,308.79581 454.46429,312.28331 454.52982,315.74992 451.43996,318.90713 448.57143,320.85474 443.92429,324.00994 437.72458,323.97579 432.14286,324.60474 426.9377,325.19126 421.66539,324.7202 416.42857,324.60474 408.32743,324.42613 400.24593,323.55912 392.14285,323.53331 385.82887,323.5132 379.52295,323.98775 373.21429,324.2476 366.54663,324.52223 359.86579,324.60143 353.21428,325.14046 347.12096,325.63425 341.065,326.51633 335,327.28331 324.86945,328.56443 314.74554,329.90544 304.64286,331.39045 297.1297,332.49483 289.53271,333.21337 282.14286,334.96188 275.82272,336.4573 269.79563,339.00008 263.57143,340.85474 257.4124,342.68998 251.39453,346.67493 245,346.03331 238.61645,345.39279 232.82668,341.34086 227.85715,337.28331 225.01804,334.96523 222.18642,332.15536 221.00038,328.68731 220.46366,327.11791 219.86658,324.85182 221.07143,323.71188 224.23048,320.72301 229.78294,324.71051 234.10714,324.24759 237.16481,323.92026 240.03007,322.57622 243.03571,321.92617 247.46418,320.96839 251.95714,320.33615 256.42857,319.60474 Z"
       id="path4745"
       inkscape:connector-curvature="0"
       sodipodi:nodetypes="aaaaaaaaaaaaaaaaaaaaaaaaaaaaaa" />
    <path
       style="fill:#000000;stroke:none;stroke-width:1px;stroke-linecap:butt;stroke-linejoin:miter;stroke-opacity:1;fill-opacity:1"
       d="M 316.96429,340.31903 C 321.60204,341.06809 325.99776,343.21611 330,345.67617 332.94817,347.48833 335.87865,349.62266 337.85714,352.46188 339.60171,354.96542 341.53411,358.01716 341.07143,361.03331 340.33842,365.81168 335.31422,368.81323 332.14286,372.46188 328.99466,376.08388 325.40633,379.30053 322.14286,382.81902 319.16117,386.03372 316.30537,389.36294 313.39286,392.64045 311.06811,395.25655 308.7331,397.86366 306.42857,400.4976 304.14986,403.10203 302.1285,405.947 299.64285,408.35474 297.33254,410.59265 294.97858,415.94423 292.14286,414.42617 289.8766,413.21295 291.98439,409.16548 292.85714,406.7476 294.2529,402.88077 297.39763,399.88952 299.82143,396.56903 302.6224,392.73183 306.22442,389.44952 308.57143,385.31902 310.59195,381.76312 311.94966,377.83347 313.03572,373.89045 313.80489,371.09789 314.42266,368.21528 314.46429,365.31903 314.50833,362.25517 314.34046,359.0616 313.21429,356.21188 312.57087,354.58376 311.24843,353.31187 310.17857,351.92617 308.99089,350.38787 306.70987,349.38485 306.42857,347.46188 306.08126,345.08767 307.32748,342.24139 309.28572,340.85474 311.37965,339.372 314.43137,339.90992 316.96429,340.31903 Z"
       id="path4747"
       inkscape:connector-curvature="0"
       sodipodi:nodetypes="aaaaaaaaaaaaaaaaaaaa" />
    <path
       style="fill:#000000;stroke:none;stroke-width:1px;stroke-linecap:butt;stroke-linejoin:miter;stroke-opacity:1;fill-opacity:1"
       d="M 257.84143,400.41331 C 261.81125,401.46564 265.22816,404.03757 269.07938,405.46407 273.40049,407.06463 277.83523,408.39761 282.33764,409.37842 285.82723,410.1386 289.41225,410.36437 292.94424,410.89365 297.2419,411.53767 301.5539,412.10548 305.82368,412.91395 312.6866,414.21342 319.58647,415.46097 326.27927,417.45964 329.47017,418.41254 333.04489,418.8875 335.62318,420.99517 337.70263,422.69505 340.04221,425.13081 339.91633,427.8137 339.78691,430.57195 337.40876,433.30411 334.86557,434.37969 332.8364,435.23788 330.4619,434.04447 328.29958,433.62208 325.21272,433.01909 322.25324,431.88412 319.2082,431.0967 315.18556,430.05648 311.16771,428.97119 307.08637,428.19251 303.87057,427.57897 300.5942,427.33404 297.36365,426.80355 294.40661,426.31796 291.47284,425.69979 288.52483,425.16205 285.70645,424.64796 282.92598,423.79231 280.0648,423.64682 277.28251,423.50534 274.46858,424.79488 271.73103,424.27817 268.01283,423.57636 264.62708,421.48891 261.50324,419.35368 257.98751,416.95058 254.53843,414.17313 252.15932,410.64111 250.44748,408.0997 248.19685,405.0427 248.87634,402.05481 249.12061,400.98065 250.23375,400.14025 251.27545,399.78197 253.35467,399.06686 255.71608,399.84992 257.84143,400.41331 Z"
       id="path4749"
       inkscape:connector-curvature="0"
       sodipodi:nodetypes="aaaaaaaaaaaaaaaaaaaaa" />
    <path
       style="fill:#000000;stroke:none;stroke-width:1px;stroke-linecap:butt;stroke-linejoin:miter;stroke-opacity:1;fill-opacity:1"
       d="M 356.60714,352.64045 C 356.97988,350.90803 359.3721,350.26489 361.06667,349.74659 363.57311,348.97996 366.38819,348.95944 368.92857,349.60474 372.90721,350.61537 376.73026,352.78347 379.64286,355.67617 382.85928,358.87062 385.33626,363.06225 386.42857,367.46188 387.23227,370.69906 387.71222,374.5579 386.07143,377.46188 384.46337,380.30794 380.11699,380.45702 377.85714,382.81902 375.75409,385.01713 374.74633,388.04798 373.21429,390.67617 370.44797,395.42174 367.98873,400.35315 365,404.96188 362.35694,409.03757 359.23339,412.7815 356.42857,416.7476 353.09194,421.46569 349.85635,426.25458 346.60715,431.03331 344.26794,434.47367 341.88571,437.88651 339.64286,441.39045 337.05072,445.44007 334.80912,449.71067 332.14286,453.71188 329.44916,457.75427 326.48977,461.61427 323.57143,465.4976 320.13083,470.07587 316.50988,474.51617 313.03571,479.06902 309.7859,483.32786 306.90287,487.87909 303.39286,491.92616 299.91813,495.93256 295.94758,499.4817 292.14286,503.17617 288.0344,507.16557 284.23318,511.53789 279.64286,514.96188 275.17467,518.29477 269.98402,520.52976 265.17857,523.35473 262.92383,524.68023 260.95184,526.65078 258.43707,527.36959 256.93458,527.79906 254.49122,528.83756 253.75,527.46188 252.83096,525.75616 255.84089,524.19162 257.04202,522.67129 259.43867,519.63772 262.22796,516.93615 264.82143,514.06903 268.21386,510.31864 271.70139,506.65219 275,502.81902 278.86275,498.3303 282.56559,493.70525 286.25,489.06902 290.55368,483.65352 294.80123,478.19152 298.92857,472.64045 302.46683,467.88169 305.8906,463.03809 309.28571,458.17617 313.16115,452.62638 316.8777,446.96718 320.71428,441.39046 324.08346,436.49313 327.50902,431.63481 330.89285,426.74759 334.47384,421.57563 338.26926,416.54397 341.60714,411.21188 344.36508,406.80622 346.70519,402.15232 349.28571,397.64045 351.47036,393.82073 353.89828,390.1342 355.89286,386.21188 357.69271,382.67249 359.66028,379.14731 360.71428,375.31902 361.76473,371.50366 362.64536,367.4586 362.14286,363.53331 361.87478,361.43919 360.78378,359.51957 359.82143,357.64045 358.91827,355.87692 356.19039,354.57747 356.60714,352.64045 Z"
       id="path4751"
       inkscape:connector-curvature="0"
       sodipodi:nodetypes="aaaaaaaaaaaaaaaaaaaaaaaaaaaaaaaaaaaa" />
    <path
       style="fill:#000000;stroke:none;stroke-width:1px;stroke-linecap:butt;stroke-linejoin:miter;stroke-opacity:1;fill-opacity:1"
       d="M 398.50518,405.59035 C 401.50685,405.4572 404.68492,405.95919 407.34401,407.35811 410.38105,408.95587 412.71804,411.75108 414.72627,414.53378 416.50957,417.00481 417.6609,419.90126 418.70823,422.76294 419.61301,425.23511 420.37011,427.79764 420.66989,430.41305 420.99308,433.23277 421.99551,436.52823 420.476,438.92538 418.76281,441.62807 414.85746,442.02191 411.8897,443.21853 409.27225,444.2739 406.43566,444.71299 403.80848,445.74391 400.78914,446.92872 397.89943,448.42858 395.02567,449.93246 392.3825,451.31566 389.84302,452.88859 387.25563,454.37353 384.49357,455.95872 381.65953,457.42602 378.97789,459.14375 376.7356,460.58006 374.68647,462.30195 372.46049,463.76341 369.71703,465.56461 367.15387,467.82541 364.0427,468.87019 362.15462,469.50423 359.30769,471.06557 358.09908,469.4825 356.40103,467.25835 359.75613,464.09184 361.12954,461.65381 363.63351,457.20885 367.46274,453.65061 370.47345,449.53198 372.47924,446.78807 374.35541,443.95166 376.27919,441.14964 378.4477,437.99119 380.40633,434.68169 382.74583,431.64773 384.75784,429.03847 387.21941,426.79782 389.23524,424.19151 390.72578,422.26436 392.55812,420.45999 393.36513,418.16123 394.61722,414.59467 391.83596,409.79282 394.21203,406.85304 395.14969,405.69293 397.01498,405.65645 398.50518,405.59035 Z"
       id="path4753"
       inkscape:connector-curvature="0"
       sodipodi:nodetypes="aaaaaaaaaaaaaaaaaaaaaa" />
    <path
       style="fill:#000000;stroke:none;stroke-width:1px;stroke-linecap:butt;stroke-linejoin:miter;stroke-opacity:1;fill-opacity:1"
       d="M 376.78571,479.96188 C 380.2508,482.83337 383.80964,485.60061 387.5,488.17617 390.96665,490.5956 394.62631,492.72632 398.21429,494.96188 401.88802,497.25088 405.5012,499.64681 409.28571,501.74759 413.47511,504.07313 417.72802,506.3138 422.14285,508.17617 426.14945,509.86632 430.35814,511.03043 434.46428,512.46188 439.40597,514.18461 444.30986,516.01905 449.28572,517.64045 453.77959,519.10479 458.32451,520.40805 462.85715,521.7476 469.03586,523.57361 475.2587,525.24912 481.42858,527.10474 487.34193,528.88321 493.2635,530.64485 499.10715,532.64046 502.35088,533.74819 505.55538,534.96959 508.75,536.21189 512.23528,537.56722 515.95264,538.48863 519.13874,540.44641 520.94017,541.55334 524.31352,542.52572 523.92858,544.60473 523.54804,546.65993 520.05875,546.22228 518.03572,546.7476 514.76798,547.59614 511.39803,548.04986 508.03571,548.35473 502.52134,548.85474 496.95462,548.36391 491.42857,548.71188 486.29174,549.03535 481.20992,550.02317 476.07143,550.31902 470.54455,550.63723 464.93992,549.68205 459.46429,550.4976 453.39081,551.4022 447.9158,555.3191 441.78571,555.67616 438.95266,555.84118 436.04902,555.2467 433.39285,554.2476 430.49346,553.15702 427.79994,551.42956 425.47485,549.38267 422.79257,547.02132 421.3151,543.52145 418.75,541.03331 414.5714,536.98005 409.30408,534.21182 404.82143,530.4976 398.88325,525.57737 393.38457,520.14958 387.67857,514.96188 382.25402,510.03007 376.72117,505.21361 371.42857,500.14045 367.2202,496.10657 363.13179,491.94694 359.10715,487.72973 355.39873,483.84388 351.83928,479.81853 348.21429,475.85474 345.44186,472.8232 342.82116,469.64689 339.91071,466.7476 337.52222,464.36825 334.79955,462.34089 332.41072,459.96188 330.78365,458.3415 328.10061,457.14466 327.76786,454.8726 327.63862,453.99014 328.12265,452.84387 328.92857,452.46188 332.13786,450.94075 335.95768,453.72188 339.28571,454.96188 343.17739,456.41189 346.7307,458.65214 350.35714,460.67617 353.93605,462.67368 357.49664,464.72103 360.89286,467.01545 364.04461,469.14471 367.0623,471.47442 370,473.89045 372.34418,475.81836 374.44873,478.02525 376.78571,479.96188 Z"
       id="path4755"
       inkscape:connector-curvature="0"
       sodipodi:nodetypes="aaaaaaaaaaaaaaaaaaaaaaaaaaaaaaaaaaaa" />
  </g>
</svg>
