<?xml version="1.0" encoding="UTF-8" standalone="no"?>
<!-- Created with Inkscape (http://www.inkscape.org/) -->

<svg
   xmlns:dc="http://purl.org/dc/elements/1.1/"
   xmlns:cc="http://creativecommons.org/ns#"
   xmlns:rdf="http://www.w3.org/1999/02/22-rdf-syntax-ns#"
   xmlns:svg="http://www.w3.org/2000/svg"
   xmlns="http://www.w3.org/2000/svg"
   xmlns:sodipodi="http://sodipodi.sourceforge.net/DTD/sodipodi-0.dtd"
   xmlns:inkscape="http://www.inkscape.org/namespaces/inkscape"
   width="512"
   height="512"
   viewBox="0 0 512 512"
   version="1.1"
   id="svg8"
   inkscape:version="0.92.4 (5da689c313, 2019-01-14)"
   sodipodi:docname="騾.svg">
  <defs
     id="defs2" />
  <sodipodi:namedview
     id="base"
     pagecolor="#ffffff"
     bordercolor="#666666"
     borderopacity="1.0"
     inkscape:pageopacity="0.0"
     inkscape:pageshadow="2"
     inkscape:zoom="0.98994949"
     inkscape:cx="264.67514"
     inkscape:cy="245.88411"
     inkscape:document-units="px"
     inkscape:current-layer="layer1"
     showgrid="false"
     units="px"
     inkscape:window-width="1308"
     inkscape:window-height="941"
     inkscape:window-x="341"
     inkscape:window-y="44"
     inkscape:window-maximized="0" />
  <metadata
     id="metadata5">
    <rdf:RDF>
      <cc:Work
         rdf:about="">
        <dc:format>image/svg+xml</dc:format>
        <dc:type
           rdf:resource="http://purl.org/dc/dcmitype/StillImage" />
        <dc:title></dc:title>
      </cc:Work>
    </rdf:RDF>
  </metadata>
  <g
     inkscape:label="圖層 1"
     inkscape:groupmode="layer"
     id="layer1"
     transform="translate(0,-161.53331)">
    <path
       style="fill:#000000;stroke:none;stroke-width:1px;stroke-linecap:butt;stroke-linejoin:miter;stroke-opacity:1;fill-opacity:1"
       d="M 167.43279,273.00783 C 172.31393,272.40821 177.20579,271.89365 182.08,271.24006 187.22448,270.55023 192.35289,269.74494 197.48482,268.96721 205.06552,267.81839 212.74547,267.1692 220.21326,265.43168 222.96204,264.79212 225.77401,264.17599 228.29448,262.9063 231.73798,261.17163 233.78587,256.24552 237.63838,256.08777 241.18694,255.94246 244.10209,259.2543 246.72976,261.6436 249.53243,264.19204 253.77073,266.95345 253.54829,270.73498 253.40494,273.17197 250.37431,274.47714 248.49753,276.03828 246.72047,277.51647 244.95449,279.36679 242.68915,279.82636 239.42028,280.48951 236.17459,278.14151 232.84016,278.05859 226.90093,277.91089 221.05904,279.60553 215.16249,280.33143 209.442,281.03565 203.72061,281.73612 197.9899,282.35173 191.93525,283.00215 185.87684,283.62879 179.80715,284.11951 174.59419,284.54096 169.37021,285.44568 164.14979,285.12966 160.04628,284.88126 155.75969,284.58154 152.02796,282.85681 149.9634,281.90261 146.54603,280.83104 146.72466,278.56366 146.92312,276.04468 150.89519,275.57958 153.29065,274.77559 157.79448,273.26397 162.7175,273.58707 167.43279,273.00783 Z"
       id="path4625"
       inkscape:connector-curvature="0"
       sodipodi:nodetypes="aaaaaaaaaaaaaaaaaaa" />
    <path
       style="fill:#000000;stroke:none;stroke-width:1px;stroke-linecap:butt;stroke-linejoin:miter;stroke-opacity:1;fill-opacity:1"
       d="M 111.52267,287.24216 C 115.11069,290.26225 118.58318,293.49765 122.6046,295.91076 126.88805,298.48109 133.20065,298.06923 136.30602,301.98219 138.81782,305.14721 138.26279,309.86164 138.57143,313.89045 139.09008,320.66051 138.16807,327.46483 137.85714,334.2476 137.56775,340.56059 137.17447,346.86852 136.78571,353.17617 136.45542,358.53504 135.94002,363.88331 135.71429,369.2476 135.42896,376.02836 135.67058,382.82522 135.35714,389.60474 135.13659,394.37492 134.68493,399.13189 134.28571,403.89045 133.83642,409.24579 133.16682,414.5826 132.79586,419.94394 132.46641,424.70541 131.78378,429.48827 132.14286,434.2476 132.3883,437.50081 134.09764,440.585 134.05112,443.84713 133.9952,447.76934 133.60159,452.05331 131.42857,455.31902 129.56315,458.12245 126.55769,460.79835 123.21429,461.19919 119.90148,461.59636 116.02388,460.05844 113.92857,457.46188 111.27378,454.17199 111.42471,449.17389 111.78571,444.96188 112.16116,440.58135 115.2198,436.8179 116.19398,432.5306 117.71891,425.81949 118.04075,418.87394 118.38017,412.00014 118.74835,404.54389 118.22634,397.07007 118.21429,389.60474 118.2041,383.28671 118.07198,376.96494 118.29351,370.65079 118.50973,364.48804 118.87256,358.3246 119.51287,352.1914 119.9749,347.76585 121.03337,343.41132 121.40319,338.97711 121.87967,333.26404 123.58495,327.23847 121.82161,321.78349 120.83228,318.72297 118.22313,316.40949 115.98477,314.09966 113.33716,311.36752 109.59033,309.80475 107.11748,306.91348 103.72324,302.94493 100.13874,298.50767 99.260329,293.35999 98.421778,288.44593 97.319919,280.25329 102.04569,278.66638 106.08444,277.31017 108.26323,284.49865 111.52267,287.24216 Z"
       id="path4627"
       inkscape:connector-curvature="0"
       sodipodi:nodetypes="aaaaaaaaaaaaaaaaaaaaaaaaaaaa" />
    <path
       style="fill:#000000;stroke:none;stroke-width:1px;stroke-linecap:butt;stroke-linejoin:miter;stroke-opacity:1;fill-opacity:1"
       d="M 151.52288,335.63729 C 155.36015,334.28502 158.823,332.00965 162.63456,330.58652 167.0761,328.92818 171.72307,327.88309 176.27162,326.54591 180.30971,325.35879 184.3281,324.10048 188.39345,323.01037 192.49523,321.9105 196.52322,320.11276 200.76782,319.97992 204.10165,319.87558 207.5955,320.33455 210.61681,321.74769 214.29745,323.46921 218.98482,325.63196 219.96072,329.57637 220.44129,331.51872 219.19015,333.81052 217.68787,335.13221 215.72559,336.85862 212.6747,336.64042 210.11173,337.15251 205.78053,338.0179 201.34173,338.2265 196.97974,338.92028 192.83802,339.57903 188.7205,340.38467 184.60537,341.19312 180.97659,341.90602 177.36492,342.70347 173.74624,343.46596 170.96753,344.05147 168.18118,344.60258 165.41248,345.23373 161.94881,346.0233 158.53324,347.02014 155.05842,347.75911 152.29672,348.34643 149.53671,349.02078 146.72466,349.27434 143.95796,349.52381 141.08936,349.93401 138.3909,349.27434 136.08675,348.71106 132.85553,348.23211 132.07745,345.99135 131.47185,344.2473 133.00606,342.20609 134.35028,340.94059 136.25131,339.15089 139.18487,338.95112 141.6739,338.16267 144.90486,337.13918 148.32636,336.76375 151.52288,335.63729 Z"
       id="path4629"
       inkscape:connector-curvature="0"
       sodipodi:nodetypes="aaaaaaaaaaaaaaaaaaaa" />
    <path
       style="fill:#000000;stroke:none;stroke-width:1px;stroke-linecap:butt;stroke-linejoin:miter;stroke-opacity:1;fill-opacity:1"
       d="M 149.75512,392.45837 C 154.08272,391.27064 158.00146,388.91528 162.12948,387.15507 167.681,384.78787 173.12952,382.15827 178.797,380.084 184.6729,377.93344 190.56241,375.59885 196.72721,374.52815 200.54595,373.86492 204.8327,372.38183 208.34396,374.02308 211.60802,375.54879 214.79315,379.00824 214.90995,382.60938 215.00834,385.64291 212.34404,388.44266 209.85919,390.18552 206.09831,392.8234 200.96732,392.51003 196.47467,393.46851 192.79291,394.254 189.05231,394.73965 185.36299,395.48882 181.2201,396.3301 177.10394,397.29953 172.98863,398.26674 168.17884,399.39717 163.43865,400.83239 158.59395,401.80227 154.83491,402.55481 151.0598,403.40478 147.22973,403.57004 143.52069,403.73008 139.70012,403.78785 136.11806,402.81243 133.3938,402.07059 129.54532,401.66351 128.54192,399.02435 127.89751,397.32944 129.07421,395.00984 130.56222,393.9736 133.18814,392.14492 136.96862,393.9722 140.15867,393.72105 143.3751,393.46782 146.64378,393.31229 149.75512,392.45837 Z"
       id="path4631"
       inkscape:connector-curvature="0"
       sodipodi:nodetypes="aaaaaaaaaaaaaaaaa" />
    <path
       style="fill:#000000;stroke:none;stroke-width:1px;stroke-linecap:butt;stroke-linejoin:miter;stroke-opacity:1;fill-opacity:1"
       d="M 174.94579,315.24483 C 174.81942,317.97498 174.29767,320.6725 173.99877,323.38919 173.50823,327.84775 173.05318,332.31021 172.60982,336.77371 172.0373,342.53753 171.39747,348.2963 170.96832,354.07257 170.38744,361.89101 169.85084,369.71997 169.70563,377.55861 169.61207,382.60921 169.85596,387.66047 169.95817,392.71091 170.0655,398.01462 170.40004,403.31638 170.33697,408.62081 170.28437,413.04492 169.50103,417.45937 169.70563,421.87906 169.85895,425.19099 169.87287,428.64587 171.09459,431.72805 171.74006,433.35645 172.37389,435.97936 174.12505,436.02119 176.79325,436.08492 177.80998,432.07139 179.04954,429.70774 180.74977,426.46568 181.46184,422.7832 182.33253,419.22741 183.18672,415.73901 183.64446,412.16478 184.22657,408.62081 184.77843,405.26098 185.23672,401.88646 185.7418,398.51928 186.62569,392.62672 187.81989,386.77242 188.39345,380.84161 188.7625,377.02555 188.58292,373.17197 188.89853,369.35112 189.272,364.82981 189.9819,360.34259 190.54002,355.84034 190.9941,352.17742 191.29026,348.4902 191.92898,344.85493 192.62341,340.90257 193.98323,337.08008 194.58064,333.1119 194.98913,330.39856 195.19229,327.64825 195.21198,324.90441 195.24587,320.18129 195.12181,315.41836 194.3281,310.76228 193.3653,305.1143 194.11939,297.81353 189.65614,294.22103 186.37145,291.57716 181.20577,292.88398 177.02923,293.46341 173.23197,293.99022 167.20415,293.55995 166.17009,297.25149 165.42002,299.92921 169.79434,301.47455 171.4734,303.69121 172.64192,305.23387 174.18759,306.61808 174.78796,308.45787 175.48998,310.60916 175.05042,312.98432 174.94579,315.24483 Z"
       id="path4633"
       inkscape:connector-curvature="0"
       sodipodi:nodetypes="aaaaaaaaaaaaaaaaaaaaaaaaaaa" />
    <path
       style="fill:#000000;stroke:none;stroke-width:1px;stroke-linecap:butt;stroke-linejoin:miter;stroke-opacity:1;fill-opacity:1"
       d="M 141.79315,455.73745 C 147.37786,453.55347 153.02841,451.53532 158.57143,449.2476 162.53028,447.6137 166.28328,445.46801 170.33548,444.08171 174.75507,442.56973 179.31409,441.40106 183.92857,440.67617 189.58947,439.78689 195.35173,439.57505 201.08194,439.53975 207.85341,439.49803 214.60204,440.33997 221.36729,440.63284 226.07202,440.8365 230.96062,439.79591 235.48713,441.09459 237.67383,441.72196 239.5329,443.20639 241.38896,444.5218 243.66514,446.13494 246.33407,447.55583 247.75254,449.95817 249.18446,452.38328 249.8953,455.452 249.45531,458.23372 248.49619,464.29766 243.02304,468.7173 240.35714,474.2476 238.16897,478.78687 236.50247,483.5615 234.72579,488.27706 232.42411,494.38608 230.27348,500.55264 228.21429,506.7476 226.95535,510.53505 225.94902,514.40474 224.64286,518.17617 223.42671,521.68772 222.15874,525.1876 220.67467,528.59459 219.52159,531.24171 218.29473,533.86689 216.84699,536.36507 215.54644,538.60925 214.83781,541.69546 212.5,542.81902 209.33865,544.33837 205.43887,542.70855 202.01287,541.9568 197.48411,540.96309 193.30258,538.77573 188.94652,537.18767 183.15484,535.07624 177.11892,533.54344 171.56907,530.85999 167.47624,528.88104 163.68085,526.31539 159.95295,523.71342 158.11158,522.42819 156.39933,520.96632 154.6609,519.54496 152.76366,517.99376 151.20738,515.96 149.05484,514.78856 146.504,513.40036 142.84723,510.29973 140.71429,512.27062 138.6083,514.21661 141.54337,517.98876 142.54332,520.67617 143.48852,523.2164 145.03948,525.49166 146.42857,527.81902 148.09005,530.60275 149.94024,533.2698 151.74239,535.9646 153.44266,538.50708 155.01797,541.14594 156.92993,543.53331 158.85051,545.93143 160.98888,548.15722 163.21057,550.27941 166.91078,553.81392 171.23942,556.65259 174.91334,560.21442 177.36639,562.59262 179.40525,565.36817 181.78571,567.81902 183.75242,569.84389 186.33978,571.32544 187.90047,573.67752 189.50467,576.09516 188.62664,580.14905 191.00644,581.80887 193.36784,583.45585 196.83769,582.56136 199.64286,581.91348 203.75981,580.96263 207.51519,578.65427 210.96683,576.21714 213.72847,574.2672 216.11741,571.79146 218.29351,569.20427 221.97442,564.82798 225.09193,559.96734 227.85714,554.96188 230.15859,550.7959 231.92972,546.34943 233.65436,541.91348 235.44996,537.29504 237.05251,532.59306 238.38017,527.81902 239.3991,524.15511 239.84992,520.34937 240.8585,516.6826 241.76767,513.37725 243.08656,510.19666 244.07279,506.91348 244.99351,503.84841 245.78056,500.74458 246.59445,497.64943 247.39015,494.62345 247.87102,491.50494 248.90319,488.55125 250.62876,483.61331 252.44447,478.5924 255.35714,474.2476 257.54735,470.98048 260.86205,468.62297 263.4631,465.67245 265.64391,463.19864 269.26216,461.2907 269.74375,458.02823 270.22236,454.7859 267.88537,451.60629 265.9631,448.95173 263.54936,445.61845 259.98484,443.2494 256.61612,440.88537 253.31609,438.56956 249.81124,436.46753 246.07143,434.96188 242.99114,433.72175 239.71165,432.95933 236.42857,432.46188 232.00681,431.7919 227.49863,431.88601 223.02674,431.83053 218.92189,431.77962 214.81945,432.11245 210.71429,432.10474 206.92391,432.09762 203.13706,431.76059 199.34699,431.80887 195.39906,431.85915 191.45662,432.14376 187.51794,432.41856 184.26289,432.64565 181.00533,432.87874 177.76677,433.27706 174.30006,433.70344 170.84093,434.22423 167.41706,434.91483 164.22818,435.55803 161.086,436.41708 157.94008,437.24524 153.67637,438.36765 149.44771,439.6193 145.20549,440.82038 141.8424,441.77256 138.48495,442.74457 135.12255,443.69919 132.14637,444.54416 128.75413,444.48933 126.19026,446.22086 124.30486,447.49417 122.89848,449.52411 122.01659,451.62133 121.30926,453.30343 120.9163,455.25188 121.26269,457.04346 121.53047,458.42847 122.1312,460.03359 123.36594,460.71578 125.15676,461.7052 127.4934,460.86945 129.49864,460.46324 131.78555,459.99997 133.87595,458.84498 136.05348,458.00657 137.97339,457.26734 139.87714,456.48673 141.79315,455.73745 Z"
       id="path4635"
       inkscape:connector-curvature="0"
       sodipodi:nodetypes="aaaaaaaaaaaaaaaaaaaaaaaaaaaaaaaaaaaaaaaaaaaaaaaaaaaaaaaaaaaaaaaaaa" />
    <path
       style="fill:#000000;stroke:none;stroke-width:1px;stroke-linecap:butt;stroke-linejoin:miter;stroke-opacity:1;fill-opacity:1"
       d="M 78.034285,530.09164 C 84.872991,526.9362 91.359141,523.06631 97.984796,519.48504 105.67394,515.32895 113.42868,511.28401 120.96577,506.85814 129.44508,501.87898 137.69616,496.51897 145.96705,491.20077 154.45068,485.74578 162.96239,480.32348 171.22086,474.53326 178.26515,469.59434 185.11326,464.37828 191.92898,459.12843 198.24058,454.26689 204.17225,448.91253 210.61681,444.22868 215.18727,440.90692 220.16337,438.17169 224.75894,434.88477 228.5662,432.16168 232.37056,429.40654 235.87062,426.29848 240.81123,421.9112 244.98947,416.72776 249.76022,412.15634 253.14857,408.90955 256.24333,405.22677 260.21609,402.72882 262.03337,401.58617 264.62051,398.80683 266.1752,400.28705 267.77563,401.81082 265.01765,404.59412 263.96548,406.53737 262.9662,408.38294 261.47605,409.91952 260.14163,411.53941 258.03545,414.09619 255.72515,416.47799 253.54829,418.97487 250.99822,421.89981 248.51252,424.88035 245.97214,427.8137 243.62889,430.51943 241.37009,433.30345 238.90108,435.89492 234.38382,440.63623 229.39105,444.90283 224.75894,449.53199 219.95845,454.32942 215.3974,459.36193 210.61681,464.17919 206.38181,468.44667 202.23333,472.81451 197.73736,476.8061 192.40887,481.53681 186.71491,485.84256 181.06984,490.19063 175.68114,494.34123 170.20292,498.37741 164.65486,502.31245 160.75076,505.08149 156.72722,507.67835 152.78558,510.39367 149.99711,512.31459 147.2739,514.3309 144.45181,516.20205 138.39821,520.21583 132.23312,524.06241 126.01653,527.8188 119.68944,531.64196 113.34949,535.45749 106.82364,538.93049 100.3761,542.36181 93.920906,545.84938 87.125657,548.52694 82.047005,550.52809 76.924753,553.16908 71.468292,553.32516 67.223348,553.44658 62.488552,552.84632 59.093924,550.2947 55.989108,547.96091 54.89867,543.72649 53.285547,540.19318 52.434197,538.32842 50.102154,536.07279 51.265242,534.38479 54.514479,529.66916 62.828386,535.03249 68.437835,533.87972 71.806453,533.18746 74.911647,531.53246 78.034285,530.09164 Z"
       id="path4637"
       inkscape:connector-curvature="0"
       sodipodi:nodetypes="aaaaaaaaaaaaaaaaaaaaaaaaaaaaaaaaa" />
    <path
       style="fill:#000000;stroke:none;stroke-width:1px;stroke-linecap:butt;stroke-linejoin:miter;stroke-opacity:1;fill-opacity:1"
       d="M 274.76149,265.43168 C 275.43757,269.50852 278.83823,272.69378 281.58003,275.78574 284.43332,279.00344 288.9412,280.61156 291.42901,284.1195 294.97417,289.11835 296.14253,295.45043 297.995,301.2921 299.54405,306.17695 300.39007,311.26022 301.78307,316.19184 302.86145,320.00963 304.25632,323.73377 305.3186,327.55606 306.54867,331.98207 307.68604,336.43899 308.6016,340.94059 309.23047,344.03261 309.30637,347.23504 310.11683,350.2845 310.67104,352.3698 311.1824,354.55709 312.38968,356.34541 313.92315,358.61693 315.72537,362.19197 318.45059,361.90125 320.91241,361.63863 321.90052,358.16811 322.74374,355.84034 323.8366,352.82341 323.63222,349.44998 323.50135,346.24388 323.26486,340.4501 321.3152,334.83962 320.72343,329.07129 320.13868,323.37144 320.31527,317.6178 319.96582,311.8987 319.63623,306.50486 319.6286,301.06031 318.70312,295.73625 317.88125,291.00819 316.73655,286.2865 314.91505,281.84666 313.15542,277.5576 311.38009,272.99752 308.09652,269.72483 305.16046,266.79849 301.00554,265.39162 297.23739,263.66392 293.89671,262.13222 290.45651,260.73528 286.88333,259.87584 283.50281,259.06275 279.40303,256.656 276.52926,258.61315 274.58858,259.93482 274.37736,263.11533 274.76149,265.43168 Z"
       id="path4639"
       inkscape:connector-curvature="0"
       sodipodi:nodetypes="aaaaaaaaaaaaaaaaaaaaa" />
    <path
       style="fill:#000000;stroke:none;stroke-width:1px;stroke-linecap:butt;stroke-linejoin:miter;stroke-opacity:1;fill-opacity:1"
       d="M 350.05901,254.20271 C 354.7815,252.84051 359.4317,251.2328 364.16525,249.90956 369.00604,248.55634 373.9146,247.45777 378.77657,246.18277 383.56292,244.92759 388.27261,243.36216 393.10997,242.32073 397.94548,241.2797 402.86472,240.6711 407.75718,239.94327 412.43777,239.24696 417.09969,238.28712 421.82535,238.04027 426.25816,237.80872 430.77487,237.61316 435.1359,238.44073 439.25126,239.22168 443.22618,240.79564 446.96187,242.69056 450.26036,244.36372 453.55855,246.26821 456.15784,248.89941 458.93132,251.70693 461.38155,255.05898 462.66256,258.79172 464.13944,263.0952 464.1171,267.8634 463.74668,272.39815 463.30881,277.75855 461.48845,282.93118 459.87195,288.06076 458.25809,293.18198 455.87589,298.03157 454.07626,303.0905 452.75005,306.81862 451.62877,310.6165 450.39279,314.37549 448.98967,318.64281 447.6408,322.92881 446.15567,327.16828 445.2119,329.86237 444.6415,332.74496 443.18649,335.20091 441.43661,338.15456 439.54111,341.52365 436.42922,342.97358 434.32946,343.95193 431.78708,343.30729 429.48071,343.09087 427.19926,342.87679 424.63401,343.00088 422.74884,341.6982 420.5202,340.15819 419.08834,337.45491 418.39441,334.83634 417.94848,333.15359 417.43371,330.87319 418.6417,329.61969 419.3351,328.90017 420.63096,329.31424 421.62882,329.36715 423.08844,329.44455 424.55738,330.686 425.93466,330.19656 430.24395,328.66518 432.48914,323.65831 434.74812,319.68187 437.21425,315.34081 438.16874,310.29766 439.68159,305.53973 440.94649,301.56163 442.1338,297.55506 443.14315,293.50456 444.0575,289.83531 444.65389,286.09346 445.48996,282.40558 446.31378,278.77173 447.36844,275.19067 448.11995,271.54118 448.46527,269.86425 448.99867,268.18976 448.98217,266.47773 448.95971,264.14777 448.83163,261.634 447.67615,259.61061 446.44398,257.45292 444.30182,255.79614 442.07698,254.68983 439.49136,253.40413 436.46644,253.20712 433.59004,252.95271 430.86098,252.71133 428.10143,252.90742 425.37357,253.16191 421.55094,253.51854 417.75098,254.16668 414.00409,255.00365 410.49603,255.78728 407.09461,256.98898 403.63734,257.97283 399.76871,259.07375 395.88879,260.1351 392.02585,261.25583 388.42357,262.30094 384.84214,263.41695 381.24068,264.46485 377.60862,265.52166 373.95277,266.49612 370.32551,267.56928 366.75397,268.62596 363.18432,269.69239 359.64494,270.85227 356.83936,271.77168 354.08293,272.8363 351.28055,273.76544 348.03797,274.84053 344.90881,276.54804 341.50553,276.84448 338.18171,277.134 334.79234,276.4437 331.58257,275.53321 329.00885,274.80314 326.50307,273.70659 324.25897,272.25021 322.4587,271.08186 321.03687,269.41371 319.46074,267.95706 317.58053,266.21938 314.44879,265.15554 313.9049,262.65376 313.61599,261.32484 314.29399,259.62812 315.42013,258.86569 317.23249,257.63866 319.79765,258.89503 321.98612,258.86569 324.36421,258.83381 326.74834,258.87145 329.11847,258.67443 332.2484,258.41425 335.37322,258.00048 338.44969,257.3684 342.37869,256.56117 346.20507,255.31437 350.05901,254.20271 Z"
       id="path4641"
       inkscape:connector-curvature="0"
       sodipodi:nodetypes="aaaaaaaaaaaaaaaaaaaaaaaaaaaaaaaaaaaaaaaaaaaaaaaaaa" />
    <path
       style="fill:#000000;stroke:none;stroke-width:1px;stroke-linecap:butt;stroke-linejoin:miter;stroke-opacity:1;fill-opacity:1"
       d="M 344.10715,307.46188 C 346.75212,306.86819 349.47506,306.69271 352.14286,306.21188 356.80724,305.3712 361.48033,304.53157 366.07143,303.35474 370.175,302.30287 374.1739,300.87793 378.21429,299.60474 381.55371,298.55244 384.86785,297.42022 388.21429,296.39045 391.23863,295.4598 394.18392,294.12274 397.32143,293.71188 399.62397,293.41037 402.05463,293.24639 404.28572,293.89045 406.74749,294.6011 409.88058,295.46517 410.89285,297.81902 411.6402,299.55683 410.97145,302.00813 409.64286,303.35473 407.49323,305.5335 403.6536,304.64415 400.71429,305.49759 396.12271,306.83078 391.66435,308.58606 387.14286,310.14045 383.86736,311.2665 380.60889,312.44265 377.32143,313.53331 373.40851,314.83147 369.4187,315.89816 365.53571,317.28331 362.3396,318.42343 359.24169,319.82316 356.07143,321.03331 353.1685,322.14141 350.42638,324.12858 347.32143,324.24759 344.47818,324.35657 341.52284,323.42962 339.10714,321.92617 336.38758,320.2336 332.85876,317.98148 332.67857,314.78331 332.56335,312.73838 334.58175,310.97156 336.25,309.78331 338.4744,308.19893 341.44248,308.05999 344.10715,307.46188 Z"
       id="path4643"
       inkscape:connector-curvature="0"
       sodipodi:nodetypes="aaaaaaaaaaaaaaaaaaa" />
    <path
       style="fill:#000000;stroke:none;stroke-width:1px;stroke-linecap:butt;stroke-linejoin:miter;stroke-opacity:1;fill-opacity:1"
       d="M 361.07143,278.5333 C 361.81877,280.5425 360.90888,282.81825 360.89286,284.96188 360.85815,289.60499 360.99524,294.24784 361.07143,298.89045 361.12027,301.86684 361.15994,304.8436 361.25,307.81903 361.38337,312.22539 361.61006,316.62843 361.78572,321.03331 361.90677,324.06894 362.10997,327.10258 362.14286,330.14045 362.1796,333.53363 361.70824,336.93532 361.96429,340.31903 362.17842,343.14879 361.13862,346.98799 363.39286,348.71188 364.86547,349.83803 367.35868,349.16218 368.92858,348.17617 370.57972,347.13913 371.20927,344.97386 371.96429,343.17617 373.17738,340.28778 373.57775,337.12076 374.28572,334.06902 374.87667,331.52169 375.35715,328.94998 375.89286,326.39045 376.42858,323.83093 376.94005,321.26621 377.5,318.71188 378.12765,315.84866 378.9191,313.02051 379.46429,310.14045 379.91209,307.77487 380.16801,305.37694 380.53572,302.99759 380.94075,300.37672 381.4714,297.77375 381.78571,295.14045 382.13958,292.1758 382.14011,289.17581 382.5,286.21188 382.85623,283.27814 384.58892,280.34244 383.92857,277.46188 383.3271,274.83817 381.21229,272.73461 379.28572,270.85474 377.59605,269.20602 375.55367,267.87706 373.39286,266.92617 369.97047,265.4201 366.23766,264.14301 362.5,264.24759 359.45092,264.33291 355.69677,264.57793 353.75,266.92617 353.06198,267.75608 353.05821,269.11569 353.39286,270.14045 353.99446,271.98266 356.01332,272.99631 357.32143,274.42617 358.57278,275.79398 360.42513,276.79575 361.07143,278.5333 Z"
       id="path4645"
       inkscape:connector-curvature="0"
       sodipodi:nodetypes="aaaaaaaaaaaaaaaaaaaaaaaaa" />
    <path
       style="fill:#000000;stroke:none;stroke-width:1px;stroke-linecap:butt;stroke-linejoin:miter;stroke-opacity:1;fill-opacity:1"
       d="M 335,347.81902 C 338.68993,347.16119 342.40589,346.63712 346.07143,345.85474 349.43166,345.13753 352.72862,344.14919 356.07143,343.35474 359.83592,342.46007 363.59945,341.5525 367.3954,340.80244 372.16877,339.85924 376.9708,339.05565 381.78572,338.35474 385.96369,337.74655 390.14836,337.13067 394.35968,336.83053 398.37341,336.54448 402.4049,336.61261 406.42857,336.56902 409.76171,336.53291 413.09588,336.5037 416.42857,336.56902 419.46604,336.62856 422.57434,336.24798 425.53572,336.92617 428.0042,337.49148 430.54278,338.35494 432.5,339.96188 434.51634,341.61737 436.21831,343.89049 436.96429,346.39045 437.59426,348.50165 437.30921,350.85751 436.78572,352.9976 436.20378,355.37663 435.29382,357.86353 433.57143,359.60474 432.16739,361.02412 430.20678,362.40964 428.21429,362.28331 425.9471,362.13957 424.23842,360.01243 422.5523,358.48999 421.02947,357.11498 419.8573,355.391 418.62373,353.75149 417.24039,351.91292 416.73102,349.19672 414.73849,348.04618 412.32051,346.64997 409.17456,347.29849 406.38525,347.42381 402.06316,347.61799 397.84659,348.82541 393.58041,349.545 389.98552,350.15136 386.38897,350.74899 382.80112,351.39571 378.85031,352.10786 374.91517,352.90478 370.96683,353.63048 367.65684,354.23886 364.32693,354.74096 361.02811,355.40722 356.34796,356.35246 351.69398,357.42781 347.05466,358.55652 342.68103,359.62058 338.35244,360.86255 333.98985,361.97103 329.66891,363.06893 325.42987,364.63271 321.0049,365.17635 318.10999,365.532 315.09666,365.85482 312.2549,365.19801 310.08327,364.69609 307.86664,363.78726 306.25371,362.24895 304.68548,360.75328 303.65682,358.65421 303.1134,356.55633 302.73694,355.10299 302.0871,353.15992 303.10071,352.05244 304.31567,350.72496 306.68588,351.7362 308.47952,351.59069 311.27187,351.36415 314.07827,351.28551 316.85968,350.95037 319.67478,350.61116 322.45814,350.046 325.25254,349.56513 328.5056,349.00533 331.75036,348.39835 335,347.81902 Z"
       id="path4647"
       inkscape:connector-curvature="0"
       sodipodi:nodetypes="aaaaaaaaaaaaaaaaaaaaaaaaaaaaaaaaa" />
    <path
       style="fill:#000000;stroke:none;stroke-width:1px;stroke-linecap:butt;stroke-linejoin:miter;stroke-opacity:1;fill-opacity:1"
       d="M 334.28571,376.39045 C 331.70839,378.35131 330.50525,381.64993 328.57143,384.2476 326.69464,386.76867 324.72976,389.22343 322.85714,391.7476 321.28223,393.87048 320.06646,396.29033 318.21429,398.17617 316.96302,399.45018 315.67005,400.99544 313.92857,401.39045 310.96863,402.06184 308.03328,399.71077 305,399.60474 302.661,399.52298 299.7215,398.8741 298.03572,400.4976 295.94936,402.50687 296.79157,406.17835 296.60714,409.06903 296.40613,412.21963 295.43262,415.77275 296.96429,418.53331 298.04561,420.48219 300.36015,421.66005 302.5,422.28331 306.50207,423.44897 310.84229,422.22396 315,421.92617 320.19935,421.55377 325.35222,420.69116 330.53571,420.14045 335.41239,419.62233 340.35934,419.62043 345.17857,418.71188 347.97465,418.18474 350.54843,416.46259 353.39285,416.39045 355.52923,416.33626 357.50725,417.89785 359.64286,417.81902 361.26098,417.75929 363.80231,417.93583 364.28571,416.39045 364.91849,414.36753 362.07864,412.627 360.35714,411.39045 357.17667,409.10592 353.06682,408.48056 349.28571,407.46188 346.47886,406.70569 343.49384,406.70582 340.71429,405.85474 338.8534,405.28495 336.11973,405.32385 335.35714,403.53331 334.08775,400.55283 337.38907,397.36598 338.75,394.42617 340.18299,391.33068 342.41526,388.63669 343.75,385.49759 344.7963,383.03686 346.80133,380.39141 346.07143,377.81902 345.50741,375.83124 343.46043,374.08737 341.42858,373.71188 338.92806,373.24978 336.30945,374.85077 334.28571,376.39045 Z"
       id="path4649"
       inkscape:connector-curvature="0"
       sodipodi:nodetypes="aaaaaaaaaaaaaaaaaaaaaaaaa" />
    <path
       style="fill:#000000;stroke:none;stroke-width:1px;stroke-linecap:butt;stroke-linejoin:miter;stroke-opacity:1;fill-opacity:1"
       d="M 387.28182,369.32156 C 388.86173,370.02957 390.43032,370.76632 391.96429,371.56902 394.63325,372.96563 397.51787,374.09232 399.82143,376.03331 402.11779,377.96823 403.99476,380.42027 405.53572,382.9976 407.22043,385.81537 409.42851,388.82485 409.28572,392.10474 409.19037,394.29484 407.94695,396.54211 406.26269,397.94529 403.98411,399.84361 400.52185,399.47958 397.75254,400.54092 395.15187,401.53764 392.72263,402.93558 390.17857,404.06902 387.40135,405.30634 384.40639,406.09903 381.78572,407.64045 378.27579,409.70492 375.24158,412.49856 372.14286,415.14045 370.28407,416.72521 368.54245,418.44326 366.78572,420.14045 364.78787,422.07059 362.89696,424.10966 360.89286,426.03331 358.41342,428.41323 355.87112,430.72756 353.30992,433.01926 351.22162,434.8878 348.99865,436.60619 346.96429,438.53331 345.03899,440.35711 342.72724,441.93535 341.42857,444.2476 340.90477,445.1802 340.13934,446.39921 340.62237,447.35356 341.29262,448.67783 343.28996,448.78435 344.75782,449.00414 347.07486,449.35109 349.42902,448.63433 351.76251,448.42498 355.23211,448.11372 358.69311,447.70883 362.16453,447.41856 365.393,447.14859 368.62455,446.90769 371.85968,446.73491 374.93513,446.57065 378.01663,446.54347 381.0931,446.39943 384.08412,446.25938 387.07236,446.06485 390.06128,445.88537 392.62845,445.73122 395.21419,445.75591 397.76151,445.40196 400.02116,445.08799 402.24007,444.51754 404.45029,443.95227 405.81993,443.60198 407.57293,441.69853 408.51759,442.75031 409.40564,443.73907 407.79163,445.3748 406.98498,446.43102 405.77544,448.01479 403.98091,449.08675 402.26541,450.10084 400.55329,451.11294 398.66634,451.81458 396.78572,452.46188 394.3421,453.30296 391.82078,453.92398 389.28572,454.42617 386.5335,454.97138 383.70872,455.07437 380.94516,455.55887 377.94948,456.08406 375.00643,456.87622 372.02557,457.47983 368.23121,458.24818 364.41549,458.90724 360.61494,459.64435 357.18445,460.30969 353.76654,461.03978 350.33176,461.6826 346.10356,462.47391 341.81639,462.96424 337.62255,463.92109 334.50836,464.63162 331.496,465.73817 328.39811,466.51672 324.35104,467.53381 320.2749,468.44328 316.17603,469.22593 312.3168,469.96283 308.44874,470.71414 304.53825,471.09459 299.92335,471.54357 295.19191,472.44282 290.6366,471.578 288.12473,471.10112 285.74597,469.91367 283.60206,468.52062 281.81758,467.36111 280.0629,465.9852 278.89794,464.20427 277.61583,462.24425 276.47424,459.89509 276.61983,457.55752 276.72691,455.83828 277.73136,454.19027 278.88896,452.91466 280.23149,451.43527 282.13503,450.507 283.99356,449.77433 285.81967,449.05445 287.80609,448.72551 289.7654,448.60728 292.46617,448.44431 295.16402,448.98723 297.85714,449.2476 299.9443,449.44939 302.01789,449.78295 304.10714,449.96188 306.18626,450.13994 308.27501,450.45759 310.35714,450.31902 311.92964,450.21437 313.50419,449.9224 315,449.42617 316.94563,448.78071 318.73588,447.72878 320.53571,446.7476 323.04539,445.37945 325.44725,443.82045 327.85714,442.28331 330.02844,440.89836 332.25182,439.57745 334.28571,437.9976 336.81545,436.0326 339.06712,433.73336 341.42857,431.56902 344.12967,429.09338 346.68356,426.45487 349.46429,424.06902 351.36217,422.44065 353.4275,421.01677 355.35714,419.42617 357.11576,417.97654 358.98971,416.6364 360.53572,414.96188 362.58706,412.74001 364.00525,410.00299 365.89286,407.64045 367.42029,405.72871 369.13577,403.97452 370.71429,402.10474 371.80576,400.81188 372.90271,399.52169 373.92857,398.17617 375.39643,396.25091 376.76124,394.24869 378.13135,392.25268 379.37781,390.43678 380.92793,388.77623 381.78572,386.7476 382.33136,385.45719 382.9024,384.02348 382.67857,382.64045 382.38012,380.79631 380.41406,379.59067 379.82143,377.81902 379.13747,375.77434 378.52127,373.46537 379.10714,371.39045 379.47598,370.08417 380.40984,368.81561 381.60714,368.17617 382.34408,367.78259 383.28261,367.86293 384.10714,367.9976 385.23871,368.18242 386.23552,368.85267 387.28182,369.32156 Z"
       id="path4651"
       inkscape:connector-curvature="0"
       sodipodi:nodetypes="aaaaaaaaaaaaaaaaaaaaaaaaaaaaaaaaaaaaaaaaaaaaaaaaaaaaaaaaaaaaaaaaaa" />
    <path
       style="fill:#000000;stroke:none;stroke-width:1px;stroke-linecap:butt;stroke-linejoin:miter;stroke-opacity:1;fill-opacity:1"
       d="M 396.31528,424.79594 C 398.48264,424.13809 400.78614,423.93445 403.05087,423.89936 405.54667,423.86069 408.06759,424.09994 410.50074,424.65698 412.42163,425.09674 414.28137,425.82179 416.05658,426.67728 418.23505,427.72711 420.28311,429.04983 422.24376,430.46535 424.25368,431.91645 426.16957,433.51403 427.92587,435.26358 429.76622,437.09686 431.64728,438.96649 432.97663,441.19822 434.40865,443.60229 435.738,446.24162 436.00709,449.0269 436.23734,451.41012 436.3981,454.36649 434.74441,456.09797 433.16468,457.75201 430.33573,457.74198 428.05214,457.61321 425.11504,457.44758 422.30633,456.10776 419.71838,454.70901 417.8965,453.72431 416.4378,452.18049 414.79389,450.92094 413.19682,449.69728 411.58642,448.49099 409.99566,447.25914 408.81065,446.3415 407.65085,445.39145 406.46013,444.48122 404.835,443.23891 403.14585,442.081 401.53563,440.81941 399.81757,439.47333 398.30937,437.8504 396.48487,436.65254 394.62809,435.43348 391.64071,435.55717 390.55023,433.62208 389.83117,432.3461 390.41713,430.63324 390.86776,429.23964 391.17324,428.29495 391.69769,427.3728 392.43267,426.70529 393.5003,425.73565 394.93522,425.21482 396.31528,424.79594 Z"
       id="path4653"
       inkscape:connector-curvature="0"
       sodipodi:nodetypes="aaaaaaaaaaaaaaaaaaaa" />
    <path
       style="fill:#000000;stroke:none;stroke-width:1px;stroke-linecap:butt;stroke-linejoin:miter;stroke-opacity:1;fill-opacity:1"
       d="M 363.78119,464.81054 C 365.71587,466.84533 367.68152,468.89552 369.21076,471.25026 370.89222,473.83939 373.1338,476.49904 373.25137,479.58402 373.36507,482.56755 370.54686,484.98866 369.96837,487.91778 369.41376,490.72595 369.91816,493.64268 369.8421,496.50408 369.7548,499.78834 369.61927,503.07134 369.46329,506.35306 369.25114,510.81667 368.91315,515.27375 368.70568,519.73758 368.49058,524.36551 368.43236,529.00005 368.2006,533.62718 368.00228,537.5867 367.78396,541.54668 367.44299,545.49647 367.07521,549.75682 366.65742,554.01624 366.05402,558.24965 365.5414,561.8462 365.28112,565.52694 364.15999,568.98252 363.09109,572.27711 362.09529,575.90949 359.6143,578.32643 358.15716,579.74596 356.08187,581.062 354.05847,580.85182 351.51299,580.58741 349.61446,578.17982 347.87129,576.30613 345.77137,574.04899 344.59511,571.0827 342.94679,568.47745 341.1863,565.69491 339.52272,562.84745 337.64349,560.14369 335.53435,557.10916 332.88976,554.4511 330.95123,551.30485 329.59847,549.10931 326.62164,546.76908 327.54196,544.36006 328.22255,542.57855 330.94803,542.01987 332.84526,542.21348 334.95887,542.42918 336.41078,544.52671 338.14856,545.74901 340.63421,547.49733 342.49871,550.55122 345.47217,551.17859 346.78099,551.45473 348.46014,551.25963 349.38652,550.2947 351.16461,548.4426 350.48984,545.27009 350.77547,542.71856 351.22538,538.69954 351.19635,534.63996 351.28055,530.59672 351.36905,526.34659 351.09624,522.09061 351.28055,517.84355 351.4912,512.98954 352.30264,508.17523 352.54324,503.32261 352.71208,499.91727 352.67089,496.50433 352.66951,493.09481 352.66821,489.89571 352.94844,486.67169 352.54324,483.49836 352.23033,481.04784 351.68966,478.59607 350.77547,476.30103 349.73611,473.69174 348.25207,471.25507 346.6086,468.97742 345.61458,467.59983 344.36855,466.42173 343.19932,465.18935 341.47864,463.37572 337.62127,462.3709 337.89603,459.88605 338.1206,457.85501 341.08071,457.057 343.07306,456.60305 345.18043,456.1229 347.38044,457.00757 349.51278,457.36067 351.29639,457.65601 353.11891,457.87412 354.81609,458.49709 356.65456,459.17191 358.40115,460.13438 359.99311,461.27501 361.39714,462.28098 362.59104,463.55881 363.78119,464.81054 Z"
       id="path4655"
       inkscape:connector-curvature="0"
       sodipodi:nodetypes="aaaaaaaaaaaaaaaaaaaaaaaaaaaaaaaaaaaaa" />
    <path
       style="fill:#000000;stroke:none;stroke-width:1px;stroke-linecap:butt;stroke-linejoin:miter;stroke-opacity:1;fill-opacity:1"
       d="M 294.375,498.17617 C 295.79728,499.41093 296.54103,501.2834 297.32143,502.9976 298.05853,504.61671 298.51555,506.35649 298.92857,508.08688 299.39772,510.05241 299.79226,512.05176 299.91071,514.06903 300.02598,516.03196 299.81761,518.00335 299.64286,519.96188 299.44274,522.20487 299.23873,524.46009 298.75,526.65831 298.38432,528.30305 297.86386,529.91775 297.23214,531.47974 296.50855,533.2689 295.93461,535.22443 294.64286,536.65831 293.2724,538.17956 291.50842,540.07967 289.46428,539.96189 287.20437,539.83167 285.59956,537.45252 284.19643,535.67617 283.04954,534.22422 282.48147,532.39064 281.78571,530.67617 281.00713,528.75759 280.12784,526.83105 279.82143,524.78331 279.46456,522.39841 279.7104,519.94516 280.00001,517.55116 280.30007,515.07067 280.98152,512.64873 281.60714,510.22974 282.12821,508.21504 282.56703,506.15771 283.39286,504.2476 284.23962,502.28906 285.09878,500.22109 286.60714,498.71188 287.6536,497.66483 288.96871,496.56776 290.44643,496.47974 291.87031,496.39492 293.29788,497.24106 294.375,498.17617 Z"
       id="path4657"
       inkscape:connector-curvature="0"
       sodipodi:nodetypes="aaaaaaaaaaaaaaaaaa" />
    <path
       style="fill:#000000;stroke:none;stroke-width:1px;stroke-linecap:butt;stroke-linejoin:miter;stroke-opacity:1;fill-opacity:1"
       d="M 409.36432,490.19063 C 411.77141,490.64072 413.86982,492.11894 416.05658,493.22108 418.6814,494.54401 421.21856,496.03572 423.75899,497.51423 426.1422,498.90124 428.57694,500.21775 430.83006,501.80738 432.73686,503.15267 434.56659,504.62077 436.25963,506.22679 438.44314,508.29807 440.39264,510.60798 442.32055,512.91906 443.78196,514.67093 445.33638,516.37888 446.48743,518.34862 448.0573,521.03507 449.81287,523.84165 450.14923,526.93492 450.39463,529.19173 450.13941,531.73411 448.88654,533.62718 447.54647,535.652 445.21213,537.2203 442.82562,537.66779 439.56352,538.27946 436.06998,537.00847 433.1029,535.52122 429.47464,533.70256 426.58757,530.59436 423.88526,527.56627 421.64662,525.05774 420.08727,522.01716 418.20315,519.23251 416.21445,516.2933 414.12681,513.41702 412.26851,510.39367 410.60089,507.68054 409.01897,504.90927 407.59656,502.05992 406.38448,499.63192 404.71164,497.29441 404.31355,494.61004 404.10831,493.22605 403.79762,491.39976 404.81864,490.44316 405.92609,489.40559 407.87261,489.91169 409.36432,490.19063 Z"
       id="path4659"
       inkscape:connector-curvature="0"
       sodipodi:nodetypes="aaaaaaaaaaaaaaaaaa" />
  </g>
</svg>
