<?xml version="1.0" encoding="UTF-8" standalone="no"?>
<!-- Created with Inkscape (http://www.inkscape.org/) -->

<svg
   xmlns:dc="http://purl.org/dc/elements/1.1/"
   xmlns:cc="http://creativecommons.org/ns#"
   xmlns:rdf="http://www.w3.org/1999/02/22-rdf-syntax-ns#"
   xmlns:svg="http://www.w3.org/2000/svg"
   xmlns="http://www.w3.org/2000/svg"
   xmlns:sodipodi="http://sodipodi.sourceforge.net/DTD/sodipodi-0.dtd"
   xmlns:inkscape="http://www.inkscape.org/namespaces/inkscape"
   width="512"
   height="512"
   viewBox="0 0 512 512"
   version="1.1"
   id="svg8"
   inkscape:version="0.92.4 (5da689c313, 2019-01-14)"
   sodipodi:docname="浴.svg">
  <defs
     id="defs2" />
  <sodipodi:namedview
     id="base"
     pagecolor="#ffffff"
     bordercolor="#666666"
     borderopacity="1.0"
     inkscape:pageopacity="0.0"
     inkscape:pageshadow="2"
     inkscape:zoom="1.4"
     inkscape:cx="190.19679"
     inkscape:cy="235.40014"
     inkscape:document-units="px"
     inkscape:current-layer="layer1"
     showgrid="false"
     units="px"
     inkscape:window-width="1920"
     inkscape:window-height="1001"
     inkscape:window-x="-9"
     inkscape:window-y="-9"
     inkscape:window-maximized="1"
     showguides="true" />
  <metadata
     id="metadata5">
    <rdf:RDF>
      <cc:Work
         rdf:about="">
        <dc:format>image/svg+xml</dc:format>
        <dc:type
           rdf:resource="http://purl.org/dc/dcmitype/StillImage" />
        <dc:title></dc:title>
      </cc:Work>
    </rdf:RDF>
  </metadata>
  <g
     inkscape:label="圖層 1"
     inkscape:groupmode="layer"
     id="layer1"
     transform="translate(0,-161.53331)">
    <path
       style="fill:#000000;stroke:none;stroke-width:1px;stroke-linecap:butt;stroke-linejoin:miter;stroke-opacity:1;fill-opacity:1"
       d="M 82.453702,282.85681 C 86.128255,283.34074 89.776245,284.30972 93.186572,285.761 96.348127,287.10641 99.366369,288.88828 102.02541,291.0643 104.5386,293.12096 106.78452,295.56327 108.5914,298.26164 110.40373,300.96815 111.97294,303.9393 112.75828,307.10047 113.63195,310.6172 114.08852,314.43119 113.26335,317.95961 112.45249,321.4268 110.53403,324.71747 108.08632,327.30352 105.42118,330.11929 101.83274,332.04 98.237327,333.49071 93.850942,335.26057 89.075968,336.26599 84.347738,336.3949 81.283256,336.47845 76.163009,337.93443 75.256365,335.00594 74.727954,333.29916 77.678845,332.32733 79.170706,331.34413 81.358117,329.90254 84.127789,329.54543 86.368043,328.18741 89.414715,326.34055 92.744997,324.4724 94.701802,321.49515 96.356272,318.9779 97.394062,315.78057 97.100913,312.78259 96.743708,309.12951 94.27024,305.94831 92.17642,302.93359 89.747151,299.43589 86.707889,296.34857 83.463854,293.58968 81.0619,291.54693 78.185083,290.13781 75.599276,288.33343 73.806904,287.0827 70.143274,286.65411 70.298605,284.47402 70.379363,283.34058 72.208655,283.15379 73.311115,282.87848 76.26785,282.1401 79.432255,282.45889 82.453702,282.85681 Z"
       id="path956"
       inkscape:connector-curvature="0"
       sodipodi:nodetypes="aaaaaaaaaaaaaaaaaaaa" />
    <path
       style="fill:#000000;stroke:none;stroke-width:1px;stroke-linecap:butt;stroke-linejoin:miter;stroke-opacity:1;fill-opacity:1"
       d="M 39.648487,364.17409 C 43.686979,364.0185 44.223657,370.84438 46.719555,374.02308 49.116019,377.07514 51.574157,380.09582 54.295699,382.86192 57.056026,385.66744 60.366551,387.89263 63.134534,390.6906 65.484796,393.06632 68.799684,395.04862 69.700526,398.26674 70.920413,402.6246 69.178412,407.47826 67.427682,411.65127 65.538549,416.15417 62.008904,419.80414 58.841386,423.52056 55.67528,427.23532 53.212221,435.09896 48.487323,433.87462 45.521117,433.10599 46.093046,428.09716 45.961941,425.03579 45.811485,421.52257 47.876507,418.19658 47.982246,414.68172 48.135468,409.58857 47.517297,404.38171 45.961941,399.52943 44.53661,395.08279 41.076989,391.51146 39.395949,387.15506 37.426125,382.05027 35.355339,371.24516 35.355339,371.24516 35.355339,371.24516 36.893094,364.28025 39.648487,364.17409 Z"
       id="path958"
       inkscape:connector-curvature="0"
       sodipodi:nodetypes="aaaaaaaaaaaaca" />
    <path
       style="fill:#000000;stroke:none;stroke-width:1px;stroke-linecap:butt;stroke-linejoin:miter;stroke-opacity:1;fill-opacity:1"
       d="M 101.78571,495.67616 C 98.84398,506.38674 94.315858,516.59765 90.714286,527.10474 88.517033,533.51493 86.39398,539.95046 84.285714,546.39046 82.107047,553.0455 80.806829,560.03942 77.857143,566.39045 76.437908,569.44623 75.68967,573.8765 72.5,574.96188 67.329227,576.72139 61.600431,572.40399 57.142857,569.2476 53.348768,566.56102 50.706091,562.45807 48.214286,558.53331 46.101845,555.20608 44.391036,551.58043 43.214286,547.81903 41.952061,543.78441 41.429862,539.53125 41.071429,535.31902 40.627306,530.09979 36.209083,521.55287 41.071429,519.60474 47.793361,516.91154 48.843287,534.88127 56.071428,535.31903 60.377272,535.57981 63.106064,530.23761 66.071429,527.10474 69.115914,523.88827 71.235121,519.90611 73.928572,516.39045 79.028048,509.7343 83.758549,502.72119 89.642858,496.7476 93.975036,492.34968 98.631142,481.79223 103.92857,484.96188 107.05398,486.83193 102.75033,492.16407 101.78571,495.67616 Z"
       id="path960"
       inkscape:connector-curvature="0"
       sodipodi:nodetypes="aaaaaaaaaaaaaaaa" />
    <path
       style="fill:#000000;stroke:none;stroke-width:1px;stroke-linecap:butt;stroke-linejoin:miter;stroke-opacity:1;fill-opacity:1"
       d="M 194.28571,282.81902 C 197.57345,278.67914 205.49734,282.19168 209.99999,284.96188 215.54064,288.37068 219.51688,294.71651 221.07143,301.03331 222.01711,304.87598 222.05494,309.68178 219.64286,312.81903 213.78148,320.44259 201.85107,320.12983 192.85714,323.53331 184.58104,326.66514 176.44163,330.31509 167.85714,332.46188 164.70485,333.25019 159.77402,336.741 158.21429,333.89045 155.86512,329.59712 164.24393,326.11992 167.85715,322.81903 172.95565,318.16122 179.26478,315.00816 184.64286,310.67616 189.37024,306.86829 196.10093,304.22381 198.21429,298.53331 199.17563,295.94477 197.81755,292.99661 197.14285,290.31902 196.48917,287.72485 192.62195,284.914 194.28571,282.81902 Z"
       id="path962"
       inkscape:connector-curvature="0"
       sodipodi:nodetypes="aaaaaaaaaaaa" />
    <path
       style="fill:#000000;stroke:none;stroke-width:1px;stroke-linecap:butt;stroke-linejoin:miter;stroke-opacity:1;fill-opacity:1"
       d="M 302.14285,281.03331 C 300.52236,277.51516 295.79669,273.06124 298.26759,270.07828 301.09908,266.66 307.24276,270.62793 311.42857,272.10474 317.91766,274.39418 324.45816,277.55836 329.28572,282.46188 334.9318,288.1968 338.84269,295.80025 341.07143,303.53331 342.3589,308.00044 345.07092,314.17247 341.78571,317.46188 336.73187,322.52218 327.38978,317.69044 320.35714,316.39045 314.32293,315.27503 303.11144,316.80734 302.85714,310.67617 302.75543,308.22405 307.52,309.05057 309.64286,307.81903 311.8466,306.54056 315.05543,305.63723 315.71429,303.17616 316.11451,301.68119 314.69641,300.23416 313.92857,298.89045 312.15665,295.78958 309.46735,293.29974 307.5,290.31902 305.53157,287.33665 303.63784,284.27897 302.14285,281.03331 Z"
       id="path964"
       inkscape:connector-curvature="0"
       sodipodi:nodetypes="aaaaaaaaaaaaa" />
    <path
       style="fill:#000000;stroke:none;stroke-width:1px;stroke-linecap:butt;stroke-linejoin:miter;stroke-opacity:1;fill-opacity:1"
       d="M 215.35714,336.03331 C 212.34762,339.55262 219.56109,344.61769 219.64286,349.2476 219.73469,354.44687 217.7366,359.62386 215.35714,364.2476 211.94566,370.87675 206.15439,375.98127 201.42857,381.7476 195.10963,389.45782 188.63965,397.04378 182.14286,404.60474 176.36968,411.32357 170.92697,418.36117 164.64285,424.60474 159.73304,429.48288 154.31928,433.83534 148.92857,438.17617 144.29242,441.90939 139.10262,444.9482 134.64286,448.89045 131.29952,451.84583 123.33173,454.55715 125.35714,458.53331 127.20035,462.15179 133.54198,458.04944 137.42399,456.85746 142.65264,455.25199 147.52708,452.53918 152.14286,449.60474 158.57571,445.51511 164.35873,440.44569 170,435.31902 178.22419,427.84504 185.52985,419.41836 193.21428,411.39045 199.32869,405.00275 205.5239,398.68681 211.42857,392.10474 217.06773,385.81864 222.43465,379.29295 227.85715,372.81903 231.22405,368.79929 235.27476,365.23967 237.85714,360.67616 239.7857,357.26807 242.61739,353.43133 241.78571,349.60474 240.69499,344.58627 235.62723,340.90383 231.07143,338.53331 226.3663,336.08508 218.80427,332.00226 215.35714,336.03331 Z"
       id="path966"
       inkscape:connector-curvature="0"
       sodipodi:nodetypes="aaaaaaaaaaaaaaaaaaa" />
    <path
       style="fill:#000000;stroke:none;stroke-width:1px;stroke-linecap:butt;stroke-linejoin:miter;stroke-opacity:1;fill-opacity:1"
       d="M 262.5,387.46188 C 271.00058,393.79086 278.85464,400.97501 287.5,407.10474 296.71359,413.63735 306.61024,419.15046 316.07143,425.31902 326.85824,432.35187 337.45529,439.67226 348.21429,446.7476 356.9877,452.51718 365.57316,458.59882 374.64285,463.89046 379.97793,467.00316 384.90178,472.16634 391.07143,472.46188 395.81895,472.68929 399.67287,468.25033 404.28571,467.10474 409.97647,465.69145 415.93206,465.66072 421.78572,465.31902 429.74924,464.85417 437.74053,465.1922 445.71428,464.96188 454.05179,464.72104 462.53008,465.50006 470.71428,463.89046 476.92172,462.66963 483.0371,460.52684 488.57143,457.46188 492.27987,455.40811 500.01414,453.59086 498.57143,449.60474 497.15282,445.6852 490.23908,450.03927 486.07143,449.96188 477.00581,449.79355 467.89153,449.54698 458.92857,448.17617 446.94087,446.34275 435.37647,442.38094 423.57143,439.60474 407.40665,435.80325 390.76297,433.75633 375,428.53331 355.97608,422.22979 337.97279,413.11454 320,404.2476 308.43765,398.54327 297.27865,392.04997 286.07142,385.67616 273.4529,378.49972 262.00237,369.04134 248.57143,363.53331 243.57589,361.48464 238.06053,358.16349 232.85714,359.60474 231.07239,360.09909 228.78371,361.68704 228.92857,363.53331 229.30854,368.37609 236.76471,369.2767 240.71429,372.10473 247.93817,377.2773 255.3735,382.15595 262.5,387.46188 Z"
       id="path968"
       inkscape:connector-curvature="0"
       sodipodi:nodetypes="aaaaaaaaaaaaaaaaaaaaaaa" />
    <path
       style="fill:#000000;stroke:none;stroke-width:1px;stroke-linecap:butt;stroke-linejoin:miter;stroke-opacity:1;fill-opacity:1"
       d="M 172.5,467.10474 C 172.8254,472.71456 179.54034,475.89952 182.5,480.67617 185.10799,484.88527 187.63,489.2239 189.28571,493.89045 191.60446,500.42575 192.25441,507.43935 193.57143,514.2476 195.13266,522.3183 196.93581,530.36478 197.85714,538.53331 198.39152,543.27112 198.54058,548.05127 198.57143,552.81902 198.59224,556.03544 196.82933,559.55883 198.21429,562.46188 200.26468,566.75974 205.16362,572.64953 209.64286,571.03331 214.93921,569.12225 213.09258,560.21493 213.57143,554.60474 214.51496,543.55049 212.5851,532.42445 211.42857,521.39045 210.73883,514.80998 209.59155,508.28501 208.57143,501.7476 207.67826,496.02376 207.8581,489.98658 205.71429,484.60474 203.27053,478.4699 199.48156,472.67008 194.64286,468.17617 191.82978,465.56354 188.12617,464.07612 184.64286,462.46188 182.11434,461.29011 179.40221,458.64537 176.78571,459.60474 174.08233,460.59597 172.33326,464.23019 172.5,467.10474 Z"
       id="path970"
       inkscape:connector-curvature="0"
       sodipodi:nodetypes="aaaaaaaaaaaaaaaa" />
    <path
       style="fill:#000000;stroke:none;stroke-width:1px;stroke-linecap:butt;stroke-linejoin:miter;stroke-opacity:1;fill-opacity:1"
       d="M 232.85714,461.7476 C 242.33981,459.5616 251.62424,456.58216 261.07143,454.2476 269.37005,452.19688 278.23487,451.94812 286.07143,448.53331 289.37088,447.09556 291.42167,442.848 295,442.46188 301.5058,441.75986 307.83912,446.05159 313.21429,449.78331 317.71374,452.90706 323.74748,456.47519 324.28571,461.92616 324.78426,466.97512 319.53336,470.9493 316.42857,474.96188 314.03301,478.05786 310.08116,479.91401 308.21429,483.35474 304.95668,489.35864 305.41046,496.7289 303.75,503.35473 302.29311,509.16828 300.68032,514.94458 298.92857,520.67617 297.60816,524.99643 296.80645,529.56758 294.64285,533.53331 292.77738,536.95259 291.21601,542.57911 287.32144,542.64045 284.57786,542.68366 283.67323,538.5372 281.96429,536.39044 280.07328,534.01497 275.21738,531.78928 276.55358,529.06286 277.63575,526.85479 281.98636,530.3986 283.92857,528.89045 286.71194,526.72912 286.06709,522.16182 286.78571,518.71188 287.49639,515.30004 287.7381,511.80712 288.21429,508.35474 288.92858,503.17617 289.65901,497.9998 290.35714,492.81903 290.96649,488.2971 291.99629,483.80805 292.14286,479.2476 292.25784,475.67009 294.08276,470.93478 291.42857,468.53331 288.77879,466.13582 284.26341,468.47453 280.71429,468.89045 271.78669,469.93667 263.08126,472.39426 254.28571,474.2476 246.65409,475.85568 239.08705,477.7727 231.42857,479.24759 225.02892,480.48005 218.61931,481.73378 212.14286,482.46188 206.09901,483.14134 199.01042,486.87466 193.92857,483.53331 191.59999,482.00225 190.40479,478.38209 191.07143,475.67617 191.93824,472.15774 195.87009,469.98328 199.10714,468.35473 210.06202,464.27416 221.68656,464.32271 232.85714,461.7476 Z"
       id="path972"
       inkscape:connector-curvature="0"
       sodipodi:nodetypes="aaaaaaaaaaaaaaaaaaaaaaaaaaca" />
    <path
       style="fill:#000000;stroke:none;stroke-width:1px;stroke-linecap:butt;stroke-linejoin:miter;stroke-opacity:1;fill-opacity:1"
       d="M 219.64286,535.85474 C 225.01452,533.82651 230.4818,531.98933 236.07143,530.67617 242.40668,529.18785 248.94281,528.739 255.35714,527.64045 261.80119,526.53682 268.13822,523.41063 274.64285,524.06903 279.69057,524.57996 284.17131,527.59788 288.75,529.78331 292.74147,531.68846 296.82445,533.55078 300.35715,536.21188 302.30704,537.68069 306.18266,539.03654 305.53571,541.39046 304.5754,544.88452 298.58128,543.51669 295,544.06902 290.8753,544.70516 286.6658,544.53053 282.5,544.78331 276.01047,545.1771 269.52405,545.62038 263.03571,546.03331 256.42881,546.45379 249.82908,547.01418 243.21429,547.28331 236.73047,547.54711 230.23519,547.41258 223.75,547.64046 219.16332,547.80162 214.56814,548.79711 210,548.35473 208.29004,548.18914 205.66722,548.68784 205,547.10474 204.03651,544.81869 206.9009,542.33 208.75,540.67616 211.70965,538.02906 215.92811,537.25735 219.64286,535.85474 Z"
       id="path974"
       inkscape:connector-curvature="0"
       sodipodi:nodetypes="aaaaaaaaaaaaaaaa" />
  </g>
</svg>
