<?xml version="1.0" encoding="UTF-8" standalone="no"?>
<!-- Created with Inkscape (http://www.inkscape.org/) -->

<svg
   xmlns:dc="http://purl.org/dc/elements/1.1/"
   xmlns:cc="http://creativecommons.org/ns#"
   xmlns:rdf="http://www.w3.org/1999/02/22-rdf-syntax-ns#"
   xmlns:svg="http://www.w3.org/2000/svg"
   xmlns="http://www.w3.org/2000/svg"
   xmlns:sodipodi="http://sodipodi.sourceforge.net/DTD/sodipodi-0.dtd"
   xmlns:inkscape="http://www.inkscape.org/namespaces/inkscape"
   width="512"
   height="512"
   viewBox="0 0 512 512"
   version="1.1"
   id="svg8"
   inkscape:version="0.92.4 (5da689c313, 2019-01-14)"
   sodipodi:docname="熱.svg">
  <defs
     id="defs2" />
  <sodipodi:namedview
     id="base"
     pagecolor="#ffffff"
     bordercolor="#666666"
     borderopacity="1.0"
     inkscape:pageopacity="0.0"
     inkscape:pageshadow="2"
     inkscape:zoom="1.4"
     inkscape:cx="159.36003"
     inkscape:cy="258.15232"
     inkscape:document-units="px"
     inkscape:current-layer="layer1"
     showgrid="false"
     units="px"
     inkscape:window-width="1920"
     inkscape:window-height="1017"
     inkscape:window-x="-8"
     inkscape:window-y="-8"
     inkscape:window-maximized="1">
    <inkscape:grid
       type="xygrid"
       id="grid3724" />
  </sodipodi:namedview>
  <metadata
     id="metadata5">
    <rdf:RDF>
      <cc:Work
         rdf:about="">
        <dc:format>image/svg+xml</dc:format>
        <dc:type
           rdf:resource="http://purl.org/dc/dcmitype/StillImage" />
        <dc:title></dc:title>
      </cc:Work>
    </rdf:RDF>
  </metadata>
  <g
     inkscape:label="圖層 1"
     inkscape:groupmode="layer"
     id="layer1"
     transform="translate(0,-161.53127)">
    <path
       style="fill:#000000;stroke:none;stroke-width:1px;stroke-linecap:butt;stroke-linejoin:miter;stroke-opacity:1;fill-opacity:1"
       d="M 124.4199,283.52573 C 128.37591,282.03228 132.20474,280.21352 136.16927,278.74283 140.35537,277.18994 144.65511,275.96039 148.86752,274.48031 153.30112,272.92252 157.72959,271.34424 162.10147,269.62081 168.22099,267.20846 174.62267,265.3016 180.28422,261.95275 183.11433,260.27873 184.93387,256.96523 188.02099,255.83319 191.47727,254.56578 195.54706,254.35593 199.0587,255.46073 202.05234,256.40256 205.72356,258.09259 206.59152,261.10848 207.39698,263.90723 205.31992,267.02553 203.45645,269.26367 201.14994,272.03394 197.52796,273.44795 194.23246,274.9088 189.68376,276.92517 184.66919,277.6615 179.90913,279.11003 176.69605,280.0878 173.45114,280.97852 170.29999,282.14048 166.52963,283.53078 162.93964,285.37331 159.20101,286.8468 154.99316,288.50522 150.69388,289.9219 146.45418,291.49708 141.82003,293.21882 137.08491,294.70276 132.58252,296.74437 129.21963,298.26928 126.00959,300.117 122.8075,301.95576 119.76389,303.7035 117.35087,307.6702 113.84611,307.48359 110.24259,307.29172 107.98588,303.25009 105.28783,300.85369 103.3211,299.10686 101.3049,297.35274 99.752564,295.22914 98.180239,293.07819 96.164447,290.81881 96.025768,288.15807 95.908869,285.91521 96.597369,283.04641 98.530577,281.90327 100.66164,280.64313 103.53897,282.07008 105.90277,282.80619 108.2079,283.52404 109.97467,285.59348 112.32082,286.16315 113.81229,286.5253 115.41259,286.39809 116.92516,286.13777 119.53245,285.68905 121.94477,284.46012 124.4199,283.52573 Z"
       id="path4634"
       inkscape:connector-curvature="0"
       sodipodi:nodetypes="aaaaaaaaaaaaaaaaaaaaaaaaa" />
    <path
       style="fill:#000000;stroke:none;stroke-width:1px;stroke-linecap:butt;stroke-linejoin:miter;stroke-opacity:1;fill-opacity:1"
       d="M 130.35714,207.45984 C 132.55492,209.38561 135.26517,210.63376 137.67858,212.28127 140.14742,213.96663 142.60203,215.67507 145,217.45984 146.39459,218.49781 148.37422,219.09771 149.10714,220.67413 150.48827,223.64473 148.86501,227.2216 148.75,230.49556 148.62662,234.00731 148.48683,237.51861 148.39286,241.03127 148.23046,247.1017 148.2685,253.17743 148.03571,259.24556 147.87573,263.41595 147.65118,267.58514 147.32143,271.74555 146.99526,275.86087 146.4795,279.95898 146.07143,284.06699 145.64579,288.35182 145.06308,292.62499 144.82143,296.92413 144.60427,300.78753 144.77089,304.66388 144.64286,308.53127 144.52651,312.04578 144.19646,315.55167 144.10715,319.06698 144.03307,321.98271 144.61054,324.94409 144.10715,327.81699 143.75212,329.84319 143.53156,332.23739 142.00893,333.62056 140.67851,334.82912 137.83003,333.49696 136.78571,334.95984 135.91834,336.17485 136.82299,337.96594 137.14286,339.42412 137.80862,342.45919 138.6616,345.57027 140.35714,348.17412 141.71241,350.25541 143.24074,353.12891 145.71429,353.35269 148.06546,353.5654 150.17021,351.29722 151.60715,349.42412 154.32249,345.88457 154.65573,341.03169 155.89286,336.74555 157.23408,332.09877 158.21214,327.35422 159.28572,322.6384 160.92097,315.45542 162.52095,308.26231 163.92857,301.03127 164.65595,297.29468 165.27404,293.53737 165.89286,289.78127 166.58806,285.56154 167.1373,281.31829 167.85714,277.1027 168.62155,272.6261 169.58443,268.18502 170.35714,263.70984 171.00318,259.96826 171.56084,256.21191 172.14286,252.45984 172.75193,248.53339 173.04103,244.54714 173.92857,240.67413 175.0977,235.57234 176.7458,230.57945 178.57143,225.67413 179.29661,223.72563 180.97085,222.03649 181.07143,219.95984 181.21986,216.89522 180.34292,213.41956 178.21428,211.20984 176.54193,209.47379 173.34273,210.17498 171.42857,208.70984 169.63181,207.33456 169.17493,204.69543 167.5,203.17413 164.75647,200.68223 161.26453,199.09657 157.85714,197.63841 153.80538,195.90451 149.58355,193.74927 145.17857,193.88841 142.58119,193.97045 140.26957,195.60092 137.85714,196.56699 135.50624,197.50841 133.19427,198.54608 130.89286,199.6027 129.15087,200.40248 126.10162,200.22543 125.71429,202.1027 125.23679,204.41698 128.57987,205.90253 130.35714,207.45984 Z"
       id="path4636"
       inkscape:connector-curvature="0"
       sodipodi:nodetypes="aaaaaaaaaaaaaaaaaaaaaaaaaaaaaaaaaaaaaa" />
    <path
       style="fill:#000000;stroke:none;stroke-width:1px;stroke-linecap:butt;stroke-linejoin:miter;stroke-opacity:1;fill-opacity:1"
       d="M 48.392858,362.99556 C 51.694575,361.55193 55.038745,360.20573 58.392857,358.88841 61.233084,357.77291 64.107143,356.74556 66.964286,355.67413 70.29762,354.42413 73.652402,353.2299 76.964286,351.92413 80.440158,350.5537 83.866182,349.06004 87.321429,347.63841 91.24676,346.02337 95.139628,344.32543 99.107141,342.81699 102.29215,341.60605 105.53402,340.55026 108.75,339.42413 112.67651,338.04919 116.55386,336.52232 120.53571,335.31699 124.18363,334.21273 127.94538,333.51728 131.60714,332.45985 134.60933,331.59289 137.53376,330.47044 140.53572,329.60269 143.96144,328.61246 147.42674,327.76205 150.89286,326.92413 155.63715,325.77722 160.38642,324.63663 165.17857,323.70984 169.55969,322.86254 174.00084,322.35587 178.39286,321.56698 182.63257,320.80544 186.82689,319.80113 191.07143,319.06698 193.85853,318.58492 196.67336,318.27635 199.46429,317.81698 203.10482,317.21778 206.74309,316.59511 210.35714,315.8527 212.69085,315.3733 214.96992,314.62824 217.32143,314.24555 220.39056,313.74607 223.56701,312.69949 226.60714,313.3527 228.48389,313.75594 230.27086,314.83173 231.60714,316.20984 233.1086,317.75829 234.57632,319.76829 234.64286,321.92413 234.68723,323.3619 233.84863,324.81053 232.85715,325.8527 231.42587,327.35715 229.37839,328.42552 227.32143,328.70984 224.67333,329.07587 222.0845,327.63269 219.46428,327.10269 217.38187,326.68148 215.337,325.94186 213.21428,325.8527 208.48566,325.65408 203.78187,326.72073 199.10715,327.45984 194.96773,328.1143 190.87317,329.03473 186.78572,329.95984 183.67392,330.66413 180.58493,331.46734 177.5,332.28127 172.12399,333.69968 166.79443,335.28921 161.42857,336.74555 156.49593,338.08431 151.55674,339.39953 146.60714,340.67413 142.56677,341.71459 138.47856,342.57283 134.46429,343.70984 132.00098,344.40755 129.5574,345.17996 127.14286,346.03127 123.89031,347.17804 120.69998,348.49509 117.5,349.78127 114.33067,351.05512 111.17504,352.36373 108.03572,353.70984 104.38633,355.27466 100.76371,356.90151 97.142857,358.53127 93.620995,360.11647 90.113645,361.7338 86.607143,363.3527 82.255151,365.36195 77.866209,367.29534 73.571429,369.42413 70.136184,371.12688 66.762677,372.95245 63.392858,374.78127 59.8562,376.70063 56.508761,378.98369 52.857143,380.67413 48.994296,382.46235 45.145941,384.96346 40.892857,385.13841 38.482896,385.23755 36.147756,384.1191 33.928572,383.17413 32.087603,382.39021 29.53964,381.97693 28.75,380.13841 28.02636,378.45356 29.235333,376.44791 30,374.78127 30.799335,373.03908 31.928875,371.37572 33.392857,370.13841 34.816035,368.93559 36.714292,368.44751 38.392857,367.63841 41.703418,366.04266 45.025578,364.46786 48.392858,362.99556 Z"
       id="path4638"
       inkscape:connector-curvature="0"
       sodipodi:nodetypes="aaaaaaaaaaaaaaaaaaaaaaaaaaaaaaaaaaaaaaaaaaaaa" />
    <path
       style="fill:#000000;stroke:none;stroke-width:1px;stroke-linecap:butt;stroke-linejoin:miter;stroke-opacity:1;fill-opacity:1"
       d="M 111.60714,361.03127 C 113.48407,360.88902 114.98099,362.85535 116.25,364.24556 117.31021,365.40703 117.87702,366.94172 118.57143,368.3527 119.31345,369.86043 120.08299,371.37726 120.53571,372.99556 121.20019,375.37083 121.67744,377.85151 121.60714,380.31698 121.5396,382.68578 121.02267,385.06693 120.17857,387.28127 119.41854,389.27506 118.13685,391.0343 116.96429,392.81698 115.8652,394.48795 114.75596,396.17481 113.39286,397.63841 112.27081,398.84318 110.92077,399.81472 109.64286,400.85269 108.12728,402.08371 106.49171,403.1643 105,404.42413 103.32665,405.83737 101.75681,407.3697 100.17857,408.88841 98.904776,410.11415 97.779668,411.49844 96.428572,412.63841 95.090559,413.76734 93.66644,414.81188 92.142857,415.67413 89.823248,416.98687 87.475111,418.63971 84.821429,418.88841 83.240065,419.03661 80.955497,419.20228 80.178572,417.81698 79.441976,416.50359 80.82715,414.81936 81.607143,413.53127 82.806424,411.55076 84.870938,410.24429 86.428572,408.53127 87.90535,406.90716 89.447999,405.32434 90.714286,403.53127 92.852301,400.50382 94.437757,397.12141 96.25,393.88841 98.008389,390.75148 99.979925,387.71558 101.42857,384.42413 102.54323,381.89151 103.20208,379.18184 104.10714,376.56698 104.87067,374.36102 105.67254,372.16839 106.42857,369.95984 107.09915,368.0009 107.27927,365.81256 108.39286,364.06698 109.18548,362.82454 110.13762,361.14264 111.60714,361.03127 Z"
       id="path4640"
       inkscape:connector-curvature="0"
       sodipodi:nodetypes="aaaaaaaaaaaaaaaaaaaaaaaa" />
    <path
       style="fill:#000000;stroke:none;stroke-width:1px;stroke-linecap:butt;stroke-linejoin:miter;stroke-opacity:1;fill-opacity:1"
       d="M 183.84776,353.31291 C 186.09406,352.83353 188.33663,354.30577 190.54002,354.95441 193.01718,355.68365 195.40584,356.68773 197.86363,357.47979 199.53662,358.01894 201.22638,358.50494 202.91439,358.99502 205.30742,359.68978 207.75652,360.20155 210.11173,361.01533 212.09166,361.69944 214.22762,362.18011 215.92011,363.41444 217.07833,364.25913 218.05425,365.4166 218.69803,366.69743 219.28032,367.85594 219.32538,369.21453 219.58191,370.48551 219.92828,372.20155 220.29375,373.92036 220.4658,375.66254 220.61476,377.17101 221.34032,378.88997 220.59206,380.20822 219.99673,381.25704 218.60227,381.6715 217.43534,381.97599 215.76557,382.4117 213.98298,381.91726 212.25831,381.97599 210.40313,382.03916 208.5546,382.23127 206.70247,382.3548 204.76653,382.48393 202.8333,382.67044 200.89409,382.73361 199.08519,382.79253 197.27389,382.69155 195.46452,382.7336 193.6532,382.7757 191.84594,383.04072 190.03495,382.98614 188.85023,382.95043 187.40466,383.37242 186.49941,382.60734 185.43082,381.7042 185.41324,379.96495 185.36299,378.56673 185.30281,376.89213 186.15198,375.30325 186.37314,373.64223 186.55125,372.30454 186.81346,370.93799 186.62568,369.60162 186.34597,367.61098 185.48729,365.72592 184.60538,363.91951 183.8831,362.44006 182.47758,361.31342 181.95373,359.75264 181.45658,358.27141 180.94579,356.51085 181.57492,355.08068 181.96139,354.20214 182.9091,353.51323 183.84776,353.31291 Z"
       id="path4642"
       inkscape:connector-curvature="0"
       sodipodi:nodetypes="aaaaaaaaaaaaaaaaaaaaaaaa" />
    <path
       style="fill:#000000;stroke:none;stroke-width:1px;stroke-linecap:butt;stroke-linejoin:miter;stroke-opacity:1;fill-opacity:1"
       d="M 92.01054,448.41519 C 95.439891,445.86107 100.25295,446.1172 104.29825,444.73172 108.05477,443.44514 111.68045,441.80153 115.40993,440.43857 120.26068,438.66583 125.17574,437.07429 130.05714,435.38781 134.43537,433.87517 138.83274,432.41655 143.18912,430.84212 149.02664,428.7324 154.75962,426.33786 160.61426,424.27613 165.71134,422.48118 170.82699,420.72344 176.01908,419.22536 179.35385,418.26318 182.69359,417.24956 186.12061,416.69999 189.53753,416.15204 193.05602,416.47944 196.47467,415.94237 199.64129,415.4449 202.62949,413.3461 205.81858,413.66953 210.72635,414.16725 216.495,415.85986 219.2031,419.98298 220.63645,422.16527 220.63634,425.48296 219.45564,427.81166 218.57926,429.54014 216.44512,430.34646 214.65742,431.09466 211.41362,432.45228 207.81171,432.8767 204.30335,433.11497 201.35905,433.31493 198.41472,432.53773 195.46452,432.60988 191.48695,432.70716 187.54172,433.36691 183.59522,433.87258 181.0623,434.19713 178.50136,434.40957 176.01908,435.009 172.04708,435.96818 168.23688,437.51163 164.40233,438.92334 160.57367,440.33288 156.77145,441.82356 153.03811,443.46903 150.55757,444.56232 148.13886,445.79177 145.71451,447.00456 144.5018,447.61122 143.30727,448.25357 142.10237,448.87561 140.69785,449.60072 139.25428,450.25409 137.88582,451.04517 135.6403,452.34326 133.5021,453.81986 131.34784,455.26435 128.98728,456.84716 126.65176,458.46837 124.35074,460.13654 122.0612,461.79639 119.74343,463.42697 117.57817,465.24595 115.86091,466.68858 114.33054,468.3411 112.66002,469.8376 110.86628,471.44448 109.14532,473.15365 107.18078,474.54654 104.59615,476.37908 102.11724,479.27187 98.948993,479.29881 96.050348,479.32346 93.163777,477.33666 91.344838,475.07962 89.923396,473.31583 89.746182,470.80871 89.38581,468.57228 88.831814,465.13423 89.024534,461.61045 89.102634,458.12893 89.147181,456.14308 88.893375,454.0665 89.531115,452.18531 90.014031,450.76082 90.804229,449.31363 92.01054,448.41519 Z"
       id="path4644"
       inkscape:connector-curvature="0"
       sodipodi:nodetypes="aaaaaaaaaaaaaaaaaaaaaaaaaaaaaaaaa" />
    <path
       style="fill:#000000;stroke:none;stroke-width:1px;stroke-linecap:butt;stroke-linejoin:miter;stroke-opacity:1;fill-opacity:1"
       d="M 99.689903,512.01976 C 102.20032,511.86735 104.62387,511.02904 107.05992,510.40364 111.32635,509.30833 115.54329,508.02045 119.73477,506.66633 125.72149,504.73224 131.61441,502.5187 137.53961,500.40364 141.5386,498.97616 145.56538,497.62047 149.51659,496.06563 154.49517,494.10651 159.29274,491.70342 164.28571,489.78127 167.35611,488.59926 170.50835,487.64188 173.61475,486.55801 178.23065,484.94746 182.77582,483.1244 187.4477,481.68428 190.1863,480.84011 192.99637,480.247 195.75761,479.48015 198.72739,478.65538 201.5778,477.27326 204.6376,476.90246 206.87608,476.63119 210.28229,475.22152 211.3964,477.18192 212.2087,478.61127 210.16197,480.30937 209.04959,481.51994 206.75338,484.01884 203.37598,485.24531 200.53571,487.1027 197.79984,488.89182 195.12642,490.78117 192.32143,492.45984 189.23566,494.30654 186.02793,495.94184 182.85714,497.63841 179.00721,499.69836 175.18239,501.81204 171.25,503.70984 167.11793,505.70401 162.73854,507.17377 158.66706,509.28888 155.47969,510.9447 152.46278,512.913 149.42993,514.83729 146.1151,516.94048 142.87889,519.16587 139.64286,521.38841 137.00195,523.20222 134.32714,524.97337 131.78571,526.92413 129.85357,528.40721 127.93516,529.92192 126.17603,531.6066 124.29821,533.40495 122.82164,535.5963 120.92349,537.37318 118.83509,539.32816 116.89754,541.7365 114.21175,542.72135 111.90586,543.5669 109.1835,543.7001 106.84699,542.94325 104.81554,542.28522 103.28563,540.53988 101.77302,539.03263 99.735407,537.00223 98.043419,534.63141 96.480874,532.21628 94.936082,529.82859 93.693061,527.25328 92.478336,524.68192 91.385428,522.36843 89.828591,520.13617 89.529279,517.59509 89.326452,515.87314 89.27358,513.8134 90.357143,512.45984 90.958115,511.70912 92.083887,511.52541 93.035714,511.38841 95.241011,511.07099 97.465973,512.15477 99.689903,512.01976 Z"
       id="path4646"
       inkscape:connector-curvature="0"
       sodipodi:nodetypes="aaaaaaaaaaaaaaaaaaaaaaaaaaaaaaa" />
    <path
       style="fill:#000000;stroke:none;stroke-width:1px;stroke-linecap:butt;stroke-linejoin:miter;stroke-opacity:1;fill-opacity:1"
       d="M 148.57143,381.92413 C 152.86813,382.47739 157.17267,383.31734 161.25,384.78127 164.29408,385.87422 167.23067,387.34565 169.91071,389.15627 172.60185,390.97439 175.33592,392.94816 177.23214,395.58484 178.62629,397.52341 179.77058,399.81521 180,402.19198 180.40882,406.42742 178.28805,410.52829 177.41071,414.69198 176.61997,418.44471 175.46969,422.13572 175,425.94198 174.89423,426.79909 174.9579,427.66895 174.91072,428.53127 174.71504,432.10738 174.45944,435.68146 174.10714,439.24555 173.77088,442.64732 173.3385,446.03984 172.85715,449.42413 172.27977,453.48351 171.60748,457.5295 170.89286,461.56698 170.34351,464.67069 169.79565,467.77686 169.10714,470.8527 168.53003,473.43084 167.75356,475.96088 167.14286,478.53127 166.5653,480.96219 166.15795,483.43284 165.53572,485.8527 164.85561,488.49763 164.15302,491.14529 163.21429,493.70984 162.65545,495.23655 162.38926,497.01429 161.25,498.17412 160.05557,499.39013 158.29615,500.54626 156.60714,500.31698 155.6027,500.18063 154.8623,499.18639 154.28571,498.3527 152.66862,496.01458 151.99721,493.10238 151.42857,490.31698 150.84408,487.45391 151.12405,484.47995 150.89286,481.56698 150.69886,479.12261 150.38656,476.68878 150.17857,474.24556 149.90013,470.97493 149.71116,467.69728 149.46428,464.42412 149.17689,460.61382 148.89928,456.8026 148.57143,452.99556 148.13542,447.93241 147.81317,442.85447 147.14285,437.81698 146.68076,434.34428 145.77835,430.93775 145.35715,427.45985 144.84778,423.25392 144.80932,419.00386 144.46428,414.78127 144.25493,412.21924 144.18203,409.63671 143.75,407.1027 143.42003,405.16724 143.22251,403.13281 142.32143,401.38841 141.06214,398.95054 138.64276,397.30908 136.96429,395.13841 135.94413,393.81909 134.56527,392.63484 134.10714,391.03127 133.46859,388.79622 133.31533,386.08765 134.46429,384.06698 135.20687,382.76102 136.76915,381.97748 138.21429,381.56698 141.53726,380.62307 145.14528,381.48296 148.57143,381.92413 Z"
       id="path4648"
       inkscape:connector-curvature="0"
       sodipodi:nodetypes="aaaaaaaaaaaaaaaaaaaaaaaaaaaaaaaaa" />
    <path
       style="fill:#000000;stroke:none;stroke-width:1px;stroke-linecap:butt;stroke-linejoin:miter;stroke-opacity:1;fill-opacity:1"
       d="M 261.2507,320.60923 C 266.13442,319.28709 271.32089,319.48172 276.27672,318.46265 280.54706,317.58453 284.7764,316.45797 288.90363,315.05339 292.65524,313.77663 296.28648,312.15886 299.88904,310.5077 304.7316,308.2882 309.47654,305.85315 314.15744,303.31036 319.29555,300.51921 324.48323,297.77238 329.30973,294.47153 332.77139,292.10409 336.18124,289.59623 339.15872,286.64284 341.96355,283.86072 344.85766,280.96661 346.60859,277.4252 348.02926,274.55177 347.90493,271.13439 348.88143,268.0813 349.77907,265.27477 349.82937,261.67097 352.16443,259.8738 355.18869,257.54621 359.78524,257.74268 363.52864,258.48484 366.89315,259.15188 369.96574,261.21742 372.49375,263.5356 375.46226,266.25773 377.66155,269.83702 379.31228,273.51086 380.73478,276.67677 382.86199,280.29618 381.83766,283.61239 380.64104,287.48641 375.73729,288.95612 372.74629,291.69361 370.52789,293.72398 368.3381,295.78613 366.1803,297.88079 363.78854,300.20256 361.52497,302.65505 359.10923,304.95186 356.97117,306.98466 354.65715,308.8286 352.54324,310.88651 349.83415,313.52382 347.05345,316.12345 344.71455,319.09399 342.88728,321.41475 341.15438,323.86207 339.91633,326.54387 337.41043,331.97202 336.4262,337.98072 334.7393,343.71646 333.0591,349.42942 331.32559,355.12898 329.81481,360.88906 328.43173,366.16225 327.36835,371.51508 326.02673,376.79896 324.67491,382.12301 323.06196,387.37892 321.73359,392.70886 320.50147,397.65257 319.12497,402.57698 318.32432,407.60861 317.5207,412.65893 317.11765,417.77656 316.93536,422.88717 316.70276,429.40814 316.55235,435.97837 317.31417,442.45887 317.9831,448.14915 319.29597,453.77505 320.97597,459.25266 322.90337,465.53688 324.7397,472.03598 328.29958,477.56168 331.33053,482.26638 335.72499,485.97493 339.91633,489.68351 344.28526,493.54923 348.79078,497.40754 353.9322,500.16384 359.68137,503.24596 366.07935,504.99438 372.36748,506.72983 380.47566,508.96759 388.80862,510.33758 397.11622,511.65433 402.76755,512.55006 408.44825,513.38028 414.16254,513.67463 419.75369,513.96264 425.40981,514.18365 430.95633,513.42209 434.88064,512.88326 439.06858,512.45997 442.44682,510.39163 446.10752,508.15035 448.62093,504.34559 451.03311,500.79518 453.83631,496.66924 455.76759,491.99852 457.72537,487.41066 459.44445,483.38217 460.78973,479.20137 462.14479,475.03629 463.06776,472.19933 463.88838,469.32906 464.67017,466.45 465.43654,463.62777 466.11362,460.78183 466.79183,457.93713 467.32821,455.68726 467.70983,453.39912 468.33198,451.17144 469.10039,448.42001 469.73292,445.58147 471.03477,443.03864 471.97153,441.20892 472.62823,437.64407 474.64543,438.03946 476.85673,438.4729 475.82217,442.39446 476.24177,444.60843 476.72415,447.1536 476.8894,449.74967 477.29708,452.30786 477.88954,456.02556 478.59,459.72586 479.31738,463.41954 480.41474,468.99198 481.74355,474.517 482.85292,480.08706 483.70592,484.36993 484.43802,488.67604 485.25203,492.9665 485.9552,496.67276 486.81124,500.35181 487.3986,504.07818 488.04563,508.18309 489.28542,512.3136 488.91383,516.45255 488.68527,518.99837 488.21312,521.76075 486.64099,523.77615 485.24689,525.56332 482.912,526.40968 480.83262,527.31169 478.38745,528.37238 475.70228,528.75947 473.1302,529.45826 468.84454,530.62261 464.58272,531.88945 460.25075,532.86753 456.90902,533.62204 453.55919,534.43199 450.14923,534.76156 444.45143,535.31225 438.69939,535.02302 432.97663,534.88783 425.26488,534.70565 417.51716,534.6331 409.8694,533.62514 401.76713,532.55727 393.82283,530.49038 385.87827,528.57438 377.77875,526.62101 369.60663,524.81232 361.76088,522.00839 355.16103,519.64972 348.49139,517.16837 342.56798,513.4221 337.09296,509.95941 331.71613,505.95143 327.7945,500.79518 321.41111,492.40214 317.77944,482.12398 314.40998,472.13211 311.80892,464.41889 310.44446,456.31657 309.23295,448.26725 308.20184,441.4166 307.79029,434.47931 307.46518,427.55912 307.01283,417.93084 306.80154,408.27365 307.21265,398.64351 307.49934,391.92765 308.25724,385.23482 309.10668,378.56673 309.71003,373.83047 310.47574,369.11281 311.37952,364.42459 312.28603,359.72218 313.53023,355.09085 314.53625,350.40873 315.33043,346.7125 315.98814,342.98742 316.80909,339.29705 317.55172,335.95875 319.30772,332.74024 319.2082,329.32179 319.16596,327.87107 319.09205,326.04476 317.94551,325.15491 316.41455,323.96671 314.01631,324.4287 312.13713,324.90237 309.90431,325.46517 308.17886,327.2563 306.2025,328.43791 304.09604,329.6973 302.02046,331.0093 299.88904,332.22598 297.43559,333.62647 294.99109,335.05477 292.43917,336.26659 290.13742,337.3596 287.79687,338.40024 285.36809,339.17078 282.48733,340.08471 279.54822,341.05 276.52926,341.19108 274.28158,341.29612 271.98277,340.9845 269.837,340.3072 267.66474,339.62154 265.7178,338.34152 263.77609,337.15047 261.92429,336.01458 260.1041,334.79703 258.47278,333.3624 256.66127,331.7693 254.21658,330.37705 253.54829,328.0591 253.10922,326.53619 253.42887,324.6141 254.43217,323.38714 255.98575,321.48724 258.88175,321.25056 261.2507,320.60923 Z"
       id="path4650"
       inkscape:connector-curvature="0"
       sodipodi:nodetypes="aaaaaaaaaaaaaaaaaaaaaaaaaaaaaaaaaaaaaaaaaaaaaaaaaaaaaaaaaaaaaaaaaaaaaaaaaaaaaaaaaaaa" />
    <path
       style="fill:#000000;stroke:none;stroke-width:1px;stroke-linecap:butt;stroke-linejoin:miter;stroke-opacity:1;fill-opacity:1"
       d="M 266.5017,250.88703 C 269.06474,252.14684 271.16025,254.20952 273.30228,256.09842 276.33053,258.76881 279.3689,261.50292 281.81462,264.71535 284.6599,268.45261 287.00138,272.60781 288.84235,276.9291 290.43974,280.67863 291.40183,284.68429 292.26059,288.6684 293.39451,293.92914 293.94279,299.30323 294.53344,304.65227 295.08659,309.66178 295.725,314.68538 295.72216,319.72534 295.71978,323.94776 295.11846,328.14944 294.71201,332.35225 294.29313,336.68357 293.71316,340.99786 293.2401,345.3236 292.87538,348.65869 292.63818,352.00878 292.18662,355.33322 291.56635,359.89968 290.736,364.43583 289.91378,368.97028 288.85325,374.819 287.55769,380.62328 286.48285,386.46938 285.19721,393.46203 284.13733,400.49472 282.87335,407.49132 281.73911,413.76978 280.58811,420.04625 279.30718,426.29643 278.28612,431.27859 277.28783,436.26995 276.02418,441.19618 274.38937,447.56931 272.28631,453.81322 270.46834,460.13654 268.75264,466.10414 267.22945,472.12764 265.41758,478.06675 263.53004,484.25392 261.48239,490.39261 259.35667,496.50204 257.91263,500.65228 256.68385,504.90121 254.81098,508.8764 253.27374,512.13922 251.47328,515.30144 249.35449,518.22032 247.19739,521.19197 244.67792,523.90448 242.03088,526.44947 238.74866,529.60514 235.29801,532.6446 231.47812,535.12243 226.06296,538.63505 220.42379,542.24309 214.15234,543.76999 211.45297,544.42721 206.82513,546.48202 205.81858,543.89255 204.34653,540.10553 211.87797,538.47785 214.9279,535.79338 217.91458,533.16458 221.1266,530.77805 223.92736,527.95201 227.03734,524.81395 229.78338,521.33028 232.5443,517.88112 235.01822,514.79049 237.5333,511.71124 239.65869,508.37133 241.86255,504.90811 243.71153,501.22285 245.46707,497.51219 247.49327,493.22944 249.18217,488.7935 250.90562,484.38021 252.63452,479.95295 254.21578,475.46923 255.82113,470.99568 257.67663,465.82505 259.66909,460.69723 261.27237,455.44292 263.16176,449.25095 264.78947,442.97427 266.1752,436.6505 267.51126,430.55339 268.44591,424.37436 269.45819,418.21521 270.46604,412.08301 271.31384,405.92558 272.23611,399.77993 273.17607,393.51635 274.07705,387.24687 275.04466,380.98751 275.76857,376.30464 276.65538,371.6462 277.28687,366.94997 278.00914,361.5787 278.60074,356.1881 279.05464,350.78753 279.53487,345.07358 279.6872,339.33659 280.06479,333.61494 280.29267,330.16187 280.75183,326.72073 280.82241,323.26087 280.92891,318.04012 280.8619,312.79687 280.31733,307.60351 279.81793,302.841 279.00321,298.09426 277.79195,293.46137 276.75493,289.49489 275.37879,285.60757 273.75134,281.84462 272.09229,278.00861 269.99359,274.37469 267.94296,270.73294 265.78833,266.90649 263.5258,263.13727 261.12443,259.46064 259.63769,257.18436 257.03371,255.44115 256.43081,252.79004 256.10217,251.34489 255.9195,249.20787 257.16522,248.40498 259.87199,246.66042 263.61169,249.46651 266.5017,250.88703 Z"
       id="path4652"
       inkscape:connector-curvature="0"
       sodipodi:nodetypes="aaaaaaaaaaaaaaaaaaaaaaaaaaaaaaaaaaaaaaaaaaaaaaaa" />
    <path
       style="fill:#000000;stroke:none;stroke-width:1px;stroke-linecap:butt;stroke-linejoin:miter;stroke-opacity:1;fill-opacity:1"
       d="M 246.07143,379.42412 C 250.43864,379.91124 254.76335,380.72412 259.10714,381.38841 262.56069,381.91655 266.08671,382.10231 269.46429,382.99556 272.5423,383.80959 275.4151,385.26161 278.39286,386.38841 282.49784,387.94175 286.71707,389.21853 290.71429,391.03127 293.35781,392.23011 296.01701,393.47084 298.39285,395.13841 301.01473,396.97866 303.5296,399.06972 305.53571,401.56698 306.82114,403.16711 307.96263,404.964 308.57143,406.92413 308.97904,408.2365 309.48927,409.77664 308.92858,411.03127 308.07855,412.9333 305.91372,414.14923 303.92858,414.78127 301.82923,415.44968 299.52418,414.55914 297.32142,414.6027 293.74277,414.67347 290.17438,415.02271 286.60714,415.31698 282.97102,415.61693 279.35943,416.2324 275.71429,416.38841 270.95637,416.59205 266.16228,416.7307 261.42857,416.20984 257.68046,415.79743 253.93256,415.08623 250.35714,413.88841 247.17587,412.82264 243.89002,411.67312 241.25,409.6027 238.719,407.61778 236.70015,404.93653 235.17857,402.1027 233.58446,399.13379 232.44304,395.81625 232.14285,392.45984 231.84886,389.17274 232.17581,385.70603 233.39286,382.63841 233.98999,381.13332 234.78137,379.39176 236.25,378.70984 239.22717,377.32746 242.8092,379.06026 246.07143,379.42412 Z"
       id="path4654"
       inkscape:connector-curvature="0"
       sodipodi:nodetypes="aaaaaaaaaaaaaaaaaaaaa" />
    <path
       style="fill:#000000;stroke:none;stroke-width:1px;stroke-linecap:butt;stroke-linejoin:miter;stroke-opacity:1;fill-opacity:1"
       d="M 41.428572,578.26341 C 43.590042,578.54663 45.383997,580.24394 46.964286,581.74556 48.915603,583.59973 50.095555,586.12543 51.607143,588.35269 52.766026,590.06026 53.888717,591.79235 55,593.53127 56.302993,595.57018 57.334136,597.79739 58.839286,599.69198 59.441462,600.44996 59.976919,601.43218 60.892857,601.74556 62.90817,602.43508 65.140197,601.34283 67.232143,600.94198 69.103784,600.58334 70.938991,600.04905 72.767858,599.51342 74.782044,598.92351 76.80032,598.3261 78.75,597.54913 82.0521,596.2332 85.014415,594.10084 88.392857,592.99555 90.179173,592.41115 92.049534,591.88321 93.928572,591.92412 95.335885,591.95476 97.147116,591.81455 98.035714,592.90627 98.655991,593.66834 98.372914,594.9019 98.125,595.8527 97.687147,597.53196 96.47472,598.91904 95.446429,600.31699 94.359762,601.79429 93.060906,603.10611 91.785715,604.42413 90.585432,605.66471 89.331579,606.85518 88.035715,607.99556 86.193308,609.61691 84.237752,611.10513 82.321428,612.63841 80.368813,614.20073 78.337088,615.66538 76.428572,617.28127 74.740233,618.71075 73.160967,620.26432 71.517857,621.74556 69.560928,623.5097 68.055218,625.99566 65.625,627.01341 63.039282,628.09629 60.018438,627.85754 57.232143,627.54913 54.489371,627.24553 51.621074,626.69776 49.285714,625.2277 46.645977,623.56604 44.857352,620.7954 43.035715,618.26341 41.696905,616.40253 40.571489,614.3772 39.642857,612.28127 38.563922,609.8461 37.861905,607.25657 37.142857,604.69198 36.433436,602.16173 35.746401,599.61225 35.357143,597.01341 34.844529,593.59101 34.359924,590.10527 34.642857,586.65627 34.832904,584.33958 34.663478,581.56943 36.25,579.87056 37.483607,578.5496 39.636481,578.0286 41.428572,578.26341 Z"
       id="path4656"
       inkscape:connector-curvature="0"
       sodipodi:nodetypes="aaaaaaaaaaaaaaaaaaaaaaaaaaaaa" />
    <path
       style="fill:#000000;stroke:none;stroke-width:1px;stroke-linecap:butt;stroke-linejoin:miter;stroke-opacity:1;fill-opacity:1"
       d="M 138.57143,569.33484 C 140.90786,569.7354 142.69306,571.68398 144.82143,572.7277 147.01099,573.80143 149.2155,574.87027 151.51786,575.67413 153.72605,576.44511 156.06332,576.7877 158.30357,577.45984 160.62033,578.15493 163.00481,578.72048 165.17857,579.78127 166.49163,580.42204 167.61508,581.39446 168.83928,582.19199 170.17428,583.0617 171.5427,583.8808 172.85715,584.78127 174.19297,585.69639 175.60942,586.52566 176.78571,587.63841 177.846,588.64143 179.39287,589.58059 179.55357,591.03127 179.78071,593.08177 178.11086,594.98581 176.78572,596.56698 175.85663,597.67558 174.5464,598.41629 173.30357,599.15627 171.72469,600.09633 170.0694,600.96937 168.30357,601.4777 166.0261,602.13332 163.61644,602.49943 161.25,602.37056 158.43887,602.21747 155.63305,601.49241 153.03571,600.40627 150.54431,599.36442 148.2875,597.78468 146.16071,596.12056 143.93953,594.38258 141.92997,592.36455 140.08929,590.2277 138.65546,588.56316 137.38468,586.7518 136.25,584.87056 135.32197,583.33193 134.39927,581.75648 133.83929,580.04913 133.23696,578.21269 132.64756,576.25614 132.85714,574.33484 133.02795,572.769 133.40874,570.93862 134.64286,569.95984 135.68177,569.13588 137.26451,569.11079 138.57143,569.33484 Z"
       id="path4658"
       inkscape:connector-curvature="0"
       sodipodi:nodetypes="aaaaaaaaaaaaaaaaaaaaa" />
    <path
       style="fill:#000000;stroke:none;stroke-width:1px;stroke-linecap:butt;stroke-linejoin:miter;stroke-opacity:1;fill-opacity:1"
       d="M 220.46579,565.06614 C 222.69835,564.74158 224.84478,566.15388 227.03178,566.70764 230.3173,567.53954 233.59843,568.38868 236.88077,569.23302 239.49085,569.90443 242.14945,570.41088 244.70945,571.25333 247.38217,572.13287 250.05663,573.08373 252.53814,574.41005 255.50335,575.9949 258.29474,577.93288 260.87189,580.09216 262.94799,581.83164 265.35382,583.47247 266.554,585.90053 267.98623,588.79804 269.14347,592.49605 267.94296,595.49698 267.38628,596.88854 265.80191,597.72559 264.40743,598.2749 262.08866,599.18832 259.43434,599.18294 256.95755,598.90625 253.35924,598.50427 249.90693,597.10538 246.60349,595.62325 243.29737,594.13993 240.15166,592.25066 237.25958,590.06741 234.76445,588.18382 232.72697,585.76033 230.44105,583.62769 228.30661,581.63639 225.98758,579.83219 224.00133,577.69305 221.88124,575.40978 219.41717,573.23463 218.19295,570.36944 217.70882,569.23638 217.15191,567.81713 217.68787,566.70764 218.15571,565.73916 219.40143,565.22087 220.46579,565.06614 Z"
       id="path4660"
       inkscape:connector-curvature="0"
       sodipodi:nodetypes="aaaaaaaaaaaaaaaaa" />
    <path
       style="fill:#000000;stroke:none;stroke-width:1px;stroke-linecap:butt;stroke-linejoin:miter;stroke-opacity:1;fill-opacity:1"
       d="M 330.82496,553.70192 C 333.97489,554.62807 336.02083,557.7306 338.77991,559.5103 340.93399,560.89976 343.26352,561.99741 345.47217,563.29837 348.87441,565.3024 352.33977,567.21993 355.5737,569.48556 358.17398,571.30726 360.53498,573.44866 363.02357,575.42021 365.79561,577.61631 368.74133,579.60636 371.35733,581.98619 374.15403,584.53041 376.72748,587.32136 379.18601,590.19368 381.25525,592.6112 383.597,594.91091 384.99439,597.76983 386.31239,600.46634 387.42261,603.48504 387.26723,606.48239 387.15553,608.63718 386.63811,611.14553 384.99439,612.54331 383.52294,613.79459 381.24307,613.73368 379.31228,613.67973 375.61821,613.57651 372.01358,612.26683 368.57941,610.90181 365.49839,609.67717 362.51744,608.09526 359.86684,606.10359 356.7261,603.74363 354.25604,600.60165 351.53309,597.76983 349.42738,595.57992 347.39806,593.31774 345.3459,591.07757 342.85011,588.35314 340.21743,585.74455 337.89602,582.87008 335.71647,580.17126 333.83997,577.24107 331.83511,574.41005 330.05357,571.89437 327.96272,569.5643 326.53181,566.8339 325.40675,564.68712 324.35779,562.4135 324.00643,560.01538 323.71907,558.05408 322.98009,555.47889 324.38524,554.08073 325.9095,552.56404 328.762,553.09536 330.82496,553.70192 Z"
       id="path4662"
       inkscape:connector-curvature="0"
       sodipodi:nodetypes="aaaaaaaaaaaaaaaaaaaaa" />
  </g>
</svg>
