<?xml version="1.0" encoding="UTF-8" standalone="no"?>
<!-- Created with Inkscape (http://www.inkscape.org/) -->

<svg
   xmlns:dc="http://purl.org/dc/elements/1.1/"
   xmlns:cc="http://creativecommons.org/ns#"
   xmlns:rdf="http://www.w3.org/1999/02/22-rdf-syntax-ns#"
   xmlns:svg="http://www.w3.org/2000/svg"
   xmlns="http://www.w3.org/2000/svg"
   xmlns:sodipodi="http://sodipodi.sourceforge.net/DTD/sodipodi-0.dtd"
   xmlns:inkscape="http://www.inkscape.org/namespaces/inkscape"
   width="512"
   height="512"
   viewBox="0 0 512 512"
   version="1.1"
   id="svg8"
   inkscape:version="0.92.4 (5da689c313, 2019-01-14)"
   sodipodi:docname="特.svg">
  <defs
     id="defs2" />
  <sodipodi:namedview
     id="base"
     pagecolor="#ffffff"
     bordercolor="#666666"
     borderopacity="1.0"
     inkscape:pageopacity="0.0"
     inkscape:pageshadow="2"
     inkscape:zoom="1.4"
     inkscape:cx="68.670141"
     inkscape:cy="280.56259"
     inkscape:document-units="px"
     inkscape:current-layer="layer1"
     showgrid="false"
     units="px"
     inkscape:window-width="1920"
     inkscape:window-height="1017"
     inkscape:window-x="-8"
     inkscape:window-y="-8"
     inkscape:window-maximized="1">
    <inkscape:grid
       type="xygrid"
       id="grid3724" />
  </sodipodi:namedview>
  <metadata
     id="metadata5">
    <rdf:RDF>
      <cc:Work
         rdf:about="">
        <dc:format>image/svg+xml</dc:format>
        <dc:type
           rdf:resource="http://purl.org/dc/dcmitype/StillImage" />
        <dc:title></dc:title>
      </cc:Work>
    </rdf:RDF>
  </metadata>
  <g
     inkscape:label="圖層 1"
     inkscape:groupmode="layer"
     id="layer1"
     transform="translate(0,-161.53127)">
    <path
       style="fill:#000000;stroke:none;stroke-width:1px;stroke-linecap:butt;stroke-linejoin:miter;stroke-opacity:1;fill-opacity:1"
       d="M 94.701801,320.98803 C 98.50857,318.74002 103.75675,321.667 107.68583,323.69367 112.23189,326.03858 116.28326,329.75217 118.94546,334.12001 120.58238,336.80568 121.7229,340.0763 121.47084,343.21139 121.00296,349.0308 117.06691,354.0656 114.14723,359.12129 111.93213,362.95695 109.27641,366.54031 106.46949,369.9667 103.84285,373.17301 101.3682,376.68861 97.933218,379.00821 96.329406,380.09125 94.164617,382.16128 92.528307,381.128 90.516976,379.85791 91.816223,376.37901 92.025169,374.00943 92.558533,367.96072 95.282434,362.29837 96.469568,356.34337 97.367966,351.83675 99.345001,347.22134 98.489875,342.70631 97.640797,338.22321 92.178896,335.3715 91.671343,330.83702 91.289256,327.42344 91.744124,322.73463 94.701801,320.98803 Z"
       id="path3726"
       inkscape:connector-curvature="0"
       sodipodi:nodetypes="aaaaaaaaaaaaa" />
    <path
       style="fill:#000000;stroke:none;stroke-width:1px;stroke-linecap:butt;stroke-linejoin:miter;stroke-opacity:1;fill-opacity:1"
       d="M 145.20943,355.08068 C 152.05812,353.2953 157.77593,348.56092 164.14979,345.48423 172.32492,341.53805 179.93295,335.54253 188.89853,334.12001 196.09669,332.97792 208.02406,329.83397 210.61681,336.6454 213.18332,343.38787 202.06577,348.57701 196.22214,352.80784 191.09194,356.52213 184.71683,358.13223 178.797,360.38399 173.74616,362.30521 168.68354,364.33768 163.39218,365.43475 158.01168,366.55029 152.44913,367.45215 146.9772,366.94997 142.75816,366.56277 138.35263,365.71865 134.74475,363.49753 132.67011,362.22032 129.27423,360.48897 129.8046,358.11114 130.3135,355.82958 134.00813,355.94661 136.29176,355.44705 139.19809,354.81126 142.33058,355.83117 145.20943,355.08068 Z"
       id="path3728"
       inkscape:connector-curvature="0"
       sodipodi:nodetypes="aaaaaaaaaaaa" />
    <path
       style="fill:#000000;stroke:none;stroke-width:1px;stroke-linecap:butt;stroke-linejoin:miter;stroke-opacity:1;fill-opacity:1"
       d="M 73.214286,448.53127 C 84.899745,442.23857 97.436366,437.67036 109.64286,432.45984 124.56722,426.08917 139.60935,419.99705 154.64286,413.88841 161.77004,410.99239 168.65177,407.34978 176.07143,405.31698 181.3003,403.8844 187.01351,401.06107 192.14286,402.81698 194.93147,403.77159 198.7513,406.34741 198.21428,409.24556 197.0113,415.73762 186.37773,415.10651 180.35715,417.81698 173.64346,420.83949 166.76467,423.48179 160,426.38841 151.28193,430.13436 142.58769,433.93671 133.92857,437.81698 121.14332,443.54623 108.6393,449.91044 95.714286,455.31699 86.433479,459.19916 77.48721,467.23969 67.5,466.03127 63.336578,465.52751 57.077251,463.08169 57.142857,458.88842 57.242557,452.51598 67.602954,451.553 73.214286,448.53127 Z"
       id="path3730"
       inkscape:connector-curvature="0"
       sodipodi:nodetypes="aaaaaaaaaaaaa" />
    <path
       style="fill:#000000;stroke:none;stroke-width:1px;stroke-linecap:butt;stroke-linejoin:miter;stroke-opacity:1;fill-opacity:1"
       d="M 154.28571,225.31698 C 156.29654,230.60314 160.09017,235.02721 162.85714,239.95984 164.6421,243.14186 167.39765,246.01045 168.03571,249.6027 168.7831,253.81043 166.63028,258.0409 166.23068,262.29576 165.51795,269.88465 165.70823,277.53455 165.17857,285.13841 164.55543,294.08411 163.45281,302.99023 162.67857,311.92412 161.90522,320.84777 161.16978,329.77521 160.53571,338.70984 160.05866,345.43202 159.63885,352.15859 159.28571,358.88841 158.70501,369.95485 158.44089,381.03642 157.85714,392.1027 157.35447,401.63184 156.55423,411.14396 156.07143,420.67413 155.45056,432.92956 155.1432,445.1989 154.64286,457.45984 154.18859,468.59171 153.8717,479.73098 153.21429,490.8527 152.65423,500.32736 151.82268,509.78413 151.07143,519.24556 150.8445,522.10361 150.79299,524.98326 150.35714,527.81699 150.06956,529.68669 150.49467,532.06689 149.10714,533.35269 147.60675,534.74309 144.41374,532.7338 143.03572,534.24556 140.78696,536.71256 142.03388,540.94015 142.49999,544.24556 143.15975,548.9242 144.51361,553.7126 147.14286,557.63841 149.44246,561.072 152.46689,567.02861 156.42857,565.8527 162.64453,564.00768 160.66535,553.51794 161.60714,547.1027 162.78325,539.09136 161.81343,530.90748 162.14286,522.81698 163.12295,498.74691 164.82446,474.71068 166.42857,450.67413 166.85781,444.24225 167.35621,437.8151 167.85714,431.38841 168.87816,418.28915 170.10582,405.20616 171.07143,392.1027 172.1411,377.58706 172.62746,363.028 173.92857,348.53127 175.14962,334.92657 177.1254,321.39961 178.57143,307.81698 179.72388,296.99197 180.42511,286.11781 181.78571,275.31698 182.71898,267.90844 184.22699,260.58034 185.17857,253.17413 185.7658,248.60369 187.36007,243.9702 186.60714,239.42413 185.51485,232.82899 181.45645,227.05598 178.21429,221.20984 173.69039,213.05252 168.74529,205.05143 162.85715,197.81698 161.58184,196.25006 160.57795,193.29568 158.57143,193.53126 156.76664,193.74316 156.43344,196.5053 155.71429,198.17413 153.71433,202.81511 151.94923,207.76606 151.78571,212.81698 151.64822,217.06394 152.77495,221.34544 154.28571,225.31698 Z"
       id="path3732"
       inkscape:connector-curvature="0"
       sodipodi:nodetypes="aaaaaaaaaaaaaaaaaaaaaaaaaaaaaaaaaaa" />
    <path
       style="fill:#000000;stroke:none;stroke-width:1px;stroke-linecap:butt;stroke-linejoin:miter;stroke-opacity:1;fill-opacity:1"
       d="M 274.76149,321.74564 C 275.95372,318.66715 281.02301,319.64475 284.10541,318.46265 288.89421,316.62615 293.6155,314.61413 298.31002,312.54849 306.1038,309.11914 313.75273,305.36956 321.48105,301.79513 332.24956,296.81458 343.61567,292.972 353.80593,286.89538 356.33645,285.38639 358.03467,282.36778 360.877,281.59208 368.23083,279.58515 379.56564,277.6532 383.60543,284.11746 385.59505,287.30114 382.18631,291.8116 379.81735,294.72407 373.90505,301.99285 364.17051,305.10942 355.82623,309.37128 344.36778,315.22371 331.87396,318.82182 320.21836,324.27103 313.26056,327.52393 307.41181,334.18154 299.76277,334.87763 292.31106,335.55576 284.08285,333.05633 278.29703,328.31164 276.3749,326.73539 273.86378,324.06367 274.76149,321.74564 Z"
       id="path3734"
       inkscape:connector-curvature="0"
       sodipodi:nodetypes="aaaaaaaaaaaaa" />
    <path
       style="fill:#000000;stroke:none;stroke-width:1px;stroke-linecap:butt;stroke-linejoin:miter;stroke-opacity:1;fill-opacity:1"
       d="M 250.99221,388.26079 C 260.28739,385.90644 269.4312,382.98701 278.69398,380.50825 292.01047,376.9447 305.31579,373.30818 318.76269,370.27366 331.95376,367.29686 345.21237,364.55777 358.57143,362.45984 370.05134,360.65701 381.6214,359.44252 393.19199,358.36539 404.60508,357.30292 416.25839,358.27041 427.5,356.03127 437.7109,353.99743 446.71703,346.86578 457.09645,346.04921 465.19975,345.41171 474.06603,346.12436 481.13706,350.13316 486.86631,353.38126 494.49727,358.58249 493.97933,365.14802 493.59487,370.02159 487.54849,373.43149 482.81689,374.66089 478.43588,375.7992 473.98525,372.61557 469.50109,371.9981 463.46886,371.16745 457.3655,370.962 451.2868,370.60541 443.12202,370.12645 434.94795,369.76985 426.77084,369.6027 412.73112,369.3157 398.65329,368.65184 384.64286,369.6027 374.09398,370.31863 363.63166,372.08014 353.21429,373.88841 345.43645,375.2385 337.63368,376.61492 330.04332,378.78381 322.23432,381.01517 314.74385,384.24187 307.14286,387.1027 295.82429,391.36274 284.41516,395.42303 273.33683,400.27366 267.83498,402.68263 262.429,405.32275 257.14286,408.17413 252.79526,410.51925 249.31448,416.21178 244.39775,415.73541 238.4909,415.1631 235.62414,407.73894 231.11475,403.88098 227.96464,401.18594 223.10447,399.81682 221.49729,395.99537 220.67361,394.0369 220.44253,391.0281 222.0562,389.64602 226.5359,385.80927 233.83151,391.28386 239.71157,390.82206 243.55565,390.52015 247.25433,389.20755 250.99221,388.26079 Z"
       id="path3736"
       inkscape:connector-curvature="0"
       sodipodi:nodetypes="aaaaaaaaaaaaaaaaaaaaaaaaa" />
    <path
       style="fill:#000000;stroke:none;stroke-width:1px;stroke-linecap:butt;stroke-linejoin:miter;stroke-opacity:1;fill-opacity:1"
       d="M 296.07142,202.81698 C 298.08803,198.19507 306.12276,199.88346 311.07143,200.8527 317.92556,202.19514 323.87469,206.79374 329.28572,211.20984 333.69762,214.81053 338.31491,218.82315 340.53572,224.06699 343.07453,230.06172 343.18778,237.1055 342.14286,243.53127 341.37011,248.28332 337.8775,252.20802 336.4547,256.80745 334.99054,261.54059 334.36943,266.49867 333.57143,271.38841 331.77338,282.40587 329.90542,293.4567 329.28571,304.6027 328.71067,314.94541 329.71277,325.31602 329.82143,335.67413 329.87719,340.99072 329.88404,346.30779 329.88106,351.62467 329.87876,355.71263 330.43912,359.84738 329.82143,363.88841 329.20977,367.88999 330.27452,375.05967 326.25,375.49556 322.18248,375.93611 321.70102,368.62018 320.21241,364.8093 319.34133,362.57929 318.99663,360.17302 318.57143,357.81698 317.39915,351.32148 316.55751,344.75664 316.07143,338.17413 315.44005,329.62412 315.3797,321.03171 315.53572,312.45984 315.74404,301.01442 317.71653,289.61939 317.5,278.17413 317.40664,273.23947 316.35917,268.36279 316.09456,263.43434 315.79948,257.93844 315.92648,252.42784 315.89286,246.92413 315.86923,243.05515 316.48519,239.14042 315.89286,235.31698 315.29052,231.42893 313.94012,227.65301 312.32143,224.06698 311.15713,221.4876 309.68389,219.02589 307.95195,216.78777 305.89715,214.13245 303.04851,212.17681 300.89286,209.6027 299.11137,207.47539 294.96179,205.36018 296.07142,202.81698 Z"
       id="path3738"
       inkscape:connector-curvature="0"
       sodipodi:nodetypes="aaaaaaaaaaaaaaaaaaaaaaaa" />
    <path
       style="fill:#000000;stroke:none;stroke-width:1px;stroke-linecap:butt;stroke-linejoin:miter;stroke-opacity:1;fill-opacity:1"
       d="M 239.28571,454.78127 C 247.32247,452.86608 254.42377,448.15737 261.96429,444.78127 267.87222,442.13613 273.66001,439.21658 279.64286,436.74556 289.09554,432.84144 298.6516,429.14629 308.39285,426.03127 317.13961,423.23426 326.02297,420.82279 335,418.88841 344.72875,416.79205 354.77028,416.31855 364.46429,414.06699 370.46211,412.67391 376.19738,410.31166 382.14286,408.70984 388.63925,406.95959 395.06547,403.7434 401.78572,404.06698 407.50143,404.34219 412.88067,407.1186 418.03571,409.60269 422.1114,411.56667 426.53162,413.47915 429.46428,416.92413 431.6935,419.54279 433.69426,422.95159 433.57143,426.38841 433.46112,429.4748 431.90058,432.95939 429.28572,434.6027 424.59629,437.54978 418.20437,435.51463 412.67857,435.13841 406.29351,434.70368 400.05738,433.00812 393.75,431.92413 386.9024,430.74729 380.13277,428.99235 373.21429,428.3527 368.3537,427.90332 363.4452,427.90271 358.57143,428.17413 350.36684,428.63103 342.1568,429.55844 334.10714,431.20984 325.91347,432.89079 317.84998,435.2863 310,438.17413 301.84908,441.17267 294.20006,445.39196 286.25,448.88841 280.44055,451.44343 274.34553,453.39378 268.75,456.38841 264.42679,458.70212 260.8442,462.29209 256.42857,464.42413 252.52993,466.30655 248.43616,468.58173 244.10714,468.53127 238.44809,468.46532 232.75015,466.05632 228.1296,462.78832 225.63022,461.02058 221.08217,458.47343 222.32143,455.67413 224.6137,450.49625 233.77737,456.09393 239.28571,454.78127 Z"
       id="path3740"
       inkscape:connector-curvature="0"
       sodipodi:nodetypes="aaaaaaaaaaaaaaaaaaaaaaaaa" />
    <path
       style="fill:#000000;stroke:none;stroke-width:1px;stroke-linecap:butt;stroke-linejoin:miter;stroke-opacity:1;fill-opacity:1"
       d="M 324.34699,399.47272 C 322.8644,402.17511 326.71096,405.20202 328.37623,407.79584 329.58383,409.6768 331.5962,410.99256 332.64794,412.96491 334.72759,416.86495 335.40481,421.37446 336.42857,425.67413 337.71745,431.08727 338.75087,436.57509 339.39032,442.1027 340.25738,449.59777 340.21664,457.17035 340.56635,464.7073 340.91655,472.25477 341.26832,479.8029 341.48985,487.35524 341.65145,492.86481 341.48669,498.38459 341.78571,503.88841 342.21372,511.76634 343.47102,519.58357 343.92857,527.45984 344.32677,534.31441 344.63188,541.18782 344.4516,548.05158 344.34776,552.00522 344.07327,555.96336 343.5281,559.88062 343.01492,563.56792 342.52518,567.30577 341.32397,570.82949 340.82859,572.28268 340.16104,573.69851 339.28571,574.95984 337.32871,577.77983 335.3001,580.92564 332.22952,582.45984 328.61234,584.26714 324.21529,583.91475 320.17332,583.80175 316.58841,583.70153 313.09735,582.62792 309.56363,582.01604 305.54756,581.32065 301.5946,579.64119 297.52538,579.87318 295.6197,579.98183 292.44135,579.64523 292.03825,581.51096 291.63919,583.35801 294.78594,584.12212 296.31653,585.23033 299.55876,587.57784 303.28078,589.18935 306.63035,591.38098 309.86588,593.498 312.8822,595.93384 316.06399,598.1308 318.59879,599.88101 321.38272,601.28878 323.75525,603.25335 325.6055,604.78544 327.14574,606.65807 328.79859,608.40129 330.44705,610.13987 331.63492,612.41384 333.65809,613.69715 335.52795,614.88321 337.78575,615.68989 340,615.67413 342.27623,615.65793 344.66847,614.91452 346.48985,613.54921 349.72069,611.12738 351.70147,607.24843 353.33683,603.55665 355.46286,598.75722 355.94091,593.38139 356.97698,588.23541 357.91402,583.58132 358.88957,578.91367 359.30366,574.18428 359.59138,570.8982 359.47556,567.58685 359.40826,564.28888 359.34474,561.17574 359.24618,558.05739 358.92857,554.95984 358.47546,550.54081 357.37507,546.20537 356.89775,541.78888 356.12189,534.61006 355.92122,527.38005 355.5484,520.16905 355.18618,513.16315 354.69304,506.1562 354.68618,499.14095 354.68073,493.56189 355.26719,487.99511 355.3392,482.41652 355.44964,473.8595 354.99071,465.30329 355,456.74556 355.0084,449.00655 354.98441,441.2613 355.35714,433.53127 355.53686,429.80401 355.98177,426.09418 356.26269,422.37318 356.51996,418.96552 357.85796,415.44787 356.97698,412.14602 356.01143,408.52722 353.57617,405.23311 350.71429,402.81698 348.62676,401.05459 345.88167,400.15023 343.23967,399.45476 339.85055,398.56263 336.2748,398.44538 332.77048,398.48795 329.94374,398.52228 325.70673,396.99425 324.34699,399.47272 Z"
       id="path3742"
       inkscape:connector-curvature="0"
       sodipodi:nodetypes="aaaaaaaaaaaaaaaaaaaaaaaaaaaaaaaaaaaaaaaaaaa" />
    <path
       style="fill:#000000;stroke:none;stroke-width:1px;stroke-linecap:butt;stroke-linejoin:miter;stroke-opacity:1;fill-opacity:1"
       d="M 271.42857,489.78127 C 274.3394,489.99248 277.16483,490.87459 280,491.56698 283.42338,492.40303 287.30097,492.38995 290.17857,494.42413 292.79471,496.27348 295.05825,499.14536 295.71429,502.28127 296.32384,505.19498 296.34688,509.29545 293.92857,511.03127 290.80968,513.26997 286.1367,510.833 282.5,509.6027 279.36671,508.54271 276.53264,506.64227 273.92857,504.6027 271.77448,502.91556 269.6127,501.06164 268.21429,498.70984 266.6844,496.13692 263.8364,492.60272 265.53571,490.13841 266.65285,488.51835 269.46584,489.63886 271.42857,489.78127 Z"
       id="path3744"
       inkscape:connector-curvature="0"
       sodipodi:nodetypes="aaaaaaaaaa" />
  </g>
</svg>
