<?xml version="1.0" encoding="UTF-8" standalone="no"?>
<!-- Created with Inkscape (http://www.inkscape.org/) -->

<svg
   xmlns:dc="http://purl.org/dc/elements/1.1/"
   xmlns:cc="http://creativecommons.org/ns#"
   xmlns:rdf="http://www.w3.org/1999/02/22-rdf-syntax-ns#"
   xmlns:svg="http://www.w3.org/2000/svg"
   xmlns="http://www.w3.org/2000/svg"
   xmlns:sodipodi="http://sodipodi.sourceforge.net/DTD/sodipodi-0.dtd"
   xmlns:inkscape="http://www.inkscape.org/namespaces/inkscape"
   width="550"
   height="550"
   viewBox="0 0 550 550"
   version="1.1"
   id="svg8"
   inkscape:version="0.92.4 (5da689c313, 2019-01-14)"
   sodipodi:docname="骸.svg">
  <defs
     id="defs2" />
  <sodipodi:namedview
     id="base"
     pagecolor="#ffffff"
     bordercolor="#666666"
     borderopacity="1.0"
     inkscape:pageopacity="0.0"
     inkscape:pageshadow="2"
     inkscape:zoom="1.4"
     inkscape:cx="307.81542"
     inkscape:cy="340.86582"
     inkscape:document-units="px"
     inkscape:current-layer="layer1"
     showgrid="false"
     units="px"
     viewbox-height="550"
     inkscape:window-width="1920"
     inkscape:window-height="1001"
     inkscape:window-x="-9"
     inkscape:window-y="-9"
     inkscape:window-maximized="1"
     viewbox-width="550">
    <inkscape:grid
       type="xygrid"
       id="grid3732" />
  </sodipodi:namedview>
  <metadata
     id="metadata5">
    <rdf:RDF>
      <cc:Work
         rdf:about="">
        <dc:format>image/svg+xml</dc:format>
        <dc:type
           rdf:resource="http://purl.org/dc/dcmitype/StillImage" />
        <dc:title></dc:title>
      </cc:Work>
    </rdf:RDF>
  </metadata>
  <g
     inkscape:label="圖層 1"
     inkscape:groupmode="layer"
     id="layer1"
     transform="translate(0,-151.47915)">
    <path
       style="fill:#000000;stroke:none;stroke-width:1px;stroke-linecap:butt;stroke-linejoin:miter;stroke-opacity:1;fill-opacity:1"
       d="M 110.48544,304.61547 C 109.95783,311.61969 107.93296,318.45184 107.32871,325.44986 106.83254,331.19615 107.3057,336.99204 106.9499,342.74873 106.54015,349.37838 105.00025,355.93104 104.9296,362.57297 104.89052,366.2464 103.48892,370.71373 105.81348,373.55838 107.25486,375.32226 110.24952,376.25999 112.37947,375.45242 118.11153,373.27911 119.89359,365.58949 122.22846,359.92132 125.21574,352.66934 126.24386,344.71487 127.27922,336.94035 128.19706,330.04824 127.62561,323.02715 128.28937,316.10595 128.93887,309.33345 129.70771,302.54225 131.19356,295.9029 131.91466,292.68078 134.46059,289.71456 134.09775,286.43273 133.67725,282.62921 130.86079,279.40107 128.41564,276.45746 126.12569,273.70069 123.25672,271.39678 120.20815,269.51266 117.48143,267.82746 114.55104,266.11393 111.36932,265.7246 107.72911,265.27917 104.02765,266.45459 100.51018,267.49236 98.395115,268.11637 95.022179,268.01454 94.449263,270.14402 93.839054,272.4121 96.967248,274.15348 98.616142,275.82612 100.28268,277.51666 102.59494,278.46579 104.29825,280.11927 106.66123,282.41311 109.39225,284.71519 110.48544,287.82169 112.34366,293.1022 110.90593,299.03336 110.48544,304.61547 Z"
       id="path4758"
       inkscape:connector-curvature="0"
       sodipodi:nodetypes="aaaaaaaaaaaaaaaaaaaa" />
    <path
       style="fill:#000000;stroke:none;stroke-width:1px;stroke-linecap:butt;stroke-linejoin:miter;stroke-opacity:1;fill-opacity:1"
       d="M 138.76971,240.72332 C 141.41379,241.54769 143.96106,242.94002 146.72466,243.12243 153.53253,243.57179 160.20175,240.98418 166.92771,239.83944 173.79728,238.67026 180.63647,237.32587 187.50957,236.17763 192.88788,235.27911 198.74351,235.98537 203.67201,233.65225 206.06988,232.51711 207.10649,229.23637 209.60666,228.34896 213.81584,226.85494 218.91657,227.15085 222.99117,228.9803 227.71572,231.10157 230.92494,235.81841 233.85031,240.09198 235.57395,242.60997 237.11035,245.42034 237.63839,248.42573 238.19366,251.58609 238.50509,255.25491 236.88077,258.02218 234.88342,261.42496 230.00604,261.99547 227.03178,264.58817 224.06498,267.17438 221.33209,270.11676 219.2031,273.42701 216.28804,277.95948 214.36436,283.09584 212.63711,288.20049 210.48734,294.55384 209.48846,301.24027 207.96516,307.77219 205.98476,316.26411 203.13094,324.61335 202.15678,333.27855 201.54549,338.71596 203.25694,344.33361 202.15678,349.69353 201.64117,352.20552 201.13976,355.1765 199.12632,356.76459 197.9528,357.6902 196.05858,358.16009 194.70691,357.5222 192.86562,356.65325 192.32702,354.1482 191.67645,352.21891 190.95747,350.08674 190.8939,347.77449 190.79256,345.52665 190.60854,341.44463 190.85012,337.34014 191.29763,333.27855 191.81755,328.55992 193.0618,323.94844 193.82302,319.26268 194.81187,313.1758 195.4362,307.03228 196.47467,300.95367 197.4644,295.1604 198.41171,289.34463 199.88394,283.6548 201.22431,278.47455 202.89838,273.37459 204.80843,268.37625 206.73208,263.34232 210.29694,258.88291 211.37442,253.60276 211.91308,250.96309 213.09146,247.48628 211.24815,245.52154 208.7059,242.81182 203.82534,244.19284 200.13647,244.63766 194.54685,245.31167 189.52686,248.44073 184.1003,249.94096 177.78159,251.68784 171.25828,252.60809 164.9074,254.23411 161.08764,255.21209 157.29215,256.29551 153.54319,257.51711 149.79593,258.73816 146.37204,261.62942 142.43151,261.55772 139.07121,261.49658 135.65634,259.93688 133.0876,257.76964 129.90948,255.08827 128.15235,250.98808 126.52161,247.16304 125.32855,244.36462 122.38466,240.7283 124.24876,238.32421 125.69306,236.46153 128.99135,237.95853 131.31983,238.32421 133.89712,238.72896 136.27907,239.94678 138.76971,240.72332 Z"
       id="path4760"
       inkscape:connector-curvature="0"
       sodipodi:nodetypes="aaaaaaaaaaaaaaaaaaaaaaaaaaaaaaaaaaaaa" />
    <path
       style="fill:#000000;stroke:none;stroke-width:1px;stroke-linecap:butt;stroke-linejoin:miter;stroke-opacity:1;fill-opacity:1"
       d="M 159.2253,270.01774 C 162.05484,270.23484 164.26715,272.83696 166.17009,274.94224 168.34404,277.34734 170.23478,280.24434 170.96832,283.40227 171.76968,286.85221 171.19925,290.57364 170.33697,294.00886 169.60339,296.93136 167.9339,299.54036 166.5489,302.21635 165.2315,304.76176 163.62841,307.15019 162.25575,309.66624 160.80425,312.3268 159.64204,315.14493 158.08887,317.74745 156.59915,320.24365 154.90711,322.61818 153.16438,324.94479 151.72985,326.85993 150.05757,328.58876 148.61869,330.50063 146.92672,332.7488 145.85281,335.49951 143.82047,337.44543 142.56368,338.64878 141.10925,340.55442 139.40105,340.22334 137.92156,339.93659 136.89994,338.06102 136.7494,336.56154 136.49539,334.0314 138.87911,331.94298 139.90613,329.61675 141.84808,325.21817 143.59239,320.73287 145.58824,316.35849 147.4714,312.23109 150.00058,308.38407 151.52288,304.11039 152.68417,300.85021 153.42918,297.43444 153.92199,294.00887 154.37812,290.83827 154.29286,287.61285 154.42707,284.41242 154.53999,281.71973 154.40919,279.01265 154.67961,276.3312 154.82958,274.84411 154.54648,273.11198 155.43722,271.91178 156.27856,270.77814 157.8177,269.90974 159.2253,270.01774 Z"
       id="path4762"
       inkscape:connector-curvature="0"
       sodipodi:nodetypes="aaaaaaaaaaaaaaaaaaaa" />
    <path
       style="fill:#000000;stroke:none;stroke-width:1px;stroke-linecap:butt;stroke-linejoin:miter;stroke-opacity:1;fill-opacity:1"
       d="M 168.1904,313.51743 C 170.78038,314.32421 173.38597,315.15841 175.80987,316.37643 178.29984,317.62766 180.81938,318.98265 182.83761,320.90418 184.35604,322.34986 185.57646,324.13557 186.49941,326.01807 187.24391,327.53658 187.56307,329.23345 187.95151,330.87943 188.1478,331.71117 188.52252,332.56004 188.39345,333.40482 188.17169,334.8563 187.74699,336.80099 186.37314,337.31916 184.42783,338.05287 182.46754,335.88419 180.56477,335.04631 178.1185,333.96911 175.70785,332.80194 173.36743,331.51078 171.11725,330.26941 169.06808,328.68123 166.80144,327.47017 164.84129,326.42286 162.75614,325.6284 160.74053,324.69225 157.87167,323.35983 154.51414,322.75794 152.15423,320.65164 150.89935,319.53162 149.14969,318.00306 149.50258,316.35849 149.86506,314.66921 152.24626,314.21862 153.79573,313.4543 155.7056,312.51221 157.72862,311.51573 159.85664,311.434 162.71794,311.32411 165.45655,312.66585 168.1904,313.51743 Z"
       id="path4764"
       inkscape:connector-curvature="0"
       sodipodi:nodetypes="aaaaaaaaaaaaaaaa" />
    <path
       style="fill:#000000;stroke:none;stroke-width:1px;stroke-linecap:butt;stroke-linejoin:miter;stroke-opacity:1;fill-opacity:1"
       d="M 38.133259,360.04759 C 43.654825,360.81254 47.345282,366.43848 51.265242,370.40165 54.852869,374.02883 58.654441,377.81109 60.609153,382.52348 62.105367,386.13053 62.309244,390.23956 62.124382,394.14024 61.748335,402.07503 58.960621,409.72361 56.821081,417.37375 53.942311,427.66709 50.00543,437.63514 46.704236,447.80088 44.644584,454.14339 44.039747,461.12337 40.65864,466.87122 38.02671,471.34548 35.152464,477.89683 29.970187,478.19691 25.286384,478.46813 21.864094,473.00104 19.192898,469.14406 16.600816,465.40132 14.531305,460.81584 14.647212,456.26462 14.735082,452.81433 16.361726,449.32797 18.585845,446.68874 20.635987,444.25596 24.599817,444.0308 26.669694,441.61478 30.187066,437.50922 31.018588,431.71445 33.082496,426.71766 36.400509,418.68465 40.201038,410.80458 42.678945,402.474 43.879172,398.43891 45.813534,394.26513 45.204326,390.09963 44.671937,386.45939 41.861527,383.53966 39.99294,380.37056 38.498626,377.83622 36.602461,375.54514 35.202149,372.95767 33.486777,369.78805 29.472678,366.42491 30.809653,363.07805 31.789728,360.62462 35.516308,359.68504 38.133259,360.04759 Z"
       id="path4766"
       inkscape:connector-curvature="0"
       sodipodi:nodetypes="aaaaaaaaaaaaaaaaaaa" />
    <path
       style="fill:#000000;stroke:none;stroke-width:1px;stroke-linecap:butt;stroke-linejoin:miter;stroke-opacity:1;fill-opacity:1"
       d="M 94.701801,370.27539 C 100.2782,369.83642 105.89131,369.79748 111.44186,369.10441 117.01963,368.40795 122.54357,367.30038 128.03684,366.1085 136.0577,364.36821 143.86478,361.71223 151.90169,360.04759 160.71021,358.22312 169.68383,357.3062 178.54446,355.75444 184.78919,354.6608 190.94696,353.04801 197.23228,352.21891 203.88593,351.34122 210.67881,351.74348 217.30906,350.70368 223.89484,349.67085 230.12336,345.34834 236.7545,346.03172 240.0882,346.37528 243.65999,347.78451 245.84588,350.32487 248.13878,352.98961 249.43513,356.95566 248.87633,360.4264 248.46799,362.96259 246.71287,365.51117 244.45692,366.73985 240.49911,368.89543 235.44539,367.50456 230.94613,367.24493 225.97197,366.95789 221.07796,365.84529 216.17264,364.97209 212.62126,364.3399 209.16968,362.98602 205.56605,362.82551 200.23539,362.58806 194.93755,363.83238 189.65614,364.59328 181.0673,365.83068 172.56484,367.60755 164.02352,369.13896 157.28687,370.3468 150.52144,371.40853 143.82046,372.80077 136.9633,374.22546 130.06293,375.55289 123.36488,377.59899 119.61936,378.74315 115.70852,379.70299 112.37947,381.76587 108.42998,384.21321 106.58696,389.85175 102.15168,391.23605 98.174237,392.47745 93.660167,390.97975 89.777308,389.46828 86.306812,388.11734 82.990122,385.97658 80.559666,383.15483 78.483476,380.74438 75.264225,377.54295 76.392787,374.56853 77.44371,371.79873 81.723062,371.86485 84.600276,371.15926 87.883045,370.35422 91.332185,370.54064 94.701801,370.27539 Z"
       id="path4768"
       inkscape:connector-curvature="0"
       sodipodi:nodetypes="aaaaaaaaaaaaaaaaaaaaaaaaa" />
    <path
       style="fill:#000000;stroke:none;stroke-width:1px;stroke-linecap:butt;stroke-linejoin:miter;stroke-opacity:1;fill-opacity:1"
       d="M 108.33886,425.83378 C 108.28971,428.07484 110.20612,430.06191 111.88425,431.54806 113.04736,432.57811 114.85843,432.59187 116.11285,433.50853 117.90688,434.81951 119.62835,436.43081 120.62134,438.41858 121.62256,440.42284 121.82251,442.78641 121.84965,445.02667 121.89458,448.73531 120.54986,452.33281 120.08188,456.01208 118.54568,468.08976 117.81258,480.25608 116.67262,492.37758 115.83344,501.30084 115.1366,510.23876 114.14724,519.14662 113.12145,528.38251 112.46351,537.69325 110.6117,546.79955 110.1338,549.14962 109.79052,551.60817 108.66446,553.72553 107.7645,555.41775 105.56745,556.29764 104.94492,558.11037 103.35191,562.74896 104.05136,568.14457 105.56094,572.81097 106.43047,575.49885 108.33958,577.78534 110.2329,579.88204 111.83655,581.65796 113.46803,585.0108 115.78873,584.42773 118.88172,583.65062 118.80672,578.71233 119.45054,575.58888 120.68272,569.61097 119.37763,563.37477 119.70308,557.27987 120.06597,550.48377 121.04841,543.73419 121.59711,536.95056 122.29098,528.37208 122.55125,519.75961 123.36488,511.19166 123.92604,505.28241 124.92352,499.42064 125.51145,493.51399 126.6948,481.62542 126.06009,469.51734 128.28938,457.77985 129.11912,453.41115 130.91034,449.28121 132.20372,445.02667 133.39271,441.1155 136.64718,437.26945 135.73925,433.28365 135.00477,430.05932 131.73009,427.89308 129.04699,425.96004 126.35628,424.02153 123.13661,422.85695 119.95561,421.91943 117.3404,421.14866 114.37668,419.57418 111.87439,420.65674 109.95648,421.48648 108.38468,423.74458 108.33886,425.83378 Z"
       id="path4770"
       inkscape:connector-curvature="0"
       sodipodi:nodetypes="aaaaaaaaaaaaaaaaaaaaaaaaaa" />
    <path
       style="fill:#000000;stroke:none;stroke-width:1px;stroke-linecap:butt;stroke-linejoin:miter;stroke-opacity:1;fill-opacity:1"
       d="M 135.86552,414.09075 C 143.93324,414.23091 150.5754,407.4363 158.08887,404.4943 162.45208,402.78582 166.68119,400.25305 171.34713,399.82235 173.28887,399.64311 175.25781,400.16909 177.12727,400.72374 178.56449,401.15015 180.09953,401.58165 181.2299,402.56637 182.88774,404.01057 184.17846,406.02817 184.73165,408.15611 185.77081,412.15339 184.37606,416.40953 184.10031,420.53047 183.62378,427.65207 182.78688,434.7469 182.33253,441.86995 181.61377,453.13839 181.66469,464.45056 180.81731,475.71006 180.00734,486.47249 178.49607,497.17079 177.40804,507.90867 176.48299,517.03806 175.98534,526.2156 174.75639,535.30906 173.70361,543.09899 174.8525,551.85833 170.71578,558.54256 168.90436,561.4695 163.66533,561.46365 162.39996,564.66476 160.6294,569.1439 163.9759,574.17308 165.03367,578.87188 166.7265,586.39174 167.86815,594.16439 170.96832,601.22151 172.6354,605.01641 173.60248,610.8579 177.66057,611.70184 180.24356,612.23901 183.00218,609.61936 184.22657,607.28243 188.68057,598.78127 183.9109,588.09015 183.84777,578.49308 183.77633,567.63417 183.30683,556.76132 183.84776,545.91566 184.52203,532.39659 186.55326,518.97943 187.88837,505.50956 189.54446,488.80139 190.26855,471.97688 192.81286,455.38074 194.49409,444.41441 196.63061,433.48423 199.6314,422.80331 201.09329,417.59989 205.92097,412.86078 205.06097,407.52476 204.14466,401.83937 198.03401,398.39874 194.45437,393.8877 191.62684,390.32446 190.16886,384.76259 185.86807,383.2811 177.37319,380.35489 168.32816,387.19344 159.6041,389.34201 152.50662,391.08998 145.23215,392.32357 138.3909,394.89785 135.21982,396.09109 132.6623,399.02956 129.29953,399.44354 126.2184,399.82284 122.55337,395.38923 120.20815,397.42323 118.54983,398.86148 119.7111,402.03619 120.71323,403.98923 122.29517,407.07225 125.7525,408.80897 128.66818,410.68149 130.90187,412.11601 133.21127,414.04464 135.86552,414.09075 Z"
       id="path4772"
       inkscape:connector-curvature="0"
       sodipodi:nodetypes="aaaaaaaaaaaaaaaaaaaaaaaaaaaaaaaa" />
    <path
       style="fill:#000000;stroke:none;stroke-width:1px;stroke-linecap:butt;stroke-linejoin:miter;stroke-opacity:1;fill-opacity:1"
       d="M 136.25154,451.47915 C 141.67159,450.34547 147.33503,448.72041 152.77421,449.75843 155.9864,450.37145 159.16997,451.97395 161.4719,454.29668 164.39894,457.25015 167.52237,461.26688 167.14286,465.40772 166.89395,468.12355 164.75953,471.07034 162.1608,471.89757 157.91525,473.24902 153.58208,469.46112 149.39032,467.95105 144.26502,466.10469 139.38736,463.62077 134.28571,461.71002 131.57287,460.69397 128.30741,460.75102 126.04976,458.93583 124.98034,458.07598 123.44462,456.69177 123.92857,455.40772 125.44908,451.3734 132.03152,452.36183 136.25154,451.47915 Z"
       id="path4774"
       inkscape:connector-curvature="0"
       sodipodi:nodetypes="aaaaaaaaaa" />
    <path
       style="fill:#000000;stroke:none;stroke-width:1px;stroke-linecap:butt;stroke-linejoin:miter;stroke-opacity:1;fill-opacity:1"
       d="M 127.23214,505.31844 C 131.41967,504.95489 135.48596,506.92789 139.64286,507.55058 142.60732,507.99464 145.63473,508.02112 148.57142,508.62201 151.27494,509.17518 154.74719,508.8269 156.51786,510.94344 158.66894,513.51472 158.10658,517.63118 157.58929,520.94344 157.02182,524.57701 156.6257,529.9058 153.125,531.03272 149.37888,532.23864 146.43476,526.87246 142.94643,525.05058 139.66494,523.33671 136.30839,521.74729 132.85714,520.40772 130.76003,519.59375 128.48513,519.26571 126.42857,518.35415 123.66114,517.12751 120.1722,516.36978 118.57143,513.80058 117.65643,512.33202 117.27273,510.07369 118.21429,508.62201 119.95633,505.93618 124.04283,505.59533 127.23214,505.31844 Z"
       id="path4776"
       inkscape:connector-curvature="0"
       sodipodi:nodetypes="aaaaaaaaaaaa" />
    <path
       style="fill:#000000;stroke:none;stroke-width:1px;stroke-linecap:butt;stroke-linejoin:miter;stroke-opacity:1;fill-opacity:1"
       d="M 319.19643,243.08629 C 323.58462,242.24634 328.17619,242.92467 332.58929,243.62201 337.59648,244.41322 343.00055,244.9378 347.23215,247.72915 351.98508,250.8644 355.92106,255.71126 357.94643,261.03272 359.66355,265.5443 359.00644,270.6821 358.66072,275.497 358.30456,280.45723 357.92963,285.64424 355.80358,290.13986 354.56544,292.75795 353.08599,296.16886 350.26785,296.83629 347.60961,297.46585 344.79323,295.36588 342.76786,293.53272 340.43597,291.42213 339.07322,288.31729 338.125,285.31844 337.02504,281.83972 338.4079,277.81338 337.05357,274.42558 335.77844,271.23587 333.54587,268.24541 330.71429,266.30058 325.99585,263.05978 319.35567,263.95801 314.28571,261.30058 312.50312,260.36623 310.53217,259.30926 309.55357,257.55057 308.41732,255.50859 308.09754,252.83019 308.75,250.58629 309.28468,248.74742 310.84632,247.2872 312.36607,246.122 314.34333,244.60603 316.74933,243.55469 319.19643,243.08629 Z"
       id="path4778"
       inkscape:connector-curvature="0"
       sodipodi:nodetypes="aaaaaaaaaaaaaaaa" />
    <path
       style="fill:#000000;stroke:none;stroke-width:1px;stroke-linecap:butt;stroke-linejoin:miter;stroke-opacity:1;fill-opacity:1"
       d="M 296.60714,308.80058 C 305.32817,306.77426 314.02533,304.54602 322.5,301.65772 326.82107,300.18504 330.90107,298.07395 335.17857,296.47915 339.35861,294.92069 343.52149,293.24399 347.85714,292.19343 357.5685,289.84031 367.60113,289.09301 377.5,287.72915 390.81135,285.89513 404.14048,284.17096 417.5,282.72915 427.30499,281.67096 437.23282,281.64937 446.96429,280.05058 451.25245,279.34607 455.29763,277.07465 459.64286,277.01486 465.42103,276.93536 471.19977,278.54818 476.60714,280.58629 482.61771,282.85176 488.86521,285.49431 493.39286,290.05058 495.98469,292.6588 499.12988,296.0361 498.75,299.69343 498.38381,303.21901 494.96832,306.16876 491.78571,307.72915 485.95131,310.58969 478.80328,309.25723 472.32143,308.80057 465.60241,308.3272 459.09684,306.23247 452.5,304.87201 443.31845,302.9785 434.31985,299.99239 425.00001,298.97914 414.22997,297.80823 403.33011,298.52974 392.5,298.80057 382.84529,299.04201 373.16606,299.30555 363.57143,300.40772 356.3674,301.23527 349.11983,302.18167 342.14286,304.15772 336.10218,305.86858 330.39141,308.59794 324.64286,311.12201 319.74317,313.27336 315.03158,315.83163 310.17858,318.08629 304.50016,320.72444 298.62821,322.94915 293.03571,325.76487 288.5844,328.00603 284.3551,330.66346 280,333.08629 277.08988,334.70525 274.55764,338.29419 271.25,337.90772 266.14359,337.31107 263.65794,330.97294 259.82143,327.55058 257.39786,325.38863 253.68603,324.14544 252.5,321.12201 251.01406,317.33403 250.51815,311.45139 253.75,308.97915 256.38484,306.9636 260.30034,310.03423 263.57143,310.58629 267.68209,311.28005 271.72419,312.76091 275.89286,312.72915 282.9205,312.6756 289.76165,310.39112 296.60714,308.80058 Z"
       id="path4780"
       inkscape:connector-curvature="0"
       sodipodi:nodetypes="aaaaaaaaaaaaaaaaaaaaaaaaaaaaa" />
    <path
       style="fill:#000000;stroke:none;stroke-width:1px;stroke-linecap:butt;stroke-linejoin:miter;stroke-opacity:1;fill-opacity:1"
       d="M 299.46428,350.76486 C 303.22475,349.48571 307.40782,352.49237 310.71428,354.69343 315.97724,358.19692 321.757,362.69345 323.39286,368.80058 324.73099,373.79619 322.81722,379.5312 320.17857,383.97915 317.37864,388.69896 311.90514,391.19311 307.67857,394.69344 302.68835,398.82619 297.609,402.8513 292.5,406.83629 286.10265,411.82619 279.93136,417.1527 273.125,421.56844 270.09422,423.53471 266.89496,425.25154 263.61832,426.77322 261.58701,427.71656 259.57492,429.45653 257.35066,429.19428 255.99163,429.03404 254.12892,428.22411 253.97016,426.86492 253.54516,423.22624 258.6402,421.18831 261.33928,418.71129 265.22052,415.14938 269.80581,412.43706 273.92857,409.15772 277.93074,405.9743 282.09582,402.9499 285.71429,399.33629 289.72104,395.33493 293.37431,390.94963 296.60714,386.30058 299.07294,382.75457 301.63974,379.13783 303.03571,375.05058 304.00703,372.20666 305.01997,369.03614 304.28571,366.12201 303.20363,361.82741 296.54741,359.83495 296.42857,355.40772 296.37895,353.55931 297.71371,351.36032 299.46428,350.76486 Z"
       id="path4782"
       inkscape:connector-curvature="0"
       sodipodi:nodetypes="aaaaaaaaaaaaaaaaaa" />
    <path
       style="fill:#000000;stroke:none;stroke-width:1px;stroke-linecap:butt;stroke-linejoin:miter;stroke-opacity:1;fill-opacity:1"
       d="M 244.82143,418.44344 C 250.28167,417.54225 255.17369,422.43121 260.53571,423.80058 267.96924,425.69898 275.61443,426.67869 283.21429,427.72915 287.73682,428.35426 292.27669,428.9442 296.83802,429.13978 303.30373,429.41701 309.86925,427.71974 316.25,428.80058 323.22793,429.98258 331.60175,430.73857 336.17232,436.14213 337.05225,437.18243 337.41548,438.88582 336.92993,440.1589 335.90655,442.84216 332.85382,444.59375 330.10089,445.41143 325.65095,446.73318 320.83272,444.81934 316.21718,444.3236 311.09937,443.77391 306.04377,442.69839 300.9176,442.23305 296.69618,441.84984 292.44823,441.86027 288.21429,441.65772 284.67007,441.48817 281.13099,441.08152 277.58294,441.12201 273.70977,441.16622 269.84886,441.59531 265.99375,441.97154 261.96136,442.36507 257.87035,444.38013 253.92857,443.44344 249.75254,442.45109 245.95921,439.60049 243.21429,436.30058 240.31533,432.81548 236.7132,428.18707 237.85714,423.80058 238.59621,420.96657 241.93173,418.92037 244.82143,418.44344 Z"
       id="path4784"
       inkscape:connector-curvature="0"
       sodipodi:nodetypes="aaaaaaaaaaaaaaaaa" />
    <path
       style="fill:#000000;stroke:none;stroke-width:1px;stroke-linecap:butt;stroke-linejoin:miter;stroke-opacity:1;fill-opacity:1"
       d="M 361.38207,332.26839 C 365.76652,332.90503 368.68277,337.39191 371.73614,340.60215 375.39154,344.44535 378.44842,348.87654 381.08005,353.4816 383.90448,358.42403 388.58606,363.48808 387.89858,369.13896 387.02831,376.29229 379.15987,380.59959 374.76659,386.31156 371.32769,390.78268 367.61561,395.05311 364.41253,399.69608 356.17326,411.63917 349.40568,424.53504 341.6841,436.81918 335.07334,447.33613 328.64129,457.98308 321.48105,468.13391 315.91031,476.03136 309.8851,483.60386 303.80338,491.11489 298.16682,498.07612 292.96657,505.50223 286.37825,511.57047 279.59072,517.82219 271.61141,522.66094 263.90235,527.73291 259.80179,530.43076 255.61248,533.01057 251.27544,535.30905 245.61818,538.30721 239.95847,541.47093 233.85031,543.39028 231.07765,544.26153 227.63701,546.58349 225.26402,544.90551 224.42786,544.31425 224.43073,542.84512 224.75894,541.87505 225.94232,538.37742 230.01966,536.68188 232.84016,534.29891 236.8784,530.8871 241.30581,527.96309 245.46707,524.70245 249.89615,521.23196 254.36183,517.79814 258.59905,514.09585 261.738,511.35318 264.72977,508.44381 267.69042,505.50956 272.00359,501.23486 276.32946,496.95724 280.31733,492.37757 285.94644,485.91309 290.77451,478.78847 296.22723,472.17452 299.83409,467.79953 303.85477,463.76841 307.33891,459.29508 312.20365,453.04916 316.40228,446.31173 320.97597,439.84964 326.41444,432.16572 332.09155,424.64916 337.39095,416.86867 342.70115,409.07234 347.95716,401.22754 352.79578,393.13009 355.84904,388.02045 358.84103,382.85547 361.38207,377.47272 362.34967,375.42303 363.25689,373.3305 363.90746,371.15927 364.79344,368.20235 366.08423,365.15667 365.76289,362.08664 365.29391,357.60616 362.51973,353.65353 360.37192,349.69353 357.82287,344.99375 349.95858,341.41846 351.53309,336.309 352.5781,332.91783 357.87036,331.75848 361.38207,332.26839 Z"
       id="path4786"
       inkscape:connector-curvature="0"
       sodipodi:nodetypes="aaaaaaaaaaaaaaaaaaaaaaaaaaaaaaa" />
    <path
       style="fill:#000000;fill-opacity:1;stroke:none;stroke-width:1px;stroke-linecap:butt;stroke-linejoin:miter;stroke-opacity:1"
       d="M 417.193,414.84836 C 423.30439,412.20065 430.81557,417.59477 435.88082,421.91943 439.49382,425.00417 442.84109,429.54436 442.95189,434.2938 443.05111,438.54683 440.07003,442.57037 437.14351,445.65802 432.99184,450.03827 426.32302,451.14001 421.48615,454.74939 412.97059,461.10389 405.87698,469.17403 398.29597,476.61868 393.67802,481.15357 389.00371,485.64882 384.72018,490.50084 382.08351,493.48745 379.94678,496.89504 377.27711,499.85219 369.43488,508.53891 360.58719,516.26244 352.17866,524.40224 342.19937,534.0626 333.04047,544.68278 322.09073,553.22748 318.4679,556.05457 314.72933,558.96966 310.42013,560.56594 305.61535,562.34581 297.93176,567.18132 295.21708,562.83571 293.02875,559.33268 299.74126,555.91603 302.23649,552.62456 306.08905,547.54265 310.18338,542.63564 314.4892,537.93161 320.86566,530.96543 327.97847,524.70831 334.56228,517.93776 341.01736,511.2996 347.32683,504.52042 353.60723,497.71677 358.70768,492.19138 363.7271,486.59151 368.74157,480.98798 373.13361,476.08 377.31234,470.9782 381.83766,466.19283 387.45361,460.25416 394.15837,455.32471 399.26279,448.94101 403.72633,443.35881 407.35825,437.11432 410.62701,430.75827 413.25086,425.65624 411.92864,417.1291 417.193,414.84836 Z"
       id="path4788"
       inkscape:connector-curvature="0"
       sodipodi:nodetypes="aaaaaaaaaaaaaaaaaaaaa" />
    <path
       style="fill:#000000;fill-opacity:1;stroke:none;stroke-width:1px;stroke-linecap:butt;stroke-linejoin:miter;stroke-opacity:1"
       d="M 363.14984,487.32681 C 362.73021,492.84948 370.97725,495.18636 374.51406,499.44864 379.24479,505.14974 383.15986,511.48338 387.64604,517.37885 391.67444,522.67273 395.46481,528.18857 400.02041,533.03621 404.51099,537.81466 409.73417,541.84848 414.66762,546.1682 420.4173,551.20262 426.23559,556.159 432.09275,561.06795 436.76831,564.98659 440.81622,569.88211 446.23489,572.6847 450.06531,574.66583 454.4016,576.06055 458.71386,576.09768 465.0195,576.15198 470.82582,572.46675 477.04454,571.42201 483.04241,570.41437 489.18044,570.55904 495.22729,569.90678 502.23462,569.15092 509.64646,569.7524 516.18795,567.12886 521.21991,565.11074 525.66396,561.53582 529.31993,557.53241 530.64391,556.0826 533.09721,554.29745 532.35039,552.48165 530.7972,548.70523 524.49563,550.19771 520.4811,549.45119 512.73071,548.00996 504.76705,547.99299 496.99505,546.67327 490.10876,545.50394 483.28014,543.95829 476.53946,542.12759 468.85798,540.04138 461.33842,537.39161 453.81103,534.80398 445.92833,532.0942 437.76646,529.97324 430.32498,526.21768 424.73897,523.39854 419.80862,519.4303 414.66762,515.86362 409.96394,512.60034 405.46345,509.05151 400.77802,505.76209 395.61864,502.13993 390.28215,498.77464 385.12066,495.15549 380.77789,492.11042 377.07212,488.00119 372.24121,485.81158 370.51142,485.02755 366.68537,484.54889 366.68537,484.54889 366.68537,484.54889 363.26339,485.83235 363.14984,487.32681 Z"
       id="path4790"
       inkscape:connector-curvature="0"
       sodipodi:nodetypes="aaaaaaaaaaaaaaaaaaaaaaca" />
  </g>
</svg>
