<?xml version="1.0" encoding="UTF-8" standalone="no"?>
<!-- Created with Inkscape (http://www.inkscape.org/) -->

<svg
   xmlns:dc="http://purl.org/dc/elements/1.1/"
   xmlns:cc="http://creativecommons.org/ns#"
   xmlns:rdf="http://www.w3.org/1999/02/22-rdf-syntax-ns#"
   xmlns:svg="http://www.w3.org/2000/svg"
   xmlns="http://www.w3.org/2000/svg"
   xmlns:sodipodi="http://sodipodi.sourceforge.net/DTD/sodipodi-0.dtd"
   xmlns:inkscape="http://www.inkscape.org/namespaces/inkscape"
   width="512"
   height="512"
   viewBox="0 0 512 512"
   version="1.1"
   id="svg8"
   inkscape:version="0.92.4 (5da689c313, 2019-01-14)"
   sodipodi:docname="執.svg">
  <defs
     id="defs2" />
  <sodipodi:namedview
     id="base"
     pagecolor="#ffffff"
     bordercolor="#666666"
     borderopacity="1.0"
     inkscape:pageopacity="0.0"
     inkscape:pageshadow="2"
     inkscape:zoom="1.4"
     inkscape:cx="203.82472"
     inkscape:cy="281.6022"
     inkscape:document-units="px"
     inkscape:current-layer="layer1"
     showgrid="false"
     units="px"
     inkscape:window-width="1920"
     inkscape:window-height="1017"
     inkscape:window-x="-8"
     inkscape:window-y="-8"
     inkscape:window-maximized="1">
    <inkscape:grid
       type="xygrid"
       id="grid3724" />
  </sodipodi:namedview>
  <metadata
     id="metadata5">
    <rdf:RDF>
      <cc:Work
         rdf:about="">
        <dc:format>image/svg+xml</dc:format>
        <dc:type
           rdf:resource="http://purl.org/dc/dcmitype/StillImage" />
        <dc:title></dc:title>
      </cc:Work>
    </rdf:RDF>
  </metadata>
  <g
     inkscape:label="圖層 1"
     inkscape:groupmode="layer"
     id="layer1"
     transform="translate(0,-161.53127)">
    <path
       style="fill:#000000;stroke:none;stroke-width:1px;stroke-linecap:butt;stroke-linejoin:miter;stroke-opacity:1;fill-opacity:1"
       d="M 95.892857,277.28127 C 99.050913,277.66762 101.97872,279.14118 105,280.13841 108.75557,281.37801 112.27245,283.6583 116.21039,284.02366 121.3177,284.49751 126.35517,282.50043 131.42857,281.74555 139.87984,280.48807 148.32669,279.19978 156.78571,277.99555 162.4362,277.19114 168.18127,276.92488 173.75,275.67412 177.22152,274.8944 180.4247,273.07815 183.92857,272.45984 189.32653,271.5073 195.0777,270.27148 200.35714,271.74555 203.45779,272.61128 207.43182,274.03025 208.39286,277.1027 209.2145,279.72948 207.49453,283.04729 205.35715,284.78127 201.23065,288.12893 194.88115,286.56814 189.64285,287.45984 183.6907,288.47306 177.70531,289.30681 171.78571,290.49555 164.29712,291.99937 156.93219,294.07074 149.46429,295.67413 144.6592,296.7058 139.47666,296.50328 135,298.53127 131.44292,300.14268 129.32793,304.19392 125.71429,305.67413 122.99512,306.78795 119.77484,307.60304 116.96429,306.74555 113.57402,305.7112 111.55692,302.15941 108.92857,299.78127 106.74295,297.80371 104.78317,295.57391 102.5,293.70984 98.329822,290.30513 91.513747,289.32497 89.285715,284.42412 88.34443,282.35365 88.356497,279.21061 90.000001,277.63841 91.422017,276.2781 93.93953,277.0423 95.892857,277.28127 Z"
       id="path4562"
       inkscape:connector-curvature="0"
       sodipodi:nodetypes="aaaaaaaaaaaaaaaaaaaaa" />
    <path
       style="fill:#000000;stroke:none;stroke-width:1px;stroke-linecap:butt;stroke-linejoin:miter;stroke-opacity:1;fill-opacity:1"
       d="M 135.61298,233.10476 C 136.03147,235.15947 139.11322,235.48012 140.53748,237.0191 143.09065,239.77793 145.55842,242.83324 146.85093,246.36301 148.43796,250.69709 148.12672,255.51862 148.34078,260.12916 148.56334,264.92262 148.43246,269.73466 148.12464,274.5234 147.93896,277.41199 147.25495,280.25895 147.14229,283.1513 147.06417,285.15669 147.25435,287.1639 147.356,289.16823 147.55042,293.00178 147.82107,296.8314 148.11361,300.65871 148.48391,305.50316 148.96618,310.33842 149.37631,315.17965 149.72211,319.2616 149.66538,323.39516 150.38646,327.42776 150.99402,330.82547 151.40723,334.43214 153.16438,337.40301 154.51292,339.68303 156.21607,342.64584 158.84649,342.95885 161.13301,343.23094 163.28542,341.17405 164.78114,339.42332 166.69513,337.18301 167.32057,334.06705 168.06413,331.21583 169.29591,326.49248 169.53253,321.5576 169.95817,316.69488 170.28514,312.9594 170.32312,309.20408 170.46324,305.45694 170.56867,302.63764 170.61307,299.8163 170.71578,296.99691 170.85841,293.08154 170.94843,289.16236 171.22086,285.25389 171.55604,280.44504 171.90474,275.62788 172.60982,270.85921 173.14347,267.24998 174.39688,263.75706 174.75639,260.12634 174.95547,258.11587 175.04758,256.06463 174.75639,254.06542 174.22472,250.41514 173.28551,246.73985 171.59966,243.45883 169.96825,240.28374 167.57857,237.50203 165.03367,234.9988 162.63315,232.63758 160.00779,230.35306 156.95245,228.93788 153.85797,227.50457 150.3875,226.66908 146.97719,226.66503 143.91389,226.6614 140.45528,226.83745 138.0121,228.68535 136.67522,229.69649 135.27845,231.46228 135.61298,233.10476 Z"
       id="path4564"
       inkscape:connector-curvature="0"
       sodipodi:nodetypes="aaaaaaaaaaaaaaaaaaaaaaaaaaa" />
    <path
       style="fill:#000000;stroke:none;stroke-width:1px;stroke-linecap:butt;stroke-linejoin:miter;stroke-opacity:1;fill-opacity:1"
       d="M 45.539167,365.11568 C 52.665334,363.23839 59.581944,360.63238 66.670068,358.61621 75.374751,356.14022 84.157768,353.94561 92.936211,351.74538 101.25672,349.65993 109.59716,347.65136 117.96069,345.74574 125.91015,343.93447 133.83282,341.95855 141.86887,340.5814 148.19561,339.49718 154.596,338.89458 160.9714,338.14793 169.91315,337.10073 178.87421,336.22537 187.8271,335.2781 199.54717,334.03805 211.26613,332.78672 222.99117,331.59463 228.96608,330.98716 234.96461,330.59203 240.92138,329.82687 245.56413,329.2305 250.19854,326.72164 254.79085,327.62799 257.60264,328.18293 260.4664,329.76921 262.13459,332.09971 263.48979,333.99295 264.8065,336.8976 263.64981,338.91824 261.80758,342.13648 256.75951,342.03782 253.06334,342.33648 249.58283,342.61771 246.19656,340.88903 242.70709,340.75997 235.1972,340.4822 227.7274,341.99708 220.22902,342.4971 212.98903,342.9799 205.72445,343.09567 198.49498,343.71646 193.69265,344.12883 188.924,344.87073 184.13094,345.37963 176.80418,346.15754 169.43548,346.55115 162.12948,347.50454 154.93879,348.44288 147.75316,349.51477 140.66374,351.04007 132.99826,352.68931 125.43647,354.81795 117.93531,357.10098 111.97594,358.91476 106.14213,361.11821 100.25764,363.1619 95.45275,364.83065 90.629275,366.4494 85.862966,368.22535 81.241436,369.94735 76.622228,371.68729 72.095921,373.64595 67.833383,375.49048 63.492962,377.23055 59.499652,379.60226 56.714344,381.25651 54.022822,383.12615 51.647766,385.32924 50.089805,386.77439 49.190416,388.876 47.515242,390.18348 45.167158,392.01617 42.485293,394.06114 39.507988,394.15012 36.290103,394.24629 33.188015,392.31979 30.613134,390.38743 28.04867,388.46289 26.435845,385.51399 24.539528,382.92858 22.538726,380.20072 19.933532,377.6915 18.958307,374.45215 18.285941,372.21879 17.176931,368.98158 18.94036,367.45505 21.378537,365.34442 25.288607,368.97923 28.511428,368.86568 34.31975,368.66103 39.918985,366.59623 45.539167,365.11568 Z"
       id="path4566"
       inkscape:connector-curvature="0"
       sodipodi:nodetypes="aaaaaaaaaaaaaaaaaaaaaaaaaaaaaaaaa" />
    <path
       style="fill:#000000;stroke:none;stroke-width:1px;stroke-linecap:butt;stroke-linejoin:miter;stroke-opacity:1;fill-opacity:1"
       d="M 106.69737,373.7685 C 108.79929,374.59551 110.76126,375.74353 112.75828,376.79896 114.9739,377.96992 117.15344,379.20871 119.32427,380.46076 121.53153,381.73382 124.50419,382.23699 125.89026,384.3751 127.45789,386.79327 126.57854,390.09759 126.90041,392.9614 127.16517,395.31708 127.8259,397.66791 127.65803,400.03247 127.452,402.93454 127.95341,406.91096 125.51145,408.4925 123.25214,409.95575 119.99793,408.23712 117.5565,407.10353 114.8193,405.83262 112.44689,403.6909 110.6117,401.29516 108.50849,398.54954 107.58289,395.07176 106.25728,391.87728 105.11522,389.12513 104.05679,386.33335 103.16183,383.49122 102.3646,380.95945 100.99474,378.43907 101.14152,375.78881 101.20636,374.61812 101.35297,373.02506 102.40421,372.50581 103.74162,371.84521 105.30928,373.22235 106.69737,373.7685 Z"
       id="path4568"
       inkscape:connector-curvature="0"
       sodipodi:nodetypes="aaaaaaaaaaaaaa" />
    <path
       style="fill:#000000;stroke:none;stroke-width:1px;stroke-linecap:butt;stroke-linejoin:miter;stroke-opacity:1;fill-opacity:1"
       d="M 188.10968,372.09372 C 186.46376,375.24343 184.37491,378.1461 182.33041,381.05294 180.33449,383.89069 178.24114,386.66572 176.00644,389.31952 173.93845,391.77534 171.73486,394.11857 169.46429,396.38841 166.71072,399.14111 163.84734,401.78801 160.88914,404.31952 157.02566,407.62572 153.02616,410.7777 148.92486,413.78381 144.95385,416.69442 140.98601,419.65076 136.69906,422.07206 132.10286,424.66802 126.90619,426.09373 122.32143,428.70984 119.24961,430.46265 116.36599,432.54686 113.59175,434.74049 112.39028,435.69051 110.26828,436.28792 110.17857,437.81698 110.10957,438.993 111.3724,440.1641 112.50898,440.47389 118.09487,441.99642 123.74432,437.45358 129.00408,435.03381 135.42285,432.08082 141.14508,427.8016 147.14286,424.06698 151.82436,421.15196 156.44346,418.13769 161.07143,415.13841 166.26684,411.77139 171.55474,408.53788 176.60714,404.95984 181.33771,401.60971 185.87745,397.99603 190.42586,394.40246 193.96074,391.60965 197.42117,388.72368 200.89286,385.8527 203.4653,383.72537 206.44925,382.00082 208.57143,379.42413 209.82479,377.90234 211.14071,376.19592 211.42857,374.24556 211.67745,372.55932 210.86554,370.87248 210.35714,369.24556 209.62163,366.89189 208.75347,364.54753 207.51269,362.41652 206.04346,359.89314 203.85749,357.85906 202.14286,355.49556 200.90833,353.79384 199.90832,351.9239 198.60579,350.27366 197.25871,348.56698 195.69566,347.04191 194.20278,345.4612 192.75913,343.93262 191.4327,342.26907 189.79976,340.94461 188.66649,340.02542 187.45412,338.05274 186.10206,338.60152 185.11332,339.00284 185.32967,340.64818 185.35714,341.71492 185.40054,343.40036 186.33295,344.94291 186.78571,346.56698 187.37994,348.69848 187.88779,350.85336 188.47579,352.98658 189.26591,355.85303 190.69362,358.59532 190.94516,361.55801 191.08693,363.22776 190.8034,364.93089 190.38778,366.55429 189.89261,368.48844 189.03435,370.32423 188.10968,372.09372 Z"
       id="path4570"
       inkscape:connector-curvature="0"
       sodipodi:nodetypes="aaaaaaaaaaaaaaaaaaaaaaaaaaaaaaaa" />
    <path
       style="fill:#000000;stroke:none;stroke-width:1px;stroke-linecap:butt;stroke-linejoin:miter;stroke-opacity:1;fill-opacity:1"
       d="M 98.99495,436.14542 C 102.80209,435.03005 106.54773,433.71047 110.35917,432.60989 117.89229,430.43465 125.49799,428.51807 133.0876,426.54897 142.41538,424.1289 151.75786,421.76417 161.11933,419.4779 171.7907,416.87172 182.6369,414.94594 193.19168,411.90176 196.44009,410.96487 199.4228,408.94219 202.78812,408.61877 205.83364,408.32608 209.39399,408.09734 211.8795,409.88146 213.71447,411.19862 215.42891,413.74403 214.90995,415.94238 214.23303,418.80984 210.55405,420.10181 207.83888,421.24567 203.28562,423.16391 198.03791,422.55632 193.19167,423.51852 181.63662,425.81271 170.23089,428.82275 158.84649,431.85228 153.00242,433.40746 147.16858,435.02124 141.42136,436.90303 134.4361,439.1902 127.59494,441.89712 120.71323,444.47918 115.22445,446.5386 109.77326,448.69689 104.29825,450.79263 100.76487,452.14515 97.474709,454.78307 93.691649,454.83324 88.607077,454.90067 83.959637,451.81152 79.296975,449.78248 75.809842,448.26499 71.614454,447.41368 69.195449,444.47918 67.518385,442.44473 65.751433,439.26522 66.922606,436.90304 67.881056,434.96991 70.826787,434.56606 72.983521,434.63019 76.298339,434.72876 78.844152,437.92244 82.074894,438.6708 84.290629,439.18405 86.634221,439.18584 88.893424,438.92334 92.362263,438.52029 95.643635,437.12725 98.99495,436.14542 Z"
       id="path4572"
       inkscape:connector-curvature="0"
       sodipodi:nodetypes="aaaaaaaaaaaaaaaaaaaaaa" />
    <path
       style="fill:#000000;stroke:none;stroke-width:1px;stroke-linecap:butt;stroke-linejoin:miter;stroke-opacity:1;fill-opacity:1"
       d="M 36.785714,498.17413 C 45.600607,496.30572 54.106614,493.18105 62.857143,491.03127 77.528669,487.42685 92.427831,484.8109 107.14286,481.38841 119.20751,478.58236 131.15093,475.27144 143.21429,472.45984 153.36571,470.09386 163.62063,468.18451 173.76269,465.77873 183.84966,463.38602 194.19196,461.72578 203.89267,458.06952 207.47762,456.71833 210.40888,453.73942 214.13778,452.86031 217.96987,451.95688 222.24306,451.61733 225.94888,452.94697 229.94398,454.38042 233.81498,457.23801 235.83683,460.96999 237.09117,463.28528 237.59052,466.36541 236.65573,468.82713 235.50302,471.86272 232.65821,474.79053 229.46954,475.40364 226.09794,476.05192 223.20189,472.43145 219.83412,471.7635 215.3297,470.87012 210.64806,471.07249 206.06399,471.34509 200.0383,471.7034 194.10519,473.01385 188.15609,474.03635 181.00518,475.2654 173.87899,476.64721 166.78571,478.17413 158.09785,480.0443 149.48655,482.25414 140.84427,484.32478 133.20045,486.15619 125.5548,487.98077 117.92586,489.87318 112.18056,491.29834 106.42236,492.67792 100.71429,494.24556 95.44737,495.69205 90.210647,497.25075 85,498.88841 78.894595,500.80728 72.677549,502.46097 66.785714,504.95984 63.732082,506.25496 60.695437,507.68082 57.961748,509.55937 55.713572,511.10428 53.658513,512.95441 51.829043,514.97779 50.35431,516.60884 49.670103,518.92863 47.979695,520.33493 46.627839,521.45958 44.959113,522.43431 43.206852,522.58239 40.002799,522.85317 36.759155,521.49329 33.913703,519.99574 31.241275,518.58924 29.079893,516.33705 26.969542,514.17684 24.438693,511.58619 22.908152,508.07895 20.187546,505.68835 18.262713,503.997 15.491,503.44732 13.614757,501.70222 12.142722,500.33308 9.1991863,498.5709 10.122552,496.78517 10.864257,495.35075 13.362461,496.60921 14.967029,496.79095 16.676886,496.98461 18.310744,497.61161 20,497.93953 22.950612,498.5123 25.897528,499.35492 28.90319,499.3681 31.560643,499.37976 34.185993,498.72517 36.785714,498.17413 Z"
       id="path4574"
       inkscape:connector-curvature="0"
       sodipodi:nodetypes="aaaaaaaaaaaaaaaaaaaaaaaaaaaaaaaaa" />
    <path
       style="fill:#000000;stroke:none;stroke-width:1px;stroke-linecap:butt;stroke-linejoin:miter;stroke-opacity:1;fill-opacity:1"
       d="M 149.12748,509.09921 C 148.97898,513.52169 148.4283,517.92306 148.22194,522.34323 148.08415,525.29465 148.07244,528.25061 148.00004,531.20436 147.88268,535.99231 147.76259,540.78021 147.65559,545.5684 147.53818,550.8222 147.57368,556.08095 147.32908,561.33037 147.20603,563.97113 147.06506,566.61504 146.75529,569.24045 146.3999,572.25262 147.90158,576.6886 145.2834,578.21979 143.94963,578.99982 142.3893,577.13541 140.92897,576.63059 139.3734,576.09284 137.7797,574.52825 136.23535,575.09741 134.31159,575.8064 132.91756,578.29733 133.02632,580.3447 133.1502,582.67668 136.25199,583.81069 137.29409,585.90054 138.7914,588.90327 139.14512,592.3518 139.9801,595.60159 140.58247,597.94605 140.82483,600.39395 141.65595,602.6674 142.65438,605.39854 143.55451,608.37795 145.59195,610.45275 146.81708,611.70035 148.53101,613.31934 150.22956,612.90417 152.10861,612.44486 152.67109,609.86431 153.5305,608.13133 154.65352,605.86677 155.23868,603.36661 155.88474,600.92284 156.68278,597.90419 157.29441,594.83269 157.75711,591.74481 158.17158,588.97885 158.49495,586.18911 158.56332,583.3931 158.65993,579.44188 158.23941,575.49447 158.00221,571.54919 157.74808,567.32221 157.23274,563.11077 157.07872,558.87896 156.93788,555.00927 156.99177,551.13348 157.07872,547.2622 157.18547,542.50969 157.48675,537.76349 157.71904,533.01546 157.91093,529.0931 158.14123,525.17271 158.34141,521.25077 158.60348,516.11631 158.82181,510.97962 159.09903,505.84595 159.33093,501.55164 159.65872,497.26251 159.85664,492.9665 159.97293,490.44239 159.94835,487.91202 160.10918,485.39036 160.37078,481.28885 160.5673,477.16514 161.26727,473.11534 161.83078,469.85499 162.79517,466.67436 163.70599,463.49351 164.3184,461.35481 165.47146,459.34523 165.73899,457.13672 165.94091,455.46985 165.83294,453.73216 165.39454,452.11134 164.75928,449.76275 163.57261,447.54797 162.15487,445.57073 160.6557,443.47993 158.66906,441.76694 156.70363,440.10681 154.62212,438.34861 152.42573,436.68598 150.03303,435.38255 147.37893,433.93671 144.55204,432.73066 141.61742,432.00764 138.69113,431.28668 135.63059,430.89966 132.62277,431.08941 130.27339,431.23762 127.59836,431.23504 125.74296,432.68386 124.11796,433.95277 122.42844,436.19066 122.92743,438.19111 123.52041,440.56837 126.79669,441.23813 128.95508,442.3976 130.8166,443.3976 133.01042,443.68948 134.85011,444.72909 136.68962,445.7686 138.48513,446.99599 139.88818,448.57581 141.31658,450.1842 142.2884,452.17002 143.17118,454.13164 144.29644,456.63209 144.88093,459.34247 145.69656,461.96033 146.36872,464.11772 147.16641,466.24463 147.64815,468.45236 148.03393,470.2203 148.21585,472.02878 148.39307,473.82962 148.58944,475.82505 148.66058,477.83123 148.74496,479.83452 148.88306,483.11321 148.932,486.39513 148.9975,489.67607 149.0522,492.41638 149.09369,495.15702 149.11479,497.8978 149.14354,501.63149 149.25279,505.3675 149.12748,509.09921 Z"
       id="path4576"
       inkscape:connector-curvature="0"
       sodipodi:nodetypes="aaaaaaaaaaaaaaaaaaaaaaaaaaaaaaaaaaaaaaaaaaaaaaaaa" />
    <path
       style="fill:#000000;stroke:none;stroke-width:1px;stroke-linecap:butt;stroke-linejoin:miter;stroke-opacity:1;fill-opacity:1"
       d="M 95.711954,503.06803 C 95.338239,505.8329 94.743783,508.56798 94.070455,511.27552 93.360214,514.1315 92.3888,516.91612 91.545074,519.73555 90.663209,522.68243 89.132063,525.50765 88.893424,528.57438 88.652827,531.66628 88.994534,534.91654 90.156115,537.79202 90.957024,539.77467 92.383873,541.50694 93.944187,542.96905 95.545967,544.47002 97.334923,546.14275 99.500026,546.50459 101.63467,546.86134 104.01701,546.19629 105.81348,544.98936 108.5671,543.13939 110.0821,539.8465 111.62186,536.90814 113.13575,534.01915 114.15877,530.86563 114.90486,527.69049 115.63213,524.59542 116.20857,521.39528 116.04128,518.22032 115.88226,515.20224 115.1193,512.19711 114.02097,509.38148 112.91109,506.53625 111.00389,504.07049 109.47528,501.42653 108.18179,499.18921 106.92449,496.92959 105.56094,494.73427 104.47074,492.97903 103.70784,490.91656 102.15167,489.55724 101.27263,488.78939 100.10543,487.68265 98.99495,488.04201 97.400167,488.55808 97.094454,490.8611 96.595837,492.46142 96.243261,493.59303 96.322404,494.8164 96.21703,495.99696 96.006947,498.35063 96.028476,500.7263 95.711954,503.06803 Z"
       id="path4578"
       inkscape:connector-curvature="0"
       sodipodi:nodetypes="aaaaaaaaaaaaaaaaaaa" />
    <path
       style="fill:#000000;stroke:none;stroke-width:1px;stroke-linecap:butt;stroke-linejoin:miter;stroke-opacity:1;fill-opacity:1"
       d="M 194.32533,493.97507 C 196.1016,492.43908 199.01612,494.37084 201.31653,494.84255 204.73736,495.54401 208.15904,496.40301 211.38152,497.74827 214.79079,499.17151 218.00385,501.07467 221.05503,503.15772 223.37711,504.74301 225.74212,506.37871 227.57025,508.51487 229.59658,510.88261 231.25869,513.63733 232.32143,516.56698 233.20639,519.00655 233.74118,521.65891 233.58412,524.24927 233.38117,527.59651 232.3885,530.97216 230.76505,533.90636 229.79289,535.66343 228.65424,537.73509 226.76251,538.40872 224.19442,539.32318 221.10102,538.37613 218.68872,537.10641 215.32137,535.33399 213.21333,531.79537 210.80992,528.84509 208.66091,526.20709 206.87849,523.28922 205,520.45223 203.26134,517.82641 201.62845,515.13207 199.9477,512.46882 198.62109,510.36672 197.00927,508.41821 195.97579,506.15754 195.12699,504.30082 194.46938,502.32138 194.19008,500.29904 193.90162,498.21039 192.73045,495.3542 194.32533,493.97507 Z"
       id="path4580"
       inkscape:connector-curvature="0"
       sodipodi:nodetypes="aaaaaaaaaaaaaaaa" />
    <path
       style="fill:#000000;stroke:none;stroke-width:1px;stroke-linecap:butt;stroke-linejoin:miter;stroke-opacity:1;fill-opacity:1"
       d="M 284.28571,361.56698 C 289.91464,358.95994 295.47343,356.20407 301.07143,353.53127 306.06897,351.14516 311.08954,348.80703 316.07143,346.38841 321.86664,343.57493 327.62496,340.68605 333.39285,337.81699 338.39801,335.32732 343.5236,333.06295 348.39286,330.31698 350.72312,329.00286 353.41883,328.0463 355.17858,326.03127 357.15846,323.76417 357.43431,320.42981 358.92857,317.81699 360.37139,315.29409 362.17381,312.99092 363.92858,310.67413 365.46094,308.65097 366.95538,306.57589 368.75,304.78127 370.54462,302.98665 372.10791,300.0838 374.64286,299.95984 377.21518,299.83405 379.02821,302.67778 381.07143,304.24556 383.14605,305.83744 385.10113,307.58924 386.96428,309.42413 388.79579,311.22785 390.59494,313.08614 392.14286,315.13842 393.70441,317.20876 394.88332,319.5417 396.25,321.74555 397.3382,323.50033 399.17802,324.97529 399.50893,327.01341 399.91327,329.50381 399.50297,332.54783 397.76786,334.37948 396.37021,335.85489 393.88331,335.57958 391.919,336.10083 389.89421,336.63813 387.75153,336.77848 385.80357,337.54913 383.85726,338.31913 382.15267,339.59844 380.35714,340.67413 377.46685,342.40569 374.55556,344.11295 371.78571,346.03127 369.69125,347.48184 367.65054,349.01828 365.71429,350.67413 362.96259,353.02734 360.20837,355.42074 357.85714,358.17413 355.95395,360.40285 354.31465,362.86363 352.85715,365.40627 351.17523,368.3404 349.88045,371.4843 348.57143,374.6027 346.99668,378.35416 345.49534,382.14667 344.28571,386.03127 343.26417,389.31182 342.54898,392.6812 341.78571,396.03127 340.8677,400.06053 340.03042,404.10927 339.28571,408.17413 338.67731,411.49497 338.17251,414.83435 337.67857,418.17413 337.05055,422.42044 336.39522,426.66586 335.95414,430.93563 335.49707,435.36011 335.15912,439.80038 335,444.24556 334.8552,448.29059 334.79484,452.346 335,456.38841 335.17519,459.84028 335.6685,463.26886 336.04976,466.70408 336.40535,469.90792 336.6964,473.1222 337.20414,476.30548 337.66745,479.21026 338.25227,482.09714 338.92857,484.95984 339.67802,488.13221 340.53926,491.28031 341.51151,494.39163 342.66306,498.0767 343.77982,501.79308 345.35714,505.31698 346.59247,508.07685 348.20111,510.65595 349.73215,513.26341 351.86465,516.89521 353.88931,520.61768 356.42857,523.9777 358.728,527.02037 361.4627,529.71173 364.10714,532.45985 366.70471,535.15925 369.21578,537.97896 372.14286,540.31698 374.41334,542.13054 376.9272,543.63235 379.46429,545.04913 382.54434,546.76912 385.80607,548.14342 389.01785,549.6027 392.29471,551.09153 395.57606,552.57879 398.92857,553.88842 403.62789,555.72416 408.32802,557.63226 413.21429,558.88841 416.51719,559.73751 419.90936,560.25396 423.30357,560.58484 426.50392,560.89682 429.7309,560.85149 432.94643,560.8527 435.14961,560.85352 437.35918,560.87081 439.55357,560.67413 442.10253,560.44566 444.64495,560.07004 447.14286,559.51342 449.50517,558.98701 451.86895,558.38077 454.10715,557.45985 456.13902,556.62382 458.07504,555.54222 459.91071,554.33484 462.19415,552.83296 464.3853,551.15648 466.33929,549.24555 468.2736,547.35387 469.79479,545.08147 471.51786,542.99555 473.60498,540.46892 475.69039,537.94085 477.76786,535.40627 479.61833,533.14864 481.49525,530.91208 483.30357,528.62056 485.06621,526.38693 486.93101,524.2202 488.48214,521.83484 489.83269,519.75794 490.83177,517.47214 492.05358,515.31698 493.04039,513.57632 493.77493,511.64709 495.08929,510.13841 496.38388,508.65243 497.77344,506.25955 499.73215,506.4777 501.14111,506.63462 501.9325,508.44669 502.41072,509.78127 503.87651,513.87192 502.96673,518.49678 502.5,522.81698 502.09363,526.57849 500.75952,530.18204 500,533.88841 499.07656,538.39469 498.30103,542.9302 497.5,547.45984 496.87972,550.96741 496.34519,554.48988 495.71429,557.99556 495.03815,561.75262 494.704,565.60002 493.57143,569.24556 492.45254,572.84707 491.59352,576.84793 489.01786,579.6027 487.48138,581.24603 485.18906,582.07625 483.03571,582.7277 479.54065,583.78507 475.78161,583.58348 472.14286,583.88842 465.33851,584.45864 458.5243,585.20549 451.69643,585.13842 447.63578,585.09852 443.58598,584.63592 439.55357,584.15627 433.65988,583.45521 427.75719,582.68044 421.96429,581.38841 418.42506,580.59903 414.97391,579.45041 411.51786,578.3527 407.25689,576.99933 403.02909,575.53751 398.83929,573.9777 393.88264,572.13239 388.94272,570.22744 384.10714,568.08484 380.44413,566.46179 376.8309,564.71695 373.30357,562.81699 368.00541,559.96317 362.51007,557.32544 357.76786,553.62056 355.23048,551.63821 353.08707,549.18219 350.98214,546.74556 348.00926,543.3042 345.33499,539.60647 342.76786,535.8527 341.01013,533.28247 339.34814,530.63987 337.85714,527.90627 336.13605,524.75083 334.74492,521.42623 333.21429,518.17413 331.64926,514.84894 329.75809,511.65236 328.57143,508.17413 327.09337,503.84179 326.28081,499.29776 325.53571,494.78127 324.88302,490.82494 324.55972,486.81741 324.28571,482.81698 324.06693,479.62291 324.05398,476.41795 323.9719,473.21745 323.86581,469.08032 323.62774,464.94106 323.74102,460.80411 323.85331,456.70367 324.29938,452.61884 324.64286,448.53127 325.01334,444.12238 325.50003,439.72393 325.89286,435.31698 326.30834,430.65588 326.61028,425.9847 327.06363,421.32713 327.53289,416.50613 327.9643,411.67705 328.66706,406.88451 329.21818,403.12611 330.0658,399.41696 330.71429,395.67413 331.34243,392.04872 331.76208,388.38594 332.5,384.78127 333.29911,380.87769 334.38095,377.03724 335.35715,373.17413 336.17067,369.95477 337.13923,366.77329 337.85714,363.53127 338.35439,361.2857 339.8892,358.90847 339.10715,356.74555 338.63291,355.43397 337.2761,354.2453 335.89285,354.06699 333.80648,353.79804 332.01828,355.72537 330.17857,356.74556 328.07048,357.91458 326.18282,359.44847 324.10715,360.67413 321.72227,362.08237 319.21166,363.26645 316.78571,364.6027 314.03078,366.12015 311.32113,367.71866 308.57143,369.24556 304.65915,371.41803 300.55901,373.26836 296.78571,375.67413 294.1657,377.34459 291.73586,379.2989 289.28571,381.20984 287.21838,382.82221 285.02965,384.31827 283.21429,386.20984 281.30186,388.20255 280.76488,391.75741 278.21428,392.81698 275.77325,393.83103 272.75008,392.86841 270.35714,391.74556 266.84833,390.09908 264.09254,387.00309 261.78572,383.88842 259.9793,381.44938 259.1167,378.43556 257.85714,375.67413 256.82064,373.40171 255.68352,371.16363 254.872,368.8015 254.46233,367.60903 253.01844,366.01104 253.92857,365.13841 255.4529,363.67689 257.50375,366.24546 259.27753,366.8412 261.34508,367.53561 263.2659,368.97476 265.44643,369.02234 267.84187,369.07462 270.07782,367.76505 272.32142,366.92413 276.41309,365.39053 280.3207,363.40338 284.28571,361.56698 Z"
       id="path4582"
       inkscape:connector-curvature="0"
       sodipodi:nodetypes="aaaaaaaaaaaaaaaaaaaaaaaaaaaaaaaaaaaaaaaaaaaaaaaaaaaaaaaaaaaaaaaaaaaaaaaaaaaaaaaaaaaaaaaaaaaaaaaaaaaaaaaaaacaaaa" />
    <path
       style="fill:#000000;stroke:none;stroke-width:1px;stroke-linecap:butt;stroke-linejoin:miter;stroke-opacity:1;fill-opacity:1"
       d="M 288.92857,313.88841 C 290.76959,317.28356 292.43884,320.79132 293.75,324.42413 295.06861,328.07758 296.09678,331.85159 296.78571,335.67413 297.58098,340.08673 297.8005,344.58947 298.03572,349.06699 298.29803,354.06046 298.30638,359.06748 298.21429,364.06698 298.12428,368.95291 297.82201,373.83371 297.5,378.70984 297.16939,383.71627 296.71947,388.71452 296.25,393.70984 295.7684,398.83426 295.15094,403.94512 294.64286,409.06698 294.07631,414.77829 293.69144,420.50808 293.03571,426.20984 292.28071,432.77478 291.29544,439.31144 290.35714,445.8527 289.56227,451.39407 288.84507,456.94962 287.85714,462.45984 286.82706,468.20521 285.74765,473.95177 284.28571,479.6027 282.47496,486.60189 280.17902,493.47034 277.85714,500.31698 275.92172,506.02406 273.98781,511.74511 271.60714,517.28127 269.21998,522.83253 266.48651,528.23813 263.57143,533.53127 260.81361,538.53885 257.91906,543.48927 254.64286,548.17413 251.63285,552.47835 248.27358,556.53714 244.82143,560.49556 241.36241,564.46185 237.87919,568.44721 233.92857,571.92412 232.04285,573.58373 227.1768,573.97027 227.85714,576.38841 228.42344,578.40124 232.04831,577.28934 234.10715,576.92413 237.01759,576.40786 239.69639,574.83305 242.14286,573.17413 246.74333,570.05462 250.44314,565.76182 254.28571,561.74556 258.19555,557.65898 261.97743,553.42322 265.35714,548.88841 268.6527,544.46652 271.54031,539.74279 274.28571,534.95984 277.41326,529.51113 280.32687,523.92458 282.85714,518.17413 285.87623,511.31276 288.34722,504.21539 290.71429,497.1027 293.18255,489.68595 295.44325,482.19038 297.32143,474.6027 298.54717,469.65078 299.47021,464.62637 300.35714,459.6027 301.46654,453.31888 302.27886,446.98619 303.21429,440.67413 304.18425,434.12909 305.22352,427.59324 306.07143,421.03127 306.95424,414.19924 307.60194,407.33884 308.39286,400.49556 309.26682,392.93383 310.13403,385.37112 311.07143,377.81699 311.98064,370.49007 313.49892,363.2233 313.92857,355.8527 314.46552,346.64138 315.55752,337.1848 313.57143,328.17413 312.63087,323.90692 310.57643,319.88597 308.21428,316.20984 305.72911,312.34223 302.39441,309.06648 299.10714,305.8527 296.32783,303.13551 293.74291,299.90293 290.17857,298.3527 287.48395,297.18072 283.50376,295.20086 281.42857,297.28127 280.07293,298.64032 281.50794,301.18401 282.14285,302.99556 282.85869,305.03799 284.39121,306.6944 285.53571,308.53127 286.6535,310.32526 287.921,312.03029 288.92857,313.88841 Z"
       id="path4584"
       inkscape:connector-curvature="0"
       sodipodi:nodetypes="aaaaaaaaaaaaaaaaaaaaaaaaaaaaaaaaaaaaaaaaa" />
    <path
       style="fill:#000000;stroke:none;stroke-width:1px;stroke-linecap:butt;stroke-linejoin:miter;stroke-opacity:1;fill-opacity:1"
       d="M 262.5134,442.20634 C 266.77192,442.19094 271.01404,442.73759 275.26657,442.96395 278.84309,443.15433 282.42544,443.70202 285.99944,443.46902 288.85825,443.28265 291.59972,442.12532 294.45947,441.9538 298.12073,441.73419 301.90468,441.62594 305.44488,442.58514 307.67962,443.19064 309.94191,444.15944 311.63206,445.74187 313.49212,447.48338 315.36673,449.76613 315.5464,452.30787 315.68475,454.26501 314.66965,456.35885 313.27356,457.73743 311.594,459.39592 309.01126,459.87476 306.70757,460.38908 305.22647,460.71975 303.67945,460.64345 302.16188,460.64162 299.25282,460.63812 296.35716,460.22076 293.44931,460.13654 289.53661,460.02322 285.59403,460.59211 281.70629,460.13654 277.36656,459.62801 273.06498,458.5841 268.95312,457.10608 266.34918,456.17009 263.7001,455.12666 261.50324,453.44428 259.67998,452.04801 257.79097,450.40718 256.95756,448.26725 256.27003,446.50191 255.55244,443.98289 256.83128,442.58515 258.11265,441.18464 260.61517,442.2132 262.5134,442.20634 Z"
       id="path4586"
       inkscape:connector-curvature="0"
       sodipodi:nodetypes="aaaaaaaaaaaaaaaaa" />
  </g>
</svg>
