<?xml version="1.0" encoding="UTF-8" standalone="no"?>
<!-- Created with Inkscape (http://www.inkscape.org/) -->

<svg
   xmlns:dc="http://purl.org/dc/elements/1.1/"
   xmlns:cc="http://creativecommons.org/ns#"
   xmlns:rdf="http://www.w3.org/1999/02/22-rdf-syntax-ns#"
   xmlns:svg="http://www.w3.org/2000/svg"
   xmlns="http://www.w3.org/2000/svg"
   xmlns:sodipodi="http://sodipodi.sourceforge.net/DTD/sodipodi-0.dtd"
   xmlns:inkscape="http://www.inkscape.org/namespaces/inkscape"
   width="512"
   height="512"
   viewBox="0 0 135.46667 135.46667"
   version="1.1"
   id="svg8"
   inkscape:version="0.92.4 (5da689c313, 2019-01-14)"
   sodipodi:docname="詳.svg">
  <defs
     id="defs2" />
  <sodipodi:namedview
     id="base"
     pagecolor="#ffffff"
     bordercolor="#666666"
     borderopacity="1.0"
     inkscape:pageopacity="0.0"
     inkscape:pageshadow="2"
     inkscape:zoom="1.4"
     inkscape:cx="154.07249"
     inkscape:cy="276.29796"
     inkscape:document-units="px"
     inkscape:current-layer="layer1"
     showgrid="false"
     units="px"
     viewbox-height="512"
     inkscape:window-width="1920"
     inkscape:window-height="1001"
     inkscape:window-x="-9"
     inkscape:window-y="-9"
     inkscape:window-maximized="1">
    <inkscape:grid
       type="xygrid"
       id="grid3732" />
  </sodipodi:namedview>
  <metadata
     id="metadata5">
    <rdf:RDF>
      <cc:Work
         rdf:about="">
        <dc:format>image/svg+xml</dc:format>
        <dc:type
           rdf:resource="http://purl.org/dc/dcmitype/StillImage" />
        <dc:title></dc:title>
      </cc:Work>
    </rdf:RDF>
  </metadata>
  <g
     inkscape:label="圖層 1"
     inkscape:groupmode="layer"
     id="layer1"
     transform="translate(0,-161.53332)">
    <path
       style="fill:#000000;stroke:none;stroke-width:0.26458335px;stroke-linecap:butt;stroke-linejoin:miter;stroke-opacity:1;fill-opacity:1"
       d="M 32.127977,173.77975 C 32.530693,172.87694 33.887488,172.76929 34.868303,172.64582 36.304678,172.46501 37.768895,172.88724 39.167785,173.26003 41.018748,173.7533 43.013823,174.18586 44.506699,175.38615 45.425845,176.12515 46.172841,177.17982 46.491074,178.31546 46.925048,179.86413 46.605994,181.56514 46.254838,183.13466 45.957268,184.46468 45.318893,185.70235 44.695685,186.91442 44.152177,187.97148 43.594762,189.04922 42.805804,189.93823 42.25562,190.55818 41.66686,191.72087 40.868677,191.49738 40.110696,191.28514 40.184656,190.05483 40.065477,189.27677 39.788615,187.46927 40.388091,185.62266 40.301713,183.79612 40.252895,182.76382 40.316007,181.6604 39.876489,180.72507 39.449814,179.81707 38.61107,179.1521 37.844867,178.50445 36.91405,177.71766 35.821362,177.14305 34.77381,176.52008 34.095374,176.11662 33.206683,175.98713 32.694942,175.38615 32.326803,174.95381 31.896652,174.29833 32.127977,173.77975 Z"
       id="path4721"
       inkscape:connector-curvature="0"
       sodipodi:nodetypes="aaaaaaaaaaaaaaaa" />
    <path
       style="fill:#000000;stroke:none;stroke-width:0.26458335px;stroke-linecap:butt;stroke-linejoin:miter;stroke-opacity:1;fill-opacity:1"
       d="M 6.7090775,194.61568 C 7.9229011,194.20357 9.2630181,194.38772 10.536087,194.23771 12.84097,193.96612 15.136949,193.62308 17.434152,193.29277 20.051056,192.91649 22.666982,192.53201 25.277159,192.11159 28.495421,191.59323 31.714336,191.07286 34.915553,190.45794 37.145108,190.02967 39.3614,189.53426 41.577381,189.04054 43.881761,188.52713 46.156378,187.87649 48.475449,187.43414 49.523426,187.23425 50.574406,186.93724 51.640998,186.96167 52.53956,186.98225 53.465684,187.11594 54.286831,187.48139 55.150134,187.8656 55.949221,188.4568 56.554689,189.18228 56.96085,189.66895 57.493624,190.2555 57.405135,190.88317 57.33045,191.41294 56.805048,191.84197 56.318453,192.06434 55.372632,192.49659 54.239395,192.19607 53.200151,192.15884 51.807902,192.10896 50.435474,191.74845 49.042411,191.73362 47.478266,191.71697 45.922924,191.97172 44.364956,192.11159 43.088215,192.22621 41.804208,192.29009 40.537949,192.48957 39.073262,192.72031 37.637293,193.10676 36.19122,193.43451 34.786694,193.75286 33.38398,194.07978 31.986237,194.42669 30.106585,194.89321 28.226486,195.361 26.36384,195.89136 24.82592,196.32925 23.296744,196.79974 21.780878,197.30876 20.160948,197.85273 18.548782,198.42352 16.961682,199.05691 16.08393,199.40721 15.2494,199.86277 14.363096,200.19083 13.204451,200.6197 12.03372,201.50604 10.819569,201.27752 9.8720363,201.09918 9.2820235,200.11163 8.5517116,199.48213 7.7668348,198.8056 6.9872823,198.11688 6.2838545,197.35602 5.8046552,196.83769 4.8415511,196.3981 4.9609376,195.70237 5.0769792,195.02613 6.0593797,194.83627 6.7090775,194.61568 Z"
       id="path4723"
       inkscape:connector-curvature="0"
       sodipodi:nodetypes="aaaaaaaaaaaaaaaaaaaaaaaaaaa" />
    <path
       style="fill:#000000;stroke:none;stroke-width:0.26458335px;stroke-linecap:butt;stroke-linejoin:miter;stroke-opacity:1;fill-opacity:1"
       d="M 32.269719,206.2857 C 34.201407,205.71964 36.009309,204.77844 37.939362,204.20683 39.364357,203.7848 40.800785,203.26557 42.286088,203.21464 43.401392,203.1764 44.563865,203.30371 45.59338,203.73436 46.424462,204.08201 47.417471,204.51036 47.766741,205.34076 47.988666,205.86839 47.879099,206.58763 47.530508,207.04165 46.864294,207.90935 45.541467,207.96235 44.506699,208.31732 42.779436,208.90985 40.962017,209.20315 39.215032,209.73473 37.9095,210.13198 36.619317,210.58063 35.340775,211.05765 34.162554,211.49725 33.056531,212.13978 31.844495,212.47506 30.661608,212.80228 29.427494,213.16614 28.206473,213.04203 27.424334,212.96253 26.629699,212.68379 25.996836,212.21737 25.343709,211.73601 24.69139,211.08168 24.508843,210.29114 24.451759,210.04392 24.550902,209.77338 24.662947,209.54574 24.993358,208.87445 25.494515,208.24361 26.127605,207.84486 27.301056,207.10577 28.797027,207.08979 30.143602,206.75817 30.848534,206.58457 31.573022,206.48986 32.269719,206.2857 Z"
       id="path4725"
       inkscape:connector-curvature="0"
       sodipodi:nodetypes="aaaaaaaaaaaaaaaaa" />
    <path
       style="fill:#000000;stroke:none;stroke-width:0.26458335px;stroke-linecap:butt;stroke-linejoin:miter;stroke-opacity:1;fill-opacity:1"
       d="M 26.127605,219.7511 C 27.29468,219.73999 28.458081,219.9957 29.623883,219.94009 31.421505,219.85435 33.195912,219.47881 34.962798,219.13689 35.900397,218.95545 36.826723,218.71809 37.750374,218.47543 38.57474,218.25886 39.378213,217.9648 40.207219,217.76673 40.862136,217.61025 41.520071,217.33916 42.191594,217.38875 42.906876,217.44157 43.574792,217.79093 44.223216,218.09746 44.906945,218.42068 45.728199,218.65798 46.160345,219.27863 46.582156,219.88444 46.900073,220.78416 46.585567,221.452 46.318349,222.01943 45.513502,222.11487 44.931922,222.3497 43.946967,222.74739 42.895301,222.95882 41.860865,223.20014 40.549378,223.50609 39.213326,223.69531 37.892115,223.95609 36.425499,224.24557 34.964031,224.56064 33.498142,224.85378 32.774283,224.99853 32.057658,225.19062 31.324778,225.27901 30.322995,225.39983 29.300914,225.55595 28.300969,225.42075 27.496488,225.31198 26.702068,225.04699 25.985864,224.66479 25.332679,224.31623 24.666269,223.89837 24.237724,223.29463 23.813956,222.69762 23.479603,221.94621 23.529019,221.21576 23.562296,220.72386 23.780833,220.16719 24.190477,219.89285 24.728423,219.53259 25.480199,219.75726 26.127605,219.7511 Z"
       id="path4727"
       inkscape:connector-curvature="0"
       sodipodi:nodetypes="aaaaaaaaaaaaaaaaaaaa" />
    <path
       style="fill:#000000;stroke:none;stroke-width:0.26458335px;stroke-linecap:butt;stroke-linejoin:miter;stroke-opacity:1;fill-opacity:1"
       d="M 19.477267,237.49911 C 20.347379,237.73486 21.105502,238.27845 21.882694,238.73523 22.748099,239.24385 23.60305,239.78041 24.388345,240.40566 25.251147,241.09263 26.182776,241.75929 26.793771,242.67745 27.703594,244.04468 27.979939,245.7408 28.531022,247.28786 29.047425,248.73757 29.560643,250.18981 30.001005,251.66439 30.340315,252.8006 30.737952,253.93125 30.90304,255.10549 31.037962,256.06516 30.928107,257.04384 30.969858,258.01205 31.007836,258.89275 31.124411,259.7699 31.136901,260.65133 31.150478,261.60953 31.287663,262.59963 31.036676,263.52448 30.870936,264.1352 30.767323,265.20758 30.134641,265.19491 28.969448,265.17159 29.032719,263.13575 28.59784,262.0545 28.052457,260.6985 27.696345,259.27379 27.261491,257.87841 26.530929,255.53415 25.983291,253.12912 25.123336,250.82918 24.713077,249.73194 24.229547,248.66003 23.686763,247.62194 23.24695,246.78079 22.828799,245.90865 22.216779,245.18311 21.874155,244.77694 21.401049,244.50129 21.00967,244.14186 20.483587,243.65872 19.96665,243.16433 19.477267,242.64405 18.882227,242.01144 18.25063,241.39856 17.773424,240.67293 17.351967,240.03207 16.704203,239.3657 16.771163,238.6016 16.814335,238.10896 17.193508,237.61194 17.639789,237.39888 18.193345,237.13461 18.885211,237.33869 19.477267,237.49911 Z"
       id="path4729"
       inkscape:connector-curvature="0"
       sodipodi:nodetypes="aaaaaaaaaaaaaaaaaaaaaa" />
    <path
       style="fill:#000000;fill-opacity:1;stroke:none;stroke-width:0.26458335px;stroke-linecap:butt;stroke-linejoin:miter;stroke-opacity:1"
       d="M 30.834704,236.00309 C 32.122263,235.60863 33.465203,235.42412 34.77381,235.10639 35.753767,234.86846 36.732785,234.62497 37.703126,234.35044 39.310005,233.89582 40.991879,233.61132 42.490881,232.8753 43.246105,232.50447 43.733188,231.60614 44.553945,231.42112 45.728844,231.15627 47.008277,231.5585 48.114668,232.03434 49.516897,232.63742 50.810442,233.59897 51.782741,234.77566 52.563419,235.72044 53.370416,236.8575 53.389137,238.08295 53.406198,239.19969 52.439407,240.10585 52.017991,241.14017 51.484333,242.44997 51.034213,243.79232 50.554317,245.12276 50.165703,246.20014 49.827326,247.29607 49.407941,248.36184 49.028249,249.32674 48.620132,250.28159 48.169038,251.21525 47.943398,251.68227 47.796983,252.21534 47.436012,252.58779 46.930281,253.10961 46.270679,253.61888 45.546133,253.67447 44.80543,253.7313 43.858625,253.5027 43.467262,252.87127 43.125633,252.32008 43.603959,251.5812 43.646753,250.93414 43.726109,249.73428 43.708914,248.52928 43.789886,247.32953 43.858819,246.30815 43.975001,245.29046 44.081474,244.27231 44.198407,243.15414 44.63804,242.03166 44.462807,240.92113 44.353794,240.23027 44.140044,239.44919 43.595167,239.01069 42.97149,238.50878 42.043364,238.42977 41.246654,238.50817 40.25675,238.60558 39.429573,239.3192 38.506324,239.68935 37.57038,240.06459 36.615734,240.39138 35.670521,240.74262 34.60414,241.13888 33.549989,241.56971 32.471562,241.93191 30.983283,242.43176 29.518216,243.08731 27.961149,243.28823 27.199889,243.38645 26.398424,243.41569 25.659883,243.20659 25.186777,243.07264 24.696111,242.85247 24.377091,242.47831 24.166871,242.23175 24.04204,241.89174 24.036865,241.56777 24.025738,240.87124 24.333659,240.17685 24.705446,239.58774 25.039211,239.05887 25.557448,238.6642 26.051697,238.28103 26.633364,237.83009 27.276226,237.45637 27.935846,237.1299 28.864992,236.67004 29.843459,236.30677 30.834704,236.00309 Z"
       id="path4731"
       inkscape:connector-curvature="0"
       sodipodi:nodetypes="aaaaaaaaaaaaaaaaaaaaaaaaaaaaaaaa" />
    <path
       style="fill:#000000;stroke:none;stroke-width:0.26458335px;stroke-linecap:butt;stroke-linejoin:miter;stroke-opacity:1;fill-opacity:1"
       d="M 33.108014,252.13212 C 33.882325,251.85007 34.660402,251.57722 35.446623,251.33031 36.45215,251.01452 37.476059,250.76032 38.486812,250.46168 39.547615,250.14825 40.580583,249.73161 41.66064,249.49283 42.681722,249.26709 43.724831,248.9804 44.767647,249.05852 45.821756,249.13748 46.987655,249.29371 47.807839,249.96055 48.190574,250.27173 48.454268,250.77331 48.509422,251.26349 48.570142,251.80314 48.381099,252.38506 48.075106,252.8337 47.635866,253.47771 46.904993,253.89541 46.204221,254.23686 45.011856,254.81785 43.651061,254.9592 42.362222,255.27253 41.188501,255.55788 40.010624,255.83212 38.8209,256.04093 37.669879,256.24294 36.506699,256.36952 35.346397,256.50866 34.50142,256.60998 33.656647,256.72188 32.807335,256.77593 32.307093,256.80776 31.805144,256.81672 31.303945,256.80933 30.65725,256.79981 29.909243,257.06047 29.36624,256.70911 28.956453,256.44395 28.700556,255.89425 28.698066,255.40617 28.695018,254.80854 29.085485,254.23318 29.499875,253.80255 29.949129,253.33569 30.616204,253.14027 31.203718,252.86711 31.820693,252.58024 32.468703,252.365 33.108014,252.13212 Z"
       id="path4733"
       inkscape:connector-curvature="0"
       sodipodi:nodetypes="aaaaaaaaaaaaaaaaaaa" />
    <path
       style="fill:#000000;stroke:none;stroke-width:0.26458335px;stroke-linecap:butt;stroke-linejoin:miter;stroke-opacity:1;fill-opacity:1"
       d="M 70.282325,175.4155 C 71.292675,175.29024 72.298885,175.78176 73.245049,176.15761 74.008462,176.46088 74.721349,176.89204 75.394787,177.36241 76.217189,177.93683 77.109405,178.49563 77.679841,179.3208 78.110575,179.94388 78.385814,180.70297 78.453686,181.45739 78.53384,182.34834 78.321724,183.26668 78.004839,184.10322 77.761785,184.74485 77.347206,185.31594 76.918158,185.85137 76.552546,186.30763 76.096163,186.68367 75.666111,187.07978 75.214409,187.49583 74.756581,187.90693 74.272324,188.28459 73.839933,188.6218 73.396236,188.94783 72.925783,189.22952 72.055619,189.75054 71.151219,190.22416 70.209078,190.59969 69.521755,190.87365 68.820292,191.17577 68.082964,191.23752 67.703375,191.26931 67.161158,191.41217 66.949034,191.09578 66.580972,190.54681 67.195267,189.78399 67.468753,189.18228 67.879936,188.27762 68.583801,187.53691 69.122399,186.70181 69.590187,185.9765 70.064664,185.25436 70.492563,184.50482 70.923866,183.74932 71.440081,183.02075 71.69736,182.18972 71.852188,181.68962 72.040922,181.13075 71.886348,180.63057 71.710062,180.06012 71.130944,179.7026 70.705173,179.28403 70.270896,178.8571 69.632252,178.62046 69.311387,178.10285 68.965231,177.54445 68.572043,176.7897 68.838915,176.18935 69.060671,175.6905 69.74055,175.48266 70.282325,175.4155 Z"
       id="path4735"
       inkscape:connector-curvature="0"
       sodipodi:nodetypes="aaaaaaaaaaaaaaaaaaaaaa" />
    <path
       style="fill:#000000;stroke:none;stroke-width:0.26458335px;stroke-linecap:butt;stroke-linejoin:miter;stroke-opacity:1;fill-opacity:1"
       d="M 98.911648,168.27547 C 99.744177,168.42222 100.43792,169.01036 101.15588,169.45665 101.66822,169.77513 102.15307,170.13839 102.62054,170.5197 103.19929,170.99179 103.74166,171.50792 104.27418,172.03161 104.69914,172.44952 105.15492,172.8468 105.50261,173.3309 105.83551,173.79441 106.221,174.27847 106.30581,174.84281 106.39876,175.46133 106.27751,176.15168 105.95145,176.68544 105.47189,177.47049 104.52638,177.85122 103.77809,178.38634 103.09766,178.87293 102.39701,179.33303 101.6756,179.7565 100.93137,180.19336 100.15776,180.57896 99.384118,180.9613 98.4271,181.43427 97.443924,181.85243 96.478426,182.30784 95.490931,182.77362 94.534607,183.30838 93.525485,183.72524 93.039821,183.92587 92.539875,184.39807 92.037204,184.24496 91.6229,184.11877 91.265468,183.63856 91.25763,183.20553 91.247392,182.63986 91.878703,182.25821 92.226194,181.81175 92.764445,181.12019 93.410977,180.51777 93.95071,179.82737 94.40683,179.24392 94.813185,178.62296 95.22638,178.00836 95.534706,177.54975 95.826111,177.07998 96.124072,176.61457 96.400861,176.18223 96.745313,175.78567 96.950895,175.31528 97.19872,174.74823 97.471953,174.13682 97.423367,173.51989 97.372709,172.87665 96.962921,172.30891 96.64379,171.74813 96.409262,171.33601 95.875265,171.06115 95.816967,170.59057 95.763931,170.16247 96.038222,169.73646 96.289437,169.38578 96.559534,169.00875 96.928705,168.67652 97.352495,168.48808 97.831778,168.27497 98.395084,168.18442 98.911648,168.27547 Z"
       id="path4737"
       inkscape:connector-curvature="0"
       sodipodi:nodetypes="aaaaaaaaaaaaaaaaaaaaaaaaa" />
    <path
       style="fill:#000000;stroke:none;stroke-width:0.26458335px;stroke-linecap:butt;stroke-linejoin:miter;stroke-opacity:1;fill-opacity:1"
       d="M 73.432304,202.8543 C 75.124131,202.55631 76.772645,202.05028 78.443608,201.65159 80.603292,201.13628 82.780204,200.68948 84.924699,200.11423 86.420652,199.71294 87.933567,199.34534 89.375528,198.77996 90.412348,198.37343 91.368903,197.78591 92.375032,197.30845 93.581538,196.7359 94.709006,195.90952 96.016582,195.63802 97.074461,195.41836 98.2493,195.31568 99.257223,195.70484 100.42802,196.15689 101.72779,196.97757 102.09697,198.17708 102.41876,199.22264 102.08116,200.62613 101.26174,201.3509 100.08323,202.39329 98.142428,201.76562 96.584528,201.98567 95.36973,202.15726 94.146716,202.28315 92.942981,202.52021 91.490762,202.80621 90.058656,203.19056 88.633259,203.58929 87.408734,203.93182 86.200286,204.33004 84.991711,204.72518 82.866157,205.42013 80.780855,206.23717 78.64406,206.89675 77.363618,207.29199 76.101837,207.83031 74.768653,207.96583 73.935872,208.05048 73.071396,208.01601 72.262999,207.79879 71.339531,207.55065 70.518072,207.00836 69.690531,206.52925 68.843192,206.03869 67.574796,205.81648 67.251698,204.89223 67.093635,204.44007 67.316934,203.82778 67.686009,203.52247 68.411888,202.922 69.556602,203.29724 70.492339,203.18838 71.472026,203.0744 72.460961,203.02539 73.432304,202.8543 Z"
       id="path4739"
       inkscape:connector-curvature="0"
       sodipodi:nodetypes="aaaaaaaaaaaaaaaaaaaaa" />
    <path
       style="fill:#000000;stroke:none;stroke-width:0.26458335px;stroke-linecap:butt;stroke-linejoin:miter;stroke-opacity:1;fill-opacity:1"
       d="M 71.026879,217.52072 C 72.90282,217.09881 74.689737,216.34806 76.505903,215.71664 78.432655,215.04677 80.316316,214.25489 82.2522,213.61189 83.950805,213.04771 85.687312,212.60431 87.397137,212.0751 88.547749,211.71897 89.680299,211.30416 90.838232,210.97261 91.798973,210.69752 92.745447,210.24147 93.744788,210.23761 94.822467,210.23346 95.989822,210.40627 96.885207,211.00602 97.732801,211.57375 98.963506,212.49564 98.689276,213.47826 98.332356,214.75717 96.283822,214.62599 95.014321,215.01506 93.396017,215.51102 91.694826,215.67881 90.036424,216.01732 88.420785,216.3471 86.78663,216.59921 85.192163,217.01959 83.189788,217.54751 81.236488,218.24877 79.278827,218.92388 77.876572,219.40745 76.475147,219.89795 75.10274,220.46068 74.254261,220.80858 73.502581,221.45156 72.597086,221.59657 71.679059,221.7436 70.715001,221.56197 69.824165,221.29589 68.745662,220.97375 67.348814,220.75132 66.817385,219.75909 66.542166,219.24523 66.607604,218.43598 67.017835,218.02184 67.965606,217.06505 69.712952,217.81622 71.026879,217.52072 Z"
       id="path4741"
       inkscape:connector-curvature="0"
       sodipodi:nodetypes="aaaaaaaaaaaaaaaaaa" />
    <path
       style="fill:#000000;stroke:none;stroke-width:0.26458335px;stroke-linecap:butt;stroke-linejoin:miter;stroke-opacity:1;fill-opacity:1"
       d="M 66.149211,232.58803 C 68.74665,232.13787 71.252627,231.2556 73.833209,230.71715 76.245559,230.2138 78.690161,229.87963 81.116303,229.44762 84.058194,228.92378 86.98831,228.33295 89.936199,227.84399 93.268909,227.2912 96.621939,226.86773 99.958806,226.34061 102.57912,225.92668 105.18876,225.44666 107.80985,225.03766 109.25545,224.81209 110.69145,224.33544 112.15298,224.4029 113.5722,224.46841 114.98919,224.84692 116.29566,225.40516 117.41488,225.88339 118.55569,226.47102 119.36925,227.37628 120.15156,228.24676 121.44202,229.45972 120.93946,230.51669 120.30253,231.85627 118.07918,231.4492 116.59633,231.48555 115.21814,231.51934 113.88403,230.98703 112.52047,230.78396 110.93293,230.54753 109.34596,230.26513 107.74303,230.18261 105.75178,230.0801 103.75538,230.24224 101.76287,230.31624 99.188708,230.41184 96.610952,230.48534 94.045467,230.71715 91.96543,230.90509 89.886864,231.14861 87.831451,231.51896 86.087473,231.83319 84.375797,232.30631 82.653102,232.72167 80.019537,233.35665 77.352729,233.8795 74.768653,234.69278 73.131228,235.20812 71.530484,235.84221 69.957801,236.53026 68.716734,237.07322 67.64832,238.08804 66.316254,238.33433 65.50229,238.48483 64.612973,238.40687 63.84401,238.10047 63.239722,237.85969 62.732999,237.38954 62.30721,236.89776 61.618259,236.10203 60.483221,235.17972 60.737001,234.15824 60.918019,233.42962 61.931981,233.20154 62.641297,232.95553 63.752088,232.57027 64.990776,232.7888 66.149211,232.58803 Z"
       id="path4743"
       inkscape:connector-curvature="0"
       sodipodi:nodetypes="aaaaaaaaaaaaaaaaaaaaaaaaa" />
    <path
       style="fill:#000000;fill-opacity:1;stroke:none;stroke-width:0.26458335px;stroke-linecap:butt;stroke-linejoin:miter;stroke-opacity:1"
       d="M 77.40794,198.47775 C 76.945891,199.32675 78.237479,200.22482 78.695829,201.07583 79.161834,201.94104 79.74918,202.73985 80.180862,203.62269 80.955712,205.20736 81.713941,206.82506 82.151973,208.53377 82.479705,209.81221 82.559649,211.14647 82.626817,212.46454 82.695035,213.80319 82.523372,215.14497 82.552878,216.48504 82.596108,218.44837 82.793009,220.40531 82.920372,222.36498 83.038365,224.18048 83.251607,225.99162 83.28787,227.81059 83.312074,229.02466 83.17702,230.23787 83.187644,231.45214 83.209296,233.92679 83.391015,236.39757 83.521729,238.86887 83.647837,241.25308 83.848548,243.6332 83.956043,246.01833 84.02426,247.53197 83.988611,249.0501 84.089676,250.56191 84.189755,252.05894 84.121663,253.60296 84.5574,255.03867 84.75849,255.70125 84.836505,256.81536 85.52625,256.87615 86.285143,256.94303 86.633477,255.77409 86.929415,255.07208 87.658662,253.3422 87.559628,251.36504 87.697816,249.49283 87.932274,246.31634 87.73133,243.12238 87.798042,239.93794 87.842614,237.81034 88.036502,235.68461 87.998494,233.55688 87.974772,232.22889 87.798027,230.90777 87.731225,229.58125 87.630911,227.58927 87.576496,225.59507 87.530774,223.60109 87.489415,221.79736 87.407987,219.99222 87.463955,218.18888 87.519727,216.39184 87.738245,214.60353 87.86486,212.81009 87.95918,211.4741 88.12339,210.14033 88.132127,208.80105 88.140276,207.55203 88.179258,206.28353 87.931677,205.05927 87.697071,203.89917 87.468147,202.64279 86.728964,201.7184 85.797089,200.55304 84.297885,199.96093 82.953783,199.31298 81.935453,198.82208 80.87036,198.33307 79.746547,198.21048 78.966564,198.1254 77.782999,197.78859 77.40794,198.47775 Z"
       id="path4745"
       inkscape:connector-curvature="0"
       sodipodi:nodetypes="aaaaaaaaaaaaaaaaaaaaaaaaaaaa" />
  </g>
</svg>
