<?xml version="1.0" standalone="no"?>
<!DOCTYPE svg PUBLIC "-//W3C//DTD SVG 1.1//EN" "http://www.w3.org/Graphics/SVG/1.1/DTD/svg11.dtd" >
<svg xmlns="http://www.w3.org/2000/svg" xmlns:xlink="http://www.w3.org/1999/xlink" version="1.1" viewBox="0 0 256 256">
  <g transform="matrix(1 0 0 -1 0 204)">
   <path fill="currentColor"
d="M63 180q-3 4 2 2q10 -10 18 -19v-1q2 -3 -1 -5q-7 -9 -13 -21q-5 -24 -8 -52q-2 -30 -2 -53q-2 -18 8 -26q17 26 28 67q8 28 7 46q-2 6 7 6q3 -1 7 4l1 -1q-5 -5 -6 -5q-3 -3 -1 -6q4 -4 0 -6q-3 -2 -5 -17q8 2 18 6q-1 1 4 4l2 1q9 7 13 12q1 1 0 2t-2 1q-9 -6 -15 -5
q-2 0 -2 1t2 2q11 3 21 8q3 3 13 0q2 -2 2 -4q0 -1 -3 -1q-4 -1 -28 -20q23 3 27 8q1 3 14 0q2 -1 1 -3t-3 -2q-12 0 -35 -6l1 -1q8 -5 11 -8q4 -4 1 -7q-5 -6 -4 -23q5 5 11 12l11 11q2 1 1 -1q-14 -19 -24 -29q-1 -14 -1 -23q0 -19 -1 -30q0 -5 2 -10v-2q1 -3 0 -6
q-1 -1 -2 -1t-1 1q-1 3 -5 10q-2 3 -2 4q-2 6 3 6q2 -1 2 0q1 24 2 47q-32 -36 -46 -42l-3 -1q-1 0 0 4q0 7 3 5t22 16q-4 1 -3 12v32q0 5 3 8q8 5 16 15q-11 -3 -19 -7q-5 -2 -8 -1q-16 -60 -34 -86q8 -11 9 -14q1 -4 -4 -4q-6 -1 -9 4q-7 12 -15 18q-7 2 -3 10q1 5 8 7
q-2 19 -1 53q1 30 4 49q-32 -48 -47 -63q-6 -3 -2 2q28 40 54 92q9 12 -1 24zM199 197q4 3 8 0q1 -2 4 -4q3 -3 5 -4q3 -4 -1 -5q-10 -1 -21 -12q2 -1 4 -1q4 -1 6 -1q1 -3 -1 -4q-18 -1 -39 -9q-2 -1 -3 0q0 1 1 3t5 4q-1 0 -1 1q-3 4 -3 9q-14 -10 -33 -18q-6 -2 -11 -6
q-4 -5 -8 1q-4 5 -7 14q-1 6 -6 17q-2 3 2 1q2 -6 8 -10q1 -2 3 0q8 8 19 12q3 1 4 2q2 2 6 1q2 -1 7 -5q1 -2 1 -3h-2q-6 -2 -16 -18q14 3 31 15q-1 0 -1 2q-1 3 -1 8q1 3 4 0q0 -4 4 -1q12 7 22 9q5 0 10 2zM197 84q1 0 3 -1q1 -2 3 -1q3 -1 1 -4q-3 -2 -4 -10
q-2 -4 -1 -3q-6 -19 -12 -32q12 -27 22 -35q2 -4 12 -4q19 1 30 -5q2 -1 2 -2t-2 -2q-2 1 -5 1q-15 2 -25 -1q-8 -2 -14 8q-7 8 -15 21q-5 8 -7 13q-16 -23 -30 -36q-6 -2 -2 2q19 19 29 40q-5 9 -10 15q-3 4 -11 -3q-3 -2 -3 -1q-1 1 1 4q9 9 13 9q6 0 13 -17q8 18 10 32
q1 6 0 9t2 3zM118 32q10 10 21 22q0 23 -1 36q-1 4 -6 4q-2 -2 -3 -4q-8 -7 -13 -10q-3 -2 -2 -6q-1 -21 0 -30t4 -12zM210 109q0 5 6 5q2 -1 4 -1q6 -1 9 -2q1 -5 -3 -7q-7 1 -17 -4q-9 -6 -31 -13h-1q-5 -15 -14 -28q-2 -4 -4 -3q-1 1 1 5q16 27 20 62v16q-1 3 0 3l3 -2
q5 -8 4 -15q-3 -20 -9 -36q11 8 23 13h2q6 3 7 7zM211 162q3 -2 11 -6q1 -1 0 -3q-1 -1 -2 0q-15 2 -54 -7q-16 -3 -43 -16q-6 -2 0 1q7 4 14 7q4 3 -1 2q-15 -6 -22 -7q-8 -4 -21 2q-4 1 1 2q9 -2 25 3q9 1 26 5q22 5 40 9q15 3 20 7q2 2 6 1zM199 194q-13 -2 -29 -10
q-4 -3 -2 -6q1 -5 1 -7q2 -4 2 -6q12 2 30 26v2q-1 0 -2 1zM134 179q-1 3 -3 2q-6 -4 -12 -5q-5 -1 -8 -5q1 -9 4 -14l6 2q3 0 6 2q1 7 7 18zM130 58q2 -1 1 -3l-8 -8q-4 -4 -2 0q1 2 1 3q-2 0 -1 3q2 6 9 5zM132 77q2 1 1 -1q-1 -3 -2 -4q-4 -2 -7 -6q-3 -5 -2 0q0 1 -1 2
q-2 1 0 3q4 4 11 6z" />
  </g>

</svg>
